%TF.GenerationSoftware,KiCad,Pcbnew,10.0.1*%
%TF.CreationDate,2026-06-22T12:15:34+02:00*%
%TF.ProjectId,beelight-piggy-base,6265656c-6967-4687-942d-70696767792d,rev?*%
%TF.SameCoordinates,Original*%
%TF.FileFunction,Soldermask,Bot*%
%TF.FilePolarity,Negative*%
%FSLAX46Y46*%
G04 Gerber Fmt 4.6, Leading zero omitted, Abs format (unit mm)*
G04 Created by KiCad (PCBNEW 10.0.1) date 2026-06-22 12:15:34*
%MOMM*%
%LPD*%
G01*
G04 APERTURE LIST*
G04 Aperture macros list*
%AMRoundRect*
0 Rectangle with rounded corners*
0 $1 Rounding radius*
0 $2 $3 $4 $5 $6 $7 $8 $9 X,Y pos of 4 corners*
0 Add a 4 corners polygon primitive as box body*
4,1,4,$2,$3,$4,$5,$6,$7,$8,$9,$2,$3,0*
0 Add four circle primitives for the rounded corners*
1,1,$1+$1,$2,$3*
1,1,$1+$1,$4,$5*
1,1,$1+$1,$6,$7*
1,1,$1+$1,$8,$9*
0 Add four rect primitives between the rounded corners*
20,1,$1+$1,$2,$3,$4,$5,0*
20,1,$1+$1,$4,$5,$6,$7,0*
20,1,$1+$1,$6,$7,$8,$9,0*
20,1,$1+$1,$8,$9,$2,$3,0*%
G04 Aperture macros list end*
%ADD10C,0.200000*%
%ADD11C,0.199761*%
%ADD12C,1.700000*%
%ADD13R,4.000000X2.000000*%
%ADD14R,1.700000X1.700000*%
%ADD15O,1.100000X1.700000*%
%ADD16RoundRect,0.250000X-0.671751X1.626346X-1.626346X0.671751X0.671751X-1.626346X1.626346X-0.671751X0*%
%ADD17RoundRect,0.250000X1.856155X0.477297X0.477297X1.856155X-1.856155X-0.477297X-0.477297X-1.856155X0*%
%ADD18RoundRect,0.250000X-0.262500X-0.450000X0.262500X-0.450000X0.262500X0.450000X-0.262500X0.450000X0*%
%ADD19RoundRect,0.200000X-0.424264X0.707107X-0.707107X0.424264X0.424264X-0.707107X0.707107X-0.424264X0*%
G04 APERTURE END LIST*
D10*
X127505416Y-89932500D02*
X129015418Y-89932500D01*
X129015418Y-93992500D01*
X127505416Y-93992500D01*
X127505416Y-89932500D01*
G36*
X127505416Y-89932500D02*
G01*
X129015418Y-89932500D01*
X129015418Y-93992500D01*
X127505416Y-93992500D01*
X127505416Y-89932500D01*
G37*
X127595416Y-98902500D02*
X128870417Y-98902500D01*
X128870417Y-102962500D01*
X127595416Y-102962500D01*
X127595416Y-98902500D01*
G36*
X127595416Y-98902500D02*
G01*
X128870417Y-98902500D01*
X128870417Y-102962500D01*
X127595416Y-102962500D01*
X127595416Y-98902500D01*
G37*
X138655418Y-73492498D02*
X135784565Y-76363349D01*
X135294565Y-75873351D01*
X138165418Y-73002500D01*
X138655418Y-73492498D01*
G36*
X138655418Y-73492498D02*
G01*
X135784565Y-76363349D01*
X135294565Y-75873351D01*
X138165418Y-73002500D01*
X138655418Y-73492498D01*
G37*
D11*
X147256094Y-70278882D02*
X143339126Y-71328431D01*
X142971401Y-69956076D01*
X146888372Y-68906528D01*
X147256094Y-70278882D01*
G36*
X147256094Y-70278882D02*
G01*
X143339126Y-71328431D01*
X142971401Y-69956076D01*
X146888372Y-68906528D01*
X147256094Y-70278882D01*
G37*
D10*
X180907918Y-86622500D02*
X182375418Y-86622500D01*
X182375418Y-90682500D01*
X180907918Y-90682500D01*
X180907918Y-86622500D01*
G36*
X180907918Y-86622500D02*
G01*
X182375418Y-86622500D01*
X182375418Y-90682500D01*
X180907918Y-90682500D01*
X180907918Y-86622500D01*
G37*
X180957918Y-98632500D02*
X182695417Y-98632500D01*
X182695417Y-102692500D01*
X180957918Y-102692500D01*
X180957918Y-98632500D01*
G36*
X180957918Y-98632500D02*
G01*
X182695417Y-98632500D01*
X182695417Y-102692500D01*
X180957918Y-102692500D01*
X180957918Y-98632500D01*
G37*
X181707918Y-92627500D02*
X182745416Y-92627500D01*
X182745416Y-96687500D01*
X181707918Y-96687500D01*
X181707918Y-92627500D01*
G36*
X181707918Y-92627500D02*
G01*
X182745416Y-92627500D01*
X182745416Y-96687500D01*
X181707918Y-96687500D01*
X181707918Y-92627500D01*
G37*
D12*
%TO.C,U4*%
X157392282Y-106825181D03*
X158682282Y-106825181D03*
D13*
X158022282Y-104335181D03*
X158032282Y-101755181D03*
X157912282Y-96615181D03*
X157912282Y-94070000D03*
X157932282Y-86315181D03*
D12*
X151900000Y-83910000D03*
X153240000Y-83910000D03*
X151900000Y-86450000D03*
X153240000Y-86450000D03*
X151900000Y-88990000D03*
X153240000Y-88989999D03*
X151900000Y-91530000D03*
X153240000Y-91530000D03*
X151900000Y-94070000D03*
X153240000Y-94070000D03*
X151900000Y-96610000D03*
X153240000Y-96610000D03*
X151900000Y-99150000D03*
X153240000Y-99150000D03*
X151900000Y-104230000D03*
X153240000Y-104230000D03*
D14*
X151900000Y-106770000D03*
X153240000Y-106770000D03*
%TD*%
D15*
%TO.C,J10*%
X159475417Y-72542500D03*
X159475417Y-68742500D03*
X150835417Y-72542500D03*
X150835417Y-68742500D03*
%TD*%
D16*
%TO.C,J3*%
X147404600Y-74480842D03*
X144187264Y-77698178D03*
%TD*%
D17*
%TO.C,J11*%
X166985646Y-78692729D03*
X164475417Y-76182500D03*
X161965188Y-73672271D03*
%TD*%
D18*
%TO.C,TH1*%
X154120417Y-74912500D03*
X155945417Y-74912500D03*
%TD*%
D19*
%TO.C,SW1*%
X139330341Y-75997576D03*
X136360493Y-78967424D03*
%TD*%
M02*
