M48
; DRILL file KiCad 10.0.1 date 2026-06-22T12:15:34
; FORMAT={-:-/ absolute / inch / decimal}
; #@! TF.CreationDate,2026-06-22T12:15:34+02:00
; #@! TF.GenerationSoftware,Kicad,Pcbnew,10.0.1
; #@! TF.FileFunction,Plated,1,2,PTH
FMAT,2
INCH
; #@! TA.AperFunction,Plated,PTH,ViaDrill
T1C0.0118
; #@! TA.AperFunction,Plated,PTH,ViaDrill
T2C0.0177
; #@! TA.AperFunction,Plated,PTH,ComponentDrill
T3C0.0236
; #@! TA.AperFunction,Plated,PTH,ComponentDrill
T4C0.0394
; #@! TA.AperFunction,Plated,PTH,CastelletedDrill
T5C0.0394
; #@! TA.AperFunction,Plated,PTH,CastelletedDrill
T6C0.0472
; #@! TA.AperFunction,Plated,PTH,CastelletedDrill
T7C0.0591
%
G90
G05
T1
X5.0581Y-3.908
X5.0585Y-3.6851
X5.0593Y-3.5513
X5.0801Y-3.993
X5.1423Y-3.5127
X5.1542Y-3.9048
X5.1699Y-3.5555
X5.2297Y-3.4458
X5.2435Y-3.3395
X5.2644Y-3.7761
X5.2652Y-3.9942
X5.2821Y-3.7454
X5.3451Y-3.4036
X5.3464Y-3.1449
X5.3479Y-3.4454
X5.3519Y-3.7971
X5.3814Y-3.2519
X5.3825Y-3.8297
X5.4014Y-3.7442
X5.4014Y-3.7796
X5.4034Y-3.2293
X5.404Y-3.2744
X5.426Y-3.2074
X5.426Y-3.2519
X5.4349Y-4.4363
X5.4482Y-3.2296
X5.4691Y-4.1662
X5.4727Y-3.0592
X5.491Y-4.1437
X5.4916Y-4.1888
X5.5136Y-4.1217
X5.5136Y-4.1662
X5.5359Y-4.144
X5.5514Y-3.1871
X5.603Y-3.4383
X5.6097Y-3.1576
X5.614Y-3.3493
X5.6274Y-3.2115
X5.6288Y-3.6107
X5.6604Y-2.7914
X5.6782Y-3.5387
X5.6947Y-3.3332
X5.7081Y-3.5111
X5.7097Y-4.3194
X5.7097Y-4.3509
X5.7183Y-3.2985
X5.7254Y-3.6119
X5.7412Y-4.3194
X5.7412Y-4.3513
X5.7727Y-4.319
X5.7727Y-4.3509
X5.7805Y-2.7588
X5.8215Y-4.0521
X5.823Y-3.5245
X5.8479Y-2.7399
X5.8559Y-3.2669
X5.8786Y-4.4473
X5.8797Y-3.6906
X5.9081Y-3.7485
X6.0333Y-2.7162
X6.0392Y-3.1013
X6.0396Y-3.0698
X6.0396Y-3.1328
X6.0711Y-3.0698
X6.0711Y-3.1013
X6.0715Y-3.1328
X6.0715Y-2.7162
X6.1065Y-2.7151
X6.1416Y-2.7147
X6.1447Y-3.2466
X6.1459Y-3.1021
X6.1463Y-3.0706
X6.1463Y-3.1336
X6.1754Y-2.7139
X6.1778Y-3.0706
X6.1778Y-3.1021
X6.1782Y-3.1336
X6.2069Y-3.3009
X6.262Y-3.0623
X6.2912Y-3.634
X6.3585Y-2.7399
X6.3597Y-2.8591
X6.4028Y-3.3745
X6.4034Y-2.7796
X6.4223Y-4.3194
X6.4223Y-4.3509
X6.4328Y-3.3213
X6.4392Y-2.8214
X6.4443Y-4.4363
X6.4538Y-4.3194
X6.4538Y-4.3513
X6.4695Y-3.9737
X6.4853Y-4.319
X6.4853Y-4.3509
X6.5112Y-3.3166
X6.5422Y-3.4486
X6.559Y-2.8324
X6.5732Y-3.0005
X6.5778Y-3.9588
X6.5797Y-4.0438
X6.5797Y-4.0753
X6.5849Y-3.5107
X6.5867Y-3.3152
X6.6085Y-3.6564
X6.6112Y-4.0438
X6.6112Y-4.0757
X6.6171Y-3.1682
X6.6427Y-4.0434
X6.6427Y-4.0753
X6.6503Y-3.0378
X6.7004Y-2.9738
X6.7018Y-4.2796
X6.7957Y-3.8908
X6.8085Y-3.7741
X6.8308Y-3.2002
X6.8311Y-3.1554
X6.8526Y-3.5359
X6.8534Y-3.1777
X6.8534Y-3.2222
X6.8577Y-3.6686
X6.8734Y-3.1997
X6.927Y-4.0639
X6.9742Y-3.6288
X6.9919Y-3.9572
X7.001Y-3.9985
X7.0187Y-3.5903
X7.0337Y-3.9241
X7.0482Y-3.5666
X7.0569Y-3.395
X7.1278Y-3.8521
X7.1297Y-3.434
X7.1368Y-4.0328
X7.1451Y-3.5603
X7.1534Y-3.8934
X7.1616Y-3.7966
X7.1628Y-3.656
T2
X5.0368Y-3.6178
X5.051Y-3.9753
X5.3919Y-2.9438
X5.7128Y-2.7473
X7.1616Y-3.4918
X7.1758Y-3.9584
X7.1947Y-3.7292
T4
X5.9803Y-4.2035
X6.0331Y-4.2035
T5
X5.9803Y-3.3035
X5.9803Y-3.4035
X5.9803Y-3.5035
X5.9803Y-3.6035
X5.9803Y-3.7035
X5.9803Y-3.8035
X5.9803Y-3.9035
X5.9803Y-4.1035
X6.0331Y-3.3035
X6.0331Y-3.4035
X6.0331Y-3.5035
X6.0331Y-3.6035
X6.0331Y-3.7035
X6.0331Y-3.8035
X6.0331Y-3.9035
X6.0331Y-4.1035
X6.1965Y-4.2057
X6.2473Y-4.2057
T3
G00X5.9384Y-2.7182
M15
G01X5.9384Y-2.6946
M16
G05
G00X5.9384Y-2.8678
M15
G01X5.9384Y-2.8442
M16
G05
G00X6.2786Y-2.7182
M15
G01X6.2786Y-2.6946
M16
G05
G00X6.2786Y-2.8678
M15
G01X6.2786Y-2.8442
M16
G05
T5
G00X6.2572Y-3.3982
M15
G01X6.1784Y-3.3982
M16
G05
T6
G00X6.2525Y-3.7035
M15
G01X6.1816Y-3.7035
M16
G05
G00X6.2568Y-4.1077
M15
G01X6.1859Y-4.1077
M16
G05
G00X6.2572Y-4.0061
M15
G01X6.1863Y-4.0061
M16
G05
T7
G00X6.2465Y-3.8037
M15
G01X6.1875Y-3.8037
M16
G05
M30
