%TF.GenerationSoftware,KiCad,Pcbnew,10.0.1*%
%TF.CreationDate,2026-06-22T12:15:34+02:00*%
%TF.ProjectId,beelight-piggy-base,6265656c-6967-4687-942d-70696767792d,rev?*%
%TF.SameCoordinates,Original*%
%TF.FileFunction,Profile,NP*%
%FSLAX46Y46*%
G04 Gerber Fmt 4.6, Leading zero omitted, Abs format (unit mm)*
G04 Created by KiCad (PCBNEW 10.0.1) date 2026-06-22 12:15:34*
%MOMM*%
%LPD*%
G01*
G04 APERTURE LIST*
%TA.AperFunction,Profile*%
%ADD10C,0.070555*%
%TD*%
%TA.AperFunction,Profile*%
%ADD11C,0.050000*%
%TD*%
G04 APERTURE END LIST*
D10*
X156635417Y-67882500D02*
X158033423Y-67988698D01*
X159411029Y-68163588D01*
X160766512Y-68405443D01*
X162098146Y-68712540D01*
X163404206Y-69083153D01*
X164682968Y-69515559D01*
X165932708Y-70008032D01*
X167151700Y-70558848D01*
X168338220Y-71166281D01*
X169490543Y-71828608D01*
X170606944Y-72544104D01*
X171685700Y-73311043D01*
X172725084Y-74127702D01*
X173723372Y-74992355D01*
X174678840Y-75903278D01*
X175589763Y-76858746D01*
X176454416Y-77857034D01*
X177271075Y-78896419D01*
X178038014Y-79975174D01*
X178753510Y-81091575D01*
X179415837Y-82243898D01*
X180023270Y-83430418D01*
X180574086Y-84649410D01*
X181066559Y-85899150D01*
X181498965Y-87177912D01*
X181869579Y-88483972D01*
X182176675Y-89815606D01*
X182418531Y-91171089D01*
X182593420Y-92548695D01*
X182699618Y-93946701D01*
X182735401Y-95363382D01*
X182699618Y-96780062D01*
X182593420Y-98178068D01*
X182418530Y-99555674D01*
X182176675Y-100911157D01*
X181869578Y-102242791D01*
X181498964Y-103548851D01*
X181066559Y-104827613D01*
X180574085Y-106077353D01*
X180023270Y-107296345D01*
X179415836Y-108482865D01*
X178753509Y-109635188D01*
X178038013Y-110751590D01*
X177271073Y-111830345D01*
X176454414Y-112869729D01*
X175589761Y-113868018D01*
X174678838Y-114823486D01*
X173723370Y-115734409D01*
X172725081Y-116599062D01*
X171685697Y-117415721D01*
X170606942Y-118182661D01*
X169490540Y-118898157D01*
X168338217Y-119560484D01*
X167151697Y-120167918D01*
X165932705Y-120718734D01*
X164682965Y-121211207D01*
X163404203Y-121643613D01*
X162098142Y-122014226D01*
X160766509Y-122321323D01*
X159411026Y-122563179D01*
X158033420Y-122738068D01*
X156635414Y-122844266D01*
X155218734Y-122880049D01*
X153838198Y-122846399D01*
X152475749Y-122746448D01*
X151132937Y-122581695D01*
X149811312Y-122353638D01*
X148512425Y-122063777D01*
X147237826Y-121713609D01*
X145989065Y-121304633D01*
X144767692Y-120838348D01*
X143575258Y-120316252D01*
X142413314Y-119739845D01*
X141283409Y-119110624D01*
X140187093Y-118430088D01*
X139125917Y-117699736D01*
X138101432Y-116921067D01*
X137115187Y-116095579D01*
X136168734Y-115224771D01*
X136556790Y-113672550D01*
X136803733Y-112473107D01*
X131794288Y-107463667D01*
X130489011Y-107463667D01*
X130006421Y-106420354D01*
X129565173Y-105354717D01*
X129166920Y-104267582D01*
X128984433Y-103716211D01*
X128813315Y-103159777D01*
X128653773Y-102598381D01*
X128506013Y-102032127D01*
X128370242Y-101461120D01*
X128246666Y-100885461D01*
X128135493Y-100305255D01*
X128036929Y-99720605D01*
X127951180Y-99131614D01*
X127878454Y-98538385D01*
X128090121Y-98538385D01*
X128195312Y-98535719D01*
X128299134Y-98527808D01*
X128401458Y-98514782D01*
X128502154Y-98496768D01*
X128601093Y-98473897D01*
X128698145Y-98446298D01*
X128793183Y-98414099D01*
X128886075Y-98377430D01*
X128976694Y-98336421D01*
X129064910Y-98291199D01*
X129150594Y-98241896D01*
X129233616Y-98188639D01*
X129313848Y-98131558D01*
X129391161Y-98070782D01*
X129465424Y-98006441D01*
X129536509Y-97938663D01*
X129604287Y-97867578D01*
X129668629Y-97793314D01*
X129729404Y-97716002D01*
X129786485Y-97635770D01*
X129839742Y-97552748D01*
X129889046Y-97467064D01*
X129934267Y-97378848D01*
X129975276Y-97288229D01*
X130011945Y-97195336D01*
X130044144Y-97100299D01*
X130071743Y-97003246D01*
X130094615Y-96904307D01*
X130112628Y-96803611D01*
X130125655Y-96701287D01*
X130133566Y-96597465D01*
X130136231Y-96492273D01*
X130133566Y-96387081D01*
X130125655Y-96283259D01*
X130112628Y-96180936D01*
X130094615Y-96080240D01*
X130071743Y-95981302D01*
X130044144Y-95884249D01*
X130011945Y-95789212D01*
X129975276Y-95696319D01*
X129934267Y-95605700D01*
X129889046Y-95517484D01*
X129839742Y-95431800D01*
X129786485Y-95348778D01*
X129729404Y-95268546D01*
X129668629Y-95191233D01*
X129604287Y-95116970D01*
X129536509Y-95045885D01*
X129465424Y-94978107D01*
X129391161Y-94913765D01*
X129313848Y-94852989D01*
X129233616Y-94795908D01*
X129150594Y-94742651D01*
X129064910Y-94693347D01*
X128976694Y-94648126D01*
X128886075Y-94607116D01*
X128793183Y-94570447D01*
X128698145Y-94538249D01*
X128601093Y-94510649D01*
X128502154Y-94487778D01*
X128401458Y-94469764D01*
X128299134Y-94456737D01*
X128195312Y-94448826D01*
X128090121Y-94446161D01*
X127702065Y-94481444D01*
X127803300Y-92834447D01*
X127999308Y-91215768D01*
X128287301Y-89628095D01*
X128664488Y-88074116D01*
X129128077Y-86556516D01*
X129675279Y-85077985D01*
X130303302Y-83641207D01*
X131009357Y-82248872D01*
X131790653Y-80903666D01*
X132644399Y-79608275D01*
X133567805Y-78365388D01*
X134558081Y-77177692D01*
X135612435Y-76047873D01*
X136728077Y-74978619D01*
X137902217Y-73972617D01*
X139132064Y-73032554D01*
X139187961Y-73181718D01*
X139250163Y-73324630D01*
X139319185Y-73460823D01*
X139395546Y-73589834D01*
X139479761Y-73711196D01*
X139572348Y-73824445D01*
X139673823Y-73929116D01*
X139728056Y-73978089D01*
X139784704Y-74024743D01*
X139843832Y-74069020D01*
X139905506Y-74110862D01*
X139969789Y-74150210D01*
X140036747Y-74187007D01*
X140106443Y-74221194D01*
X140178943Y-74252713D01*
X140254311Y-74281507D01*
X140332612Y-74307516D01*
X140413910Y-74330683D01*
X140498269Y-74350950D01*
X140585756Y-74368258D01*
X140676433Y-74382550D01*
X140770366Y-74393767D01*
X140867619Y-74401851D01*
X140968256Y-74406744D01*
X141072344Y-74408388D01*
X141177535Y-74405723D01*
X141281358Y-74397812D01*
X141383681Y-74384785D01*
X141484377Y-74366771D01*
X141583316Y-74343900D01*
X141680369Y-74316301D01*
X141775406Y-74284102D01*
X141868299Y-74247433D01*
X141958918Y-74206424D01*
X142047134Y-74161202D01*
X142132817Y-74111899D01*
X142215840Y-74058642D01*
X142296072Y-74001561D01*
X142373384Y-73940785D01*
X142447648Y-73876443D01*
X142518733Y-73808665D01*
X142586511Y-73737580D01*
X142650852Y-73663317D01*
X142711628Y-73586004D01*
X142768709Y-73505772D01*
X142821966Y-73422750D01*
X142871270Y-73337066D01*
X142916491Y-73248850D01*
X142957501Y-73158231D01*
X142994169Y-73065338D01*
X143026368Y-72970301D01*
X143053968Y-72873248D01*
X143076839Y-72774310D01*
X143094853Y-72673614D01*
X143107879Y-72571290D01*
X143115790Y-72467468D01*
X143118456Y-72362276D01*
X143115993Y-72256891D01*
X143108672Y-72152539D01*
X143096597Y-72049428D01*
X143079871Y-71947763D01*
X143058597Y-71847752D01*
X143032879Y-71749601D01*
X143002821Y-71653518D01*
X142968525Y-71559708D01*
X142930095Y-71468378D01*
X142887634Y-71379736D01*
X142841246Y-71293987D01*
X142791033Y-71211340D01*
X142737100Y-71131999D01*
X142679550Y-71056172D01*
X142618485Y-70984066D01*
X142554010Y-70915888D01*
X143267903Y-70561672D01*
X143993784Y-70226938D01*
X144731241Y-69912151D01*
X145479860Y-69617776D01*
X146239228Y-69344279D01*
X147008931Y-69092124D01*
X147788556Y-68861776D01*
X148577689Y-68653701D01*
X149375918Y-68468363D01*
X150182828Y-68306228D01*
X150998006Y-68167761D01*
X151821039Y-68053427D01*
X152651514Y-67963691D01*
X153489017Y-67899018D01*
X154333134Y-67859873D01*
X155183453Y-67846721D01*
X155218736Y-67846717D01*
X156635417Y-67882500D01*
D11*
X135355417Y-104332500D02*
G75*
G02*
X131392759Y-104332500I-1981329J0D01*
G01*
X131392759Y-104332500D02*
G75*
G02*
X135355417Y-104332500I1981329J0D01*
G01*
X138505417Y-91672500D02*
X138505417Y-91672500D01*
G75*
G02*
X139895417Y-90282500I1389983J0D01*
G01*
X140283380Y-90282500D01*
G75*
G02*
X141673380Y-91672500I20J-1390000D01*
G01*
X141673380Y-97060975D01*
G75*
G02*
X140283380Y-98450975I-1389980J-25D01*
G01*
X139895417Y-98450975D01*
G75*
G02*
X138505417Y-97060975I-17J1389975D01*
G01*
X138505417Y-91672500D01*
X143575417Y-115992500D02*
G75*
G02*
X139575417Y-115992500I-2000000J0D01*
G01*
X139575417Y-115992500D02*
G75*
G02*
X143575417Y-115992500I2000000J0D01*
G01*
X155235417Y-95352500D02*
X157055417Y-95352500D01*
X157055417Y-97892500D01*
X155235417Y-97892500D01*
X155235417Y-95352500D01*
X171335417Y-115992500D02*
G75*
G02*
X167335417Y-115992500I-2000000J0D01*
G01*
X167335417Y-115992500D02*
G75*
G02*
X171335417Y-115992500I2000000J0D01*
G01*
X171935640Y-95282723D02*
G75*
G02*
X167975194Y-95282723I-1980223J0D01*
G01*
X167975194Y-95282723D02*
G75*
G02*
X171935640Y-95282723I1980223J0D01*
G01*
%TO.C,U4*%
X151890000Y-82590000D02*
X153290000Y-82590000D01*
X153290000Y-100315180D01*
X151890000Y-100315180D01*
X151890000Y-82590000D01*
X151912282Y-102975181D02*
X153212282Y-102975181D01*
X153212282Y-108085181D01*
X151912282Y-108085181D01*
X151912282Y-102975181D01*
X155242282Y-100320000D02*
X157232282Y-100320000D01*
X157232282Y-108035180D01*
X155242282Y-108035180D01*
X155242282Y-100320000D01*
%TD*%
M02*
