%TF.GenerationSoftware,KiCad,Pcbnew,10.0.1*%
%TF.CreationDate,2026-06-21T12:29:43+02:00*%
%TF.ProjectId,beelight-piggy-base,6265656c-6967-4687-942d-70696767792d,rev?*%
%TF.SameCoordinates,Original*%
%TF.FileFunction,Soldermask,Top*%
%TF.FilePolarity,Negative*%
%FSLAX46Y46*%
G04 Gerber Fmt 4.6, Leading zero omitted, Abs format (unit mm)*
G04 Created by KiCad (PCBNEW 10.0.1) date 2026-06-21 12:29:43*
%MOMM*%
%LPD*%
G01*
G04 APERTURE LIST*
G04 Aperture macros list*
%AMRoundRect*
0 Rectangle with rounded corners*
0 $1 Rounding radius*
0 $2 $3 $4 $5 $6 $7 $8 $9 X,Y pos of 4 corners*
0 Add a 4 corners polygon primitive as box body*
4,1,4,$2,$3,$4,$5,$6,$7,$8,$9,$2,$3,0*
0 Add four circle primitives for the rounded corners*
1,1,$1+$1,$2,$3*
1,1,$1+$1,$4,$5*
1,1,$1+$1,$6,$7*
1,1,$1+$1,$8,$9*
0 Add four rect primitives between the rounded corners*
20,1,$1+$1,$2,$3,$4,$5,0*
20,1,$1+$1,$4,$5,$6,$7,0*
20,1,$1+$1,$6,$7,$8,$9,0*
20,1,$1+$1,$8,$9,$2,$3,0*%
%AMRotRect*
0 Rectangle, with rotation*
0 The origin of the aperture is its center*
0 $1 length*
0 $2 width*
0 $3 Rotation angle, in degrees counterclockwise*
0 Add horizontal line*
21,1,$1,$2,0,0,$3*%
G04 Aperture macros list end*
%ADD10RoundRect,0.140000X-0.170000X0.140000X-0.170000X-0.140000X0.170000X-0.140000X0.170000X0.140000X0*%
%ADD11RoundRect,0.135000X-0.185000X0.135000X-0.185000X-0.135000X0.185000X-0.135000X0.185000X0.135000X0*%
%ADD12RoundRect,0.135000X0.185000X-0.135000X0.185000X0.135000X-0.185000X0.135000X-0.185000X-0.135000X0*%
%ADD13RoundRect,0.250200X0.649800X0.649800X-0.649800X0.649800X-0.649800X-0.649800X0.649800X-0.649800X0*%
%ADD14C,1.800000*%
%ADD15RoundRect,0.150000X0.388909X-0.601041X0.601041X-0.388909X-0.388909X0.601041X-0.601041X0.388909X0*%
%ADD16RoundRect,0.250000X0.601041X-0.954594X0.954594X-0.601041X-0.601041X0.954594X-0.954594X0.601041X0*%
%ADD17RoundRect,0.150000X-0.601041X-0.388909X-0.388909X-0.601041X0.601041X0.388909X0.388909X0.601041X0*%
%ADD18RoundRect,0.250000X-0.954594X-0.601041X-0.601041X-0.954594X0.954594X0.601041X0.601041X0.954594X0*%
%ADD19R,0.450000X0.650000*%
%ADD20RoundRect,0.135000X0.035355X-0.226274X0.226274X-0.035355X-0.035355X0.226274X-0.226274X0.035355X0*%
%ADD21RoundRect,0.135000X-0.135000X-0.185000X0.135000X-0.185000X0.135000X0.185000X-0.135000X0.185000X0*%
%ADD22RoundRect,0.250000X-0.475000X0.250000X-0.475000X-0.250000X0.475000X-0.250000X0.475000X0.250000X0*%
%ADD23RoundRect,0.150000X0.150000X-0.587500X0.150000X0.587500X-0.150000X0.587500X-0.150000X-0.587500X0*%
%ADD24R,0.650000X0.450000*%
%ADD25RoundRect,0.225000X-0.335876X-0.017678X-0.017678X-0.335876X0.335876X0.017678X0.017678X0.335876X0*%
%ADD26RoundRect,0.140000X0.140000X0.170000X-0.140000X0.170000X-0.140000X-0.170000X0.140000X-0.170000X0*%
%ADD27RoundRect,0.125000X0.176777X0.000000X0.000000X0.176777X-0.176777X0.000000X0.000000X-0.176777X0*%
%ADD28RotRect,0.650000X0.450000X135.000000*%
%ADD29C,0.250000*%
%ADD30R,1.500000X1.000000*%
%ADD31RoundRect,0.150000X0.512500X0.150000X-0.512500X0.150000X-0.512500X-0.150000X0.512500X-0.150000X0*%
%ADD32RoundRect,0.135000X0.135000X0.185000X-0.135000X0.185000X-0.135000X-0.185000X0.135000X-0.185000X0*%
%ADD33C,1.700000*%
%ADD34R,4.000000X2.000000*%
%ADD35R,1.700000X1.700000*%
%ADD36RoundRect,0.125000X0.125000X0.125000X-0.125000X0.125000X-0.125000X-0.125000X0.125000X-0.125000X0*%
%ADD37RotRect,0.650000X0.450000X45.000000*%
%ADD38RoundRect,0.102000X0.175000X-0.450000X0.175000X0.450000X-0.175000X0.450000X-0.175000X-0.450000X0*%
%ADD39RoundRect,0.102000X0.175000X-0.500000X0.175000X0.500000X-0.175000X0.500000X-0.175000X-0.500000X0*%
%ADD40RotRect,0.650000X0.450000X225.000000*%
%ADD41RoundRect,0.250000X0.375000X0.625000X-0.375000X0.625000X-0.375000X-0.625000X0.375000X-0.625000X0*%
%ADD42RoundRect,0.175000X0.175000X0.425000X-0.175000X0.425000X-0.175000X-0.425000X0.175000X-0.425000X0*%
%ADD43RoundRect,0.190000X-0.190000X-0.410000X0.190000X-0.410000X0.190000X0.410000X-0.190000X0.410000X0*%
%ADD44RoundRect,0.200000X-0.200000X-0.400000X0.200000X-0.400000X0.200000X0.400000X-0.200000X0.400000X0*%
%ADD45RoundRect,0.175000X-0.175000X-0.425000X0.175000X-0.425000X0.175000X0.425000X-0.175000X0.425000X0*%
%ADD46RoundRect,0.190000X0.190000X0.410000X-0.190000X0.410000X-0.190000X-0.410000X0.190000X-0.410000X0*%
%ADD47RoundRect,0.200000X0.200000X0.400000X-0.200000X0.400000X-0.200000X-0.400000X0.200000X-0.400000X0*%
%ADD48O,1.100000X1.700000*%
%ADD49RoundRect,0.135000X-0.035355X0.226274X-0.226274X0.035355X0.035355X-0.226274X0.226274X-0.035355X0*%
%ADD50RoundRect,0.225000X0.225000X0.250000X-0.225000X0.250000X-0.225000X-0.250000X0.225000X-0.250000X0*%
%ADD51RoundRect,0.102000X-0.205000X0.140000X-0.205000X-0.140000X0.205000X-0.140000X0.205000X0.140000X0*%
%ADD52RoundRect,0.102000X-0.140000X0.205000X-0.140000X-0.205000X0.140000X-0.205000X0.140000X0.205000X0*%
%ADD53RotRect,0.650000X0.450000X315.000000*%
%ADD54RoundRect,0.250000X-1.007627X-0.548008X-0.548008X-1.007627X1.007627X0.548008X0.548008X1.007627X0*%
%ADD55RoundRect,0.250000X-0.548008X1.007627X-1.007627X0.548008X0.548008X-1.007627X1.007627X-0.548008X0*%
%ADD56RoundRect,0.062500X-0.062500X0.425000X-0.062500X-0.425000X0.062500X-0.425000X0.062500X0.425000X0*%
%ADD57RoundRect,0.062500X-0.425000X0.062500X-0.425000X-0.062500X0.425000X-0.062500X0.425000X0.062500X0*%
%ADD58RoundRect,0.150000X0.587500X0.150000X-0.587500X0.150000X-0.587500X-0.150000X0.587500X-0.150000X0*%
%ADD59RoundRect,0.140000X-0.140000X-0.170000X0.140000X-0.170000X0.140000X0.170000X-0.140000X0.170000X0*%
G04 APERTURE END LIST*
D10*
%TO.C,C27*%
X131275417Y-92502500D03*
X131275417Y-93462500D03*
%TD*%
D11*
%TO.C,R18*%
X142365418Y-83302500D03*
X142365416Y-84322500D03*
%TD*%
D12*
%TO.C,R23*%
X162545416Y-94902500D03*
X162545418Y-93882500D03*
%TD*%
D13*
%TO.C,U6*%
X157695417Y-78102500D03*
D14*
X155155417Y-78102500D03*
X152615417Y-78102500D03*
%TD*%
D15*
%TO.C,J4*%
X173079124Y-106193973D03*
X173963007Y-105310088D03*
X174846891Y-104426206D03*
D16*
X174033717Y-109764866D03*
X178417782Y-105380800D03*
%TD*%
D12*
%TO.C,R13*%
X163765417Y-88342497D03*
X163765417Y-87322499D03*
%TD*%
D17*
%TO.C,J7*%
X142345890Y-100948147D03*
X143229772Y-101832028D03*
D18*
X138774998Y-101902743D03*
X142275176Y-105402921D03*
%TD*%
D11*
%TO.C,R20*%
X134195418Y-93562500D03*
X134195416Y-94582500D03*
%TD*%
D19*
%TO.C,D21*%
X148616000Y-85805000D03*
X149390000Y-85805000D03*
X150164000Y-85805000D03*
X150164000Y-83855000D03*
X149390000Y-83855000D03*
X148616000Y-83855000D03*
%TD*%
D20*
%TO.C,R26*%
X169334793Y-82723124D03*
X170056041Y-82001876D03*
%TD*%
D21*
%TO.C,R27*%
X178255417Y-92162500D03*
X179275417Y-92162500D03*
%TD*%
D11*
%TO.C,R3*%
X175815417Y-92142501D03*
X175815417Y-93162499D03*
%TD*%
D19*
%TO.C,D3*%
X161466000Y-75495000D03*
X162240000Y-75495000D03*
X163014000Y-75495000D03*
X163014000Y-73545000D03*
X162240000Y-73545000D03*
X161466000Y-73545000D03*
%TD*%
D22*
%TO.C,C26*%
X138225417Y-87542500D03*
X138225417Y-89442500D03*
%TD*%
D23*
%TO.C,D17*%
X139115418Y-84720001D03*
X141015417Y-84720000D03*
X140065417Y-82845000D03*
%TD*%
D24*
%TO.C,D10*%
X161110000Y-115430000D03*
X161110000Y-116204000D03*
X161110000Y-116978000D03*
X163060000Y-116978000D03*
X163060000Y-116204000D03*
X163060000Y-115430000D03*
%TD*%
D25*
%TO.C,C28*%
X136207409Y-98124492D03*
X137303425Y-99220508D03*
%TD*%
D19*
%TO.C,D12*%
X175011417Y-101627500D03*
X175785417Y-101627500D03*
X176559417Y-101627500D03*
X176559417Y-99677500D03*
X175785417Y-99677500D03*
X175011417Y-99677500D03*
%TD*%
%TO.C,D1*%
X175056000Y-90855000D03*
X175830000Y-90855000D03*
X176604000Y-90855000D03*
X176604000Y-88905000D03*
X175830000Y-88905000D03*
X175056000Y-88905000D03*
%TD*%
D21*
%TO.C,R2*%
X152835418Y-74382500D03*
X153855416Y-74382500D03*
%TD*%
D26*
%TO.C,C23*%
X176227917Y-94200000D03*
X175267917Y-94200000D03*
%TD*%
D27*
%TO.C,D18*%
X144283234Y-99580319D03*
X142727600Y-98024681D03*
%TD*%
D19*
%TO.C,D6*%
X135484000Y-88935000D03*
X134710000Y-88935000D03*
X133936000Y-88935000D03*
X133936000Y-90885000D03*
X134710000Y-90885000D03*
X135484000Y-90885000D03*
%TD*%
D28*
%TO.C,D8*%
X139392706Y-109566353D03*
X138845405Y-110113654D03*
X138298104Y-110660955D03*
X139676962Y-112039813D03*
X140224263Y-111492512D03*
X140771564Y-110945211D03*
%TD*%
D24*
%TO.C,D13*%
X167195000Y-96086500D03*
X167195000Y-95312500D03*
X167195000Y-94538500D03*
X165245000Y-94538500D03*
X165245000Y-95312500D03*
X165245000Y-96086500D03*
%TD*%
D29*
%TO.C,U8*%
X136255417Y-94372500D03*
X136255417Y-94872502D03*
X136255417Y-95372500D03*
X135755419Y-94372500D03*
X135755417Y-94872500D03*
X135755415Y-95372500D03*
X135255417Y-94372500D03*
X135255417Y-94872498D03*
X135255417Y-95372500D03*
%TD*%
D30*
%TO.C,F1*%
X172575417Y-88642500D03*
X172575417Y-90842500D03*
%TD*%
D31*
%TO.C,U3*%
X177555417Y-97712500D03*
X177555417Y-96762501D03*
X177555417Y-95812502D03*
X175280417Y-95812502D03*
X175280417Y-96762501D03*
X175280417Y-97712500D03*
%TD*%
D32*
%TO.C,R21*%
X146425417Y-82312501D03*
X145405417Y-82312499D03*
%TD*%
D19*
%TO.C,D15*%
X148331417Y-106697500D03*
X149105417Y-106697500D03*
X149879417Y-106697500D03*
X149879417Y-104747500D03*
X149105417Y-104747500D03*
X148331417Y-104747500D03*
%TD*%
D12*
%TO.C,R11*%
X150835417Y-79202500D03*
X150835417Y-78182500D03*
%TD*%
D33*
%TO.C,U4*%
X157392282Y-106825181D03*
X158682282Y-106825181D03*
D34*
X158022282Y-104335181D03*
X158032282Y-101755181D03*
X157912282Y-96615181D03*
X157912282Y-94070000D03*
X157932282Y-86315181D03*
D33*
X151900000Y-83910000D03*
X153240000Y-83910000D03*
X151900000Y-86450000D03*
X153240000Y-86450000D03*
X151900000Y-88990000D03*
X153240000Y-88989999D03*
X151900000Y-91530000D03*
X153240000Y-91530000D03*
X151900000Y-94070000D03*
X153240000Y-94070000D03*
X151900000Y-96610000D03*
X153240000Y-96610000D03*
X151900000Y-99150000D03*
X153240000Y-99150000D03*
X151900000Y-104230000D03*
X153240000Y-104230000D03*
D35*
X151900000Y-106770000D03*
X153240000Y-106770000D03*
%TD*%
D36*
%TO.C,D19*%
X179412916Y-94052500D03*
X177212918Y-94052500D03*
%TD*%
D19*
%TO.C,D22*%
X161939417Y-83817500D03*
X161165417Y-83817500D03*
X160391417Y-83817500D03*
X160391417Y-85767500D03*
X161165417Y-85767500D03*
X161939417Y-85767500D03*
%TD*%
D37*
%TO.C,D5*%
X141136730Y-79627872D03*
X140589429Y-79080571D03*
X140042128Y-78533270D03*
X138663270Y-79912128D03*
X139210571Y-80459429D03*
X139757872Y-81006730D03*
%TD*%
D12*
%TO.C,R25*%
X131285417Y-86212500D03*
X131285419Y-85192500D03*
%TD*%
D38*
%TO.C,U5*%
X168445417Y-92302500D03*
X169145417Y-92302500D03*
D39*
X169145417Y-90452500D03*
D38*
X168445417Y-90402500D03*
%TD*%
D19*
%TO.C,D4*%
X148719417Y-73517500D03*
X147945417Y-73517500D03*
X147171417Y-73517500D03*
X147171417Y-75467500D03*
X147945417Y-75467500D03*
X148719417Y-75467500D03*
%TD*%
D40*
%TO.C,D11*%
X169603270Y-110807095D03*
X170150571Y-111354396D03*
X170697872Y-111901697D03*
X172076730Y-110522839D03*
X171529429Y-109975538D03*
X170982128Y-109428237D03*
%TD*%
D41*
%TO.C,D20*%
X158905417Y-90652500D03*
X156105423Y-90652502D03*
%TD*%
D24*
%TO.C,D9*%
X147375000Y-115340967D03*
X147375000Y-116114967D03*
X147375000Y-116888967D03*
X149325000Y-116888967D03*
X149325000Y-116114967D03*
X149325000Y-115340967D03*
%TD*%
D19*
%TO.C,D16*%
X142416000Y-96305000D03*
X143190000Y-96305000D03*
X143964000Y-96305000D03*
X143964000Y-94355000D03*
X143190000Y-94355000D03*
X142416000Y-94355000D03*
%TD*%
D42*
%TO.C,J10*%
X155655417Y-72622499D03*
D43*
X153635417Y-72622500D03*
D44*
X152405417Y-72622500D03*
D45*
X154655417Y-72622499D03*
D46*
X156675417Y-72622500D03*
D47*
X157905417Y-72622500D03*
D48*
X159475417Y-72542500D03*
X159475417Y-68742500D03*
X150835417Y-72542500D03*
X150835417Y-68742500D03*
%TD*%
D19*
%TO.C,D14*%
X162034451Y-104927500D03*
X161260451Y-104927500D03*
X160486451Y-104927500D03*
X160486451Y-106877500D03*
X161260451Y-106877500D03*
X162034451Y-106877500D03*
%TD*%
D11*
%TO.C,R14*%
X164795417Y-87322501D03*
X164795417Y-88342499D03*
%TD*%
D49*
%TO.C,R22*%
X145426042Y-79681876D03*
X144704792Y-80403124D03*
%TD*%
D28*
%TO.C,D7*%
X134963289Y-99225770D03*
X134415988Y-99773071D03*
X133868687Y-100320372D03*
X135247545Y-101699230D03*
X135794846Y-101151929D03*
X136342147Y-100604628D03*
%TD*%
D12*
%TO.C,R4*%
X179167916Y-96760000D03*
X179167916Y-95740002D03*
%TD*%
D50*
%TO.C,C29*%
X144520418Y-91712500D03*
X142970416Y-91712500D03*
%TD*%
D21*
%TO.C,R1*%
X156515418Y-74382500D03*
X157535416Y-74382500D03*
%TD*%
D51*
%TO.C,U2*%
X149270416Y-95142499D03*
D52*
X148705414Y-95077502D03*
X148205417Y-95077502D03*
D51*
X147640415Y-95142498D03*
X147640417Y-95642501D03*
X147640417Y-96142498D03*
X147640414Y-96642501D03*
D52*
X148205416Y-96707498D03*
X148705413Y-96707498D03*
D51*
X149270415Y-96642502D03*
X149270413Y-96142499D03*
X149270413Y-95642502D03*
%TD*%
D53*
%TO.C,D2*%
X170967545Y-81029230D03*
X171514846Y-80481929D03*
X172062147Y-79934628D03*
X170683289Y-78555770D03*
X170135988Y-79103071D03*
X169588687Y-79650372D03*
%TD*%
D54*
%TO.C,C22*%
X176482434Y-84479517D03*
X178568400Y-86565483D03*
%TD*%
D12*
%TO.C,R24*%
X131285417Y-88162501D03*
X131285419Y-87142501D03*
%TD*%
D55*
%TO.C,C1*%
X145245417Y-76442500D03*
X143159449Y-78528462D03*
%TD*%
D56*
%TO.C,U7*%
X145735417Y-85785002D03*
X145235419Y-85785002D03*
X144735417Y-85785003D03*
X144235419Y-85785003D03*
D57*
X144097917Y-86672500D03*
D56*
X144235417Y-87559998D03*
X144735415Y-87559998D03*
X145235417Y-87559997D03*
X145735415Y-87559997D03*
D57*
X145872917Y-86672500D03*
%TD*%
D58*
%TO.C,Q1*%
X162162917Y-89862500D03*
X162162917Y-87962500D03*
X160287916Y-88912500D03*
%TD*%
D59*
%TO.C,C25*%
X143335417Y-82392500D03*
X144295417Y-82392500D03*
%TD*%
D21*
%TO.C,R19*%
X135225417Y-92662500D03*
X136245417Y-92662500D03*
%TD*%
%TO.C,R12*%
X163795418Y-86342500D03*
X164815416Y-86342500D03*
%TD*%
M02*
