%TF.GenerationSoftware,KiCad,Pcbnew,10.0.1*%
%TF.CreationDate,2026-06-22T12:15:34+02:00*%
%TF.ProjectId,beelight-piggy-base,6265656c-6967-4687-942d-70696767792d,rev?*%
%TF.SameCoordinates,Original*%
%TF.FileFunction,Copper,L2,Bot*%
%TF.FilePolarity,Positive*%
%FSLAX46Y46*%
G04 Gerber Fmt 4.6, Leading zero omitted, Abs format (unit mm)*
G04 Created by KiCad (PCBNEW 10.0.1) date 2026-06-22 12:15:34*
%MOMM*%
%LPD*%
G01*
G04 APERTURE LIST*
G04 Aperture macros list*
%AMRoundRect*
0 Rectangle with rounded corners*
0 $1 Rounding radius*
0 $2 $3 $4 $5 $6 $7 $8 $9 X,Y pos of 4 corners*
0 Add a 4 corners polygon primitive as box body*
4,1,4,$2,$3,$4,$5,$6,$7,$8,$9,$2,$3,0*
0 Add four circle primitives for the rounded corners*
1,1,$1+$1,$2,$3*
1,1,$1+$1,$4,$5*
1,1,$1+$1,$6,$7*
1,1,$1+$1,$8,$9*
0 Add four rect primitives between the rounded corners*
20,1,$1+$1,$2,$3,$4,$5,0*
20,1,$1+$1,$4,$5,$6,$7,0*
20,1,$1+$1,$6,$7,$8,$9,0*
20,1,$1+$1,$8,$9,$2,$3,0*%
G04 Aperture macros list end*
%TA.AperFunction,Conductor*%
%ADD10C,0.200000*%
%TD*%
%TA.AperFunction,Conductor*%
%ADD11C,0.199761*%
%TD*%
%TA.AperFunction,CastellatedPad*%
%ADD12C,1.700000*%
%TD*%
%TA.AperFunction,CastellatedPad*%
%ADD13R,4.000000X2.000000*%
%TD*%
%TA.AperFunction,ComponentPad*%
%ADD14R,1.700000X1.700000*%
%TD*%
%TA.AperFunction,ComponentPad*%
%ADD15O,1.100000X1.700000*%
%TD*%
%TA.AperFunction,SMDPad,CuDef*%
%ADD16RoundRect,0.250000X-0.671751X1.626346X-1.626346X0.671751X0.671751X-1.626346X1.626346X-0.671751X0*%
%TD*%
%TA.AperFunction,SMDPad,CuDef*%
%ADD17RoundRect,0.250000X1.856155X0.477297X0.477297X1.856155X-1.856155X-0.477297X-0.477297X-1.856155X0*%
%TD*%
%TA.AperFunction,SMDPad,CuDef*%
%ADD18RoundRect,0.250000X-0.262500X-0.450000X0.262500X-0.450000X0.262500X0.450000X-0.262500X0.450000X0*%
%TD*%
%TA.AperFunction,SMDPad,CuDef*%
%ADD19RoundRect,0.200000X-0.424264X0.707107X-0.707107X0.424264X0.424264X-0.707107X0.707107X-0.424264X0*%
%TD*%
%TA.AperFunction,ViaPad*%
%ADD20C,0.700000*%
%TD*%
%TA.AperFunction,ViaPad*%
%ADD21C,1.000000*%
%TD*%
%TA.AperFunction,Conductor*%
%ADD22C,0.600000*%
%TD*%
%TA.AperFunction,Conductor*%
%ADD23C,0.400000*%
%TD*%
G04 APERTURE END LIST*
%TO.N,BAT*%
D10*
X127505416Y-89932500D02*
X129015418Y-89932500D01*
X129015418Y-93992500D01*
X127505416Y-93992500D01*
X127505416Y-89932500D01*
%TA.AperFunction,Conductor*%
G36*
X127505416Y-89932500D02*
G01*
X129015418Y-89932500D01*
X129015418Y-93992500D01*
X127505416Y-93992500D01*
X127505416Y-89932500D01*
G37*
%TD.AperFunction*%
%TO.N,GND*%
X127595416Y-98902500D02*
X128870417Y-98902500D01*
X128870417Y-102962500D01*
X127595416Y-102962500D01*
X127595416Y-98902500D01*
%TA.AperFunction,Conductor*%
G36*
X127595416Y-98902500D02*
G01*
X128870417Y-98902500D01*
X128870417Y-102962500D01*
X127595416Y-102962500D01*
X127595416Y-98902500D01*
G37*
%TD.AperFunction*%
%TO.N,Net-(D17-Pad3)*%
X138655418Y-73492498D02*
X135784565Y-76363349D01*
X135294565Y-75873351D01*
X138165418Y-73002500D01*
X138655418Y-73492498D01*
%TA.AperFunction,Conductor*%
G36*
X138655418Y-73492498D02*
G01*
X135784565Y-76363349D01*
X135294565Y-75873351D01*
X138165418Y-73002500D01*
X138655418Y-73492498D01*
G37*
%TD.AperFunction*%
D11*
%TO.N,Net-(D1-VDD)*%
X147256094Y-70278882D02*
X143339126Y-71328431D01*
X142971401Y-69956076D01*
X146888372Y-68906528D01*
X147256094Y-70278882D01*
%TA.AperFunction,Conductor*%
G36*
X147256094Y-70278882D02*
G01*
X143339126Y-71328431D01*
X142971401Y-69956076D01*
X146888372Y-68906528D01*
X147256094Y-70278882D01*
G37*
%TD.AperFunction*%
%TO.N,GND*%
D10*
X180907918Y-86622500D02*
X182375418Y-86622500D01*
X182375418Y-90682500D01*
X180907918Y-90682500D01*
X180907918Y-86622500D01*
%TA.AperFunction,Conductor*%
G36*
X180907918Y-86622500D02*
G01*
X182375418Y-86622500D01*
X182375418Y-90682500D01*
X180907918Y-90682500D01*
X180907918Y-86622500D01*
G37*
%TD.AperFunction*%
%TO.N,VLED*%
X180957918Y-98632500D02*
X182695417Y-98632500D01*
X182695417Y-102692500D01*
X180957918Y-102692500D01*
X180957918Y-98632500D01*
%TA.AperFunction,Conductor*%
G36*
X180957918Y-98632500D02*
G01*
X182695417Y-98632500D01*
X182695417Y-102692500D01*
X180957918Y-102692500D01*
X180957918Y-98632500D01*
G37*
%TD.AperFunction*%
%TO.N,Net-(D22-DO)*%
X181707918Y-92627500D02*
X182745416Y-92627500D01*
X182745416Y-96687500D01*
X181707918Y-96687500D01*
X181707918Y-92627500D01*
%TA.AperFunction,Conductor*%
G36*
X181707918Y-92627500D02*
G01*
X182745416Y-92627500D01*
X182745416Y-96687500D01*
X181707918Y-96687500D01*
X181707918Y-92627500D01*
G37*
%TD.AperFunction*%
%TD*%
D12*
%TO.P,U4,1,+5V_1*%
%TO.N,+5VP*%
X157392282Y-106825181D03*
X158682282Y-106825181D03*
D13*
%TO.P,U4,2,+3.3V_2*%
%TO.N,+3.3V*%
X158022282Y-104335181D03*
%TO.P,U4,3,ADC_3*%
%TO.N,unconnected-(U4-ADC-Pad3)*%
X158032282Y-101755181D03*
%TO.P,U4,5,WAKE_5*%
%TO.N,WAKE*%
X157912282Y-96615181D03*
%TO.P,U4,6,RST_6*%
%TO.N,RST*%
X157912282Y-94070000D03*
%TO.P,U4,9,BUZ_9*%
%TO.N,SCL*%
X157932282Y-86315181D03*
D12*
%TO.P,U4,11,EN_11*%
%TO.N,unconnected-(U4-EN-Pad11)_1*%
X151900000Y-83910000D03*
%TO.N,unconnected-(U4-EN-Pad11)*%
X153240000Y-83910000D03*
%TO.P,U4,12,RXD_12*%
%TO.N,RXD*%
X151900000Y-86450000D03*
X153240000Y-86450000D03*
%TO.P,U4,13,TXD_13*%
%TO.N,TXD*%
X151900000Y-88990000D03*
X153240000Y-88989999D03*
%TO.P,U4,14,SDA_14*%
%TO.N,SDA*%
X151900000Y-91530000D03*
X153240000Y-91530000D03*
%TO.P,U4,15,SCL_15*%
%TO.N,WS_DATA*%
X151900000Y-94070000D03*
X153240000Y-94070000D03*
%TO.P,U4,16,SCL2_16*%
%TO.N,IR_RX*%
X151900000Y-96610000D03*
X153240000Y-96610000D03*
%TO.P,U4,17,SCLP_17*%
%TO.N,IR_TX*%
X151900000Y-99150000D03*
X153240000Y-99150000D03*
%TO.P,U4,19,GND_19*%
%TO.N,GND*%
X151900000Y-104230000D03*
X153240000Y-104230000D03*
D14*
%TO.P,U4,20,GND_20*%
X151900000Y-106770000D03*
X153240000Y-106770000D03*
%TD*%
D15*
%TO.P,J10,SH,SHIELD_SH*%
%TO.N,GND*%
X159475417Y-72542500D03*
X159475417Y-68742500D03*
X150835417Y-72542500D03*
X150835417Y-68742500D03*
%TD*%
D16*
%TO.P,J3,1,Pin_1_1*%
%TO.N,BAT*%
X147404600Y-74480842D03*
%TO.P,J3,2,Pin_2_2*%
%TO.N,GND*%
X144187264Y-77698178D03*
%TD*%
D17*
%TO.P,J11,1,Pin_1_1*%
%TO.N,VLED*%
X166985646Y-78692729D03*
%TO.P,J11,2,Pin_2_2*%
%TO.N,Net-(D22-DO)*%
X164475417Y-76182500D03*
%TO.P,J11,3,Pin_3_3*%
%TO.N,GND*%
X161965188Y-73672271D03*
%TD*%
D18*
%TO.P,TH1,1*%
%TO.N,NTC*%
X154120417Y-74912500D03*
%TO.P,TH1,2*%
%TO.N,GND*%
X155945417Y-74912500D03*
%TD*%
D19*
%TO.P,SW1,1,1_1*%
%TO.N,GND*%
X139330341Y-75997576D03*
%TO.P,SW1,2,2_2*%
%TO.N,Net-(D17-Pad3)*%
X136360493Y-78967424D03*
%TD*%
D20*
%TO.N,Net-(U8-VDD)*%
X135937622Y-96445466D03*
X131315417Y-90310022D03*
%TO.N,GND*%
X140045417Y-105822500D03*
X153395418Y-78772501D03*
X167075417Y-100552500D03*
X164725417Y-109702500D03*
X161535416Y-72621738D03*
X153405417Y-79572498D03*
X136688359Y-82598183D03*
X134165417Y-95132500D03*
X163555417Y-71662500D03*
X156105418Y-78792501D03*
X145825417Y-109712500D03*
X154215416Y-79572499D03*
X133735417Y-101452500D03*
X145825417Y-110522500D03*
X174075417Y-81843873D03*
X174585417Y-81271114D03*
X164725417Y-110512500D03*
X177825417Y-101562500D03*
X167855417Y-92872500D03*
X174075417Y-80712500D03*
X145025417Y-110512500D03*
X162630154Y-85712499D03*
X167925417Y-102712500D03*
X156855417Y-68932500D03*
X138385417Y-82032500D03*
X173509734Y-80146815D03*
X147865417Y-102922500D03*
X167125417Y-103512500D03*
X138914047Y-105822500D03*
X137246975Y-82025429D03*
X139486802Y-106395256D03*
X155995417Y-68952500D03*
X155105417Y-68962500D03*
X130915417Y-99182500D03*
X139472661Y-105249746D03*
X142970416Y-91712500D03*
X163125417Y-110512500D03*
X179245417Y-86232500D03*
X154205417Y-78772500D03*
X167925417Y-103522500D03*
X154215417Y-68992500D03*
X156075417Y-82462500D03*
X156115417Y-77992502D03*
X137819731Y-81466814D03*
X142315417Y-87332500D03*
X145025417Y-109712500D03*
X163925417Y-109712500D03*
X172935417Y-95862500D03*
X162645417Y-70602500D03*
X149315417Y-112962500D03*
X170225417Y-108702500D03*
X156915417Y-78792500D03*
X140611102Y-105256817D03*
X154205416Y-77972500D03*
X174055417Y-89812500D03*
X163125417Y-109712500D03*
X153245417Y-68992500D03*
X173502663Y-81285256D03*
X181485417Y-90432500D03*
X146625417Y-109702500D03*
X137819731Y-82598184D03*
D21*
X128295417Y-100972500D03*
D20*
X168725417Y-102702500D03*
X149345417Y-93742500D03*
X156925416Y-79592499D03*
X168725417Y-103512500D03*
X146625417Y-110512500D03*
X153405417Y-77972502D03*
X175945748Y-103222831D03*
X129035417Y-101422500D03*
X137261118Y-83170939D03*
X156115417Y-79592498D03*
X167125417Y-102712500D03*
X172610797Y-98827120D03*
X148535417Y-69592500D03*
D21*
X181905417Y-88692500D03*
D20*
X148740000Y-82978576D03*
X142485417Y-80202500D03*
X181095417Y-87222500D03*
X138045417Y-112682500D03*
X128475417Y-99262500D03*
X140045416Y-104691131D03*
X163925417Y-110522500D03*
X161505417Y-69592500D03*
X163685417Y-112682500D03*
X156915416Y-77992500D03*
%TO.N,Net-(U7-INT)*%
X144645037Y-84662880D03*
X142595417Y-85072500D03*
%TO.N,+3.3V*%
X167255417Y-89172500D03*
X165385417Y-84242500D03*
%TO.N,SCL*%
X150065797Y-95212120D03*
X137196179Y-96002502D03*
X144225417Y-89882500D03*
%TO.N,IR_RX*%
X170190964Y-75535518D03*
X168075417Y-80472500D03*
X147905417Y-89522500D03*
%TO.N,Net-(U6-Vs)*%
X159055417Y-77782500D03*
X166598862Y-71943416D03*
%TO.N,VLED*%
X166171697Y-87595463D03*
X179025417Y-90592500D03*
X167301273Y-84206644D03*
X181695417Y-98892500D03*
X181275417Y-102432500D03*
D21*
X182265417Y-100542500D03*
D20*
%TO.N,Net-(D22-DO)*%
X168917829Y-77160088D03*
D21*
X182745417Y-94722500D03*
D20*
X181905417Y-96432500D03*
X181935417Y-92862500D03*
X178655417Y-99672500D03*
X181045417Y-97842500D03*
X157655417Y-83842500D03*
D21*
%TO.N,BAT*%
X127935417Y-91892500D03*
D20*
X130615417Y-89222500D03*
X136714890Y-97274396D03*
X128505417Y-90202500D03*
X128485417Y-93602500D03*
%TO.N,Net-(D1-VDD)*%
X166959148Y-76213586D03*
X163393679Y-84360001D03*
X143775417Y-70902500D03*
D21*
X145105417Y-69782500D03*
D20*
X146825417Y-70072500D03*
%TO.N,Net-(D1-DI)*%
X177145417Y-92172500D03*
X178275417Y-91192500D03*
%TO.N,WS_DATA*%
X159795417Y-92304657D03*
X174185417Y-93182500D03*
%TO.N,Net-(U8-SRX)*%
X135765417Y-86452500D03*
X133186001Y-84823337D03*
X133716591Y-95912602D03*
%TO.N,WAKE*%
X142935417Y-81572500D03*
D21*
%TO.N,Net-(D17-Pad3)*%
X136955417Y-74772500D03*
D20*
X139005417Y-77702500D03*
X141005417Y-80952500D03*
%TO.N,RST*%
X164325417Y-100932500D03*
%TO.N,SDA*%
X137196179Y-95102499D03*
X144985415Y-89182500D03*
%TO.N,+5VP*%
X177594261Y-100513657D03*
X145425417Y-91742500D03*
%TO.N,NTC*%
X145245417Y-83782500D03*
%TO.N,Net-(R19-Pad1)*%
X135799468Y-79880683D03*
X135835417Y-87512500D03*
X132835417Y-87522500D03*
%TD*%
%TO.N,Net-(U8-VDD)*%
D10*
X133405417Y-97092500D02*
X135290588Y-97092500D01*
X131315417Y-90310022D02*
X131315417Y-91742500D01*
X135290588Y-97092500D02*
X135937622Y-96445466D01*
X132245417Y-92672500D02*
X132245417Y-95932500D01*
X131315417Y-91742500D02*
X132245417Y-92672500D01*
X133405417Y-97092500D02*
X132245417Y-95932500D01*
%TO.N,GND*%
D22*
X130875417Y-101012500D02*
X130875417Y-99222500D01*
D10*
X144386076Y-87332500D02*
X142315417Y-87332500D01*
X149315417Y-112962500D02*
X138325417Y-112962500D01*
X173346177Y-99562500D02*
X172610797Y-98827120D01*
X177825417Y-101562500D02*
X177885417Y-101562500D01*
X163025417Y-112682500D02*
X161435417Y-111092500D01*
X148740000Y-82978576D02*
X144386076Y-87332500D01*
X142970416Y-91712500D02*
X143650416Y-91032500D01*
D22*
X130875417Y-99222500D02*
X130915417Y-99182500D01*
D10*
X161435417Y-111092500D02*
X152205417Y-111092500D01*
X172610797Y-98827120D02*
X172935417Y-98502500D01*
X178245417Y-101202500D02*
X178245417Y-100243261D01*
X178245417Y-100243261D02*
X177864656Y-99862500D01*
D23*
X157405417Y-84842500D02*
X161760155Y-84842500D01*
D22*
X130875417Y-101012500D02*
X129445417Y-101012500D01*
D10*
X146545417Y-91032500D02*
X149255417Y-93742500D01*
D23*
X161760155Y-84842500D02*
X162630154Y-85712499D01*
D10*
X172935417Y-98502500D02*
X172935417Y-95862500D01*
X177885417Y-101562500D02*
X178245417Y-101202500D01*
X149315417Y-112962500D02*
X149315417Y-111132500D01*
X152205417Y-111092500D02*
X149355417Y-111092500D01*
X177864656Y-99862500D02*
X176125417Y-99862500D01*
X143650416Y-91032500D02*
X146545417Y-91032500D01*
X163685417Y-112682500D02*
X163025417Y-112682500D01*
X176125417Y-99862500D02*
X175825417Y-99562500D01*
X149315417Y-106814583D02*
X151900000Y-104230000D01*
X149315417Y-111132500D02*
X149315417Y-106814583D01*
X149575417Y-112962500D02*
X149315417Y-112962500D01*
X138325417Y-112962500D02*
X138045417Y-112682500D01*
D23*
X156075417Y-82462500D02*
X156075417Y-83512500D01*
D10*
X152205417Y-111092500D02*
X151445417Y-111092500D01*
X149255417Y-93742500D02*
X149345417Y-93742500D01*
D23*
X156075417Y-83512500D02*
X157405417Y-84842500D01*
D10*
X175825417Y-99562500D02*
X173346177Y-99562500D01*
X149355417Y-111092500D02*
X149315417Y-111132500D01*
D22*
X129445417Y-101012500D02*
X129035417Y-101422500D01*
%TO.N,Net-(U7-INT)*%
D10*
X143895417Y-84312500D02*
X144294657Y-84312500D01*
X144294657Y-84312500D02*
X144645037Y-84662880D01*
X143135417Y-85072500D02*
X143895417Y-84312500D01*
X142595417Y-85072500D02*
X143135417Y-85072500D01*
%TO.N,+3.3V*%
D23*
X166688073Y-89172500D02*
X165385417Y-87869844D01*
X165385417Y-87869844D02*
X165385417Y-84242500D01*
X167255417Y-89172500D02*
X166688073Y-89172500D01*
%TO.N,SCL*%
D10*
X137846179Y-94833260D02*
X137805417Y-94792498D01*
X149411129Y-90172500D02*
X150135417Y-90896789D01*
X137215415Y-96002502D02*
X137846179Y-95371738D01*
X139055418Y-89882500D02*
X144225417Y-89882500D01*
X137805417Y-91132500D02*
X139055418Y-89882500D01*
X145677574Y-90172500D02*
X149411129Y-90172500D01*
X137805417Y-94792498D02*
X137805417Y-91132500D01*
X145387574Y-89882500D02*
X145677574Y-90172500D01*
X144225417Y-89882500D02*
X145387574Y-89882500D01*
X137196179Y-96002502D02*
X137215415Y-96002502D01*
X150135417Y-95142500D02*
X150065797Y-95212120D01*
X150135417Y-90896789D02*
X150135417Y-95142500D01*
X137846179Y-95371738D02*
X137846179Y-94833260D01*
%TO.N,IR_RX*%
X169915417Y-77522500D02*
X169915417Y-75262500D01*
X150750000Y-94977083D02*
X150750000Y-90945686D01*
X149326814Y-89522500D02*
X147905417Y-89522500D01*
X169915417Y-75811065D02*
X170190964Y-75535518D01*
X151900000Y-96127083D02*
X150750000Y-94977083D01*
X150750000Y-90945686D02*
X149326814Y-89522500D01*
X168075417Y-80472500D02*
X169915417Y-78632500D01*
X169915417Y-77522500D02*
X169915417Y-75811065D01*
X169915417Y-78632500D02*
X169915417Y-77522500D01*
%TO.N,Net-(U6-Vs)*%
D23*
X160505417Y-77732500D02*
X166294501Y-71943416D01*
X166294501Y-71943416D02*
X166598862Y-71943416D01*
X159105417Y-77732500D02*
X160505417Y-77732500D01*
X159055417Y-77782500D02*
X159105417Y-77732500D01*
%TO.N,VLED*%
X179025417Y-90592500D02*
X178335417Y-89902500D01*
X167331273Y-83486644D02*
X167159790Y-83486644D01*
X166985646Y-78692729D02*
X166985646Y-83312500D01*
X177875417Y-89442500D02*
X176765417Y-88332500D01*
X166985646Y-86781514D02*
X166171697Y-87595463D01*
X178335417Y-89902500D02*
X178314756Y-89902500D01*
X177875417Y-89463161D02*
X177875417Y-89442500D01*
X167159790Y-83486644D02*
X166985646Y-83312500D01*
X176765417Y-88332500D02*
X166908734Y-88332500D01*
X166908734Y-88332500D02*
X166171697Y-87595463D01*
X178314756Y-89902500D02*
X177875417Y-89463161D01*
X166985646Y-83312500D02*
X166985646Y-86781514D01*
%TO.N,Net-(D22-DO)*%
D10*
X180485417Y-97842500D02*
X178655417Y-99672500D01*
X160285141Y-80292224D02*
X160365693Y-80292224D01*
X157655417Y-82921948D02*
X160285141Y-80292224D01*
X160365693Y-80292224D02*
X164475417Y-76182500D01*
X166920241Y-75162500D02*
X165495417Y-75162500D01*
X168917829Y-77160088D02*
X166920241Y-75162500D01*
X157655417Y-83842500D02*
X157655417Y-82921948D01*
X181045417Y-97842500D02*
X180485417Y-97842500D01*
%TO.N,BAT*%
D22*
X138724095Y-74482500D02*
X134949468Y-78257127D01*
X142335417Y-75792500D02*
X140775417Y-75792500D01*
X130615417Y-96671028D02*
X131636889Y-97692500D01*
X130615417Y-93552500D02*
X130615417Y-93282500D01*
X130615417Y-89222500D02*
X130615417Y-89807940D01*
X132444756Y-84362500D02*
X132303335Y-84362500D01*
X131636889Y-97692500D02*
X136296786Y-97692500D01*
X130465417Y-90662104D02*
X130615417Y-90812104D01*
X147402942Y-74482500D02*
X143645417Y-74482500D01*
X130615417Y-90812104D02*
X130615417Y-93552500D01*
X136296786Y-97692500D02*
X136714890Y-97274396D01*
X134949468Y-80712500D02*
X135049468Y-80812500D01*
X135049468Y-80812500D02*
X135049468Y-81757788D01*
X130465417Y-89957940D02*
X130465417Y-90662104D01*
X132303335Y-84362500D02*
X131805417Y-84860418D01*
X143645417Y-74482500D02*
X142335417Y-75792500D01*
X134949468Y-78257127D02*
X134949468Y-80712500D01*
X130615417Y-89807940D02*
X130465417Y-89957940D01*
X140775417Y-75792500D02*
X139465417Y-74482500D01*
X135049468Y-81757788D02*
X132444756Y-84362500D01*
X131805417Y-84860418D02*
X131805417Y-85001839D01*
X130615417Y-93552500D02*
X130615417Y-96671028D01*
X131805417Y-85001839D02*
X130615417Y-86191839D01*
X130615417Y-93282500D02*
X129225417Y-91892500D01*
X130615417Y-86191839D02*
X130615417Y-89222500D01*
X139465417Y-74482500D02*
X138724095Y-74482500D01*
%TO.N,Net-(D1-VDD)*%
D23*
X165775417Y-80735192D02*
X165775417Y-82123161D01*
X163538577Y-84360001D02*
X163393679Y-84360001D01*
X164474593Y-78905684D02*
X164474593Y-79434368D01*
X166959148Y-76213586D02*
X166959148Y-76421129D01*
X165775417Y-82123161D02*
X163538577Y-84360001D01*
X166959148Y-76421129D02*
X164474593Y-78905684D01*
X164474593Y-79434368D02*
X165775417Y-80735192D01*
%TO.N,Net-(D1-DI)*%
D10*
X178125417Y-91192500D02*
X177145417Y-92172500D01*
X178275417Y-91192500D02*
X178125417Y-91192500D01*
%TO.N,WS_DATA*%
X159795417Y-92304657D02*
X161547574Y-90552500D01*
X171555417Y-90552500D02*
X174185417Y-93182500D01*
X161547574Y-90552500D02*
X171555417Y-90552500D01*
%TO.N,Net-(U8-SRX)*%
D23*
X132124833Y-85743084D02*
X131975417Y-85892500D01*
X133895417Y-86452500D02*
X135765417Y-86452500D01*
X133186001Y-84823337D02*
X133044580Y-84823337D01*
X133186001Y-85743084D02*
X132124833Y-85743084D01*
X133186001Y-84823337D02*
X133186001Y-85743084D01*
X132925953Y-89103036D02*
X132925953Y-95121964D01*
X131975417Y-85892500D02*
X131975417Y-88152500D01*
X132925953Y-95121964D02*
X133716591Y-95912602D01*
X131975417Y-88152500D02*
X132925953Y-89103036D01*
X133186001Y-85743084D02*
X133895417Y-86452500D01*
%TO.N,WAKE*%
D10*
X163725417Y-91482500D02*
X164255417Y-90952500D01*
X154955417Y-88422631D02*
X154955417Y-81982500D01*
X159879731Y-91654657D02*
X158187442Y-91654657D01*
X171721103Y-90152500D02*
X161381889Y-90152500D01*
X174101103Y-92532500D02*
X171721103Y-90152500D01*
X160842736Y-96615181D02*
X163725417Y-93732500D01*
X154955417Y-81982500D02*
X153485417Y-80512500D01*
X161381889Y-90152500D02*
X159879731Y-91654657D01*
X148675417Y-81572500D02*
X142935417Y-81572500D01*
X173535417Y-93098186D02*
X173535417Y-93451739D01*
X163725417Y-93732500D02*
X163725417Y-91482500D01*
X173916178Y-93832500D02*
X174454656Y-93832500D01*
X174454656Y-93832500D02*
X174835417Y-93451739D01*
X149735417Y-80512500D02*
X148675417Y-81572500D01*
X153485417Y-80512500D02*
X149735417Y-80512500D01*
X174454656Y-92532500D02*
X174101103Y-92532500D01*
X164255417Y-90952500D02*
X171389731Y-90952500D01*
X174835417Y-92913261D02*
X174454656Y-92532500D01*
X174835417Y-93451739D02*
X174835417Y-92913261D01*
X173535417Y-93451739D02*
X173916178Y-93832500D01*
X158187442Y-91654657D02*
X154955417Y-88422631D01*
X171389731Y-90952500D02*
X173535417Y-93098186D01*
X157912282Y-96615181D02*
X160842736Y-96615181D01*
%TO.N,Net-(D17-Pad3)*%
X141005417Y-80952500D02*
X138415417Y-80952500D01*
X139005417Y-77702500D02*
X137930417Y-78777500D01*
X139005417Y-77702500D02*
X137740493Y-78967424D01*
X138415417Y-80952500D02*
X137930417Y-80467500D01*
X137740493Y-78967424D02*
X136360493Y-78967424D01*
X137930417Y-80467500D02*
X136946764Y-79483847D01*
%TO.N,RST*%
X162625417Y-99232500D02*
X155395417Y-99232500D01*
X154755417Y-94252500D02*
X154937917Y-94070000D01*
X154937917Y-94070000D02*
X157912282Y-94070000D01*
X154755417Y-98592500D02*
X154755417Y-94252500D01*
X155395417Y-99232500D02*
X154755417Y-98592500D01*
X164325417Y-100932500D02*
X162625417Y-99232500D01*
%TO.N,SDA*%
X144985415Y-89182500D02*
X147326178Y-89182500D01*
X147636178Y-88872500D02*
X149242500Y-88872500D01*
X137405417Y-90966815D02*
X137405417Y-94893261D01*
X149242500Y-88872500D02*
X151900000Y-91530000D01*
X144985415Y-89182500D02*
X144967265Y-89200650D01*
X144967265Y-89200650D02*
X139171582Y-89200650D01*
X147326178Y-89182500D02*
X147636178Y-88872500D01*
X139171582Y-89200650D02*
X137405417Y-90966815D01*
X137405417Y-94893261D02*
X137196179Y-95102499D01*
%TO.N,+5VP*%
D23*
X170385417Y-107722500D02*
X159579601Y-107722500D01*
X145425417Y-91742500D02*
X145425417Y-94557704D01*
X177657550Y-100362500D02*
X177533284Y-100362500D01*
X177445417Y-100450367D02*
X177445417Y-100662501D01*
X149247815Y-98380102D02*
X149247815Y-101014898D01*
X154595417Y-108532500D02*
X155032495Y-108532500D01*
X177445417Y-100662501D02*
X170385417Y-107722500D01*
X159579601Y-107722500D02*
X158682282Y-106825181D01*
X154505417Y-108442500D02*
X154595417Y-108532500D01*
X177745417Y-100513657D02*
X177745417Y-100450367D01*
X155035175Y-108535180D02*
X158867107Y-108535180D01*
X159579601Y-107822686D02*
X159579601Y-107722500D01*
X177745417Y-100450367D02*
X177657550Y-100362500D01*
X158867107Y-108535180D02*
X159579601Y-107822686D01*
X177533284Y-100362500D02*
X177445417Y-100450367D01*
X149745417Y-101512500D02*
X152865417Y-101512500D01*
X155032495Y-108532500D02*
X155035175Y-108535180D01*
X152865417Y-101512500D02*
X154505417Y-103152500D01*
X149247815Y-101014898D02*
X149745417Y-101512500D01*
X154505417Y-103152500D02*
X154505417Y-108442500D01*
X177594261Y-100513657D02*
X177745417Y-100513657D01*
X145425417Y-94557704D02*
X149247815Y-98380102D01*
%TO.N,NTC*%
D10*
X147597917Y-80922500D02*
X153607917Y-74912500D01*
X144226178Y-83782500D02*
X142285417Y-81841739D01*
X145245417Y-83782500D02*
X144226178Y-83782500D01*
X153607917Y-74912500D02*
X154120417Y-74912500D01*
X142285417Y-81841739D02*
X142285417Y-81303261D01*
X142285417Y-81303261D02*
X142666178Y-80922500D01*
X142666178Y-80922500D02*
X147597917Y-80922500D01*
%TO.N,Net-(R19-Pad1)*%
X135799468Y-79880683D02*
X135799468Y-85556551D01*
X135835417Y-87512500D02*
X132845417Y-87512500D01*
X136415417Y-86172500D02*
X136415417Y-86932500D01*
X135799468Y-85556551D02*
X136415417Y-86172500D01*
X132845417Y-87512500D02*
X132835417Y-87522500D01*
X136415417Y-86932500D02*
X135835417Y-87512500D01*
%TD*%
%TA.AperFunction,Conductor*%
%TO.N,GND*%
G36*
X163697623Y-90872685D02*
G01*
X163743378Y-90925489D01*
X163753322Y-90994647D01*
X163724297Y-91058203D01*
X163718265Y-91064681D01*
X163484958Y-91297987D01*
X163484952Y-91297995D01*
X163445399Y-91366504D01*
X163445396Y-91366509D01*
X163424917Y-91442939D01*
X163424917Y-93556667D01*
X163405232Y-93623706D01*
X163388598Y-93644348D01*
X160754584Y-96278362D01*
X160693261Y-96311847D01*
X160666903Y-96314681D01*
X160236782Y-96314681D01*
X160169743Y-96294996D01*
X160123988Y-96242192D01*
X160112782Y-96190681D01*
X160112782Y-95595430D01*
X160112781Y-95595428D01*
X160101150Y-95536951D01*
X160101149Y-95536950D01*
X160056834Y-95470628D01*
X160019514Y-95445692D01*
X159974709Y-95392080D01*
X159966002Y-95322755D01*
X159996157Y-95259727D01*
X160019509Y-95239492D01*
X160056834Y-95214552D01*
X160101149Y-95148231D01*
X160101149Y-95148229D01*
X160101150Y-95148229D01*
X160112001Y-95093674D01*
X160112782Y-95089748D01*
X160112782Y-93050252D01*
X160112782Y-93050249D01*
X160112781Y-93050247D01*
X160101150Y-92991770D01*
X160101149Y-92991769D01*
X160064785Y-92937347D01*
X160043907Y-92870670D01*
X160062391Y-92803290D01*
X160105887Y-92761069D01*
X160133432Y-92745166D01*
X160235926Y-92642672D01*
X160308401Y-92517142D01*
X160345917Y-92377132D01*
X160345917Y-92232182D01*
X160345917Y-92230489D01*
X160365602Y-92163450D01*
X160382236Y-92142808D01*
X161635726Y-90889319D01*
X161697049Y-90855834D01*
X161723407Y-90853000D01*
X163630584Y-90853000D01*
X163697623Y-90872685D01*
G37*
%TD.AperFunction*%
%TA.AperFunction,Conductor*%
G36*
X156744537Y-68192448D02*
G01*
X156753002Y-68192797D01*
X157999993Y-68287523D01*
X158006164Y-68288149D01*
X158317036Y-68327615D01*
X158381060Y-68355585D01*
X158419801Y-68413731D01*
X158425417Y-68450627D01*
X158425417Y-68492500D01*
X159175417Y-68492500D01*
X159175417Y-68992500D01*
X158425417Y-68992500D01*
X158425417Y-69145920D01*
X158465765Y-69348766D01*
X158465767Y-69348774D01*
X158544917Y-69539858D01*
X158544922Y-69539868D01*
X158659827Y-69711835D01*
X158659830Y-69711839D01*
X158806077Y-69858086D01*
X158806081Y-69858089D01*
X158978048Y-69972994D01*
X158978058Y-69972999D01*
X159169140Y-70052148D01*
X159169142Y-70052149D01*
X159225417Y-70063342D01*
X159225417Y-69209488D01*
X159235357Y-69226705D01*
X159291212Y-69282560D01*
X159359621Y-69322056D01*
X159435921Y-69342500D01*
X159514913Y-69342500D01*
X159591213Y-69322056D01*
X159659622Y-69282560D01*
X159715477Y-69226705D01*
X159725417Y-69209488D01*
X159725417Y-70063342D01*
X159781691Y-70052149D01*
X159781693Y-70052148D01*
X159972775Y-69972999D01*
X159972785Y-69972994D01*
X160144752Y-69858089D01*
X160144756Y-69858086D01*
X160291003Y-69711839D01*
X160291006Y-69711835D01*
X160405911Y-69539868D01*
X160405916Y-69539858D01*
X160485066Y-69348774D01*
X160485068Y-69348766D01*
X160525416Y-69145920D01*
X160525417Y-69145917D01*
X160525417Y-68992500D01*
X159775417Y-68992500D01*
X159775417Y-68533850D01*
X160703272Y-68699404D01*
X160709313Y-68700638D01*
X162020341Y-69002983D01*
X162026280Y-69004511D01*
X163312058Y-69369368D01*
X163317903Y-69371185D01*
X164576803Y-69796874D01*
X164582518Y-69798965D01*
X165812875Y-70283800D01*
X165818423Y-70286145D01*
X166594182Y-70636681D01*
X166631740Y-70662946D01*
X169413772Y-73505772D01*
X173771566Y-77958793D01*
X173801379Y-77989257D01*
X179891651Y-83890031D01*
X179918365Y-83928027D01*
X180129961Y-84396301D01*
X180140962Y-84447425D01*
X180134121Y-97717525D01*
X180114402Y-97784554D01*
X180097802Y-97805142D01*
X178817264Y-99085681D01*
X178755941Y-99119166D01*
X178729583Y-99122000D01*
X178727892Y-99122000D01*
X178582942Y-99122000D01*
X178454410Y-99156440D01*
X178442928Y-99159517D01*
X178317405Y-99231988D01*
X178317399Y-99231993D01*
X178214910Y-99334482D01*
X178214905Y-99334488D01*
X178142434Y-99460011D01*
X178142433Y-99460015D01*
X178104917Y-99600025D01*
X178104917Y-99744975D01*
X178142433Y-99884985D01*
X178142434Y-99884988D01*
X178212450Y-100006258D01*
X178216993Y-100024987D01*
X178223934Y-100037698D01*
X178261312Y-100056968D01*
X178263423Y-100059030D01*
X178317402Y-100113009D01*
X178317403Y-100113010D01*
X178317405Y-100113011D01*
X178442928Y-100185482D01*
X178442929Y-100185482D01*
X178442932Y-100185484D01*
X178582942Y-100223000D01*
X178582945Y-100223000D01*
X178727889Y-100223000D01*
X178727892Y-100223000D01*
X178867902Y-100185484D01*
X178993432Y-100113009D01*
X179095926Y-100010515D01*
X179168401Y-99884985D01*
X179205917Y-99744975D01*
X179205917Y-99600025D01*
X179205917Y-99598331D01*
X179225602Y-99531292D01*
X179242231Y-99510655D01*
X179921825Y-98831061D01*
X179983144Y-98797579D01*
X180052835Y-98802563D01*
X180108769Y-98844434D01*
X180133186Y-98909899D01*
X180133502Y-98918809D01*
X180129698Y-106299476D01*
X180109979Y-106366505D01*
X180093247Y-106387225D01*
X172611713Y-113846313D01*
X172550340Y-113879706D01*
X172524164Y-113882500D01*
X170277588Y-113882500D01*
X170230135Y-113873061D01*
X170076477Y-113809413D01*
X169785183Y-113731361D01*
X169486210Y-113692001D01*
X169486205Y-113692000D01*
X169486200Y-113692000D01*
X169184634Y-113692000D01*
X169184628Y-113692000D01*
X169184623Y-113692001D01*
X168885650Y-113731361D01*
X168594356Y-113809413D01*
X168440699Y-113873061D01*
X168393246Y-113882500D01*
X142517588Y-113882500D01*
X142470135Y-113873061D01*
X142316477Y-113809413D01*
X142025183Y-113731361D01*
X141726210Y-113692001D01*
X141726205Y-113692000D01*
X141726200Y-113692000D01*
X141424634Y-113692000D01*
X141424628Y-113692000D01*
X141424623Y-113692001D01*
X141125650Y-113731361D01*
X140834356Y-113809413D01*
X140680699Y-113873061D01*
X140633246Y-113882500D01*
X137847124Y-113882500D01*
X137780085Y-113862815D01*
X137759028Y-113845764D01*
X137034905Y-113114737D01*
X137001711Y-113053256D01*
X137001548Y-113002474D01*
X137096279Y-112542351D01*
X137104233Y-112512669D01*
X137104233Y-112503721D01*
X137106038Y-112494954D01*
X137104233Y-112464273D01*
X137104233Y-112433545D01*
X137101916Y-112424899D01*
X137101391Y-112415967D01*
X137092858Y-112390264D01*
X137090768Y-112383289D01*
X137083757Y-112357125D01*
X137083755Y-112357120D01*
X137083755Y-112357119D01*
X137079279Y-112349367D01*
X137076460Y-112340875D01*
X137059557Y-112315208D01*
X137044193Y-112288596D01*
X137044189Y-112288592D01*
X137039247Y-112282151D01*
X137039354Y-112282068D01*
X137038364Y-112280853D01*
X137038263Y-112280941D01*
X137032944Y-112274793D01*
X137012695Y-112256796D01*
X137007391Y-112251795D01*
X131978800Y-107223208D01*
X131978798Y-107223206D01*
X131966200Y-107215933D01*
X131953601Y-107208659D01*
X131910279Y-107183647D01*
X131910278Y-107183646D01*
X131884801Y-107176819D01*
X131833850Y-107163167D01*
X131833848Y-107163167D01*
X131191252Y-107163167D01*
X131124213Y-107143482D01*
X131103156Y-107126431D01*
X130595888Y-106614327D01*
X130437920Y-106454853D01*
X130404727Y-106393373D01*
X130402018Y-106367008D01*
X130412380Y-104182947D01*
X131092259Y-104182947D01*
X131092259Y-104482052D01*
X131092260Y-104482068D01*
X131131300Y-104778607D01*
X131131301Y-104778612D01*
X131131302Y-104778618D01*
X131180264Y-104961348D01*
X131208718Y-105067541D01*
X131323185Y-105343889D01*
X131323190Y-105343900D01*
X131472741Y-105602928D01*
X131472752Y-105602944D01*
X131654835Y-105840241D01*
X131654841Y-105840248D01*
X131866339Y-106051746D01*
X131866345Y-106051751D01*
X132103652Y-106233842D01*
X132103659Y-106233846D01*
X132362687Y-106383397D01*
X132362692Y-106383399D01*
X132362695Y-106383401D01*
X132639044Y-106497869D01*
X132927970Y-106575286D01*
X133224529Y-106614329D01*
X133224536Y-106614329D01*
X133523640Y-106614329D01*
X133523647Y-106614329D01*
X133820206Y-106575286D01*
X134109132Y-106497869D01*
X134385481Y-106383401D01*
X134644524Y-106233842D01*
X134881831Y-106051751D01*
X135093339Y-105840243D01*
X135275430Y-105602936D01*
X135424989Y-105343893D01*
X135539457Y-105067544D01*
X135616874Y-104778618D01*
X135655917Y-104482059D01*
X135655917Y-104182941D01*
X135616874Y-103886382D01*
X135539457Y-103597456D01*
X135424989Y-103321107D01*
X135424987Y-103321104D01*
X135424985Y-103321099D01*
X135275434Y-103062071D01*
X135275430Y-103062064D01*
X135178406Y-102935619D01*
X135093340Y-102824758D01*
X135093334Y-102824751D01*
X134881836Y-102613253D01*
X134881829Y-102613247D01*
X134644532Y-102431164D01*
X134644530Y-102431162D01*
X134644524Y-102431158D01*
X134644519Y-102431155D01*
X134644516Y-102431153D01*
X134385488Y-102281602D01*
X134385477Y-102281597D01*
X134223598Y-102214544D01*
X134109132Y-102167131D01*
X134109130Y-102167130D01*
X134109129Y-102167130D01*
X134023293Y-102144130D01*
X133820206Y-102089714D01*
X133820200Y-102089713D01*
X133820195Y-102089712D01*
X133523656Y-102050672D01*
X133523653Y-102050671D01*
X133523647Y-102050671D01*
X133224529Y-102050671D01*
X133224523Y-102050671D01*
X133224519Y-102050672D01*
X132927980Y-102089712D01*
X132927973Y-102089713D01*
X132927970Y-102089714D01*
X132842131Y-102112714D01*
X132639046Y-102167130D01*
X132362698Y-102281597D01*
X132362687Y-102281602D01*
X132103659Y-102431153D01*
X132103643Y-102431164D01*
X131866346Y-102613247D01*
X131866339Y-102613253D01*
X131654841Y-102824751D01*
X131654835Y-102824758D01*
X131472752Y-103062055D01*
X131472741Y-103062071D01*
X131323190Y-103321099D01*
X131323185Y-103321110D01*
X131208718Y-103597458D01*
X131131303Y-103886379D01*
X131131300Y-103886392D01*
X131092260Y-104182931D01*
X131092259Y-104182947D01*
X130412380Y-104182947D01*
X130444058Y-97506252D01*
X130464061Y-97439310D01*
X130517081Y-97393807D01*
X130586286Y-97384191D01*
X130649703Y-97413517D01*
X130655738Y-97419163D01*
X131236389Y-97999814D01*
X131329575Y-98093000D01*
X131405271Y-98136703D01*
X131442379Y-98158128D01*
X131443703Y-98158892D01*
X131570997Y-98193000D01*
X131570999Y-98193000D01*
X136362676Y-98193000D01*
X136362678Y-98193000D01*
X136489972Y-98158892D01*
X136604100Y-98093000D01*
X136879797Y-97817301D01*
X136920023Y-97790425D01*
X136927368Y-97787381D01*
X136927375Y-97787380D01*
X137052905Y-97714905D01*
X137155399Y-97612411D01*
X137227874Y-97486881D01*
X137265390Y-97346871D01*
X137265390Y-97201921D01*
X137227874Y-97061911D01*
X137215039Y-97039681D01*
X137155401Y-96936384D01*
X137155396Y-96936378D01*
X137052907Y-96833889D01*
X137052901Y-96833884D01*
X136927378Y-96761413D01*
X136927379Y-96761413D01*
X136905987Y-96755681D01*
X136787365Y-96723896D01*
X136642415Y-96723896D01*
X136642413Y-96723896D01*
X136624187Y-96728780D01*
X136554337Y-96727117D01*
X136496475Y-96687954D01*
X136468972Y-96623725D01*
X136472319Y-96576915D01*
X136488122Y-96517941D01*
X136488122Y-96372991D01*
X136450606Y-96232981D01*
X136378131Y-96107451D01*
X136275637Y-96004957D01*
X136275635Y-96004956D01*
X136275633Y-96004954D01*
X136150110Y-95932483D01*
X136150111Y-95932483D01*
X136125502Y-95925889D01*
X136010097Y-95894966D01*
X135865147Y-95894966D01*
X135749742Y-95925889D01*
X135725133Y-95932483D01*
X135599610Y-96004954D01*
X135599604Y-96004959D01*
X135497115Y-96107448D01*
X135497110Y-96107454D01*
X135424639Y-96232977D01*
X135424638Y-96232981D01*
X135387122Y-96372991D01*
X135387122Y-96372993D01*
X135387122Y-96519632D01*
X135378477Y-96549072D01*
X135371954Y-96579059D01*
X135368199Y-96584074D01*
X135367437Y-96586671D01*
X135350807Y-96607308D01*
X135202434Y-96755682D01*
X135141114Y-96789166D01*
X135114755Y-96792000D01*
X133581250Y-96792000D01*
X133514211Y-96772315D01*
X133493569Y-96755681D01*
X133363414Y-96625526D01*
X133329929Y-96564203D01*
X133334913Y-96494511D01*
X133376785Y-96438578D01*
X133442249Y-96414161D01*
X133498544Y-96423282D01*
X133504104Y-96425585D01*
X133504106Y-96425586D01*
X133644116Y-96463102D01*
X133644119Y-96463102D01*
X133789063Y-96463102D01*
X133789066Y-96463102D01*
X133929076Y-96425586D01*
X134054606Y-96353111D01*
X134157100Y-96250617D01*
X134229575Y-96125087D01*
X134267091Y-95985077D01*
X134267091Y-95840127D01*
X134229575Y-95700117D01*
X134207021Y-95661053D01*
X134157102Y-95574590D01*
X134157097Y-95574584D01*
X134054608Y-95472095D01*
X134054602Y-95472090D01*
X133929079Y-95399619D01*
X133929080Y-95399619D01*
X133906217Y-95393493D01*
X133789066Y-95362102D01*
X133789063Y-95362102D01*
X133783846Y-95362102D01*
X133716807Y-95342417D01*
X133696165Y-95325783D01*
X133400406Y-95030024D01*
X136645679Y-95030024D01*
X136645679Y-95174974D01*
X136679943Y-95302848D01*
X136683196Y-95314987D01*
X136755667Y-95440510D01*
X136755672Y-95440516D01*
X136779975Y-95464819D01*
X136813460Y-95526142D01*
X136808476Y-95595834D01*
X136779977Y-95640180D01*
X136755667Y-95664490D01*
X136683196Y-95790013D01*
X136683195Y-95790017D01*
X136645679Y-95930027D01*
X136645679Y-96074977D01*
X136683195Y-96214987D01*
X136716556Y-96272771D01*
X136716560Y-96272780D01*
X136754833Y-96339067D01*
X136755670Y-96340517D01*
X136858164Y-96443011D01*
X136858165Y-96443012D01*
X136858167Y-96443013D01*
X136983690Y-96515484D01*
X136983691Y-96515484D01*
X136983694Y-96515486D01*
X137123704Y-96553002D01*
X137123707Y-96553002D01*
X137268651Y-96553002D01*
X137268654Y-96553002D01*
X137408664Y-96515486D01*
X137534194Y-96443011D01*
X137636688Y-96340517D01*
X137709163Y-96214987D01*
X137746679Y-96074977D01*
X137746679Y-95947570D01*
X137766364Y-95880531D01*
X137782998Y-95859889D01*
X137906620Y-95736267D01*
X137993237Y-95649650D01*
X138054559Y-95616166D01*
X138124251Y-95621150D01*
X138180184Y-95663022D01*
X138204601Y-95728486D01*
X138204917Y-95737332D01*
X138204917Y-97013380D01*
X138204917Y-97013381D01*
X138204917Y-97060975D01*
X138204917Y-97181882D01*
X138208389Y-97206032D01*
X138239329Y-97421230D01*
X138239332Y-97421240D01*
X138264294Y-97506252D01*
X138307458Y-97653253D01*
X138345663Y-97736910D01*
X138407910Y-97873214D01*
X138407913Y-97873219D01*
X138538645Y-98076640D01*
X138538651Y-98076647D01*
X138696998Y-98259391D01*
X138697000Y-98259393D01*
X138879744Y-98417740D01*
X138879751Y-98417746D01*
X139079308Y-98545995D01*
X139083177Y-98548481D01*
X139303139Y-98648934D01*
X139535157Y-98717061D01*
X139535158Y-98717061D01*
X139535161Y-98717062D01*
X139606531Y-98727323D01*
X139774510Y-98751475D01*
X139774511Y-98751475D01*
X140404286Y-98751475D01*
X140404287Y-98751475D01*
X140596415Y-98723850D01*
X140643635Y-98717062D01*
X140643636Y-98717061D01*
X140643640Y-98717061D01*
X140875658Y-98648934D01*
X141095620Y-98548481D01*
X141299046Y-98417746D01*
X141481797Y-98259392D01*
X141485858Y-98254706D01*
X141525987Y-98208394D01*
X141640151Y-98076641D01*
X141770886Y-97873215D01*
X141871339Y-97653253D01*
X141939466Y-97421235D01*
X141945959Y-97376079D01*
X141958047Y-97292000D01*
X141973880Y-97181882D01*
X141973880Y-97060975D01*
X141973880Y-97013381D01*
X141973880Y-97013380D01*
X141973880Y-91670025D01*
X144874917Y-91670025D01*
X144874917Y-91814975D01*
X144906992Y-91934678D01*
X144912434Y-91954988D01*
X144984905Y-92080511D01*
X144984910Y-92080517D01*
X144988598Y-92084205D01*
X145022083Y-92145528D01*
X145024917Y-92171886D01*
X145024917Y-94504977D01*
X145024917Y-94610431D01*
X145030447Y-94631068D01*
X145052210Y-94712293D01*
X145070872Y-94744615D01*
X145104937Y-94803617D01*
X145104939Y-94803619D01*
X148810996Y-98509676D01*
X148844481Y-98570999D01*
X148847315Y-98597357D01*
X148847315Y-101067624D01*
X148874608Y-101169487D01*
X148887618Y-101192020D01*
X148927335Y-101260811D01*
X149424936Y-101758412D01*
X149424937Y-101758413D01*
X149499504Y-101832980D01*
X149590830Y-101885707D01*
X149692690Y-101913000D01*
X149798143Y-101913000D01*
X152648162Y-101913000D01*
X152715201Y-101932685D01*
X152735843Y-101949319D01*
X153249524Y-102463000D01*
X153283009Y-102524323D01*
X153278025Y-102594015D01*
X153236153Y-102649948D01*
X153170689Y-102674365D01*
X153161843Y-102674681D01*
X151951844Y-102674681D01*
X151872720Y-102674681D01*
X151838061Y-102683968D01*
X151796291Y-102695160D01*
X151796286Y-102695163D01*
X151727777Y-102734716D01*
X151727769Y-102734722D01*
X151671823Y-102790668D01*
X151671817Y-102790676D01*
X151628820Y-102865148D01*
X151578253Y-102913363D01*
X151559753Y-102921078D01*
X151381781Y-102978905D01*
X151192439Y-103075380D01*
X151138282Y-103114727D01*
X151138282Y-103114728D01*
X151575463Y-103551909D01*
X151608948Y-103613232D01*
X151611782Y-103639590D01*
X151611782Y-103819053D01*
X151592993Y-103829901D01*
X151499901Y-103922993D01*
X151434075Y-104037007D01*
X151418500Y-104095131D01*
X151406579Y-104089687D01*
X151400101Y-104083655D01*
X150784728Y-103468282D01*
X150784727Y-103468282D01*
X150745380Y-103522439D01*
X150648904Y-103711782D01*
X150583242Y-103913869D01*
X150583242Y-103913872D01*
X150550000Y-104123753D01*
X150550000Y-104336246D01*
X150583242Y-104546127D01*
X150583242Y-104546130D01*
X150648904Y-104748217D01*
X150745375Y-104937550D01*
X150784728Y-104991716D01*
X151400101Y-104376345D01*
X151418834Y-104366115D01*
X151434075Y-104422993D01*
X151499901Y-104537007D01*
X151592993Y-104630099D01*
X151611782Y-104640946D01*
X151611782Y-104820409D01*
X151592097Y-104887448D01*
X151575463Y-104908090D01*
X151101195Y-105382356D01*
X151039872Y-105415841D01*
X151025167Y-105414924D01*
X151025444Y-105417497D01*
X150942626Y-105426401D01*
X150942619Y-105426403D01*
X150807913Y-105476645D01*
X150807906Y-105476649D01*
X150692812Y-105562809D01*
X150692809Y-105562812D01*
X150606649Y-105677906D01*
X150606645Y-105677913D01*
X150556403Y-105812620D01*
X150556401Y-105812627D01*
X150550000Y-105872155D01*
X150550000Y-106520000D01*
X151466988Y-106520000D01*
X151434075Y-106577007D01*
X151400000Y-106704174D01*
X151400000Y-106835826D01*
X151434075Y-106962993D01*
X151466988Y-107020000D01*
X150550000Y-107020000D01*
X150550000Y-107667844D01*
X150556401Y-107727372D01*
X150556403Y-107727379D01*
X150606645Y-107862086D01*
X150606649Y-107862093D01*
X150692809Y-107977187D01*
X150692812Y-107977190D01*
X150807906Y-108063350D01*
X150807913Y-108063354D01*
X150942620Y-108113596D01*
X150942627Y-108113598D01*
X151002155Y-108119999D01*
X151002172Y-108120000D01*
X151515785Y-108120000D01*
X151582824Y-108139685D01*
X151628579Y-108192489D01*
X151630345Y-108196546D01*
X151632260Y-108201170D01*
X151671817Y-108269685D01*
X151671821Y-108269690D01*
X151671822Y-108269692D01*
X151727771Y-108325641D01*
X151727773Y-108325642D01*
X151727777Y-108325645D01*
X151796286Y-108365198D01*
X151796293Y-108365202D01*
X151872720Y-108385681D01*
X151872722Y-108385681D01*
X153251842Y-108385681D01*
X153251844Y-108385681D01*
X153328271Y-108365202D01*
X153396793Y-108325641D01*
X153452742Y-108269692D01*
X153492303Y-108201170D01*
X153494219Y-108196546D01*
X153538060Y-108142143D01*
X153604355Y-108120079D01*
X153608779Y-108120000D01*
X153980917Y-108120000D01*
X154047956Y-108139685D01*
X154093711Y-108192489D01*
X154104917Y-108244000D01*
X154104917Y-108495226D01*
X154132210Y-108597089D01*
X154149067Y-108626285D01*
X154184937Y-108688413D01*
X154349504Y-108852980D01*
X154440829Y-108905707D01*
X154542690Y-108933000D01*
X154648144Y-108933000D01*
X154956122Y-108933000D01*
X154974290Y-108935391D01*
X154974392Y-108934619D01*
X154982446Y-108935679D01*
X154982448Y-108935680D01*
X154982450Y-108935680D01*
X158919832Y-108935680D01*
X158919834Y-108935680D01*
X159021695Y-108908387D01*
X159113020Y-108855660D01*
X159809359Y-108159318D01*
X159870682Y-108125834D01*
X159897040Y-108123000D01*
X170438142Y-108123000D01*
X170438144Y-108123000D01*
X170540005Y-108095707D01*
X170631330Y-108042980D01*
X177573835Y-101100476D01*
X177635158Y-101066991D01*
X177661516Y-101064157D01*
X177666733Y-101064157D01*
X177666736Y-101064157D01*
X177806746Y-101026641D01*
X177932276Y-100954166D01*
X178034770Y-100851672D01*
X178107245Y-100726142D01*
X178144761Y-100586132D01*
X178144761Y-100583291D01*
X178144778Y-100581249D01*
X178144964Y-100569939D01*
X178145917Y-100566384D01*
X178145917Y-100512085D01*
X178145918Y-100512025D01*
X178145918Y-100397641D01*
X178145832Y-100397318D01*
X178118624Y-100295780D01*
X178088748Y-100244034D01*
X178088747Y-100244032D01*
X178088747Y-100244031D01*
X178068355Y-100208711D01*
X178061522Y-100180545D01*
X178045636Y-100177090D01*
X178021557Y-100159064D01*
X178019494Y-100158001D01*
X178017382Y-100155939D01*
X177984262Y-100122819D01*
X177984261Y-100122819D01*
X177903464Y-100042021D01*
X177903463Y-100042020D01*
X177848899Y-100010517D01*
X177812139Y-99989293D01*
X177761207Y-99975646D01*
X177710277Y-99962000D01*
X177710276Y-99962000D01*
X177593623Y-99962000D01*
X177593607Y-99961999D01*
X177586011Y-99961999D01*
X177480557Y-99961999D01*
X177412650Y-99980195D01*
X177378696Y-99989293D01*
X177334725Y-100014680D01*
X177290907Y-100039979D01*
X177287368Y-100042022D01*
X177124939Y-100204451D01*
X177124935Y-100204457D01*
X177072210Y-100295778D01*
X177072209Y-100295781D01*
X177064930Y-100322950D01*
X177044917Y-100397640D01*
X177044917Y-100435444D01*
X177044114Y-100439863D01*
X177043761Y-100441182D01*
X177043761Y-100441808D01*
X177043761Y-100446401D01*
X177024076Y-100513440D01*
X177007442Y-100534082D01*
X170255843Y-107285681D01*
X170194520Y-107319166D01*
X170168162Y-107322000D01*
X159799125Y-107322000D01*
X159732086Y-107302315D01*
X159686331Y-107249511D01*
X159676387Y-107180353D01*
X159684564Y-107150547D01*
X159692412Y-107131601D01*
X159732782Y-106928646D01*
X159732782Y-106721716D01*
X159692412Y-106518761D01*
X159613223Y-106327583D01*
X159498259Y-106155526D01*
X159498257Y-106155523D01*
X159351939Y-106009205D01*
X159224611Y-105924128D01*
X159179880Y-105894240D01*
X159126562Y-105872155D01*
X158988702Y-105815051D01*
X158988694Y-105815049D01*
X158819016Y-105781298D01*
X158757105Y-105748913D01*
X158722531Y-105688198D01*
X158726270Y-105618428D01*
X158767137Y-105561756D01*
X158832155Y-105536175D01*
X158843207Y-105535681D01*
X160042032Y-105535681D01*
X160042033Y-105535680D01*
X160056850Y-105532733D01*
X160100511Y-105524049D01*
X160100511Y-105524048D01*
X160100513Y-105524048D01*
X160166834Y-105479733D01*
X160211149Y-105413412D01*
X160211149Y-105413410D01*
X160211150Y-105413410D01*
X160222781Y-105354933D01*
X160222782Y-105354931D01*
X160222782Y-103315430D01*
X160222781Y-103315428D01*
X160211150Y-103256951D01*
X160211149Y-103256950D01*
X160166833Y-103190627D01*
X160108459Y-103151622D01*
X160063654Y-103098009D01*
X160054948Y-103028684D01*
X160085104Y-102965657D01*
X160108461Y-102945419D01*
X160176833Y-102899734D01*
X160176834Y-102899733D01*
X160221149Y-102833412D01*
X160221149Y-102833410D01*
X160221150Y-102833410D01*
X160232781Y-102774933D01*
X160232782Y-102774931D01*
X160232782Y-100735430D01*
X160232781Y-100735428D01*
X160221150Y-100676951D01*
X160221149Y-100676950D01*
X160176834Y-100610628D01*
X160110512Y-100566313D01*
X160110511Y-100566312D01*
X160052034Y-100554681D01*
X160052030Y-100554681D01*
X157656782Y-100554681D01*
X157589743Y-100534996D01*
X157543988Y-100482192D01*
X157532782Y-100430681D01*
X157532782Y-100280439D01*
X157532782Y-100280438D01*
X157512303Y-100204011D01*
X157512299Y-100204004D01*
X157472746Y-100135495D01*
X157472740Y-100135487D01*
X157416794Y-100079541D01*
X157416786Y-100079535D01*
X157348277Y-100039982D01*
X157348272Y-100039979D01*
X157322795Y-100033152D01*
X157271844Y-100019500D01*
X155281844Y-100019500D01*
X155202720Y-100019500D01*
X155164506Y-100029739D01*
X155126291Y-100039979D01*
X155126286Y-100039982D01*
X155057777Y-100079535D01*
X155057769Y-100079541D01*
X155001823Y-100135487D01*
X155001817Y-100135495D01*
X154962264Y-100204004D01*
X154962261Y-100204009D01*
X154941782Y-100280439D01*
X154941782Y-102723110D01*
X154922097Y-102790149D01*
X154869293Y-102835904D01*
X154800135Y-102845848D01*
X154736579Y-102816823D01*
X154730101Y-102810791D01*
X153111332Y-101192022D01*
X153111330Y-101192020D01*
X153065667Y-101165656D01*
X153020006Y-101139293D01*
X152969074Y-101125646D01*
X152918144Y-101112000D01*
X152918143Y-101112000D01*
X149962672Y-101112000D01*
X149895633Y-101092315D01*
X149874991Y-101075681D01*
X149684634Y-100885324D01*
X149651149Y-100824001D01*
X149648315Y-100797643D01*
X149648315Y-98327376D01*
X149646917Y-98322157D01*
X149646917Y-98322156D01*
X149637582Y-98287319D01*
X149621022Y-98225514D01*
X149568295Y-98134189D01*
X145862236Y-94428130D01*
X145828751Y-94366807D01*
X145825917Y-94340449D01*
X145825917Y-92171886D01*
X145845602Y-92104847D01*
X145862236Y-92084205D01*
X145865926Y-92080515D01*
X145938401Y-91954985D01*
X145975917Y-91814975D01*
X145975917Y-91670025D01*
X145938401Y-91530015D01*
X145911436Y-91483311D01*
X145865928Y-91404488D01*
X145865923Y-91404482D01*
X145763434Y-91301993D01*
X145763428Y-91301988D01*
X145637905Y-91229517D01*
X145637906Y-91229517D01*
X145615745Y-91223579D01*
X145497892Y-91192000D01*
X145352942Y-91192000D01*
X145235089Y-91223579D01*
X145212928Y-91229517D01*
X145087405Y-91301988D01*
X145087399Y-91301993D01*
X144984910Y-91404482D01*
X144984905Y-91404488D01*
X144912434Y-91530011D01*
X144912433Y-91530015D01*
X144874917Y-91670025D01*
X141973880Y-91670025D01*
X141973880Y-91632938D01*
X141973880Y-91551593D01*
X141945493Y-91354157D01*
X141939467Y-91312244D01*
X141939464Y-91312234D01*
X141936457Y-91301993D01*
X141871339Y-91080222D01*
X141770886Y-90860260D01*
X141714401Y-90772369D01*
X141640151Y-90656834D01*
X141640145Y-90656827D01*
X141481798Y-90474083D01*
X141481796Y-90474081D01*
X141397124Y-90400713D01*
X141359349Y-90341935D01*
X141359349Y-90272066D01*
X141397123Y-90213287D01*
X141460678Y-90184262D01*
X141478326Y-90183000D01*
X143696031Y-90183000D01*
X143763070Y-90202685D01*
X143783712Y-90219319D01*
X143784908Y-90220515D01*
X143887402Y-90323009D01*
X143887403Y-90323010D01*
X143887405Y-90323011D01*
X144012928Y-90395482D01*
X144012929Y-90395482D01*
X144012932Y-90395484D01*
X144152942Y-90433000D01*
X144152945Y-90433000D01*
X144297889Y-90433000D01*
X144297892Y-90433000D01*
X144437902Y-90395484D01*
X144563432Y-90323009D01*
X144665926Y-90220515D01*
X144665926Y-90220514D01*
X144667122Y-90219319D01*
X144728445Y-90185834D01*
X144754803Y-90183000D01*
X145211741Y-90183000D01*
X145278780Y-90202685D01*
X145299422Y-90219319D01*
X145437114Y-90357011D01*
X145493063Y-90412960D01*
X145493065Y-90412961D01*
X145493069Y-90412964D01*
X145561578Y-90452517D01*
X145561585Y-90452521D01*
X145638012Y-90473000D01*
X145717136Y-90473000D01*
X149235296Y-90473000D01*
X149302335Y-90492685D01*
X149322977Y-90509319D01*
X149798598Y-90984940D01*
X149832083Y-91046263D01*
X149834917Y-91072621D01*
X149834917Y-94638165D01*
X149815232Y-94705204D01*
X149772919Y-94745550D01*
X149740126Y-94764484D01*
X149727782Y-94771611D01*
X149727779Y-94771613D01*
X149625290Y-94874102D01*
X149625285Y-94874108D01*
X149552814Y-94999631D01*
X149548380Y-95016175D01*
X149515297Y-95139645D01*
X149515297Y-95284595D01*
X149546118Y-95399618D01*
X149552814Y-95424608D01*
X149625285Y-95550131D01*
X149625287Y-95550133D01*
X149625288Y-95550135D01*
X149727782Y-95652629D01*
X149727783Y-95652630D01*
X149727785Y-95652631D01*
X149853308Y-95725102D01*
X149853309Y-95725102D01*
X149853312Y-95725104D01*
X149993322Y-95762620D01*
X149993325Y-95762620D01*
X150138269Y-95762620D01*
X150138272Y-95762620D01*
X150278282Y-95725104D01*
X150403812Y-95652629D01*
X150506306Y-95550135D01*
X150568906Y-95441709D01*
X150619473Y-95393493D01*
X150688080Y-95380271D01*
X150752945Y-95406239D01*
X150763974Y-95416028D01*
X151098475Y-95750529D01*
X151131960Y-95811852D01*
X151126976Y-95881544D01*
X151098478Y-95925889D01*
X151084023Y-95940344D01*
X150969058Y-96112403D01*
X150889870Y-96303579D01*
X150889868Y-96303587D01*
X150849500Y-96506530D01*
X150849500Y-96713469D01*
X150889868Y-96916412D01*
X150889870Y-96916420D01*
X150969058Y-97107596D01*
X151084024Y-97279657D01*
X151230342Y-97425975D01*
X151230345Y-97425977D01*
X151402402Y-97540941D01*
X151402408Y-97540943D01*
X151402409Y-97540944D01*
X151512952Y-97586732D01*
X151567356Y-97630573D01*
X151589421Y-97696867D01*
X151589500Y-97701293D01*
X151589500Y-98058705D01*
X151569815Y-98125744D01*
X151517011Y-98171499D01*
X151512954Y-98173266D01*
X151402402Y-98219058D01*
X151230342Y-98334024D01*
X151084024Y-98480342D01*
X150969058Y-98652403D01*
X150889870Y-98843579D01*
X150889868Y-98843587D01*
X150849500Y-99046530D01*
X150849500Y-99253469D01*
X150889868Y-99456412D01*
X150889870Y-99456420D01*
X150969058Y-99647596D01*
X151084024Y-99819657D01*
X151230342Y-99965975D01*
X151230345Y-99965977D01*
X151402402Y-100080941D01*
X151402408Y-100080943D01*
X151402409Y-100080944D01*
X151512952Y-100126732D01*
X151567356Y-100170573D01*
X151589421Y-100236867D01*
X151589500Y-100241293D01*
X151589500Y-100354742D01*
X151600995Y-100397640D01*
X151609979Y-100431170D01*
X151609982Y-100431175D01*
X151649535Y-100499684D01*
X151649539Y-100499689D01*
X151649540Y-100499691D01*
X151705489Y-100555640D01*
X151705491Y-100555641D01*
X151705495Y-100555644D01*
X151758303Y-100586132D01*
X151774011Y-100595201D01*
X151850438Y-100615680D01*
X151850440Y-100615680D01*
X153329560Y-100615680D01*
X153329562Y-100615680D01*
X153405989Y-100595201D01*
X153474511Y-100555640D01*
X153530460Y-100499691D01*
X153570021Y-100431169D01*
X153590500Y-100354742D01*
X153590500Y-100224725D01*
X153610185Y-100157686D01*
X153662989Y-100111931D01*
X153667048Y-100110164D01*
X153737594Y-100080943D01*
X153737595Y-100080942D01*
X153737598Y-100080941D01*
X153909655Y-99965977D01*
X154055977Y-99819655D01*
X154170941Y-99647598D01*
X154250130Y-99456420D01*
X154290500Y-99253465D01*
X154290500Y-99046535D01*
X154250130Y-98843580D01*
X154170941Y-98652402D01*
X154055977Y-98480345D01*
X154055975Y-98480342D01*
X153909655Y-98334022D01*
X153737604Y-98219062D01*
X153737598Y-98219059D01*
X153674687Y-98193000D01*
X153667045Y-98189834D01*
X153612643Y-98145993D01*
X153590579Y-98079699D01*
X153590500Y-98075274D01*
X153590500Y-97684725D01*
X153610185Y-97617686D01*
X153662989Y-97571931D01*
X153667048Y-97570164D01*
X153737594Y-97540943D01*
X153737595Y-97540942D01*
X153737598Y-97540941D01*
X153909655Y-97425977D01*
X154055977Y-97279655D01*
X154170941Y-97107598D01*
X154216356Y-96997956D01*
X154260197Y-96943554D01*
X154326491Y-96921489D01*
X154394190Y-96938768D01*
X154441801Y-96989905D01*
X154454917Y-97045410D01*
X154454917Y-98632062D01*
X154460859Y-98654238D01*
X154475396Y-98708491D01*
X154475398Y-98708494D01*
X154501271Y-98753306D01*
X154501271Y-98753309D01*
X154501273Y-98753309D01*
X154514957Y-98777011D01*
X155210906Y-99472960D01*
X155270246Y-99507220D01*
X155276186Y-99510650D01*
X155279429Y-99512522D01*
X155355855Y-99533000D01*
X155434979Y-99533000D01*
X162449584Y-99533000D01*
X162516623Y-99552685D01*
X162537265Y-99569319D01*
X163738598Y-100770652D01*
X163772083Y-100831975D01*
X163774917Y-100858333D01*
X163774917Y-100860025D01*
X163774917Y-101004975D01*
X163793863Y-101075681D01*
X163812434Y-101144988D01*
X163884905Y-101270511D01*
X163884907Y-101270513D01*
X163884908Y-101270515D01*
X163987402Y-101373009D01*
X163987403Y-101373010D01*
X163987405Y-101373011D01*
X164112928Y-101445482D01*
X164112929Y-101445482D01*
X164112932Y-101445484D01*
X164252942Y-101483000D01*
X164252945Y-101483000D01*
X164397889Y-101483000D01*
X164397892Y-101483000D01*
X164537902Y-101445484D01*
X164663432Y-101373009D01*
X164765926Y-101270515D01*
X164838401Y-101144985D01*
X164875917Y-101004975D01*
X164875917Y-100860025D01*
X164838401Y-100720015D01*
X164813537Y-100676950D01*
X164765928Y-100594488D01*
X164765923Y-100594482D01*
X164663434Y-100491993D01*
X164663428Y-100491988D01*
X164537905Y-100419517D01*
X164537906Y-100419517D01*
X164526423Y-100416440D01*
X164397892Y-100382000D01*
X164252942Y-100382000D01*
X164251250Y-100382000D01*
X164184211Y-100362315D01*
X164163569Y-100345681D01*
X162809929Y-98992041D01*
X162809921Y-98992035D01*
X162741412Y-98952482D01*
X162741407Y-98952479D01*
X162715930Y-98945652D01*
X162664979Y-98932000D01*
X162664977Y-98932000D01*
X155571250Y-98932000D01*
X155504211Y-98912315D01*
X155483569Y-98895681D01*
X155092236Y-98504348D01*
X155077532Y-98477420D01*
X155060940Y-98451602D01*
X155060048Y-98445401D01*
X155058751Y-98443025D01*
X155055917Y-98416667D01*
X155055917Y-98315971D01*
X155075602Y-98248932D01*
X155128406Y-98203177D01*
X155187727Y-98194289D01*
X155187727Y-98193000D01*
X157094977Y-98193000D01*
X157094979Y-98193000D01*
X157171406Y-98172521D01*
X157239928Y-98132960D01*
X157295877Y-98077011D01*
X157335438Y-98008489D01*
X157355917Y-97932062D01*
X157355917Y-97932059D01*
X157356978Y-97924003D01*
X157360388Y-97924452D01*
X157375602Y-97872642D01*
X157428406Y-97826887D01*
X157479917Y-97815681D01*
X159932032Y-97815681D01*
X159932033Y-97815680D01*
X159946850Y-97812733D01*
X159990511Y-97804049D01*
X159990511Y-97804048D01*
X159990513Y-97804048D01*
X160056834Y-97759733D01*
X160101149Y-97693412D01*
X160101149Y-97693410D01*
X160101150Y-97693410D01*
X160110813Y-97644826D01*
X160112782Y-97634929D01*
X160112782Y-97039681D01*
X160132467Y-96972642D01*
X160185271Y-96926887D01*
X160236782Y-96915681D01*
X160882296Y-96915681D01*
X160882298Y-96915681D01*
X160958725Y-96895202D01*
X161027247Y-96855641D01*
X161083196Y-96799692D01*
X162749653Y-95133235D01*
X167674694Y-95133235D01*
X167674694Y-95432210D01*
X167713715Y-95728614D01*
X167713716Y-95728619D01*
X167713717Y-95728625D01*
X167743594Y-95840127D01*
X167791097Y-96017413D01*
X167905507Y-96293622D01*
X167905512Y-96293633D01*
X168054991Y-96552536D01*
X168055002Y-96552552D01*
X168236997Y-96789733D01*
X168237003Y-96789740D01*
X168448399Y-97001136D01*
X168448406Y-97001142D01*
X168592010Y-97111333D01*
X168685596Y-97183144D01*
X168685603Y-97183148D01*
X168944506Y-97332627D01*
X168944511Y-97332629D01*
X168944514Y-97332631D01*
X169031621Y-97368712D01*
X169220726Y-97447042D01*
X169220727Y-97447042D01*
X169220729Y-97447043D01*
X169509515Y-97524423D01*
X169718856Y-97551982D01*
X169805929Y-97563446D01*
X169805930Y-97563446D01*
X170104905Y-97563446D01*
X170172206Y-97554585D01*
X170401319Y-97524423D01*
X170690105Y-97447043D01*
X170966320Y-97332631D01*
X170972206Y-97329233D01*
X171024970Y-97298769D01*
X171225238Y-97183144D01*
X171462429Y-97001141D01*
X171673835Y-96789735D01*
X171855838Y-96552544D01*
X172005325Y-96293626D01*
X172119737Y-96017411D01*
X172197117Y-95728625D01*
X172236140Y-95432210D01*
X172236140Y-95133236D01*
X172234481Y-95120638D01*
X172212816Y-94956071D01*
X172197117Y-94836821D01*
X172119737Y-94548035D01*
X172116326Y-94539801D01*
X172005326Y-94271823D01*
X172005321Y-94271812D01*
X171855842Y-94012909D01*
X171855838Y-94012902D01*
X171715140Y-93829541D01*
X171673836Y-93775712D01*
X171673830Y-93775705D01*
X171462434Y-93564309D01*
X171462427Y-93564303D01*
X171225246Y-93382308D01*
X171225244Y-93382306D01*
X171225238Y-93382302D01*
X171225233Y-93382299D01*
X171225230Y-93382297D01*
X170966327Y-93232818D01*
X170966316Y-93232813D01*
X170690107Y-93118403D01*
X170494508Y-93065993D01*
X170401319Y-93041023D01*
X170401313Y-93041022D01*
X170401308Y-93041021D01*
X170104905Y-93002000D01*
X170104904Y-93002000D01*
X169805930Y-93002000D01*
X169805929Y-93002000D01*
X169509525Y-93041021D01*
X169509518Y-93041022D01*
X169509515Y-93041023D01*
X169475091Y-93050247D01*
X169220726Y-93118403D01*
X168944517Y-93232813D01*
X168944506Y-93232818D01*
X168685603Y-93382297D01*
X168685587Y-93382308D01*
X168448406Y-93564303D01*
X168448399Y-93564309D01*
X168237003Y-93775705D01*
X168236997Y-93775712D01*
X168055002Y-94012893D01*
X168054991Y-94012909D01*
X167905512Y-94271812D01*
X167905507Y-94271823D01*
X167791097Y-94548032D01*
X167735458Y-94755682D01*
X167722588Y-94803716D01*
X167713718Y-94836818D01*
X167713715Y-94836831D01*
X167674694Y-95133235D01*
X162749653Y-95133235D01*
X163965877Y-93917011D01*
X164005439Y-93848488D01*
X164025917Y-93772062D01*
X164025917Y-93692938D01*
X164025917Y-91658333D01*
X164045602Y-91591294D01*
X164062236Y-91570652D01*
X164343569Y-91289319D01*
X164404892Y-91255834D01*
X164431250Y-91253000D01*
X171213898Y-91253000D01*
X171280937Y-91272685D01*
X171301579Y-91289319D01*
X173198598Y-93186338D01*
X173232083Y-93247661D01*
X173234917Y-93274019D01*
X173234917Y-93491301D01*
X173255396Y-93567728D01*
X173283561Y-93616512D01*
X173287715Y-93623706D01*
X173294959Y-93636253D01*
X173488242Y-93829535D01*
X173675718Y-94017011D01*
X173731667Y-94072960D01*
X173731669Y-94072961D01*
X173731673Y-94072964D01*
X173799124Y-94111906D01*
X173800189Y-94112521D01*
X173876616Y-94133000D01*
X173876618Y-94133000D01*
X174494216Y-94133000D01*
X174494218Y-94133000D01*
X174570645Y-94112521D01*
X174639167Y-94072960D01*
X174695116Y-94017011D01*
X175075877Y-93636250D01*
X175087273Y-93616512D01*
X175115438Y-93567728D01*
X175135917Y-93491301D01*
X175135917Y-92873699D01*
X175115438Y-92797272D01*
X175103459Y-92776524D01*
X175075881Y-92728756D01*
X175075875Y-92728748D01*
X174639166Y-92292039D01*
X174631213Y-92287448D01*
X174615306Y-92278264D01*
X174615305Y-92278263D01*
X174592975Y-92265371D01*
X174570646Y-92252479D01*
X174542629Y-92244972D01*
X174494218Y-92232000D01*
X174494216Y-92232000D01*
X174276936Y-92232000D01*
X174209897Y-92212315D01*
X174189255Y-92195681D01*
X171905613Y-89912039D01*
X171888673Y-89902259D01*
X171871733Y-89892479D01*
X171871732Y-89892478D01*
X171837097Y-89872481D01*
X171837094Y-89872479D01*
X171798878Y-89862239D01*
X171760665Y-89852000D01*
X167642262Y-89852000D01*
X167575223Y-89832315D01*
X167529468Y-89779511D01*
X167519524Y-89710353D01*
X167548549Y-89646797D01*
X167580261Y-89620614D01*
X167593425Y-89613013D01*
X167593424Y-89613013D01*
X167593432Y-89613009D01*
X167695926Y-89510515D01*
X167768401Y-89384985D01*
X167805917Y-89244975D01*
X167805917Y-89100025D01*
X167768401Y-88960015D01*
X167744720Y-88918999D01*
X167728248Y-88851101D01*
X167751100Y-88785074D01*
X167806021Y-88741883D01*
X167852108Y-88733000D01*
X176548162Y-88733000D01*
X176615201Y-88752685D01*
X176635843Y-88769319D01*
X177515167Y-89648643D01*
X177534872Y-89674322D01*
X177554938Y-89709076D01*
X177812595Y-89966732D01*
X178068843Y-90222980D01*
X178103591Y-90243042D01*
X178129271Y-90262747D01*
X178296843Y-90430319D01*
X178330328Y-90491642D01*
X178325344Y-90561334D01*
X178283472Y-90617267D01*
X178218008Y-90641684D01*
X178209162Y-90642000D01*
X178202942Y-90642000D01*
X178074410Y-90676440D01*
X178062928Y-90679517D01*
X177937405Y-90751988D01*
X177937399Y-90751993D01*
X177834910Y-90854482D01*
X177834905Y-90854488D01*
X177762434Y-90980011D01*
X177724916Y-91120028D01*
X177723856Y-91128085D01*
X177721649Y-91127794D01*
X177705232Y-91183705D01*
X177688598Y-91204347D01*
X177307264Y-91585681D01*
X177245941Y-91619166D01*
X177219583Y-91622000D01*
X177217892Y-91622000D01*
X177072942Y-91622000D01*
X176952219Y-91654348D01*
X176932928Y-91659517D01*
X176807405Y-91731988D01*
X176807399Y-91731993D01*
X176704910Y-91834482D01*
X176704905Y-91834488D01*
X176632434Y-91960011D01*
X176632433Y-91960015D01*
X176594917Y-92100025D01*
X176594917Y-92244975D01*
X176630328Y-92377129D01*
X176632434Y-92384988D01*
X176704905Y-92510511D01*
X176704907Y-92510513D01*
X176704908Y-92510515D01*
X176807402Y-92613009D01*
X176807403Y-92613010D01*
X176807405Y-92613011D01*
X176932928Y-92685482D01*
X176932929Y-92685482D01*
X176932932Y-92685484D01*
X177072942Y-92723000D01*
X177072945Y-92723000D01*
X177217889Y-92723000D01*
X177217892Y-92723000D01*
X177357902Y-92685484D01*
X177483432Y-92613009D01*
X177585926Y-92510515D01*
X177658401Y-92384985D01*
X177695917Y-92244975D01*
X177695917Y-92100025D01*
X177695917Y-92098332D01*
X177715602Y-92031293D01*
X177732236Y-92010651D01*
X177847772Y-91895115D01*
X177992177Y-91750709D01*
X178053498Y-91717226D01*
X178111947Y-91718617D01*
X178202942Y-91743000D01*
X178202944Y-91743000D01*
X178347889Y-91743000D01*
X178347892Y-91743000D01*
X178487902Y-91705484D01*
X178613432Y-91633009D01*
X178715926Y-91530515D01*
X178788401Y-91404985D01*
X178825917Y-91264975D01*
X178825917Y-91264971D01*
X178826978Y-91256915D01*
X178828807Y-91257155D01*
X178845602Y-91199961D01*
X178898406Y-91154206D01*
X178949917Y-91143000D01*
X179097889Y-91143000D01*
X179097892Y-91143000D01*
X179237902Y-91105484D01*
X179363432Y-91033009D01*
X179465926Y-90930515D01*
X179538401Y-90804985D01*
X179575917Y-90664975D01*
X179575917Y-90520025D01*
X179538401Y-90380015D01*
X179516415Y-90341935D01*
X179465928Y-90254488D01*
X179465923Y-90254482D01*
X179363434Y-90151993D01*
X179363428Y-90151988D01*
X179237905Y-90079517D01*
X179237906Y-90079517D01*
X179226423Y-90076440D01*
X179097892Y-90042000D01*
X179097889Y-90042000D01*
X179092672Y-90042000D01*
X179025633Y-90022315D01*
X179004991Y-90005681D01*
X178581332Y-89582021D01*
X178546578Y-89561955D01*
X178520899Y-89542250D01*
X178235664Y-89257015D01*
X178215958Y-89231334D01*
X178210569Y-89222000D01*
X178195897Y-89196587D01*
X177011330Y-88012020D01*
X176955645Y-87979870D01*
X176920006Y-87959293D01*
X176869074Y-87945646D01*
X176818144Y-87932000D01*
X176818143Y-87932000D01*
X167125988Y-87932000D01*
X167058949Y-87912315D01*
X167038307Y-87895681D01*
X166825769Y-87683143D01*
X166792284Y-87621820D01*
X166797268Y-87552128D01*
X166825765Y-87507786D01*
X167221349Y-87112201D01*
X167221354Y-87112198D01*
X167231557Y-87101994D01*
X167231559Y-87101994D01*
X167306126Y-87027427D01*
X167358853Y-86936101D01*
X167358854Y-86936098D01*
X167360912Y-86928417D01*
X167374940Y-86876063D01*
X167386147Y-86834241D01*
X167386147Y-86728787D01*
X167386147Y-86721192D01*
X167386146Y-86721174D01*
X167386146Y-84848969D01*
X167405831Y-84781930D01*
X167458635Y-84736175D01*
X167478046Y-84729196D01*
X167513758Y-84719628D01*
X167639288Y-84647153D01*
X167741782Y-84544659D01*
X167814257Y-84419129D01*
X167851773Y-84279119D01*
X167851773Y-84134169D01*
X167814257Y-83994159D01*
X167791184Y-83954196D01*
X167741784Y-83868632D01*
X167741783Y-83868631D01*
X167741782Y-83868629D01*
X167728125Y-83854972D01*
X167702179Y-83829025D01*
X167668694Y-83767702D01*
X167673680Y-83698010D01*
X167682470Y-83679353D01*
X167704480Y-83641231D01*
X167731773Y-83539371D01*
X167731773Y-83433917D01*
X167704480Y-83332057D01*
X167651753Y-83240731D01*
X167577186Y-83166164D01*
X167485860Y-83113437D01*
X167485858Y-83113436D01*
X167478049Y-83111344D01*
X167418390Y-83074977D01*
X167387862Y-83012130D01*
X167386146Y-82991570D01*
X167386146Y-80842420D01*
X167405831Y-80775381D01*
X167458635Y-80729626D01*
X167527793Y-80719682D01*
X167591349Y-80748707D01*
X167617531Y-80780417D01*
X167634908Y-80810515D01*
X167737402Y-80913009D01*
X167737403Y-80913010D01*
X167737405Y-80913011D01*
X167862928Y-80985482D01*
X167862929Y-80985482D01*
X167862932Y-80985484D01*
X168002942Y-81023000D01*
X168002945Y-81023000D01*
X168147889Y-81023000D01*
X168147892Y-81023000D01*
X168287902Y-80985484D01*
X168413432Y-80913009D01*
X168515926Y-80810515D01*
X168588401Y-80684985D01*
X168625917Y-80544975D01*
X168625917Y-80400025D01*
X168625917Y-80398332D01*
X168645602Y-80331293D01*
X168662236Y-80310651D01*
X169383931Y-79588956D01*
X170155877Y-78817011D01*
X170193932Y-78751097D01*
X170195438Y-78748489D01*
X170215917Y-78672062D01*
X170215917Y-77482938D01*
X170215917Y-76193899D01*
X170235602Y-76126860D01*
X170288406Y-76081105D01*
X170307813Y-76074127D01*
X170403449Y-76048502D01*
X170528979Y-75976027D01*
X170631473Y-75873533D01*
X170703948Y-75748003D01*
X170741464Y-75607993D01*
X170741464Y-75463043D01*
X170703948Y-75323033D01*
X170631473Y-75197503D01*
X170528979Y-75095009D01*
X170528977Y-75095008D01*
X170528975Y-75095006D01*
X170403452Y-75022535D01*
X170403453Y-75022535D01*
X170387670Y-75018306D01*
X170263439Y-74985018D01*
X170118489Y-74985018D01*
X170118487Y-74985018D01*
X170109987Y-74987296D01*
X170040137Y-74985631D01*
X170031874Y-74982605D01*
X170031407Y-74982480D01*
X170031406Y-74982479D01*
X169954979Y-74962000D01*
X169875855Y-74962000D01*
X169837641Y-74972239D01*
X169799426Y-74982479D01*
X169799421Y-74982482D01*
X169730912Y-75022035D01*
X169730904Y-75022041D01*
X169674958Y-75077987D01*
X169674952Y-75077995D01*
X169635399Y-75146504D01*
X169635396Y-75146509D01*
X169614917Y-75222939D01*
X169614917Y-76803706D01*
X169595232Y-76870745D01*
X169542428Y-76916500D01*
X169473270Y-76926444D01*
X169409714Y-76897419D01*
X169383530Y-76865707D01*
X169358338Y-76822073D01*
X169255844Y-76719579D01*
X169255842Y-76719578D01*
X169255840Y-76719576D01*
X169130317Y-76647105D01*
X169130318Y-76647105D01*
X169118835Y-76644028D01*
X168990304Y-76609588D01*
X168845354Y-76609588D01*
X168843662Y-76609588D01*
X168776623Y-76589903D01*
X168755981Y-76573269D01*
X167104753Y-74922041D01*
X167104748Y-74922037D01*
X167063317Y-74898118D01*
X167059564Y-74895951D01*
X167059562Y-74895949D01*
X167059562Y-74895950D01*
X167059560Y-74895949D01*
X167054631Y-74893103D01*
X167036231Y-74882479D01*
X167036232Y-74882479D01*
X166998016Y-74872239D01*
X166959803Y-74862000D01*
X166959801Y-74862000D01*
X166176835Y-74862000D01*
X166109796Y-74842315D01*
X166089154Y-74825681D01*
X165232912Y-73969438D01*
X165232903Y-73969430D01*
X165232894Y-73969421D01*
X165223765Y-73961858D01*
X165209357Y-73949920D01*
X165209355Y-73949919D01*
X165127222Y-73910366D01*
X165075363Y-73863544D01*
X165057050Y-73796116D01*
X165078098Y-73729493D01*
X165093338Y-73710970D01*
X166305417Y-72498891D01*
X166366738Y-72465408D01*
X166425185Y-72466798D01*
X166526387Y-72493916D01*
X166526390Y-72493916D01*
X166671334Y-72493916D01*
X166671337Y-72493916D01*
X166811347Y-72456400D01*
X166936877Y-72383925D01*
X167039371Y-72281431D01*
X167111846Y-72155901D01*
X167149362Y-72015891D01*
X167149362Y-71870941D01*
X167111846Y-71730931D01*
X167092625Y-71697640D01*
X167039373Y-71605404D01*
X167039368Y-71605398D01*
X166936879Y-71502909D01*
X166936873Y-71502904D01*
X166811350Y-71430433D01*
X166811351Y-71430433D01*
X166798203Y-71426910D01*
X166671337Y-71392916D01*
X166526387Y-71392916D01*
X166399521Y-71426910D01*
X166386373Y-71430433D01*
X166260847Y-71502906D01*
X166236668Y-71527085D01*
X166181084Y-71559176D01*
X166139914Y-71570208D01*
X166139913Y-71570208D01*
X166048588Y-71622936D01*
X166048585Y-71622938D01*
X164720502Y-72951020D01*
X164659179Y-72984505D01*
X164589487Y-72979521D01*
X164533554Y-72937649D01*
X164522011Y-72918991D01*
X164452224Y-72780036D01*
X164387017Y-72699987D01*
X164387002Y-72699971D01*
X163839021Y-72151991D01*
X163839020Y-72151991D01*
X162141965Y-73849048D01*
X160444909Y-75546102D01*
X160444909Y-75546103D01*
X160992898Y-76094092D01*
X160992916Y-76094108D01*
X161072946Y-76159302D01*
X161072956Y-76159309D01*
X161211908Y-76229094D01*
X161262982Y-76276772D01*
X161280171Y-76344494D01*
X161258018Y-76410759D01*
X161243937Y-76427585D01*
X160375843Y-77295681D01*
X160314520Y-77329166D01*
X160288162Y-77332000D01*
X159409353Y-77332000D01*
X159347353Y-77315387D01*
X159267902Y-77269516D01*
X159127892Y-77232000D01*
X158982942Y-77232000D01*
X158871008Y-77261993D01*
X158842928Y-77269517D01*
X158717405Y-77341988D01*
X158717399Y-77341993D01*
X158614910Y-77444482D01*
X158614905Y-77444488D01*
X158542434Y-77570011D01*
X158542433Y-77570015D01*
X158504917Y-77710025D01*
X158504917Y-77854975D01*
X158540898Y-77989257D01*
X158542434Y-77994988D01*
X158614905Y-78120511D01*
X158614907Y-78120513D01*
X158614908Y-78120515D01*
X158717402Y-78223009D01*
X158717403Y-78223010D01*
X158717405Y-78223011D01*
X158842928Y-78295482D01*
X158842929Y-78295482D01*
X158842932Y-78295484D01*
X158982942Y-78333000D01*
X158982945Y-78333000D01*
X159127889Y-78333000D01*
X159127892Y-78333000D01*
X159267902Y-78295484D01*
X159393432Y-78223009D01*
X159447122Y-78169319D01*
X159508445Y-78135834D01*
X159534803Y-78133000D01*
X160558142Y-78133000D01*
X160558144Y-78133000D01*
X160660005Y-78105707D01*
X160751330Y-78052980D01*
X162003884Y-76800424D01*
X162065205Y-76766941D01*
X162134896Y-76771925D01*
X162190830Y-76813796D01*
X162203283Y-76834305D01*
X162242836Y-76916438D01*
X162242837Y-76916440D01*
X162251126Y-76926444D01*
X162262338Y-76939977D01*
X162262347Y-76939986D01*
X162262355Y-76939995D01*
X162689971Y-77367611D01*
X162723456Y-77428934D01*
X162718472Y-77498626D01*
X162689971Y-77542973D01*
X160263120Y-79969824D01*
X160207535Y-80001917D01*
X160169156Y-80012201D01*
X160169153Y-80012202D01*
X160169152Y-80012203D01*
X160135589Y-80031581D01*
X160129199Y-80035270D01*
X160100631Y-80051763D01*
X160100628Y-80051765D01*
X157414958Y-82737435D01*
X157414952Y-82737443D01*
X157375399Y-82805952D01*
X157375396Y-82805957D01*
X157354917Y-82882387D01*
X157354917Y-83313113D01*
X157335232Y-83380152D01*
X157318599Y-83400794D01*
X157214905Y-83504488D01*
X157142434Y-83630011D01*
X157142433Y-83630015D01*
X157104917Y-83770025D01*
X157104917Y-83914975D01*
X157142433Y-84054985D01*
X157142434Y-84054988D01*
X157214905Y-84180511D01*
X157214907Y-84180513D01*
X157214908Y-84180515D01*
X157317402Y-84283009D01*
X157317403Y-84283010D01*
X157317405Y-84283011D01*
X157442928Y-84355482D01*
X157442929Y-84355482D01*
X157442932Y-84355484D01*
X157582942Y-84393000D01*
X157582945Y-84393000D01*
X157727889Y-84393000D01*
X157727892Y-84393000D01*
X157867902Y-84355484D01*
X157993432Y-84283009D01*
X158095926Y-84180515D01*
X158168401Y-84054985D01*
X158205917Y-83914975D01*
X158205917Y-83770025D01*
X158168401Y-83630015D01*
X158116767Y-83540583D01*
X158095928Y-83504488D01*
X158095927Y-83504487D01*
X158095926Y-83504485D01*
X157993432Y-83401991D01*
X157993431Y-83401990D01*
X157992235Y-83400794D01*
X157977528Y-83373860D01*
X157960940Y-83348048D01*
X157960048Y-83341847D01*
X157958751Y-83339471D01*
X157955917Y-83313113D01*
X157955917Y-83097780D01*
X157975602Y-83030741D01*
X157992231Y-83010104D01*
X160387713Y-80614621D01*
X160443296Y-80582530D01*
X160481682Y-80572245D01*
X160550204Y-80532684D01*
X160606153Y-80476735D01*
X163114944Y-77967942D01*
X163176265Y-77934459D01*
X163245957Y-77939443D01*
X163290304Y-77967944D01*
X163717921Y-78395561D01*
X163717930Y-78395569D01*
X163717940Y-78395579D01*
X163729445Y-78405111D01*
X163741476Y-78415079D01*
X163741481Y-78415082D01*
X163827832Y-78456666D01*
X163863833Y-78474003D01*
X163998120Y-78494244D01*
X164019044Y-78491090D01*
X164088269Y-78500563D01*
X164141383Y-78545957D01*
X164161523Y-78612861D01*
X164144913Y-78675706D01*
X164101387Y-78751093D01*
X164101386Y-78751095D01*
X164101386Y-78751096D01*
X164083711Y-78817062D01*
X164083711Y-78817063D01*
X164083710Y-78817062D01*
X164074093Y-78852955D01*
X164074093Y-79487094D01*
X164101386Y-79588957D01*
X164109647Y-79603265D01*
X164154113Y-79680281D01*
X164154115Y-79680283D01*
X165338598Y-80864766D01*
X165372083Y-80926089D01*
X165374917Y-80952447D01*
X165374917Y-81905905D01*
X165355232Y-81972944D01*
X165338598Y-81993586D01*
X163559002Y-83773182D01*
X163497679Y-83806667D01*
X163471321Y-83809501D01*
X163466154Y-83809501D01*
X163321204Y-83809501D01*
X163212961Y-83838505D01*
X163181190Y-83847018D01*
X163055667Y-83919489D01*
X163055661Y-83919494D01*
X162953172Y-84021983D01*
X162953167Y-84021989D01*
X162880696Y-84147512D01*
X162880695Y-84147516D01*
X162843179Y-84287526D01*
X162843179Y-84432476D01*
X162878809Y-84565447D01*
X162880696Y-84572489D01*
X162953167Y-84698012D01*
X162953169Y-84698014D01*
X162953170Y-84698016D01*
X163055664Y-84800510D01*
X163055665Y-84800511D01*
X163055667Y-84800512D01*
X163181190Y-84872983D01*
X163181191Y-84872983D01*
X163181194Y-84872985D01*
X163321204Y-84910501D01*
X163321207Y-84910501D01*
X163466151Y-84910501D01*
X163466154Y-84910501D01*
X163606164Y-84872985D01*
X163731694Y-84800510D01*
X163834188Y-84698016D01*
X163906663Y-84572486D01*
X163906666Y-84572474D01*
X163907243Y-84571082D01*
X163908940Y-84568540D01*
X163910727Y-84565447D01*
X163910929Y-84565563D01*
X163934126Y-84530843D01*
X166095897Y-82369074D01*
X166120444Y-82326557D01*
X166144989Y-82284044D01*
X166144990Y-82284042D01*
X166145552Y-82283068D01*
X166148624Y-82277748D01*
X166175917Y-82175888D01*
X166175917Y-81086155D01*
X166195602Y-81019116D01*
X166248406Y-80973361D01*
X166317564Y-80963417D01*
X166327370Y-80965232D01*
X166341063Y-80968340D01*
X166374062Y-80984232D01*
X166484156Y-81000826D01*
X166488599Y-81001835D01*
X166515279Y-81016718D01*
X166542984Y-81029599D01*
X166545503Y-81033578D01*
X166549616Y-81035873D01*
X166564015Y-81062819D01*
X166580358Y-81088633D01*
X166581265Y-81095099D01*
X166582546Y-81097496D01*
X166582201Y-81101770D01*
X166585146Y-81122758D01*
X166585146Y-86564259D01*
X166565461Y-86631298D01*
X166548827Y-86651940D01*
X166192123Y-87008644D01*
X166130800Y-87042129D01*
X166104442Y-87044963D01*
X166099222Y-87044963D01*
X165980428Y-87076794D01*
X165959204Y-87082481D01*
X165957356Y-87083247D01*
X165955673Y-87083427D01*
X165951362Y-87084583D01*
X165951181Y-87083910D01*
X165887886Y-87090707D01*
X165825410Y-87059425D01*
X165789765Y-86999332D01*
X165785917Y-86968680D01*
X165785917Y-84671886D01*
X165805602Y-84604847D01*
X165822236Y-84584205D01*
X165825926Y-84580515D01*
X165898401Y-84454985D01*
X165935917Y-84314975D01*
X165935917Y-84170025D01*
X165898401Y-84030015D01*
X165893765Y-84021986D01*
X165825928Y-83904488D01*
X165825923Y-83904482D01*
X165723434Y-83801993D01*
X165723428Y-83801988D01*
X165597905Y-83729517D01*
X165597906Y-83729517D01*
X165586423Y-83726440D01*
X165457892Y-83692000D01*
X165312942Y-83692000D01*
X165184410Y-83726440D01*
X165172928Y-83729517D01*
X165047405Y-83801988D01*
X165047399Y-83801993D01*
X164944910Y-83904482D01*
X164944905Y-83904488D01*
X164872434Y-84030011D01*
X164872433Y-84030015D01*
X164834917Y-84170025D01*
X164834917Y-84314975D01*
X164871203Y-84450395D01*
X164872434Y-84454988D01*
X164944905Y-84580511D01*
X164944910Y-84580517D01*
X164948598Y-84584205D01*
X164982083Y-84645528D01*
X164984917Y-84671886D01*
X164984917Y-87817117D01*
X164984917Y-87922571D01*
X164993072Y-87953006D01*
X165012210Y-88024433D01*
X165032202Y-88059059D01*
X165064937Y-88115757D01*
X166367591Y-89418410D01*
X166367593Y-89418413D01*
X166442160Y-89492980D01*
X166459481Y-89502980D01*
X166533485Y-89545707D01*
X166635346Y-89573000D01*
X166826031Y-89573000D01*
X166893070Y-89592685D01*
X166899058Y-89596785D01*
X166906872Y-89602479D01*
X166917402Y-89613009D01*
X166936275Y-89623905D01*
X166941599Y-89627785D01*
X166959041Y-89650471D01*
X166978788Y-89671181D01*
X166980066Y-89677817D01*
X166984187Y-89683176D01*
X166986595Y-89711692D01*
X166992010Y-89739788D01*
X166989498Y-89746062D01*
X166990067Y-89752797D01*
X166976678Y-89778085D01*
X166966042Y-89804653D01*
X166960536Y-89808573D01*
X166957374Y-89814546D01*
X166932439Y-89828580D01*
X166909127Y-89845181D01*
X166900314Y-89846662D01*
X166896487Y-89848817D01*
X166889824Y-89848426D01*
X166868572Y-89852000D01*
X161342325Y-89852000D01*
X161321849Y-89857486D01*
X161321849Y-89857487D01*
X161265901Y-89872478D01*
X161265899Y-89872478D01*
X161265899Y-89872479D01*
X161197378Y-89912038D01*
X161197376Y-89912040D01*
X159791579Y-91317838D01*
X159730256Y-91351323D01*
X159703898Y-91354157D01*
X158363275Y-91354157D01*
X158296236Y-91334472D01*
X158275594Y-91317838D01*
X155292236Y-88334479D01*
X155258751Y-88273156D01*
X155255917Y-88246798D01*
X155255917Y-85295428D01*
X155731782Y-85295428D01*
X155731782Y-87334933D01*
X155743413Y-87393410D01*
X155743414Y-87393411D01*
X155787729Y-87459733D01*
X155854051Y-87504048D01*
X155854052Y-87504049D01*
X155912529Y-87515680D01*
X155912532Y-87515681D01*
X155912534Y-87515681D01*
X159952032Y-87515681D01*
X159952033Y-87515680D01*
X159966850Y-87512733D01*
X160010511Y-87504049D01*
X160010511Y-87504048D01*
X160010513Y-87504048D01*
X160076834Y-87459733D01*
X160121149Y-87393412D01*
X160121149Y-87393410D01*
X160121150Y-87393410D01*
X160132781Y-87334933D01*
X160132782Y-87334931D01*
X160132782Y-85295430D01*
X160132781Y-85295428D01*
X160121150Y-85236951D01*
X160121149Y-85236950D01*
X160076834Y-85170628D01*
X160010512Y-85126313D01*
X160010511Y-85126312D01*
X159952034Y-85114681D01*
X159952030Y-85114681D01*
X155912534Y-85114681D01*
X155912529Y-85114681D01*
X155854052Y-85126312D01*
X155854051Y-85126313D01*
X155787729Y-85170628D01*
X155743414Y-85236950D01*
X155743413Y-85236951D01*
X155731782Y-85295428D01*
X155255917Y-85295428D01*
X155255917Y-81942939D01*
X155247229Y-81910515D01*
X155235438Y-81866511D01*
X155204523Y-81812964D01*
X155195881Y-81797995D01*
X155195875Y-81797987D01*
X153669927Y-80272039D01*
X153647470Y-80259074D01*
X153625012Y-80246108D01*
X153620021Y-80243226D01*
X153601407Y-80232479D01*
X153601408Y-80232479D01*
X153549983Y-80218700D01*
X153524979Y-80212000D01*
X149695855Y-80212000D01*
X149670851Y-80218700D01*
X149619426Y-80232479D01*
X149598612Y-80244496D01*
X149595822Y-80246108D01*
X149582477Y-80253812D01*
X149550906Y-80272039D01*
X149550904Y-80272041D01*
X148587265Y-81235681D01*
X148525942Y-81269166D01*
X148499584Y-81272000D01*
X147972750Y-81272000D01*
X147905711Y-81252315D01*
X147859956Y-81199511D01*
X147850012Y-81130353D01*
X147879037Y-81066797D01*
X147885069Y-81060319D01*
X149235069Y-79710319D01*
X153317093Y-75628293D01*
X153378414Y-75594810D01*
X153448106Y-75599794D01*
X153504039Y-75641666D01*
X153504541Y-75642341D01*
X153535766Y-75684649D01*
X153535767Y-75684650D01*
X153645035Y-75765293D01*
X153676394Y-75776266D01*
X153773216Y-75810146D01*
X153803647Y-75813000D01*
X153803651Y-75813000D01*
X154437187Y-75813000D01*
X154467616Y-75810146D01*
X154467618Y-75810146D01*
X154531707Y-75787719D01*
X154595799Y-75765293D01*
X154705067Y-75684650D01*
X154766142Y-75601895D01*
X154821787Y-75559647D01*
X154891443Y-75554188D01*
X154952992Y-75587255D01*
X154983616Y-75636526D01*
X154998559Y-75681621D01*
X154998560Y-75681624D01*
X155090601Y-75830845D01*
X155214571Y-75954815D01*
X155363792Y-76046856D01*
X155363797Y-76046858D01*
X155530219Y-76102005D01*
X155530226Y-76102006D01*
X155632936Y-76112499D01*
X156195417Y-76112499D01*
X156257889Y-76112499D01*
X156257903Y-76112498D01*
X156360614Y-76102005D01*
X156527036Y-76046858D01*
X156527041Y-76046856D01*
X156676262Y-75954815D01*
X156800232Y-75830845D01*
X156892273Y-75681624D01*
X156892275Y-75681619D01*
X156947422Y-75515197D01*
X156947423Y-75515190D01*
X156957916Y-75412486D01*
X156957917Y-75412473D01*
X156957917Y-75162500D01*
X156195417Y-75162500D01*
X156195417Y-76112499D01*
X155632936Y-76112499D01*
X155695416Y-76112498D01*
X155695417Y-76112498D01*
X155695417Y-74662500D01*
X156195417Y-74662500D01*
X156957916Y-74662500D01*
X156957916Y-74412528D01*
X156957915Y-74412513D01*
X156947422Y-74309802D01*
X156892275Y-74143380D01*
X156892273Y-74143375D01*
X156800232Y-73994154D01*
X156676262Y-73870184D01*
X156527041Y-73778143D01*
X156527036Y-73778141D01*
X156360614Y-73722994D01*
X156360607Y-73722993D01*
X156257903Y-73712500D01*
X156195417Y-73712500D01*
X156195417Y-74662500D01*
X155695417Y-74662500D01*
X155695417Y-73712500D01*
X155695416Y-73712499D01*
X155632945Y-73712500D01*
X155632928Y-73712501D01*
X155530219Y-73722994D01*
X155363797Y-73778141D01*
X155363792Y-73778143D01*
X155214571Y-73870184D01*
X155090601Y-73994154D01*
X154998560Y-74143375D01*
X154998557Y-74143383D01*
X154983615Y-74188474D01*
X154943842Y-74245918D01*
X154879326Y-74272740D01*
X154810550Y-74260424D01*
X154766140Y-74223101D01*
X154705068Y-74140351D01*
X154701916Y-74138025D01*
X154595799Y-74059707D01*
X154595797Y-74059706D01*
X154467617Y-74014853D01*
X154437187Y-74012000D01*
X154437183Y-74012000D01*
X153803651Y-74012000D01*
X153803647Y-74012000D01*
X153773217Y-74014853D01*
X153773215Y-74014853D01*
X153645036Y-74059706D01*
X153645034Y-74059707D01*
X153535767Y-74140350D01*
X153455124Y-74249617D01*
X153455123Y-74249619D01*
X153410270Y-74377798D01*
X153410270Y-74377800D01*
X153407417Y-74408230D01*
X153407417Y-74636667D01*
X153387732Y-74703706D01*
X153371098Y-74724348D01*
X147509765Y-80585681D01*
X147448442Y-80619166D01*
X147422084Y-80622000D01*
X142626616Y-80622000D01*
X142596045Y-80630191D01*
X142550186Y-80642479D01*
X142550185Y-80642480D01*
X142513462Y-80663683D01*
X142513461Y-80663683D01*
X142481673Y-80682035D01*
X142481665Y-80682041D01*
X142044958Y-81118748D01*
X142044952Y-81118756D01*
X142005399Y-81187265D01*
X142005396Y-81187270D01*
X141993271Y-81232521D01*
X141984917Y-81263699D01*
X141984917Y-81881301D01*
X142005396Y-81957728D01*
X142014181Y-81972944D01*
X142015688Y-81975553D01*
X142015689Y-81975557D01*
X142015690Y-81975557D01*
X142037312Y-82013009D01*
X142044956Y-82026248D01*
X142044958Y-82026251D01*
X143841888Y-83823181D01*
X143875373Y-83884504D01*
X143870389Y-83954196D01*
X143828517Y-84010129D01*
X143809526Y-84021838D01*
X143798350Y-84027408D01*
X143779428Y-84032479D01*
X143727392Y-84062522D01*
X143724126Y-84064407D01*
X143724105Y-84064418D01*
X143710912Y-84072035D01*
X143710904Y-84072041D01*
X143129874Y-84653071D01*
X143068551Y-84686556D01*
X142998859Y-84681572D01*
X142954512Y-84653071D01*
X142933434Y-84631993D01*
X142933428Y-84631988D01*
X142807905Y-84559517D01*
X142807906Y-84559517D01*
X142796423Y-84556440D01*
X142667892Y-84522000D01*
X142522942Y-84522000D01*
X142394410Y-84556440D01*
X142382928Y-84559517D01*
X142257405Y-84631988D01*
X142257399Y-84631993D01*
X142154910Y-84734482D01*
X142154905Y-84734488D01*
X142082434Y-84860011D01*
X142082433Y-84860015D01*
X142044917Y-85000025D01*
X142044917Y-85144975D01*
X142082433Y-85284985D01*
X142082434Y-85284988D01*
X142154905Y-85410511D01*
X142154907Y-85410513D01*
X142154908Y-85410515D01*
X142257402Y-85513009D01*
X142257403Y-85513010D01*
X142257405Y-85513011D01*
X142382928Y-85585482D01*
X142382929Y-85585482D01*
X142382932Y-85585484D01*
X142522942Y-85623000D01*
X142522945Y-85623000D01*
X142667889Y-85623000D01*
X142667892Y-85623000D01*
X142807902Y-85585484D01*
X142933432Y-85513009D01*
X143035926Y-85410515D01*
X143035926Y-85410514D01*
X143037122Y-85409319D01*
X143098445Y-85375834D01*
X143124803Y-85373000D01*
X143174977Y-85373000D01*
X143174979Y-85373000D01*
X143251406Y-85352521D01*
X143319928Y-85312960D01*
X143375877Y-85257011D01*
X143901039Y-84731848D01*
X143962360Y-84698365D01*
X144032051Y-84703349D01*
X144087985Y-84745220D01*
X144108491Y-84787434D01*
X144131133Y-84871931D01*
X144132054Y-84875368D01*
X144204525Y-85000891D01*
X144204527Y-85000893D01*
X144204528Y-85000895D01*
X144307022Y-85103389D01*
X144307023Y-85103390D01*
X144307025Y-85103391D01*
X144432548Y-85175862D01*
X144432549Y-85175862D01*
X144432552Y-85175864D01*
X144572562Y-85213380D01*
X144572565Y-85213380D01*
X144717509Y-85213380D01*
X144717512Y-85213380D01*
X144857522Y-85175864D01*
X144983052Y-85103389D01*
X145085546Y-85000895D01*
X145158021Y-84875365D01*
X145195537Y-84735355D01*
X145195537Y-84590405D01*
X145168390Y-84489092D01*
X145170053Y-84419244D01*
X145209215Y-84361381D01*
X145273444Y-84333877D01*
X145288165Y-84333000D01*
X145317889Y-84333000D01*
X145317892Y-84333000D01*
X145457902Y-84295484D01*
X145583432Y-84223009D01*
X145685926Y-84120515D01*
X145758401Y-83994985D01*
X145795917Y-83854975D01*
X145795917Y-83710025D01*
X145758401Y-83570015D01*
X145741408Y-83540583D01*
X145685928Y-83444488D01*
X145685923Y-83444482D01*
X145583434Y-83341993D01*
X145583428Y-83341988D01*
X145457905Y-83269517D01*
X145457906Y-83269517D01*
X145440585Y-83264876D01*
X145317892Y-83232000D01*
X145172942Y-83232000D01*
X145050249Y-83264876D01*
X145032928Y-83269517D01*
X144907405Y-83341988D01*
X144907399Y-83341993D01*
X144803712Y-83445681D01*
X144742389Y-83479166D01*
X144716031Y-83482000D01*
X144402011Y-83482000D01*
X144334972Y-83462315D01*
X144314330Y-83445681D01*
X143139325Y-82270676D01*
X143105840Y-82209353D01*
X143110824Y-82139661D01*
X143152696Y-82083728D01*
X143165002Y-82075611D01*
X143273432Y-82013009D01*
X143375926Y-81910515D01*
X143375926Y-81910514D01*
X143377122Y-81909319D01*
X143438445Y-81875834D01*
X143464803Y-81873000D01*
X148714977Y-81873000D01*
X148714979Y-81873000D01*
X148791406Y-81852521D01*
X148859928Y-81812960D01*
X148915877Y-81757011D01*
X149823569Y-80849319D01*
X149884892Y-80815834D01*
X149911250Y-80813000D01*
X153309584Y-80813000D01*
X153376623Y-80832685D01*
X153397265Y-80849319D01*
X154618598Y-82070652D01*
X154652083Y-82131975D01*
X154654917Y-82158333D01*
X154654917Y-88462193D01*
X154675396Y-88538620D01*
X154687036Y-88558782D01*
X154706492Y-88592480D01*
X154714956Y-88607141D01*
X154714959Y-88607145D01*
X156345361Y-90237547D01*
X157946981Y-91839167D01*
X157946982Y-91839168D01*
X158002931Y-91895117D01*
X158002933Y-91895118D01*
X158002937Y-91895121D01*
X158071446Y-91934674D01*
X158071453Y-91934678D01*
X158147880Y-91955157D01*
X158227004Y-91955157D01*
X159157546Y-91955157D01*
X159224585Y-91974842D01*
X159270340Y-92027646D01*
X159280284Y-92096804D01*
X159277321Y-92111246D01*
X159244917Y-92232182D01*
X159244917Y-92377132D01*
X159280658Y-92510517D01*
X159282434Y-92517145D01*
X159354905Y-92642668D01*
X159354910Y-92642674D01*
X159370055Y-92657819D01*
X159403540Y-92719142D01*
X159398556Y-92788834D01*
X159356684Y-92844767D01*
X159291220Y-92869184D01*
X159282374Y-92869500D01*
X155892529Y-92869500D01*
X155834052Y-92881131D01*
X155834051Y-92881132D01*
X155767729Y-92925447D01*
X155723414Y-92991769D01*
X155723413Y-92991770D01*
X155711782Y-93050247D01*
X155711782Y-93645500D01*
X155692097Y-93712539D01*
X155639293Y-93758294D01*
X155587782Y-93769500D01*
X154898355Y-93769500D01*
X154830956Y-93787559D01*
X154821924Y-93789980D01*
X154766609Y-93821917D01*
X154766608Y-93821917D01*
X154753412Y-93829535D01*
X154753404Y-93829541D01*
X154514955Y-94067990D01*
X154512870Y-94070708D01*
X154510528Y-94072417D01*
X154509210Y-94073736D01*
X154509004Y-94073530D01*
X154456440Y-94111906D01*
X154386693Y-94116056D01*
X154325775Y-94081839D01*
X154293027Y-94020120D01*
X154290500Y-93995214D01*
X154290500Y-93966534D01*
X154290499Y-93966530D01*
X154283535Y-93931519D01*
X154250130Y-93763580D01*
X154170941Y-93572402D01*
X154055977Y-93400345D01*
X154055975Y-93400342D01*
X153909655Y-93254022D01*
X153737604Y-93139062D01*
X153737598Y-93139059D01*
X153667046Y-93109835D01*
X153612643Y-93065993D01*
X153590579Y-92999699D01*
X153590500Y-92995274D01*
X153590500Y-92604725D01*
X153610185Y-92537686D01*
X153662989Y-92491931D01*
X153667048Y-92490164D01*
X153737594Y-92460943D01*
X153737595Y-92460942D01*
X153737598Y-92460941D01*
X153909655Y-92345977D01*
X154055977Y-92199655D01*
X154170941Y-92027598D01*
X154250130Y-91836420D01*
X154290500Y-91633465D01*
X154290500Y-91426535D01*
X154250130Y-91223580D01*
X154170941Y-91032402D01*
X154055977Y-90860345D01*
X154055975Y-90860342D01*
X153909655Y-90714022D01*
X153737604Y-90599062D01*
X153737598Y-90599059D01*
X153667046Y-90569835D01*
X153612643Y-90525993D01*
X153590579Y-90459699D01*
X153590500Y-90455274D01*
X153590500Y-90064724D01*
X153610185Y-89997685D01*
X153662989Y-89951930D01*
X153667048Y-89950163D01*
X153737594Y-89920942D01*
X153737595Y-89920941D01*
X153737598Y-89920940D01*
X153909655Y-89805976D01*
X154055977Y-89659654D01*
X154170941Y-89487597D01*
X154250130Y-89296419D01*
X154290500Y-89093464D01*
X154290500Y-88886534D01*
X154250130Y-88683579D01*
X154170941Y-88492401D01*
X154055977Y-88320344D01*
X154055975Y-88320341D01*
X153909655Y-88174021D01*
X153737604Y-88059061D01*
X153737598Y-88059058D01*
X153667046Y-88029834D01*
X153612643Y-87985992D01*
X153590579Y-87919698D01*
X153590500Y-87915273D01*
X153590500Y-87524725D01*
X153610185Y-87457686D01*
X153662989Y-87411931D01*
X153667048Y-87410164D01*
X153737594Y-87380943D01*
X153737595Y-87380942D01*
X153737598Y-87380941D01*
X153909655Y-87265977D01*
X154055977Y-87119655D01*
X154170941Y-86947598D01*
X154250130Y-86756420D01*
X154290500Y-86553465D01*
X154290500Y-86346535D01*
X154257355Y-86179903D01*
X154250131Y-86143584D01*
X154250130Y-86143582D01*
X154250130Y-86143580D01*
X154170941Y-85952402D01*
X154055977Y-85780345D01*
X154055975Y-85780342D01*
X153909655Y-85634022D01*
X153737604Y-85519062D01*
X153737598Y-85519059D01*
X153667046Y-85489835D01*
X153612643Y-85445993D01*
X153590579Y-85379699D01*
X153590500Y-85375274D01*
X153590500Y-84984725D01*
X153610185Y-84917686D01*
X153662989Y-84871931D01*
X153667048Y-84870164D01*
X153737594Y-84840943D01*
X153737595Y-84840942D01*
X153737598Y-84840941D01*
X153909655Y-84725977D01*
X154055977Y-84579655D01*
X154170941Y-84407598D01*
X154250130Y-84216420D01*
X154290500Y-84013465D01*
X154290500Y-83806535D01*
X154250130Y-83603580D01*
X154170941Y-83412402D01*
X154055977Y-83240345D01*
X154055975Y-83240342D01*
X153909655Y-83094022D01*
X153737604Y-82979062D01*
X153737598Y-82979059D01*
X153667046Y-82949835D01*
X153612643Y-82905993D01*
X153590579Y-82839699D01*
X153590500Y-82835274D01*
X153590500Y-82550439D01*
X153570020Y-82474009D01*
X153570017Y-82474004D01*
X153530464Y-82405495D01*
X153530458Y-82405487D01*
X153474512Y-82349541D01*
X153474504Y-82349535D01*
X153405995Y-82309982D01*
X153405990Y-82309979D01*
X153380513Y-82303152D01*
X153329562Y-82289500D01*
X151929562Y-82289500D01*
X151850438Y-82289500D01*
X151812224Y-82299739D01*
X151774009Y-82309979D01*
X151774004Y-82309982D01*
X151705495Y-82349535D01*
X151705487Y-82349541D01*
X151649541Y-82405487D01*
X151649535Y-82405495D01*
X151609982Y-82474004D01*
X151609979Y-82474009D01*
X151589500Y-82550439D01*
X151589500Y-82818705D01*
X151569815Y-82885744D01*
X151517011Y-82931499D01*
X151512954Y-82933266D01*
X151402402Y-82979058D01*
X151230342Y-83094024D01*
X151084024Y-83240342D01*
X150969058Y-83412403D01*
X150889870Y-83603579D01*
X150889868Y-83603587D01*
X150849500Y-83806530D01*
X150849500Y-84013469D01*
X150889868Y-84216412D01*
X150889870Y-84216420D01*
X150964379Y-84396301D01*
X150969059Y-84407598D01*
X150997655Y-84450395D01*
X151084024Y-84579657D01*
X151230342Y-84725975D01*
X151230345Y-84725977D01*
X151402402Y-84840941D01*
X151402408Y-84840943D01*
X151402409Y-84840944D01*
X151512952Y-84886732D01*
X151567356Y-84930573D01*
X151589421Y-84996867D01*
X151589500Y-85001293D01*
X151589500Y-85358705D01*
X151569815Y-85425744D01*
X151517011Y-85471499D01*
X151512954Y-85473266D01*
X151402402Y-85519058D01*
X151230342Y-85634024D01*
X151084024Y-85780342D01*
X150969058Y-85952403D01*
X150889870Y-86143579D01*
X150889869Y-86143584D01*
X150849500Y-86346530D01*
X150849500Y-86553469D01*
X150889868Y-86756412D01*
X150889870Y-86756420D01*
X150964295Y-86936098D01*
X150969059Y-86947598D01*
X150998646Y-86991878D01*
X151084024Y-87119657D01*
X151230342Y-87265975D01*
X151230345Y-87265977D01*
X151402402Y-87380941D01*
X151402408Y-87380943D01*
X151402409Y-87380944D01*
X151512952Y-87426732D01*
X151567356Y-87470573D01*
X151589421Y-87536867D01*
X151589500Y-87541293D01*
X151589500Y-87898705D01*
X151569815Y-87965744D01*
X151517011Y-88011499D01*
X151512954Y-88013266D01*
X151402402Y-88059058D01*
X151230342Y-88174024D01*
X151084024Y-88320342D01*
X150969058Y-88492403D01*
X150889870Y-88683579D01*
X150889868Y-88683587D01*
X150849500Y-88886530D01*
X150849500Y-89093469D01*
X150889868Y-89296411D01*
X150889870Y-89296420D01*
X150969059Y-89487598D01*
X151007885Y-89545706D01*
X151084024Y-89659657D01*
X151230342Y-89805975D01*
X151230345Y-89805977D01*
X151402402Y-89920941D01*
X151402408Y-89920943D01*
X151402409Y-89920944D01*
X151512952Y-89966732D01*
X151567356Y-90010573D01*
X151589421Y-90076867D01*
X151589500Y-90081293D01*
X151589500Y-90438705D01*
X151583867Y-90457885D01*
X151583154Y-90477865D01*
X151574225Y-90490724D01*
X151569815Y-90505744D01*
X151554707Y-90518834D01*
X151543305Y-90535257D01*
X151519355Y-90549467D01*
X151517011Y-90551499D01*
X151512952Y-90553267D01*
X151473027Y-90569804D01*
X151403557Y-90577272D01*
X151341078Y-90545996D01*
X151337894Y-90542923D01*
X149427010Y-88632039D01*
X149405448Y-88619591D01*
X149383886Y-88607142D01*
X149378517Y-88604042D01*
X149358490Y-88592479D01*
X149358491Y-88592479D01*
X149320275Y-88582239D01*
X149282062Y-88572000D01*
X147596616Y-88572000D01*
X147558402Y-88582239D01*
X147520187Y-88592479D01*
X147497794Y-88605408D01*
X147494792Y-88607142D01*
X147481979Y-88614539D01*
X147451667Y-88632039D01*
X147451665Y-88632041D01*
X147238026Y-88845681D01*
X147176703Y-88879166D01*
X147150345Y-88882000D01*
X145514801Y-88882000D01*
X145447762Y-88862315D01*
X145427120Y-88845681D01*
X145323432Y-88741993D01*
X145323426Y-88741988D01*
X145197903Y-88669517D01*
X145197904Y-88669517D01*
X145186421Y-88666440D01*
X145057890Y-88632000D01*
X144912940Y-88632000D01*
X144784408Y-88666440D01*
X144772926Y-88669517D01*
X144647403Y-88741988D01*
X144647397Y-88741993D01*
X144544907Y-88844483D01*
X144539956Y-88850936D01*
X144537297Y-88848895D01*
X144497982Y-88886373D01*
X144441176Y-88900150D01*
X139132020Y-88900150D01*
X139101449Y-88908341D01*
X139055590Y-88920629D01*
X139030220Y-88935277D01*
X139027953Y-88936587D01*
X139015806Y-88943599D01*
X138987071Y-88960189D01*
X137164958Y-90782302D01*
X137164952Y-90782310D01*
X137125399Y-90850819D01*
X137125396Y-90850824D01*
X137104917Y-90927254D01*
X137104917Y-94461884D01*
X137085232Y-94528923D01*
X137032428Y-94574678D01*
X137013014Y-94581658D01*
X136983692Y-94589515D01*
X136983690Y-94589516D01*
X136858167Y-94661987D01*
X136858161Y-94661992D01*
X136755672Y-94764481D01*
X136755667Y-94764487D01*
X136683196Y-94890010D01*
X136683195Y-94890014D01*
X136645679Y-95030024D01*
X133400406Y-95030024D01*
X133362772Y-94992390D01*
X133329287Y-94931067D01*
X133326453Y-94904709D01*
X133326453Y-89050306D01*
X133324228Y-89042002D01*
X133324228Y-89042003D01*
X133302259Y-88960015D01*
X133299160Y-88948448D01*
X133246433Y-88857123D01*
X132673991Y-88284681D01*
X132640506Y-88223358D01*
X132645490Y-88153666D01*
X132687362Y-88097733D01*
X132752826Y-88073316D01*
X132761672Y-88073000D01*
X132907889Y-88073000D01*
X132907892Y-88073000D01*
X133047902Y-88035484D01*
X133173432Y-87963009D01*
X133275926Y-87860515D01*
X133275926Y-87860514D01*
X133281673Y-87854768D01*
X133282823Y-87855918D01*
X133331585Y-87820312D01*
X133373535Y-87813000D01*
X135306031Y-87813000D01*
X135373070Y-87832685D01*
X135393712Y-87849319D01*
X135394908Y-87850515D01*
X135497402Y-87953009D01*
X135497403Y-87953010D01*
X135497405Y-87953011D01*
X135622928Y-88025482D01*
X135622929Y-88025482D01*
X135622932Y-88025484D01*
X135762942Y-88063000D01*
X135762945Y-88063000D01*
X135907889Y-88063000D01*
X135907892Y-88063000D01*
X136047902Y-88025484D01*
X136173432Y-87953009D01*
X136275926Y-87850515D01*
X136348401Y-87724985D01*
X136385917Y-87584975D01*
X136385917Y-87440025D01*
X136385917Y-87438332D01*
X136405602Y-87371293D01*
X136422236Y-87350651D01*
X136507255Y-87265632D01*
X136655877Y-87117011D01*
X136675814Y-87082479D01*
X136695438Y-87048489D01*
X136715917Y-86972062D01*
X136715917Y-86132938D01*
X136695438Y-86056511D01*
X136671865Y-86015681D01*
X136655881Y-85987995D01*
X136655875Y-85987987D01*
X136136287Y-85468399D01*
X136102802Y-85407076D01*
X136099968Y-85380718D01*
X136099968Y-80410069D01*
X136119653Y-80343030D01*
X136136287Y-80322388D01*
X136186636Y-80272039D01*
X136239977Y-80218698D01*
X136312452Y-80093168D01*
X136325628Y-80043991D01*
X136361993Y-79984332D01*
X136424840Y-79953803D01*
X136494215Y-79962098D01*
X136519455Y-79977771D01*
X136519907Y-79977150D01*
X136568152Y-80012203D01*
X136600667Y-80035827D01*
X136686841Y-80063826D01*
X136721320Y-80075029D01*
X136721321Y-80075029D01*
X136721324Y-80075030D01*
X136721327Y-80075030D01*
X136848187Y-80075030D01*
X136848190Y-80075030D01*
X136968847Y-80035827D01*
X136968848Y-80035825D01*
X136975773Y-80033576D01*
X137045614Y-80031581D01*
X137101772Y-80063826D01*
X137689957Y-80652011D01*
X138230906Y-81192960D01*
X138299429Y-81232522D01*
X138375855Y-81253000D01*
X138454979Y-81253000D01*
X140476031Y-81253000D01*
X140543070Y-81272685D01*
X140563712Y-81289319D01*
X140564908Y-81290515D01*
X140667402Y-81393009D01*
X140667403Y-81393010D01*
X140667405Y-81393011D01*
X140792928Y-81465482D01*
X140792929Y-81465482D01*
X140792932Y-81465484D01*
X140932942Y-81503000D01*
X140932945Y-81503000D01*
X141077889Y-81503000D01*
X141077892Y-81503000D01*
X141217902Y-81465484D01*
X141343432Y-81393009D01*
X141445926Y-81290515D01*
X141518401Y-81164985D01*
X141555917Y-81024975D01*
X141555917Y-80880025D01*
X141518401Y-80740015D01*
X141505998Y-80718533D01*
X141445928Y-80614488D01*
X141445923Y-80614482D01*
X141343434Y-80511993D01*
X141343428Y-80511988D01*
X141217905Y-80439517D01*
X141217906Y-80439517D01*
X141206423Y-80436440D01*
X141077892Y-80402000D01*
X140932942Y-80402000D01*
X140804410Y-80436440D01*
X140792928Y-80439517D01*
X140667405Y-80511988D01*
X140667399Y-80511993D01*
X140563712Y-80615681D01*
X140502389Y-80649166D01*
X140476031Y-80652000D01*
X138591250Y-80652000D01*
X138524211Y-80632315D01*
X138503569Y-80615681D01*
X137491153Y-79603265D01*
X137457668Y-79541942D01*
X137455541Y-79502358D01*
X137456916Y-79489537D01*
X137468099Y-79455121D01*
X137468099Y-79385288D01*
X137468806Y-79378698D01*
X137479735Y-79352294D01*
X137487784Y-79324885D01*
X137492925Y-79320429D01*
X137495529Y-79314141D01*
X137518997Y-79297837D01*
X137540588Y-79279130D01*
X137548363Y-79277438D01*
X137552912Y-79274279D01*
X137564862Y-79273849D01*
X137592099Y-79267924D01*
X137780053Y-79267924D01*
X137780055Y-79267924D01*
X137856482Y-79247445D01*
X137925004Y-79207884D01*
X137980953Y-79151935D01*
X138250307Y-78882581D01*
X143356414Y-78882581D01*
X144364018Y-79890185D01*
X144364039Y-79890204D01*
X144444070Y-79955400D01*
X144444076Y-79955404D01*
X144600753Y-80034090D01*
X144771356Y-80074524D01*
X144946675Y-80074524D01*
X145117277Y-80034090D01*
X145273954Y-79955404D01*
X145353991Y-79890205D01*
X145354006Y-79890192D01*
X145689865Y-79554332D01*
X145689865Y-79554331D01*
X144187264Y-78051731D01*
X143356414Y-78882581D01*
X138250307Y-78882581D01*
X138442833Y-78690055D01*
X138843568Y-78289319D01*
X138904891Y-78255834D01*
X138931249Y-78253000D01*
X139077889Y-78253000D01*
X139077892Y-78253000D01*
X139217902Y-78215484D01*
X139343432Y-78143009D01*
X139445926Y-78040515D01*
X139518401Y-77914985D01*
X139555917Y-77774975D01*
X139555917Y-77630025D01*
X139537193Y-77560147D01*
X139538856Y-77490302D01*
X139578018Y-77432439D01*
X139642246Y-77404934D01*
X139662109Y-77404953D01*
X139662109Y-77404682D01*
X139839600Y-77404682D01*
X140004650Y-77364001D01*
X140155171Y-77285001D01*
X140209572Y-77239664D01*
X140214222Y-77235011D01*
X139330342Y-76351130D01*
X139330341Y-76351130D01*
X138870722Y-76810747D01*
X138870722Y-76810748D01*
X139001712Y-76941738D01*
X139035197Y-77003061D01*
X139030213Y-77072753D01*
X138988341Y-77128686D01*
X138940348Y-77148237D01*
X138940793Y-77149897D01*
X138932944Y-77152000D01*
X138932942Y-77152000D01*
X138806803Y-77185799D01*
X138792928Y-77189517D01*
X138667405Y-77261988D01*
X138667399Y-77261993D01*
X138564910Y-77364482D01*
X138564905Y-77364488D01*
X138492434Y-77490011D01*
X138492433Y-77490015D01*
X138454917Y-77630025D01*
X138454917Y-77630027D01*
X138454917Y-77776666D01*
X138435232Y-77843705D01*
X138418598Y-77864347D01*
X137652341Y-78630605D01*
X137591018Y-78664090D01*
X137564660Y-78666924D01*
X136960590Y-78666924D01*
X136893551Y-78647239D01*
X136872909Y-78630605D01*
X136197141Y-77954837D01*
X136197135Y-77954832D01*
X136176997Y-77940200D01*
X136134332Y-77884869D01*
X136128356Y-77815255D01*
X136160963Y-77753461D01*
X136162127Y-77752280D01*
X137900368Y-76014039D01*
X137961686Y-75980558D01*
X138031378Y-75985542D01*
X138083301Y-76022338D01*
X138088246Y-76028271D01*
X138088260Y-76028287D01*
X138517167Y-76457194D01*
X139065882Y-75908479D01*
X139127205Y-75874994D01*
X139196896Y-75879978D01*
X139241244Y-75908479D01*
X139330341Y-75997576D01*
X139419437Y-75908480D01*
X139480760Y-75874995D01*
X139550452Y-75879979D01*
X139594799Y-75908480D01*
X140567777Y-76881458D01*
X140572426Y-76876809D01*
X140617765Y-76822407D01*
X140696767Y-76671882D01*
X140737447Y-76506834D01*
X140737447Y-76417000D01*
X140757132Y-76349961D01*
X140809936Y-76304206D01*
X140861447Y-76293000D01*
X141934324Y-76293000D01*
X142001363Y-76312685D01*
X142047118Y-76365489D01*
X142057062Y-76434647D01*
X142028037Y-76498203D01*
X142022005Y-76504681D01*
X141995256Y-76531429D01*
X141995237Y-76531450D01*
X141930041Y-76611481D01*
X141930037Y-76611487D01*
X141851351Y-76768164D01*
X141810918Y-76938766D01*
X141810918Y-77114086D01*
X141851351Y-77284688D01*
X141930037Y-77441365D01*
X141995235Y-77521401D01*
X141995249Y-77521417D01*
X143002860Y-78529027D01*
X143833710Y-77698178D01*
X144540817Y-77698178D01*
X146043417Y-79200779D01*
X146043418Y-79200779D01*
X146379271Y-78864926D01*
X146379290Y-78864905D01*
X146444486Y-78784874D01*
X146444490Y-78784868D01*
X146523176Y-78628191D01*
X146563610Y-78457589D01*
X146563610Y-78282269D01*
X146523176Y-78111667D01*
X146444490Y-77954990D01*
X146379291Y-77874953D01*
X146379278Y-77874938D01*
X145371667Y-76867328D01*
X144540817Y-77698178D01*
X143833710Y-77698178D01*
X143972753Y-77559135D01*
X144010487Y-77521401D01*
X145018113Y-76513774D01*
X145018113Y-76513773D01*
X144010509Y-75506170D01*
X144010488Y-75506151D01*
X143930457Y-75440955D01*
X143930451Y-75440951D01*
X143773772Y-75362264D01*
X143747186Y-75355963D01*
X143740327Y-75352051D01*
X143732452Y-75351488D01*
X143710412Y-75334989D01*
X143686494Y-75321347D01*
X143682838Y-75314346D01*
X143676519Y-75309616D01*
X143666897Y-75283821D01*
X143654152Y-75259413D01*
X143654861Y-75251549D01*
X143652102Y-75244152D01*
X143657954Y-75217246D01*
X143660428Y-75189826D01*
X143665653Y-75181858D01*
X143666954Y-75175879D01*
X143688099Y-75147631D01*
X143816414Y-75019316D01*
X143877735Y-74985834D01*
X143904093Y-74983000D01*
X146263699Y-74983000D01*
X146330738Y-75002685D01*
X146351380Y-75019319D01*
X147796168Y-76464107D01*
X147796181Y-76464119D01*
X147819703Y-76483608D01*
X147819705Y-76483609D01*
X147819709Y-76483612D01*
X147942064Y-76542536D01*
X148076351Y-76562776D01*
X148210639Y-76542536D01*
X148332994Y-76483612D01*
X148356531Y-76464111D01*
X149387869Y-75432773D01*
X149407370Y-75409236D01*
X149466294Y-75286881D01*
X149486534Y-75152593D01*
X149475290Y-75077995D01*
X149466294Y-75018306D01*
X149449101Y-74982605D01*
X149407370Y-74895951D01*
X149407367Y-74895947D01*
X149407366Y-74895945D01*
X149387877Y-74872423D01*
X149387865Y-74872410D01*
X147013031Y-72497576D01*
X147013018Y-72497564D01*
X146989496Y-72478075D01*
X146989492Y-72478073D01*
X146989491Y-72478072D01*
X146916058Y-72442708D01*
X146867135Y-72419147D01*
X146732849Y-72398908D01*
X146598561Y-72419147D01*
X146476200Y-72478075D01*
X146452678Y-72497564D01*
X146452665Y-72497576D01*
X145421334Y-73528907D01*
X145421322Y-73528920D01*
X145401833Y-73552442D01*
X145342905Y-73674803D01*
X145322666Y-73809090D01*
X145322666Y-73809092D01*
X145327252Y-73839520D01*
X145317779Y-73908744D01*
X145272383Y-73961858D01*
X145205479Y-73981997D01*
X145204637Y-73982000D01*
X143579525Y-73982000D01*
X143452229Y-74016108D01*
X143338103Y-74082000D01*
X143338100Y-74082002D01*
X142164422Y-75255681D01*
X142103099Y-75289166D01*
X142076741Y-75292000D01*
X141034093Y-75292000D01*
X140967054Y-75272315D01*
X140946412Y-75255681D01*
X140588849Y-74898118D01*
X140575025Y-74872802D01*
X140558689Y-74849031D01*
X140558487Y-74842515D01*
X140555364Y-74836795D01*
X140557421Y-74808026D01*
X140556530Y-74779195D01*
X140559882Y-74773605D01*
X140560348Y-74767103D01*
X140577635Y-74744010D01*
X140592471Y-74719278D01*
X140598313Y-74716388D01*
X140602220Y-74711170D01*
X140629244Y-74701090D01*
X140655099Y-74688303D01*
X140663097Y-74688463D01*
X140667684Y-74686753D01*
X140690376Y-74687212D01*
X140702058Y-74688524D01*
X140706047Y-74689957D01*
X140739693Y-74692753D01*
X140741459Y-74692952D01*
X140741500Y-74692969D01*
X140742297Y-74693050D01*
X140774018Y-74696838D01*
X140774025Y-74696836D01*
X140781068Y-74696753D01*
X140792830Y-74697170D01*
X140795478Y-74697390D01*
X140807358Y-74698958D01*
X140813505Y-74700073D01*
X140813511Y-74700075D01*
X140845742Y-74701641D01*
X140849991Y-74701921D01*
X140856458Y-74702458D01*
X140882152Y-74704595D01*
X140882152Y-74704594D01*
X140882155Y-74704595D01*
X140888406Y-74704295D01*
X140900365Y-74704297D01*
X140906408Y-74704591D01*
X140918512Y-74705777D01*
X140923945Y-74706579D01*
X140923953Y-74706582D01*
X140956594Y-74707096D01*
X140960615Y-74707227D01*
X140993176Y-74708811D01*
X140993176Y-74708810D01*
X140993178Y-74708811D01*
X140993179Y-74708810D01*
X140998658Y-74708359D01*
X141010814Y-74707953D01*
X141020570Y-74708107D01*
X141032250Y-74709588D01*
X141032320Y-74708937D01*
X141040399Y-74709792D01*
X141040405Y-74709794D01*
X141071275Y-74709011D01*
X141076275Y-74708987D01*
X141107155Y-74709475D01*
X141107162Y-74709473D01*
X141115230Y-74708540D01*
X141115305Y-74709195D01*
X141126970Y-74707600D01*
X141140192Y-74707265D01*
X141152779Y-74708278D01*
X141152799Y-74707914D01*
X141160910Y-74708358D01*
X141160918Y-74708360D01*
X141189632Y-74706172D01*
X141195910Y-74705854D01*
X141224695Y-74705125D01*
X141224701Y-74705123D01*
X141232731Y-74703859D01*
X141232787Y-74704220D01*
X141245210Y-74701937D01*
X141255688Y-74701138D01*
X141259315Y-74700862D01*
X141271933Y-74701236D01*
X141271935Y-74700867D01*
X141280056Y-74700900D01*
X141280064Y-74700902D01*
X141308645Y-74697263D01*
X141314868Y-74696629D01*
X141343637Y-74694438D01*
X141343641Y-74694436D01*
X141351595Y-74692767D01*
X141351670Y-74693127D01*
X141363951Y-74690221D01*
X141376947Y-74688566D01*
X141389553Y-74688304D01*
X141389536Y-74687931D01*
X141397649Y-74687556D01*
X141397650Y-74687555D01*
X141397655Y-74687556D01*
X141429157Y-74681920D01*
X141460877Y-74677882D01*
X141467980Y-74674974D01*
X141492910Y-74670514D01*
X141505454Y-74669622D01*
X141505418Y-74669242D01*
X141513501Y-74668460D01*
X141513511Y-74668461D01*
X141541733Y-74661936D01*
X141547759Y-74660701D01*
X141576239Y-74655608D01*
X141576241Y-74655607D01*
X141583989Y-74653143D01*
X141584105Y-74653508D01*
X141595994Y-74649392D01*
X141607003Y-74646847D01*
X141619467Y-74645331D01*
X141619411Y-74644946D01*
X141627453Y-74643762D01*
X141627457Y-74643762D01*
X141655345Y-74635830D01*
X141661303Y-74634295D01*
X141689541Y-74627769D01*
X141689547Y-74627765D01*
X141697157Y-74624918D01*
X141697293Y-74625283D01*
X141708939Y-74620589D01*
X141719081Y-74617706D01*
X141731426Y-74615575D01*
X141731349Y-74615187D01*
X141739323Y-74613605D01*
X141739326Y-74613605D01*
X141766862Y-74604274D01*
X141772651Y-74602471D01*
X141800617Y-74594520D01*
X141800623Y-74594515D01*
X141808080Y-74591294D01*
X141808238Y-74591659D01*
X141819610Y-74586403D01*
X141828955Y-74583237D01*
X141841154Y-74580506D01*
X141841056Y-74580111D01*
X141848939Y-74578139D01*
X141848943Y-74578139D01*
X141876004Y-74567456D01*
X141876007Y-74567455D01*
X141878856Y-74566330D01*
X141909302Y-74556016D01*
X141915549Y-74551846D01*
X141936473Y-74543586D01*
X141948486Y-74540268D01*
X141948366Y-74539871D01*
X141956136Y-74537517D01*
X141956149Y-74537515D01*
X141982733Y-74525483D01*
X141988288Y-74523132D01*
X142015434Y-74512418D01*
X142015438Y-74512414D01*
X142022539Y-74508472D01*
X142022741Y-74508836D01*
X142033503Y-74502507D01*
X142041452Y-74498910D01*
X142053279Y-74495013D01*
X142053137Y-74494615D01*
X142060789Y-74491884D01*
X142060791Y-74491882D01*
X142060795Y-74491882D01*
X142089483Y-74477175D01*
X142118854Y-74463884D01*
X142124597Y-74459175D01*
X142143757Y-74449351D01*
X142155362Y-74444894D01*
X142155197Y-74444492D01*
X142162706Y-74441394D01*
X142162715Y-74441392D01*
X142190704Y-74425286D01*
X142219422Y-74410565D01*
X142224894Y-74405612D01*
X142243250Y-74395049D01*
X142254595Y-74390048D01*
X142254409Y-74389652D01*
X142261763Y-74386193D01*
X142261767Y-74386193D01*
X142288968Y-74368743D01*
X142316978Y-74352627D01*
X142322180Y-74347439D01*
X142339753Y-74336166D01*
X142350829Y-74330632D01*
X142350621Y-74330239D01*
X142357795Y-74326434D01*
X142357806Y-74326431D01*
X142381773Y-74309378D01*
X142386639Y-74306089D01*
X142411389Y-74290215D01*
X142411393Y-74290211D01*
X142417606Y-74284965D01*
X142417892Y-74285304D01*
X142427157Y-74277090D01*
X142433120Y-74272847D01*
X142443913Y-74266793D01*
X142443683Y-74266405D01*
X142450681Y-74262255D01*
X142450681Y-74262254D01*
X142450683Y-74262254D01*
X142473804Y-74244078D01*
X142476128Y-74242250D01*
X142502510Y-74223482D01*
X142507154Y-74217860D01*
X142517627Y-74209628D01*
X142523233Y-74205221D01*
X142533716Y-74198662D01*
X142533466Y-74198283D01*
X142540247Y-74193809D01*
X142540255Y-74193806D01*
X142564737Y-74172594D01*
X142590200Y-74152578D01*
X142594559Y-74146756D01*
X142609939Y-74133430D01*
X142620082Y-74126391D01*
X142619814Y-74126023D01*
X142626378Y-74121230D01*
X142626382Y-74121228D01*
X142649835Y-74098865D01*
X142674320Y-74077652D01*
X142678390Y-74071638D01*
X142693076Y-74057635D01*
X142702871Y-74050122D01*
X142702585Y-74049767D01*
X142708918Y-74044663D01*
X142729255Y-74023332D01*
X142731287Y-74021201D01*
X142754732Y-73998848D01*
X142758507Y-73992653D01*
X142772505Y-73977973D01*
X142781944Y-73969988D01*
X142781642Y-73969648D01*
X142787722Y-73964251D01*
X142807003Y-73941996D01*
X142807004Y-73941994D01*
X142808938Y-73939762D01*
X142831296Y-73916314D01*
X142834776Y-73909939D01*
X142848098Y-73894561D01*
X142857146Y-73886138D01*
X142856829Y-73885813D01*
X142862637Y-73880138D01*
X142862646Y-73880132D01*
X142882667Y-73854662D01*
X142903873Y-73830187D01*
X142907049Y-73823646D01*
X142919695Y-73807558D01*
X142928343Y-73798701D01*
X142928012Y-73798393D01*
X142933542Y-73792447D01*
X142933549Y-73792442D01*
X142952314Y-73766065D01*
X142972322Y-73740614D01*
X142975191Y-73733910D01*
X142987154Y-73717093D01*
X142995374Y-73707826D01*
X142995032Y-73707537D01*
X143000275Y-73701326D01*
X143000280Y-73701323D01*
X143016145Y-73676588D01*
X143019448Y-73671700D01*
X143036498Y-73647738D01*
X143036501Y-73647728D01*
X143040308Y-73640549D01*
X143040702Y-73640758D01*
X143046237Y-73629679D01*
X143050323Y-73623309D01*
X143058101Y-73613637D01*
X143057752Y-73613370D01*
X143062690Y-73606915D01*
X143062689Y-73606915D01*
X143062693Y-73606912D01*
X143077340Y-73581455D01*
X143080416Y-73576397D01*
X143096259Y-73551702D01*
X143096259Y-73551698D01*
X143099717Y-73544346D01*
X143100115Y-73544533D01*
X143105123Y-73533171D01*
X143109060Y-73526329D01*
X143116369Y-73516283D01*
X143116015Y-73516038D01*
X143120636Y-73509350D01*
X143133991Y-73483295D01*
X143135360Y-73480625D01*
X143151460Y-73452647D01*
X143153361Y-73445510D01*
X143163193Y-73426328D01*
X143170016Y-73415923D01*
X143169657Y-73415700D01*
X143173945Y-73408794D01*
X143173950Y-73408789D01*
X143187249Y-73379402D01*
X143201950Y-73350724D01*
X143203510Y-73343469D01*
X143212576Y-73323434D01*
X143218904Y-73312673D01*
X143218540Y-73312471D01*
X143222484Y-73305368D01*
X143222484Y-73305365D01*
X143222487Y-73305363D01*
X143234304Y-73275424D01*
X143247583Y-73246084D01*
X143248796Y-73238711D01*
X143257056Y-73217785D01*
X143262856Y-73206709D01*
X143262491Y-73206530D01*
X143266079Y-73199240D01*
X143266083Y-73199235D01*
X143276401Y-73168778D01*
X143288207Y-73138872D01*
X143289062Y-73131409D01*
X143296470Y-73109542D01*
X143301726Y-73098170D01*
X143301361Y-73098013D01*
X143304584Y-73090554D01*
X143304583Y-73090554D01*
X143304586Y-73090551D01*
X143312534Y-73062598D01*
X143314335Y-73056814D01*
X143323672Y-73029258D01*
X143323672Y-73029256D01*
X143323673Y-73029254D01*
X143325252Y-73021287D01*
X143325641Y-73021364D01*
X143327774Y-73009009D01*
X143330653Y-72998884D01*
X143335350Y-72987231D01*
X143334985Y-72987095D01*
X143337835Y-72979477D01*
X143337837Y-72979474D01*
X143345060Y-72948224D01*
X143353829Y-72917392D01*
X143353945Y-72909792D01*
X143359463Y-72885920D01*
X143363574Y-72874040D01*
X143363210Y-72873925D01*
X143365674Y-72866176D01*
X143365673Y-72866176D01*
X143365676Y-72866172D01*
X143370772Y-72837679D01*
X143372007Y-72831656D01*
X143378529Y-72803445D01*
X143378529Y-72803443D01*
X143379310Y-72795358D01*
X143379689Y-72795394D01*
X143380582Y-72782847D01*
X143382728Y-72770852D01*
X143386242Y-72758764D01*
X143385881Y-72758669D01*
X143387949Y-72750813D01*
X143387949Y-72750811D01*
X143387951Y-72750807D01*
X143391599Y-72722147D01*
X143392539Y-72716009D01*
X143395409Y-72699971D01*
X143397624Y-72687588D01*
X143397624Y-72687587D01*
X143397999Y-72679469D01*
X143398372Y-72679486D01*
X143398633Y-72666885D01*
X143400289Y-72653880D01*
X143403195Y-72641603D01*
X143402834Y-72641528D01*
X143404504Y-72633574D01*
X143404504Y-72633571D01*
X143404505Y-72633569D01*
X143406934Y-72601686D01*
X143410969Y-72569992D01*
X143409930Y-72562358D01*
X143412003Y-72535145D01*
X143414287Y-72522720D01*
X143413925Y-72522663D01*
X143415188Y-72514639D01*
X143415191Y-72514631D01*
X143415920Y-72485854D01*
X143416238Y-72479577D01*
X143416353Y-72478072D01*
X143418427Y-72450852D01*
X143418426Y-72450846D01*
X143417981Y-72442729D01*
X143418345Y-72442708D01*
X143417332Y-72430119D01*
X143417708Y-72415273D01*
X143419347Y-72402935D01*
X143418925Y-72402890D01*
X143419796Y-72394814D01*
X143419798Y-72394806D01*
X143419114Y-72365570D01*
X143419119Y-72359583D01*
X143419862Y-72330340D01*
X143419860Y-72330331D01*
X143419004Y-72322249D01*
X143419426Y-72322204D01*
X143417812Y-72309857D01*
X143417481Y-72295692D01*
X143418516Y-72283468D01*
X143418031Y-72283439D01*
X143418525Y-72275329D01*
X143418411Y-72273710D01*
X143416247Y-72242863D01*
X143415487Y-72210319D01*
X143413485Y-72203490D01*
X143411645Y-72177267D01*
X143412107Y-72165021D01*
X143411618Y-72165014D01*
X143411734Y-72156890D01*
X143411733Y-72156885D01*
X143411734Y-72156881D01*
X143409649Y-72139079D01*
X149785417Y-72139079D01*
X149785417Y-72292500D01*
X150535417Y-72292500D01*
X150535417Y-72792500D01*
X149785417Y-72792500D01*
X149785417Y-72945920D01*
X149825765Y-73148766D01*
X149825767Y-73148774D01*
X149904917Y-73339858D01*
X149904922Y-73339868D01*
X150019827Y-73511835D01*
X150019830Y-73511839D01*
X150166077Y-73658086D01*
X150166081Y-73658089D01*
X150338048Y-73772994D01*
X150338058Y-73772999D01*
X150529140Y-73852148D01*
X150529142Y-73852149D01*
X150585417Y-73863342D01*
X150585417Y-73009488D01*
X150595357Y-73026705D01*
X150651212Y-73082560D01*
X150719621Y-73122056D01*
X150795921Y-73142500D01*
X150874913Y-73142500D01*
X150951213Y-73122056D01*
X151019622Y-73082560D01*
X151075477Y-73026705D01*
X151085417Y-73009488D01*
X151085417Y-73863342D01*
X151141691Y-73852149D01*
X151141693Y-73852148D01*
X151332775Y-73772999D01*
X151332785Y-73772994D01*
X151504752Y-73658089D01*
X151504756Y-73658086D01*
X151651003Y-73511839D01*
X151651006Y-73511835D01*
X151765911Y-73339868D01*
X151765916Y-73339858D01*
X151845066Y-73148774D01*
X151845068Y-73148766D01*
X151885416Y-72945920D01*
X151885417Y-72945917D01*
X151885417Y-72792500D01*
X151135417Y-72792500D01*
X151135417Y-72292500D01*
X151885417Y-72292500D01*
X151885417Y-72139083D01*
X151885416Y-72139079D01*
X158425417Y-72139079D01*
X158425417Y-72292500D01*
X159175417Y-72292500D01*
X159175417Y-72792500D01*
X158425417Y-72792500D01*
X158425417Y-72945920D01*
X158465765Y-73148766D01*
X158465767Y-73148774D01*
X158544917Y-73339858D01*
X158544922Y-73339868D01*
X158659827Y-73511835D01*
X158659830Y-73511839D01*
X158806077Y-73658086D01*
X158806081Y-73658089D01*
X158978048Y-73772994D01*
X158978058Y-73772999D01*
X159169142Y-73852149D01*
X159169141Y-73852149D01*
X159271835Y-73872575D01*
X159333746Y-73904960D01*
X159368321Y-73965675D01*
X159368303Y-74022789D01*
X159359032Y-74061907D01*
X159359032Y-74237228D01*
X159399466Y-74407832D01*
X159478149Y-74564503D01*
X159478150Y-74564504D01*
X159543358Y-74644554D01*
X159543373Y-74644570D01*
X160091353Y-75192550D01*
X161611634Y-73672270D01*
X160655417Y-72716053D01*
X160639519Y-72722639D01*
X160635732Y-72735539D01*
X160582928Y-72781294D01*
X160531417Y-72792500D01*
X159775417Y-72792500D01*
X159775417Y-72292500D01*
X160525417Y-72292500D01*
X160525417Y-72275734D01*
X160922205Y-72275734D01*
X161965188Y-73318717D01*
X161965189Y-73318717D01*
X163485466Y-71798439D01*
X163485466Y-71798437D01*
X162937477Y-71250449D01*
X162937459Y-71250433D01*
X162857429Y-71185239D01*
X162857416Y-71185230D01*
X162700749Y-71106549D01*
X162530145Y-71066115D01*
X162354825Y-71066115D01*
X162184220Y-71106549D01*
X162027549Y-71185232D01*
X162027548Y-71185233D01*
X161947498Y-71250441D01*
X161947482Y-71250456D01*
X160922205Y-72275734D01*
X160525417Y-72275734D01*
X160525417Y-72139083D01*
X160525416Y-72139079D01*
X160485068Y-71936233D01*
X160485066Y-71936225D01*
X160405916Y-71745141D01*
X160405911Y-71745131D01*
X160291006Y-71573164D01*
X160291003Y-71573160D01*
X160144756Y-71426913D01*
X160144752Y-71426910D01*
X159972785Y-71312005D01*
X159972775Y-71312000D01*
X159781689Y-71232849D01*
X159781684Y-71232847D01*
X159725417Y-71221655D01*
X159725417Y-72075511D01*
X159715477Y-72058295D01*
X159659622Y-72002440D01*
X159591213Y-71962944D01*
X159514913Y-71942500D01*
X159435921Y-71942500D01*
X159359621Y-71962944D01*
X159291212Y-72002440D01*
X159235357Y-72058295D01*
X159225417Y-72075511D01*
X159225417Y-71221656D01*
X159225416Y-71221655D01*
X159169149Y-71232847D01*
X159169144Y-71232849D01*
X158978058Y-71312000D01*
X158978048Y-71312005D01*
X158806081Y-71426910D01*
X158806077Y-71426913D01*
X158659830Y-71573160D01*
X158659827Y-71573164D01*
X158544922Y-71745131D01*
X158544917Y-71745141D01*
X158465767Y-71936225D01*
X158465765Y-71936233D01*
X158425417Y-72139079D01*
X151885416Y-72139079D01*
X151845068Y-71936233D01*
X151845066Y-71936225D01*
X151765916Y-71745141D01*
X151765911Y-71745131D01*
X151651006Y-71573164D01*
X151651003Y-71573160D01*
X151504756Y-71426913D01*
X151504752Y-71426910D01*
X151332785Y-71312005D01*
X151332775Y-71312000D01*
X151141689Y-71232849D01*
X151141684Y-71232847D01*
X151085417Y-71221655D01*
X151085417Y-72075511D01*
X151075477Y-72058295D01*
X151019622Y-72002440D01*
X150951213Y-71962944D01*
X150874913Y-71942500D01*
X150795921Y-71942500D01*
X150719621Y-71962944D01*
X150651212Y-72002440D01*
X150595357Y-72058295D01*
X150585417Y-72075511D01*
X150585417Y-71221656D01*
X150585416Y-71221655D01*
X150529149Y-71232847D01*
X150529144Y-71232849D01*
X150338058Y-71312000D01*
X150338048Y-71312005D01*
X150166081Y-71426910D01*
X150166077Y-71426913D01*
X150019830Y-71573160D01*
X150019827Y-71573164D01*
X149904922Y-71745131D01*
X149904917Y-71745141D01*
X149825767Y-71936225D01*
X149825765Y-71936233D01*
X149785417Y-72139079D01*
X143409649Y-72139079D01*
X143408276Y-72127360D01*
X143407741Y-72121635D01*
X143405666Y-72092044D01*
X143404045Y-72084084D01*
X143404523Y-72083986D01*
X143401799Y-72072047D01*
X143400392Y-72060040D01*
X143400287Y-72047794D01*
X143399794Y-72047810D01*
X143399532Y-72039690D01*
X143399533Y-72039683D01*
X143394713Y-72010386D01*
X143393913Y-72004710D01*
X143390456Y-71975183D01*
X143390455Y-71975181D01*
X143390455Y-71975179D01*
X143388464Y-71967299D01*
X143388939Y-71967178D01*
X143385661Y-71955374D01*
X143383830Y-71944243D01*
X143383155Y-71932008D01*
X143382665Y-71932047D01*
X143382025Y-71923944D01*
X143382026Y-71923937D01*
X143375248Y-71892075D01*
X143369962Y-71859943D01*
X143367038Y-71853482D01*
X143362057Y-71830069D01*
X143360810Y-71817862D01*
X143360328Y-71817923D01*
X143359311Y-71809855D01*
X143351795Y-71781172D01*
X143350459Y-71775540D01*
X143347980Y-71763886D01*
X143353285Y-71694218D01*
X143395414Y-71638478D01*
X143437168Y-71618312D01*
X147335132Y-70573856D01*
X147362012Y-70565305D01*
X147458328Y-70507702D01*
X147527330Y-70419195D01*
X147559701Y-70311738D01*
X147551068Y-70199844D01*
X147514492Y-70063342D01*
X147345344Y-69432072D01*
X147347007Y-69362222D01*
X147386169Y-69304359D01*
X147429980Y-69281061D01*
X147867725Y-69151726D01*
X147871193Y-69150757D01*
X148648268Y-68945861D01*
X148651728Y-68945003D01*
X149437753Y-68762498D01*
X149441332Y-68761724D01*
X150235785Y-68602092D01*
X150239380Y-68601426D01*
X150535417Y-68551140D01*
X150535417Y-68992500D01*
X149785417Y-68992500D01*
X149785417Y-69145920D01*
X149825765Y-69348766D01*
X149825767Y-69348774D01*
X149904917Y-69539858D01*
X149904922Y-69539868D01*
X150019827Y-69711835D01*
X150019830Y-69711839D01*
X150166077Y-69858086D01*
X150166081Y-69858089D01*
X150338048Y-69972994D01*
X150338058Y-69972999D01*
X150529140Y-70052148D01*
X150529142Y-70052149D01*
X150585417Y-70063342D01*
X150585417Y-69209488D01*
X150595357Y-69226705D01*
X150651212Y-69282560D01*
X150719621Y-69322056D01*
X150795921Y-69342500D01*
X150874913Y-69342500D01*
X150951213Y-69322056D01*
X151019622Y-69282560D01*
X151075477Y-69226705D01*
X151085417Y-69209488D01*
X151085417Y-70063342D01*
X151141691Y-70052149D01*
X151141693Y-70052148D01*
X151332775Y-69972999D01*
X151332785Y-69972994D01*
X151504752Y-69858089D01*
X151504756Y-69858086D01*
X151651003Y-69711839D01*
X151651006Y-69711835D01*
X151765911Y-69539868D01*
X151765916Y-69539858D01*
X151845066Y-69348774D01*
X151845068Y-69348766D01*
X151885416Y-69145920D01*
X151885417Y-69145917D01*
X151885417Y-68992500D01*
X151135417Y-68992500D01*
X151135417Y-68492500D01*
X151885417Y-68492500D01*
X151885417Y-68460041D01*
X151905102Y-68393002D01*
X151957906Y-68347247D01*
X151996088Y-68336760D01*
X152677350Y-68263148D01*
X152681086Y-68262801D01*
X153505697Y-68199123D01*
X153509397Y-68198895D01*
X154042054Y-68174194D01*
X154048538Y-68174066D01*
X156744537Y-68192448D01*
G37*
%TD.AperFunction*%
%TD*%
%TA.AperFunction,NonConductor*%
G36*
X134407563Y-78197531D02*
G01*
X134444454Y-78256868D01*
X134448968Y-78290020D01*
X134448968Y-80646608D01*
X134448968Y-80778392D01*
X134483076Y-80905686D01*
X134532355Y-80991040D01*
X134548968Y-81053039D01*
X134548968Y-81499112D01*
X134529283Y-81566151D01*
X134512649Y-81586793D01*
X132260936Y-83838505D01*
X132205349Y-83870599D01*
X132147261Y-83886164D01*
X132147260Y-83886163D01*
X132110153Y-83896106D01*
X132110146Y-83896109D01*
X131996024Y-83961998D01*
X131996018Y-83962002D01*
X131404919Y-84553101D01*
X131404917Y-84553104D01*
X131339024Y-84667232D01*
X131339024Y-84667233D01*
X131313515Y-84762432D01*
X131281422Y-84818018D01*
X130713662Y-85385777D01*
X130652339Y-85419262D01*
X130582647Y-85414278D01*
X130526714Y-85372406D01*
X130502297Y-85306942D01*
X130501983Y-85297557D01*
X130508388Y-83947621D01*
X130510323Y-83938471D01*
X130509377Y-83932574D01*
X130518763Y-83898561D01*
X130573788Y-83772676D01*
X130576793Y-83766305D01*
X130692708Y-83537720D01*
X130699969Y-83525263D01*
X134221668Y-78221426D01*
X134275148Y-78176468D01*
X134344448Y-78167560D01*
X134407563Y-78197531D01*
G37*
%TD.AperFunction*%
M02*
