%TF.GenerationSoftware,KiCad,Pcbnew,10.0.1*%
%TF.CreationDate,2026-06-21T12:29:43+02:00*%
%TF.ProjectId,beelight-piggy-base,6265656c-6967-4687-942d-70696767792d,rev?*%
%TF.SameCoordinates,Original*%
%TF.FileFunction,Copper,L2,Bot*%
%TF.FilePolarity,Positive*%
%FSLAX46Y46*%
G04 Gerber Fmt 4.6, Leading zero omitted, Abs format (unit mm)*
G04 Created by KiCad (PCBNEW 10.0.1) date 2026-06-21 12:29:43*
%MOMM*%
%LPD*%
G01*
G04 APERTURE LIST*
G04 Aperture macros list*
%AMRoundRect*
0 Rectangle with rounded corners*
0 $1 Rounding radius*
0 $2 $3 $4 $5 $6 $7 $8 $9 X,Y pos of 4 corners*
0 Add a 4 corners polygon primitive as box body*
4,1,4,$2,$3,$4,$5,$6,$7,$8,$9,$2,$3,0*
0 Add four circle primitives for the rounded corners*
1,1,$1+$1,$2,$3*
1,1,$1+$1,$4,$5*
1,1,$1+$1,$6,$7*
1,1,$1+$1,$8,$9*
0 Add four rect primitives between the rounded corners*
20,1,$1+$1,$2,$3,$4,$5,0*
20,1,$1+$1,$4,$5,$6,$7,0*
20,1,$1+$1,$6,$7,$8,$9,0*
20,1,$1+$1,$8,$9,$2,$3,0*%
G04 Aperture macros list end*
%TA.AperFunction,ComponentPad*%
%ADD10RoundRect,0.250200X0.649800X0.649800X-0.649800X0.649800X-0.649800X-0.649800X0.649800X-0.649800X0*%
%TD*%
%TA.AperFunction,ComponentPad*%
%ADD11C,1.800000*%
%TD*%
%TA.AperFunction,CastellatedPad*%
%ADD12C,1.700000*%
%TD*%
%TA.AperFunction,CastellatedPad*%
%ADD13R,4.000000X2.000000*%
%TD*%
%TA.AperFunction,ComponentPad*%
%ADD14R,1.700000X1.700000*%
%TD*%
%TA.AperFunction,ComponentPad*%
%ADD15O,1.100000X1.700000*%
%TD*%
%TA.AperFunction,SMDPad,CuDef*%
%ADD16RoundRect,0.250000X-0.671751X1.626346X-1.626346X0.671751X0.671751X-1.626346X1.626346X-0.671751X0*%
%TD*%
%TA.AperFunction,SMDPad,CuDef*%
%ADD17RoundRect,0.250000X1.856155X0.477297X0.477297X1.856155X-1.856155X-0.477297X-0.477297X-1.856155X0*%
%TD*%
%TA.AperFunction,SMDPad,CuDef*%
%ADD18RoundRect,0.250000X-0.262500X-0.450000X0.262500X-0.450000X0.262500X0.450000X-0.262500X0.450000X0*%
%TD*%
%TA.AperFunction,SMDPad,CuDef*%
%ADD19RoundRect,0.200000X-0.424264X0.707107X-0.707107X0.424264X0.424264X-0.707107X0.707107X-0.424264X0*%
%TD*%
%TA.AperFunction,ViaPad*%
%ADD20C,0.700000*%
%TD*%
%TA.AperFunction,Conductor*%
%ADD21C,0.200000*%
%TD*%
%TA.AperFunction,Conductor*%
%ADD22C,0.400000*%
%TD*%
G04 APERTURE END LIST*
D10*
%TO.P,U6,1,OUT_1*%
%TO.N,IR_RX*%
X157695417Y-78102500D03*
D11*
%TO.P,U6,2,GND_2*%
%TO.N,GND*%
X155155417Y-78102500D03*
%TO.P,U6,3,Vs_3*%
%TO.N,Net-(U6-Vs)*%
X152615417Y-78102500D03*
%TD*%
D12*
%TO.P,U4,1,+5V_1*%
%TO.N,+5VP*%
X157392282Y-106825181D03*
X158682282Y-106825181D03*
D13*
%TO.P,U4,2,+3.3V_2*%
%TO.N,+3.3V*%
X158022282Y-104335181D03*
%TO.P,U4,3,ADC_3*%
%TO.N,unconnected-(U4-ADC-Pad3)*%
X158032282Y-101755181D03*
%TO.P,U4,5,WAKE_5*%
%TO.N,WAKE*%
X157912282Y-96615181D03*
%TO.P,U4,6,RST_6*%
%TO.N,RST*%
X157912282Y-94070000D03*
%TO.P,U4,9,BUZ_9*%
%TO.N,SCL*%
X157932282Y-86315181D03*
D12*
%TO.P,U4,11,EN_11*%
%TO.N,unconnected-(U4-EN-Pad11)_1*%
X151900000Y-83910000D03*
%TO.N,unconnected-(U4-EN-Pad11)*%
X153240000Y-83910000D03*
%TO.P,U4,12,RXD_12*%
%TO.N,RXD*%
X151900000Y-86450000D03*
X153240000Y-86450000D03*
%TO.P,U4,13,TXD_13*%
%TO.N,TXD*%
X151900000Y-88990000D03*
X153240000Y-88989999D03*
%TO.P,U4,14,SDA_14*%
%TO.N,SDA*%
X151900000Y-91530000D03*
X153240000Y-91530000D03*
%TO.P,U4,15,SCL_15*%
%TO.N,WS_DATA*%
X151900000Y-94070000D03*
X153240000Y-94070000D03*
%TO.P,U4,16,SCL2_16*%
%TO.N,IR_RX*%
X151900000Y-96610000D03*
X153240000Y-96610000D03*
%TO.P,U4,17,SCLP_17*%
%TO.N,IR_TX*%
X151900000Y-99150000D03*
X153240000Y-99150000D03*
%TO.P,U4,19,GND_19*%
%TO.N,GND*%
X151900000Y-104230000D03*
X153240000Y-104230000D03*
D14*
%TO.P,U4,20,GND_20*%
X151900000Y-106770000D03*
X153240000Y-106770000D03*
%TD*%
D15*
%TO.P,J10,SH,SHIELD_SH*%
%TO.N,GND*%
X159475417Y-72542500D03*
X159475417Y-68742500D03*
X150835417Y-72542500D03*
X150835417Y-68742500D03*
%TD*%
D16*
%TO.P,J3,1,Pin_1_1*%
%TO.N,BAT*%
X147404600Y-74480842D03*
%TO.P,J3,2,Pin_2_2*%
%TO.N,GND*%
X144187264Y-77698178D03*
%TD*%
D17*
%TO.P,J11,1,Pin_1_1*%
%TO.N,VLED*%
X166985646Y-78692729D03*
%TO.P,J11,2,Pin_2_2*%
%TO.N,Net-(D22-DO)*%
X164475417Y-76182500D03*
%TO.P,J11,3,Pin_3_3*%
%TO.N,GND*%
X161965188Y-73672271D03*
%TD*%
D18*
%TO.P,TH1,1*%
%TO.N,NTC*%
X154120417Y-74912500D03*
%TO.P,TH1,2*%
%TO.N,GND*%
X155945417Y-74912500D03*
%TD*%
D19*
%TO.P,SW1,1,1_1*%
%TO.N,GND*%
X139330341Y-75997576D03*
%TO.P,SW1,2,2_2*%
%TO.N,Net-(D17-Pad3)*%
X136360493Y-78967424D03*
%TD*%
D20*
%TO.N,Net-(U8-VDD)*%
X135937622Y-96445466D03*
X130505417Y-92552500D03*
%TO.N,GND*%
X167075417Y-100552500D03*
X161535416Y-72621738D03*
X134165417Y-95132500D03*
X179235417Y-99562500D03*
X167735417Y-93162500D03*
X162630154Y-85712499D03*
X140095417Y-73732500D03*
X147865417Y-102922500D03*
X131155417Y-94682500D03*
X142970416Y-91712500D03*
X178395417Y-89212500D03*
X156075417Y-82462500D03*
X142315417Y-87332500D03*
X172935417Y-95862500D03*
X149315417Y-112962500D03*
X174055417Y-89812500D03*
X149255417Y-93742500D03*
X175155417Y-108362500D03*
X172610797Y-98827120D03*
X148740000Y-82978576D03*
X138045417Y-112682500D03*
X163055417Y-112712500D03*
%TO.N,Net-(U7-INT)*%
X144645037Y-84662880D03*
X142595417Y-85072500D03*
%TO.N,SCL*%
X150065797Y-95212120D03*
X136835417Y-96382500D03*
X143465417Y-89882500D03*
%TO.N,IR_RX*%
X147905417Y-89522500D03*
%TO.N,VLED*%
X166315417Y-87952500D03*
X180695417Y-88162500D03*
X168705417Y-83292500D03*
%TO.N,Net-(D22-DO)*%
X171265417Y-76652500D03*
X157655417Y-83842500D03*
%TO.N,BAT*%
X137565417Y-97102500D03*
%TO.N,WS_DATA*%
X159795417Y-92304657D03*
X174185417Y-93182500D03*
%TO.N,Net-(U8-SRX)*%
X135765417Y-86452500D03*
X132655417Y-85212500D03*
X133716591Y-95912602D03*
%TO.N,WAKE*%
X142935417Y-81572500D03*
%TO.N,Net-(D17-Pad3)*%
X141005417Y-80952500D03*
%TO.N,RST*%
X164325417Y-100932500D03*
%TO.N,SDA*%
X137196179Y-95102499D03*
X144052857Y-89200650D03*
%TO.N,+5VP*%
X177595417Y-100512500D03*
X145425417Y-91742500D03*
%TO.N,NTC*%
X145245417Y-83782500D03*
%TO.N,Net-(R19-Pad1)*%
X135835417Y-87512500D03*
X132835417Y-87522500D03*
%TD*%
%TO.N,Net-(U8-VDD)*%
D21*
X130475417Y-92582500D02*
X130505417Y-92552500D01*
X131885417Y-97092500D02*
X130475417Y-95682500D01*
X135290588Y-97092500D02*
X131885417Y-97092500D01*
X135937622Y-96445466D02*
X135290588Y-97092500D01*
X130475417Y-95682500D02*
X130475417Y-92582500D01*
%TO.N,GND*%
X143650416Y-91032500D02*
X142970416Y-91712500D01*
X173346177Y-99562500D02*
X172610797Y-98827120D01*
X144386076Y-87332500D02*
X142315417Y-87332500D01*
X149315417Y-112962500D02*
X138325417Y-112962500D01*
X172575417Y-98791740D02*
X172575417Y-97792500D01*
X149255417Y-93742500D02*
X146545417Y-91032500D01*
X148740000Y-82978576D02*
X144386076Y-87332500D01*
X149575417Y-112962500D02*
X151445417Y-111092500D01*
X161410155Y-84492500D02*
X157386178Y-84492500D01*
X152955417Y-111092500D02*
X161435417Y-111092500D01*
X155155417Y-81542500D02*
X155155417Y-78102500D01*
X149315417Y-112962500D02*
X149575417Y-112962500D01*
X172935417Y-97432500D02*
X172935417Y-95862500D01*
X179235417Y-99562500D02*
X173346177Y-99562500D01*
X146545417Y-91032500D02*
X143650416Y-91032500D01*
X157386178Y-84492500D02*
X156075417Y-83181739D01*
X162630154Y-85712499D02*
X161410155Y-84492500D01*
X149315417Y-106814583D02*
X151900000Y-104230000D01*
X156075417Y-82462500D02*
X155155417Y-81542500D01*
X172610797Y-98827120D02*
X172575417Y-98791740D01*
X151445417Y-111092500D02*
X152955417Y-111092500D01*
X149315417Y-112962500D02*
X149315417Y-111092500D01*
X138325417Y-112962500D02*
X138045417Y-112682500D01*
X156075417Y-83181739D02*
X156075417Y-82462500D01*
X172575417Y-97792500D02*
X172935417Y-97432500D01*
X161435417Y-111092500D02*
X163055417Y-112712500D01*
X149315417Y-111092500D02*
X149315417Y-106814583D01*
%TO.N,Net-(U7-INT)*%
X143895417Y-84312500D02*
X144294657Y-84312500D01*
X144294657Y-84312500D02*
X144645037Y-84662880D01*
X143135417Y-85072500D02*
X143895417Y-84312500D01*
X142595417Y-85072500D02*
X143135417Y-85072500D01*
%TO.N,SCL*%
X136835417Y-96382500D02*
X138265417Y-94952500D01*
X138265417Y-90672500D02*
X139055417Y-89882500D01*
X143465417Y-89882500D02*
X145387574Y-89882500D01*
X145677574Y-90172500D02*
X149411129Y-90172500D01*
X149411129Y-90172500D02*
X150135417Y-90896789D01*
X150135417Y-95142500D02*
X150065797Y-95212120D01*
X145387574Y-89882500D02*
X145677574Y-90172500D01*
X139055417Y-89882500D02*
X143465417Y-89882500D01*
X138265417Y-94952500D02*
X138265417Y-90672500D01*
X150135417Y-90896789D02*
X150135417Y-95142500D01*
%TO.N,IR_RX*%
X150750000Y-94977083D02*
X150750000Y-90945686D01*
X149326814Y-89522500D02*
X147905417Y-89522500D01*
X151900000Y-96127083D02*
X150750000Y-94977083D01*
X150750000Y-90945686D02*
X149326814Y-89522500D01*
%TO.N,VLED*%
D22*
X180695417Y-88162500D02*
X179885417Y-88162500D01*
X166985646Y-78692729D02*
X166985646Y-87282271D01*
D21*
X168140417Y-83867500D02*
X167165417Y-84842500D01*
X168140417Y-83857500D02*
X168140417Y-83867500D01*
D22*
X179885417Y-88162500D02*
X179675417Y-87952500D01*
D21*
X168705417Y-83292500D02*
X168140417Y-83857500D01*
D22*
X179675417Y-87952500D02*
X166315417Y-87952500D01*
X166985646Y-87282271D02*
X166315417Y-87952500D01*
%TO.N,Net-(D22-DO)*%
D21*
X166595417Y-76182500D02*
X164475417Y-76182500D01*
X160285141Y-80292224D02*
X160365693Y-80292224D01*
X167431313Y-75346604D02*
X166595417Y-76182500D01*
X157655417Y-82921948D02*
X160285141Y-80292224D01*
X160365693Y-80292224D02*
X164475417Y-76182500D01*
X157655417Y-83842500D02*
X157655417Y-82921948D01*
X171265417Y-76652500D02*
X169959521Y-75346604D01*
X169959521Y-75346604D02*
X167431313Y-75346604D01*
%TO.N,BAT*%
D22*
X129755417Y-87051839D02*
X135049468Y-81757788D01*
X137075417Y-97592500D02*
X131678310Y-97592500D01*
X135049468Y-81757788D02*
X135049468Y-78298549D01*
X135049468Y-78298549D02*
X138865517Y-74482500D01*
X137565417Y-97102500D02*
X137075417Y-97592500D01*
X147402942Y-74482500D02*
X147404600Y-74480842D01*
X131678310Y-97592500D02*
X129755417Y-95669607D01*
X138865517Y-74482500D02*
X147402942Y-74482500D01*
X129755417Y-95669607D02*
X129755417Y-87051839D01*
%TO.N,WS_DATA*%
D21*
X159795417Y-92304657D02*
X161547574Y-90552500D01*
X171555417Y-90552500D02*
X174185417Y-93182500D01*
X161547574Y-90552500D02*
X171555417Y-90552500D01*
%TO.N,Net-(U8-SRX)*%
X131155417Y-86712500D02*
X132655417Y-85212500D01*
X133716591Y-95912602D02*
X131155417Y-93351428D01*
X133895417Y-86452500D02*
X132655417Y-85212500D01*
X135765417Y-86452500D02*
X133895417Y-86452500D01*
X131155417Y-93351428D02*
X131155417Y-86712500D01*
%TO.N,WAKE*%
X158662282Y-96555181D02*
X159810000Y-95407463D01*
X153485417Y-80512500D02*
X149735417Y-80512500D01*
X174835417Y-93451739D02*
X174835417Y-92913261D01*
X161381889Y-90152500D02*
X159879731Y-91654657D01*
X158187442Y-91654657D02*
X154955417Y-88422631D01*
X171721103Y-90152500D02*
X161381889Y-90152500D01*
X173535417Y-93098186D02*
X173535417Y-93451739D01*
X154955417Y-81982500D02*
X153485417Y-80512500D01*
X174454656Y-92532500D02*
X174101103Y-92532500D01*
X160445417Y-92220343D02*
X161713260Y-90952500D01*
X173535417Y-93451739D02*
X173916178Y-93832500D01*
X159879731Y-91654657D02*
X158187442Y-91654657D01*
X159810000Y-95407463D02*
X159810000Y-95370000D01*
X160212282Y-95370000D02*
X160212282Y-92807031D01*
X171389731Y-90952500D02*
X173535417Y-93098186D01*
X174454656Y-93832500D02*
X174835417Y-93451739D01*
X161713260Y-90952500D02*
X171389731Y-90952500D01*
X160445417Y-92573896D02*
X160445417Y-92220343D01*
X160212282Y-92807031D02*
X160445417Y-92573896D01*
X173916178Y-93832500D02*
X174454656Y-93832500D01*
X159810000Y-95370000D02*
X160212282Y-95370000D01*
X149735417Y-80512500D02*
X148675417Y-81572500D01*
X174835417Y-92913261D02*
X174454656Y-92532500D01*
X174101103Y-92532500D02*
X171721103Y-90152500D01*
X154955417Y-88422631D02*
X154955417Y-81982500D01*
X148675417Y-81572500D02*
X142935417Y-81572500D01*
%TO.N,Net-(D17-Pad3)*%
X141005417Y-80952500D02*
X138415417Y-80952500D01*
X136946764Y-79483847D02*
X136946764Y-79402500D01*
X138415417Y-80952500D02*
X136946764Y-79483847D01*
%TO.N,RST*%
X164325417Y-100932500D02*
X162325417Y-100932500D01*
X158138185Y-99232500D02*
X156820866Y-97915181D01*
X155612282Y-97915181D02*
X155612282Y-95315181D01*
X162115417Y-100642500D02*
X160705417Y-99232500D01*
X162319514Y-100926597D02*
X162115417Y-100926597D01*
X156820866Y-97915181D02*
X155612282Y-97915181D01*
X155612282Y-95315181D02*
X156222282Y-95315181D01*
X162325417Y-100932500D02*
X162319514Y-100926597D01*
X162115417Y-100926597D02*
X162115417Y-100642500D01*
X156222282Y-95315181D02*
X156222282Y-95217718D01*
X156222282Y-95217718D02*
X157370000Y-94070000D01*
X160705417Y-99232500D02*
X158138185Y-99232500D01*
%TO.N,SDA*%
X137865417Y-94433261D02*
X137865417Y-90506814D01*
X144052857Y-89200650D02*
X144071007Y-89182500D01*
X137196179Y-95102499D02*
X137865417Y-94433261D01*
X147636178Y-88872500D02*
X149242500Y-88872500D01*
X139171582Y-89200650D02*
X144052857Y-89200650D01*
X147326178Y-89182500D02*
X147636178Y-88872500D01*
X144071007Y-89182500D02*
X147326178Y-89182500D01*
X149242500Y-88872500D02*
X151900000Y-91530000D01*
X137865417Y-90506814D02*
X139171582Y-89200650D01*
%TO.N,+5VP*%
D22*
X149247815Y-98380102D02*
X145425417Y-94557704D01*
X170385417Y-107722500D02*
X159579601Y-107722500D01*
X155614710Y-106041793D02*
X155614710Y-103001793D01*
X155614710Y-103001793D02*
X154125417Y-101512500D01*
X159579601Y-107722500D02*
X158682282Y-106825181D01*
X154125417Y-101512500D02*
X149745417Y-101512500D01*
X149745417Y-101512500D02*
X149247815Y-101014898D01*
X177595417Y-100512500D02*
X170385417Y-107722500D01*
X156398098Y-106825181D02*
X155614710Y-106041793D01*
X145425417Y-94557704D02*
X145425417Y-91742500D01*
X157392282Y-106825181D02*
X156398098Y-106825181D01*
X149247815Y-101014898D02*
X149247815Y-98380102D01*
%TO.N,NTC*%
D21*
X147597917Y-80922500D02*
X153607917Y-74912500D01*
X144226178Y-83782500D02*
X142285417Y-81841739D01*
X145245417Y-83782500D02*
X144226178Y-83782500D01*
X153607917Y-74912500D02*
X154120417Y-74912500D01*
X142285417Y-81841739D02*
X142285417Y-81303261D01*
X142285417Y-81303261D02*
X142666178Y-80922500D01*
X142666178Y-80922500D02*
X147597917Y-80922500D01*
%TO.N,Net-(R19-Pad1)*%
X135835417Y-87512500D02*
X132845417Y-87512500D01*
X132845417Y-87512500D02*
X132835417Y-87522500D01*
%TD*%
%TA.AperFunction,Conductor*%
%TO.N,GND*%
G36*
X157025620Y-68194364D02*
G01*
X157034009Y-68194707D01*
X157771999Y-68250012D01*
X157776544Y-68250438D01*
X158315303Y-68311141D01*
X158379715Y-68338208D01*
X158419270Y-68395802D01*
X158425417Y-68434361D01*
X158425417Y-68492500D01*
X159175417Y-68492500D01*
X159175417Y-68992500D01*
X158425417Y-68992500D01*
X158425417Y-69145920D01*
X158465765Y-69348766D01*
X158465767Y-69348774D01*
X158544917Y-69539858D01*
X158544922Y-69539868D01*
X158659827Y-69711835D01*
X158659830Y-69711839D01*
X158806077Y-69858086D01*
X158806081Y-69858089D01*
X158978048Y-69972994D01*
X158978058Y-69972999D01*
X159169140Y-70052148D01*
X159169142Y-70052149D01*
X159225417Y-70063342D01*
X159225417Y-69209488D01*
X159235357Y-69226705D01*
X159291212Y-69282560D01*
X159359621Y-69322056D01*
X159435921Y-69342500D01*
X159514913Y-69342500D01*
X159591213Y-69322056D01*
X159659622Y-69282560D01*
X159715477Y-69226705D01*
X159725417Y-69209488D01*
X159725417Y-70063342D01*
X159781691Y-70052149D01*
X159781693Y-70052148D01*
X159972775Y-69972999D01*
X159972785Y-69972994D01*
X160144752Y-69858089D01*
X160144756Y-69858086D01*
X160291003Y-69711839D01*
X160291006Y-69711835D01*
X160405911Y-69539868D01*
X160405916Y-69539858D01*
X160485066Y-69348774D01*
X160485068Y-69348766D01*
X160525416Y-69145920D01*
X160525417Y-69145917D01*
X160525417Y-68992500D01*
X159775417Y-68992500D01*
X159775417Y-68513325D01*
X159789496Y-68515448D01*
X159794069Y-68516225D01*
X160789417Y-68704555D01*
X160793910Y-68705493D01*
X161781551Y-68930915D01*
X161786018Y-68932022D01*
X162764548Y-69194219D01*
X162768965Y-69195492D01*
X163736980Y-69494085D01*
X163741344Y-69495520D01*
X164697590Y-69830125D01*
X164701864Y-69831712D01*
X165644848Y-70201805D01*
X165649095Y-70203564D01*
X166577635Y-70608682D01*
X166581818Y-70610602D01*
X167473401Y-71039965D01*
X167490421Y-71049901D01*
X169978247Y-72781294D01*
X173730177Y-75392435D01*
X173743686Y-75403314D01*
X174110119Y-75743314D01*
X174113430Y-75746504D01*
X174829739Y-76462813D01*
X174832956Y-76466153D01*
X175521973Y-77208737D01*
X175525004Y-77212127D01*
X175732295Y-77453003D01*
X175740681Y-77463923D01*
X177168516Y-79554332D01*
X179345547Y-82741595D01*
X179352783Y-82753593D01*
X179524019Y-83077587D01*
X179526109Y-83081726D01*
X179965634Y-83994409D01*
X179967568Y-83998624D01*
X180372671Y-84927129D01*
X180374445Y-84931414D01*
X180696295Y-85751476D01*
X180704867Y-85796842D01*
X180703992Y-87495198D01*
X180684273Y-87562227D01*
X180631445Y-87607955D01*
X180612086Y-87614909D01*
X180482928Y-87649517D01*
X180357405Y-87721988D01*
X180357399Y-87721993D01*
X180353712Y-87725681D01*
X180326784Y-87740384D01*
X180300966Y-87756977D01*
X180294765Y-87757868D01*
X180292389Y-87759166D01*
X180266031Y-87762000D01*
X180102672Y-87762000D01*
X180035633Y-87742315D01*
X180014991Y-87725681D01*
X179921332Y-87632022D01*
X179921330Y-87632020D01*
X179857162Y-87594972D01*
X179830006Y-87579293D01*
X179766312Y-87562227D01*
X179728144Y-87552000D01*
X179728143Y-87552000D01*
X167489600Y-87552000D01*
X167422561Y-87532315D01*
X167376806Y-87479511D01*
X167366862Y-87410353D01*
X167369821Y-87395923D01*
X167386146Y-87334998D01*
X167386146Y-87229544D01*
X167386146Y-85098104D01*
X167405831Y-85031065D01*
X167422465Y-85010423D01*
X167873372Y-84559516D01*
X168380877Y-84052011D01*
X168386376Y-84042486D01*
X168406074Y-84016812D01*
X168543570Y-83879316D01*
X168604891Y-83845834D01*
X168631249Y-83843000D01*
X168777889Y-83843000D01*
X168777892Y-83843000D01*
X168917902Y-83805484D01*
X169043432Y-83733009D01*
X169145926Y-83630515D01*
X169218401Y-83504985D01*
X169255917Y-83364975D01*
X169255917Y-83220025D01*
X169218401Y-83080015D01*
X169199004Y-83046419D01*
X169145928Y-82954488D01*
X169145923Y-82954482D01*
X169043434Y-82851993D01*
X169043428Y-82851988D01*
X168917905Y-82779517D01*
X168917906Y-82779517D01*
X168906423Y-82776440D01*
X168777892Y-82742000D01*
X168632942Y-82742000D01*
X168504410Y-82776440D01*
X168492928Y-82779517D01*
X168367405Y-82851988D01*
X168367399Y-82851993D01*
X168264910Y-82954482D01*
X168264905Y-82954488D01*
X168192434Y-83080011D01*
X168188680Y-83094022D01*
X168154917Y-83220025D01*
X168154917Y-83220027D01*
X168154917Y-83366666D01*
X168146272Y-83396106D01*
X168139749Y-83426093D01*
X168135994Y-83431108D01*
X168135232Y-83433705D01*
X168118602Y-83454343D01*
X167955906Y-83617040D01*
X167927931Y-83645015D01*
X167899956Y-83672989D01*
X167894457Y-83682514D01*
X167874753Y-83708191D01*
X167597827Y-83985118D01*
X167536504Y-84018603D01*
X167466813Y-84013619D01*
X167410879Y-83971748D01*
X167386462Y-83906283D01*
X167386146Y-83897437D01*
X167386146Y-80359553D01*
X167405831Y-80292514D01*
X167422465Y-80271872D01*
X169198709Y-78495629D01*
X169198714Y-78495622D01*
X169198725Y-78495612D01*
X169218226Y-78472074D01*
X169277149Y-78349719D01*
X169297390Y-78215432D01*
X169277149Y-78081145D01*
X169277148Y-78081142D01*
X169218228Y-77958793D01*
X169218225Y-77958788D01*
X169208257Y-77946757D01*
X169198725Y-77935252D01*
X169198715Y-77935242D01*
X169198707Y-77935233D01*
X167743141Y-76479667D01*
X167743132Y-76479659D01*
X167743123Y-76479650D01*
X167726832Y-76466153D01*
X167719586Y-76460149D01*
X167719581Y-76460146D01*
X167597231Y-76401226D01*
X167462943Y-76380985D01*
X167328656Y-76401226D01*
X167328653Y-76401226D01*
X167206304Y-76460146D01*
X167206299Y-76460149D01*
X167182771Y-76479643D01*
X167182744Y-76479667D01*
X164772584Y-78889827D01*
X164772560Y-78889854D01*
X164753066Y-78913382D01*
X164753063Y-78913387D01*
X164694143Y-79035736D01*
X164694143Y-79035739D01*
X164673902Y-79170026D01*
X164694143Y-79304312D01*
X164694143Y-79304315D01*
X164753063Y-79426664D01*
X164753066Y-79426669D01*
X164765635Y-79441839D01*
X164772567Y-79450206D01*
X164772576Y-79450215D01*
X164772584Y-79450224D01*
X166228150Y-80905790D01*
X166228159Y-80905798D01*
X166228169Y-80905808D01*
X166239674Y-80915340D01*
X166251705Y-80925308D01*
X166251710Y-80925311D01*
X166374059Y-80984231D01*
X166374062Y-80984232D01*
X166479629Y-81000144D01*
X166542984Y-81029599D01*
X166580358Y-81088633D01*
X166585146Y-81122758D01*
X166585146Y-87065016D01*
X166565461Y-87132055D01*
X166548827Y-87152697D01*
X166335843Y-87365681D01*
X166274520Y-87399166D01*
X166248162Y-87402000D01*
X166242942Y-87402000D01*
X166114410Y-87436440D01*
X166102928Y-87439517D01*
X165977405Y-87511988D01*
X165977399Y-87511993D01*
X165874910Y-87614482D01*
X165874905Y-87614488D01*
X165802434Y-87740011D01*
X165802433Y-87740015D01*
X165764917Y-87880025D01*
X165764917Y-88024975D01*
X165802433Y-88164985D01*
X165802434Y-88164988D01*
X165874905Y-88290511D01*
X165874907Y-88290513D01*
X165874908Y-88290515D01*
X165977402Y-88393009D01*
X165977403Y-88393010D01*
X165977405Y-88393011D01*
X166102928Y-88465482D01*
X166102929Y-88465482D01*
X166102932Y-88465484D01*
X166242942Y-88503000D01*
X166242945Y-88503000D01*
X166387889Y-88503000D01*
X166387892Y-88503000D01*
X166527902Y-88465484D01*
X166653432Y-88393009D01*
X166657122Y-88389319D01*
X166718445Y-88355834D01*
X166744803Y-88353000D01*
X179458162Y-88353000D01*
X179525201Y-88372685D01*
X179545843Y-88389319D01*
X179639504Y-88482980D01*
X179730829Y-88535707D01*
X179832690Y-88563000D01*
X179938144Y-88563000D01*
X180266031Y-88563000D01*
X180333070Y-88582685D01*
X180353712Y-88599319D01*
X180357402Y-88603009D01*
X180357403Y-88603010D01*
X180357405Y-88603011D01*
X180482928Y-88675482D01*
X180482929Y-88675482D01*
X180482932Y-88675484D01*
X180611400Y-88709907D01*
X180671058Y-88746271D01*
X180701587Y-88809118D01*
X180703304Y-88829745D01*
X180695014Y-104913391D01*
X180686442Y-104958629D01*
X180374445Y-105753585D01*
X180372671Y-105757870D01*
X180149467Y-106269458D01*
X180123650Y-106307396D01*
X174228981Y-112223049D01*
X172765241Y-113692001D01*
X172611763Y-113846025D01*
X172550499Y-113879619D01*
X172523926Y-113882500D01*
X170277588Y-113882500D01*
X170230135Y-113873061D01*
X170076477Y-113809413D01*
X169785183Y-113731361D01*
X169486210Y-113692001D01*
X169486205Y-113692000D01*
X169486200Y-113692000D01*
X169184634Y-113692000D01*
X169184628Y-113692000D01*
X169184623Y-113692001D01*
X168885650Y-113731361D01*
X168594356Y-113809413D01*
X168440699Y-113873061D01*
X168393246Y-113882500D01*
X142517588Y-113882500D01*
X142470135Y-113873061D01*
X142316477Y-113809413D01*
X142025183Y-113731361D01*
X141726210Y-113692001D01*
X141726205Y-113692000D01*
X141726200Y-113692000D01*
X141424634Y-113692000D01*
X141424628Y-113692000D01*
X141424623Y-113692001D01*
X141125650Y-113731361D01*
X140834356Y-113809413D01*
X140680699Y-113873061D01*
X140633246Y-113882500D01*
X137847124Y-113882500D01*
X137780085Y-113862815D01*
X137759028Y-113845764D01*
X131876595Y-107907245D01*
X130384494Y-106400918D01*
X130358939Y-106363245D01*
X130094808Y-105757851D01*
X130093042Y-105753585D01*
X129722956Y-104810619D01*
X129721353Y-104806300D01*
X129718037Y-104796823D01*
X129711081Y-104755292D01*
X129713797Y-104182947D01*
X131092259Y-104182947D01*
X131092259Y-104482052D01*
X131092260Y-104482068D01*
X131131300Y-104778607D01*
X131131301Y-104778612D01*
X131131302Y-104778618D01*
X131185718Y-104981705D01*
X131208718Y-105067541D01*
X131323185Y-105343889D01*
X131323190Y-105343900D01*
X131472741Y-105602928D01*
X131472752Y-105602944D01*
X131654835Y-105840241D01*
X131654841Y-105840248D01*
X131866339Y-106051746D01*
X131866346Y-106051752D01*
X131922083Y-106094520D01*
X132103652Y-106233842D01*
X132103659Y-106233846D01*
X132362687Y-106383397D01*
X132362692Y-106383399D01*
X132362695Y-106383401D01*
X132639044Y-106497869D01*
X132927970Y-106575286D01*
X133224529Y-106614329D01*
X133224536Y-106614329D01*
X133523640Y-106614329D01*
X133523647Y-106614329D01*
X133820206Y-106575286D01*
X134109132Y-106497869D01*
X134385481Y-106383401D01*
X134644524Y-106233842D01*
X134881831Y-106051751D01*
X135093339Y-105840243D01*
X135275430Y-105602936D01*
X135424989Y-105343893D01*
X135539457Y-105067544D01*
X135616874Y-104778618D01*
X135655917Y-104482059D01*
X135655917Y-104182941D01*
X135648125Y-104123753D01*
X150550000Y-104123753D01*
X150550000Y-104336246D01*
X150583242Y-104546127D01*
X150583242Y-104546130D01*
X150648904Y-104748217D01*
X150745375Y-104937550D01*
X150784728Y-104991716D01*
X151400101Y-104376345D01*
X151418834Y-104366115D01*
X151434075Y-104422993D01*
X151499901Y-104537007D01*
X151592993Y-104630099D01*
X151611782Y-104640946D01*
X151611782Y-104820409D01*
X151592097Y-104887448D01*
X151575463Y-104908090D01*
X151101195Y-105382356D01*
X151039872Y-105415841D01*
X151025167Y-105414924D01*
X151025444Y-105417497D01*
X150942626Y-105426401D01*
X150942619Y-105426403D01*
X150807913Y-105476645D01*
X150807906Y-105476649D01*
X150692812Y-105562809D01*
X150692809Y-105562812D01*
X150606649Y-105677906D01*
X150606645Y-105677913D01*
X150556403Y-105812620D01*
X150556401Y-105812627D01*
X150550000Y-105872155D01*
X150550000Y-106520000D01*
X151466988Y-106520000D01*
X151434075Y-106577007D01*
X151400000Y-106704174D01*
X151400000Y-106835826D01*
X151434075Y-106962993D01*
X151466988Y-107020000D01*
X150550000Y-107020000D01*
X150550000Y-107667844D01*
X150556401Y-107727372D01*
X150556403Y-107727379D01*
X150606645Y-107862086D01*
X150606649Y-107862093D01*
X150692809Y-107977187D01*
X150692812Y-107977190D01*
X150807906Y-108063350D01*
X150807913Y-108063354D01*
X150942620Y-108113596D01*
X150942627Y-108113598D01*
X151002155Y-108119999D01*
X151002172Y-108120000D01*
X151515785Y-108120000D01*
X151582824Y-108139685D01*
X151628579Y-108192489D01*
X151630345Y-108196546D01*
X151632260Y-108201170D01*
X151671817Y-108269685D01*
X151671821Y-108269690D01*
X151671822Y-108269692D01*
X151727771Y-108325641D01*
X151727773Y-108325642D01*
X151727777Y-108325645D01*
X151796286Y-108365198D01*
X151796293Y-108365202D01*
X151872720Y-108385681D01*
X151872722Y-108385681D01*
X153251842Y-108385681D01*
X153251844Y-108385681D01*
X153328271Y-108365202D01*
X153396793Y-108325641D01*
X153452742Y-108269692D01*
X153492303Y-108201170D01*
X153494219Y-108196546D01*
X153538060Y-108142143D01*
X153604355Y-108120079D01*
X153608779Y-108120000D01*
X154137828Y-108120000D01*
X154137844Y-108119999D01*
X154197372Y-108113598D01*
X154197379Y-108113596D01*
X154332086Y-108063354D01*
X154332093Y-108063350D01*
X154447187Y-107977190D01*
X154447190Y-107977187D01*
X154533350Y-107862093D01*
X154533354Y-107862086D01*
X154583596Y-107727379D01*
X154583598Y-107727372D01*
X154589999Y-107667844D01*
X154590000Y-107667827D01*
X154590000Y-107020000D01*
X153673012Y-107020000D01*
X153705925Y-106962993D01*
X153740000Y-106835826D01*
X153740000Y-106704174D01*
X153705925Y-106577007D01*
X153673012Y-106520000D01*
X154590000Y-106520000D01*
X154590000Y-105872172D01*
X154589999Y-105872155D01*
X154583598Y-105812627D01*
X154583596Y-105812620D01*
X154533354Y-105677913D01*
X154533350Y-105677906D01*
X154447190Y-105562812D01*
X154447187Y-105562809D01*
X154332093Y-105476649D01*
X154332086Y-105476645D01*
X154197380Y-105426403D01*
X154197373Y-105426401D01*
X154114555Y-105417497D01*
X154114884Y-105414431D01*
X154097875Y-105415330D01*
X154038803Y-105382356D01*
X153549101Y-104892654D01*
X153515616Y-104831331D01*
X153512782Y-104804973D01*
X153512782Y-104649858D01*
X153547007Y-104630099D01*
X153640099Y-104537007D01*
X153705925Y-104422993D01*
X153722940Y-104359491D01*
X153724463Y-104360909D01*
X154355270Y-104991717D01*
X154355270Y-104991716D01*
X154394622Y-104937554D01*
X154491095Y-104748217D01*
X154556757Y-104546130D01*
X154556757Y-104546127D01*
X154590000Y-104336246D01*
X154590000Y-104123753D01*
X154556757Y-103913872D01*
X154556757Y-103913869D01*
X154491095Y-103711782D01*
X154394624Y-103522449D01*
X154355270Y-103468282D01*
X154355269Y-103468282D01*
X153724463Y-104099090D01*
X153722803Y-104099996D01*
X153705925Y-104037007D01*
X153640099Y-103922993D01*
X153547007Y-103829901D01*
X153512782Y-103810141D01*
X153512782Y-103655025D01*
X153532467Y-103587986D01*
X153549101Y-103567344D01*
X154001716Y-103114728D01*
X153947550Y-103075375D01*
X153758215Y-102978903D01*
X153561247Y-102914906D01*
X153503571Y-102875469D01*
X153492182Y-102858984D01*
X153452742Y-102790670D01*
X153396793Y-102734721D01*
X153396791Y-102734720D01*
X153396786Y-102734716D01*
X153328277Y-102695163D01*
X153328272Y-102695160D01*
X153302795Y-102688333D01*
X153251844Y-102674681D01*
X151951844Y-102674681D01*
X151872720Y-102674681D01*
X151838061Y-102683968D01*
X151796291Y-102695160D01*
X151796286Y-102695163D01*
X151727777Y-102734716D01*
X151727769Y-102734722D01*
X151671823Y-102790668D01*
X151671817Y-102790676D01*
X151628820Y-102865148D01*
X151578253Y-102913363D01*
X151559753Y-102921078D01*
X151381781Y-102978905D01*
X151192439Y-103075380D01*
X151138282Y-103114727D01*
X151138282Y-103114728D01*
X151575463Y-103551909D01*
X151608948Y-103613232D01*
X151611782Y-103639590D01*
X151611782Y-103819053D01*
X151592993Y-103829901D01*
X151499901Y-103922993D01*
X151434075Y-104037007D01*
X151418500Y-104095131D01*
X151406579Y-104089687D01*
X151400101Y-104083655D01*
X150784728Y-103468282D01*
X150784727Y-103468282D01*
X150745380Y-103522439D01*
X150648904Y-103711782D01*
X150583242Y-103913869D01*
X150583242Y-103913872D01*
X150550000Y-104123753D01*
X135648125Y-104123753D01*
X135616874Y-103886382D01*
X135539457Y-103597456D01*
X135424989Y-103321107D01*
X135424987Y-103321104D01*
X135424985Y-103321099D01*
X135275434Y-103062071D01*
X135275430Y-103062064D01*
X135178406Y-102935619D01*
X135093340Y-102824758D01*
X135093334Y-102824751D01*
X134881836Y-102613253D01*
X134881829Y-102613247D01*
X134644532Y-102431164D01*
X134644530Y-102431162D01*
X134644524Y-102431158D01*
X134644519Y-102431155D01*
X134644516Y-102431153D01*
X134385488Y-102281602D01*
X134385477Y-102281597D01*
X134223598Y-102214544D01*
X134109132Y-102167131D01*
X134109130Y-102167130D01*
X134109129Y-102167130D01*
X134023293Y-102144130D01*
X133820206Y-102089714D01*
X133820200Y-102089713D01*
X133820195Y-102089712D01*
X133523656Y-102050672D01*
X133523653Y-102050671D01*
X133523647Y-102050671D01*
X133224529Y-102050671D01*
X133224523Y-102050671D01*
X133224519Y-102050672D01*
X132927980Y-102089712D01*
X132927973Y-102089713D01*
X132927970Y-102089714D01*
X132842131Y-102112714D01*
X132639046Y-102167130D01*
X132362698Y-102281597D01*
X132362687Y-102281602D01*
X132103659Y-102431153D01*
X132103643Y-102431164D01*
X131866346Y-102613247D01*
X131866339Y-102613253D01*
X131654841Y-102824751D01*
X131654835Y-102824758D01*
X131472752Y-103062055D01*
X131472741Y-103062071D01*
X131323190Y-103321099D01*
X131323185Y-103321110D01*
X131208718Y-103597458D01*
X131131303Y-103886379D01*
X131131300Y-103886392D01*
X131092260Y-104182931D01*
X131092259Y-104182947D01*
X129713797Y-104182947D01*
X129750109Y-96529462D01*
X129770112Y-96462519D01*
X129823132Y-96417016D01*
X129892337Y-96407400D01*
X129955754Y-96436726D01*
X129961789Y-96442372D01*
X131357829Y-97838412D01*
X131357830Y-97838413D01*
X131432397Y-97912980D01*
X131523723Y-97965707D01*
X131625583Y-97993000D01*
X131625585Y-97993000D01*
X137128142Y-97993000D01*
X137128144Y-97993000D01*
X137230005Y-97965707D01*
X137321330Y-97912980D01*
X137544991Y-97689319D01*
X137606314Y-97655834D01*
X137632672Y-97653000D01*
X137637889Y-97653000D01*
X137637892Y-97653000D01*
X137777902Y-97615484D01*
X137903432Y-97543009D01*
X138005926Y-97440515D01*
X138078401Y-97314985D01*
X138115917Y-97174975D01*
X138115917Y-97030025D01*
X138078401Y-96890015D01*
X138076068Y-96885975D01*
X138005928Y-96764488D01*
X138005923Y-96764482D01*
X137903434Y-96661993D01*
X137903428Y-96661988D01*
X137777905Y-96589517D01*
X137777906Y-96589517D01*
X137738876Y-96579059D01*
X137637892Y-96552000D01*
X137509917Y-96552000D01*
X137501231Y-96549449D01*
X137492270Y-96550738D01*
X137468229Y-96539759D01*
X137442878Y-96532315D01*
X137436950Y-96525474D01*
X137428714Y-96521713D01*
X137414424Y-96499478D01*
X137397123Y-96479511D01*
X137394835Y-96468996D01*
X137390940Y-96462935D01*
X137385917Y-96428000D01*
X137385917Y-96308332D01*
X137405602Y-96241293D01*
X137422236Y-96220651D01*
X137862807Y-95780080D01*
X138167820Y-95475067D01*
X138229142Y-95441583D01*
X138298834Y-95446567D01*
X138354767Y-95488439D01*
X138379184Y-95553903D01*
X138379500Y-95562749D01*
X138379500Y-97198943D01*
X138413912Y-97438292D01*
X138413915Y-97438302D01*
X138444660Y-97543009D01*
X138482041Y-97670315D01*
X138494167Y-97696867D01*
X138582493Y-97890276D01*
X138582496Y-97890281D01*
X138713228Y-98093702D01*
X138713234Y-98093709D01*
X138871581Y-98276453D01*
X138871583Y-98276455D01*
X139054327Y-98434802D01*
X139054334Y-98434808D01*
X139257760Y-98565543D01*
X139477722Y-98665996D01*
X139709740Y-98734123D01*
X139709741Y-98734123D01*
X139709744Y-98734124D01*
X139781114Y-98744385D01*
X139949093Y-98768537D01*
X139949094Y-98768537D01*
X140578869Y-98768537D01*
X140578870Y-98768537D01*
X140770998Y-98740912D01*
X140818218Y-98734124D01*
X140818219Y-98734123D01*
X140818223Y-98734123D01*
X141050241Y-98665996D01*
X141270203Y-98565543D01*
X141473629Y-98434808D01*
X141656380Y-98276454D01*
X141814734Y-98093703D01*
X141945469Y-97890277D01*
X142045922Y-97670315D01*
X142114049Y-97438297D01*
X142115821Y-97425977D01*
X142120838Y-97391072D01*
X142148463Y-97198944D01*
X142148463Y-97078037D01*
X142148463Y-97030443D01*
X142148463Y-97030442D01*
X142148463Y-91670025D01*
X144874917Y-91670025D01*
X144874917Y-91814975D01*
X144906992Y-91934678D01*
X144912434Y-91954988D01*
X144984905Y-92080511D01*
X144984910Y-92080517D01*
X144988598Y-92084205D01*
X145022083Y-92145528D01*
X145024917Y-92171886D01*
X145024917Y-94610430D01*
X145052210Y-94712293D01*
X145068008Y-94739655D01*
X145104937Y-94803617D01*
X145104939Y-94803619D01*
X148810996Y-98509676D01*
X148844481Y-98570999D01*
X148847315Y-98597357D01*
X148847315Y-101067624D01*
X148874608Y-101169487D01*
X148887618Y-101192020D01*
X148927335Y-101260811D01*
X149424936Y-101758412D01*
X149424937Y-101758413D01*
X149499504Y-101832980D01*
X149590830Y-101885707D01*
X149692690Y-101913000D01*
X149798143Y-101913000D01*
X153908162Y-101913000D01*
X153975201Y-101932685D01*
X153995843Y-101949319D01*
X155177891Y-103131367D01*
X155211376Y-103192690D01*
X155214210Y-103219048D01*
X155214210Y-106094519D01*
X155241503Y-106196382D01*
X155256283Y-106221981D01*
X155294230Y-106287706D01*
X156152185Y-107145661D01*
X156243510Y-107198388D01*
X156345371Y-107225681D01*
X156345379Y-107225681D01*
X156353431Y-107226742D01*
X156353001Y-107230007D01*
X156405306Y-107245366D01*
X156451061Y-107298170D01*
X156452826Y-107302224D01*
X156461018Y-107322000D01*
X156461341Y-107322778D01*
X156461344Y-107322785D01*
X156576304Y-107494836D01*
X156722624Y-107641156D01*
X156894687Y-107756124D01*
X156982952Y-107792684D01*
X157037356Y-107836525D01*
X157059421Y-107902819D01*
X157059500Y-107907245D01*
X157059500Y-108074742D01*
X157065118Y-108095707D01*
X157079979Y-108151170D01*
X157079982Y-108151175D01*
X157119535Y-108219684D01*
X157119539Y-108219689D01*
X157119540Y-108219691D01*
X157175489Y-108275640D01*
X157175491Y-108275641D01*
X157175495Y-108275644D01*
X157244004Y-108315197D01*
X157244011Y-108315201D01*
X157320438Y-108335680D01*
X157320440Y-108335680D01*
X158699560Y-108335680D01*
X158699562Y-108335680D01*
X158775989Y-108315201D01*
X158844511Y-108275640D01*
X158900460Y-108219691D01*
X158940021Y-108151169D01*
X158960500Y-108074742D01*
X158960500Y-107969153D01*
X158966738Y-107947907D01*
X158968318Y-107925819D01*
X158976390Y-107915035D01*
X158980185Y-107902114D01*
X158996918Y-107887614D01*
X159010190Y-107869886D01*
X159022810Y-107865178D01*
X159032989Y-107856359D01*
X159054906Y-107853207D01*
X159075654Y-107845469D01*
X159088814Y-107848331D01*
X159102147Y-107846415D01*
X159122290Y-107855614D01*
X159143927Y-107860321D01*
X159161652Y-107873589D01*
X159165703Y-107875440D01*
X159172181Y-107881472D01*
X159254780Y-107964071D01*
X159254790Y-107964082D01*
X159259120Y-107968412D01*
X159259121Y-107968413D01*
X159333688Y-108042980D01*
X159425014Y-108095707D01*
X159526874Y-108123001D01*
X159526876Y-108123001D01*
X159639924Y-108123001D01*
X159639940Y-108123000D01*
X170438142Y-108123000D01*
X170438144Y-108123000D01*
X170540005Y-108095707D01*
X170631330Y-108042980D01*
X177574990Y-101099318D01*
X177636313Y-101065834D01*
X177662671Y-101063000D01*
X177667889Y-101063000D01*
X177667892Y-101063000D01*
X177807902Y-101025484D01*
X177933432Y-100953009D01*
X178035926Y-100850515D01*
X178108401Y-100724985D01*
X178145917Y-100584975D01*
X178145917Y-100440025D01*
X178108401Y-100300015D01*
X178071942Y-100236867D01*
X178035928Y-100174488D01*
X178035923Y-100174482D01*
X177933434Y-100071993D01*
X177933428Y-100071988D01*
X177807905Y-99999517D01*
X177807906Y-99999517D01*
X177796423Y-99996440D01*
X177667892Y-99962000D01*
X177522942Y-99962000D01*
X177394410Y-99996440D01*
X177382928Y-99999517D01*
X177257405Y-100071988D01*
X177257399Y-100071993D01*
X177154910Y-100174482D01*
X177154905Y-100174488D01*
X177082434Y-100300011D01*
X177082433Y-100300015D01*
X177044917Y-100440025D01*
X177044917Y-100440027D01*
X177044917Y-100445245D01*
X177025232Y-100512284D01*
X177008598Y-100532926D01*
X170255843Y-107285681D01*
X170194520Y-107319166D01*
X170168162Y-107322000D01*
X159799125Y-107322000D01*
X159732086Y-107302315D01*
X159686331Y-107249511D01*
X159676387Y-107180353D01*
X159684564Y-107150547D01*
X159686589Y-107145658D01*
X159692412Y-107131601D01*
X159732782Y-106928646D01*
X159732782Y-106721716D01*
X159692412Y-106518761D01*
X159613223Y-106327583D01*
X159498259Y-106155526D01*
X159498257Y-106155523D01*
X159351939Y-106009205D01*
X159179878Y-105894238D01*
X159037047Y-105835076D01*
X159021481Y-105822532D01*
X159003297Y-105814228D01*
X158994832Y-105801057D01*
X158982644Y-105791235D01*
X158976331Y-105772267D01*
X158965523Y-105755450D01*
X158961560Y-105727889D01*
X158960579Y-105724941D01*
X158960500Y-105720515D01*
X158960500Y-105659681D01*
X158980185Y-105592642D01*
X159032989Y-105546887D01*
X159084500Y-105535681D01*
X160042032Y-105535681D01*
X160042033Y-105535680D01*
X160056850Y-105532733D01*
X160100511Y-105524049D01*
X160100511Y-105524048D01*
X160100513Y-105524048D01*
X160166834Y-105479733D01*
X160211149Y-105413412D01*
X160211149Y-105413410D01*
X160211150Y-105413410D01*
X160222781Y-105354933D01*
X160222782Y-105354931D01*
X160222782Y-103315430D01*
X160222781Y-103315428D01*
X160211150Y-103256951D01*
X160211149Y-103256950D01*
X160166833Y-103190627D01*
X160108459Y-103151622D01*
X160063654Y-103098009D01*
X160054948Y-103028684D01*
X160085104Y-102965657D01*
X160108461Y-102945419D01*
X160176833Y-102899734D01*
X160176834Y-102899733D01*
X160221149Y-102833412D01*
X160221149Y-102833410D01*
X160221150Y-102833410D01*
X160232781Y-102774933D01*
X160232782Y-102774931D01*
X160232782Y-100735430D01*
X160232781Y-100735428D01*
X160221150Y-100676951D01*
X160221149Y-100676950D01*
X160176834Y-100610628D01*
X160110512Y-100566313D01*
X160110511Y-100566312D01*
X160052034Y-100554681D01*
X160052030Y-100554681D01*
X159084500Y-100554681D01*
X159017461Y-100534996D01*
X158971706Y-100482192D01*
X158960500Y-100430681D01*
X158960500Y-100280439D01*
X158940020Y-100204009D01*
X158940017Y-100204004D01*
X158900464Y-100135495D01*
X158900458Y-100135487D01*
X158844512Y-100079541D01*
X158844504Y-100079535D01*
X158775995Y-100039982D01*
X158775990Y-100039979D01*
X158750513Y-100033152D01*
X158699562Y-100019500D01*
X157399562Y-100019500D01*
X157320438Y-100019500D01*
X157282224Y-100029739D01*
X157244009Y-100039979D01*
X157244004Y-100039982D01*
X157175495Y-100079535D01*
X157175487Y-100079541D01*
X157119541Y-100135487D01*
X157119535Y-100135495D01*
X157079982Y-100204004D01*
X157079979Y-100204009D01*
X157059500Y-100280439D01*
X157059500Y-100430681D01*
X157039815Y-100497720D01*
X156987011Y-100543475D01*
X156935500Y-100554681D01*
X156012529Y-100554681D01*
X155954052Y-100566312D01*
X155954051Y-100566313D01*
X155887729Y-100610628D01*
X155843414Y-100676950D01*
X155843413Y-100676951D01*
X155831782Y-100735428D01*
X155831782Y-102353110D01*
X155812097Y-102420149D01*
X155759293Y-102465904D01*
X155690135Y-102475848D01*
X155626579Y-102446823D01*
X155620101Y-102440791D01*
X154371332Y-101192022D01*
X154371330Y-101192020D01*
X154325667Y-101165656D01*
X154280006Y-101139293D01*
X154229074Y-101125646D01*
X154178144Y-101112000D01*
X154178143Y-101112000D01*
X149962672Y-101112000D01*
X149895633Y-101092315D01*
X149874991Y-101075681D01*
X149684634Y-100885324D01*
X149651149Y-100824001D01*
X149648315Y-100797643D01*
X149648315Y-98327377D01*
X149648315Y-98327375D01*
X149621022Y-98225515D01*
X149621022Y-98225514D01*
X149568295Y-98134189D01*
X145862236Y-94428130D01*
X145828751Y-94366807D01*
X145825917Y-94340449D01*
X145825917Y-92171886D01*
X145845602Y-92104847D01*
X145862236Y-92084205D01*
X145865926Y-92080515D01*
X145938401Y-91954985D01*
X145975917Y-91814975D01*
X145975917Y-91670025D01*
X145938401Y-91530015D01*
X145865926Y-91404485D01*
X145763432Y-91301991D01*
X145763430Y-91301990D01*
X145763428Y-91301988D01*
X145637905Y-91229517D01*
X145637906Y-91229517D01*
X145615745Y-91223579D01*
X145497892Y-91192000D01*
X145352942Y-91192000D01*
X145235089Y-91223579D01*
X145212928Y-91229517D01*
X145087405Y-91301988D01*
X145087399Y-91301993D01*
X144984910Y-91404482D01*
X144984905Y-91404488D01*
X144912434Y-91530011D01*
X144912433Y-91530015D01*
X144874917Y-91670025D01*
X142148463Y-91670025D01*
X142148463Y-91650000D01*
X142148463Y-91568655D01*
X142117215Y-91351323D01*
X142114050Y-91329306D01*
X142114047Y-91329296D01*
X142110683Y-91317838D01*
X142045922Y-91097284D01*
X141945469Y-90877322D01*
X141934558Y-90860345D01*
X141814734Y-90673896D01*
X141814728Y-90673889D01*
X141656381Y-90491145D01*
X141656379Y-90491143D01*
X141552016Y-90400713D01*
X141514241Y-90341935D01*
X141514241Y-90272066D01*
X141552015Y-90213287D01*
X141615570Y-90184262D01*
X141633218Y-90183000D01*
X142936031Y-90183000D01*
X143003070Y-90202685D01*
X143023712Y-90219319D01*
X143024908Y-90220515D01*
X143127402Y-90323009D01*
X143127403Y-90323010D01*
X143127405Y-90323011D01*
X143252928Y-90395482D01*
X143252929Y-90395482D01*
X143252932Y-90395484D01*
X143392942Y-90433000D01*
X143392945Y-90433000D01*
X143537889Y-90433000D01*
X143537892Y-90433000D01*
X143677902Y-90395484D01*
X143803432Y-90323009D01*
X143905926Y-90220515D01*
X143905926Y-90220514D01*
X143907122Y-90219319D01*
X143968445Y-90185834D01*
X143994803Y-90183000D01*
X145211741Y-90183000D01*
X145278780Y-90202685D01*
X145299422Y-90219319D01*
X145437114Y-90357011D01*
X145493063Y-90412960D01*
X145493065Y-90412961D01*
X145493069Y-90412964D01*
X145561578Y-90452517D01*
X145561585Y-90452521D01*
X145638012Y-90473000D01*
X145717136Y-90473000D01*
X149235296Y-90473000D01*
X149302335Y-90492685D01*
X149322977Y-90509319D01*
X149798598Y-90984940D01*
X149832083Y-91046263D01*
X149834917Y-91072621D01*
X149834917Y-94638165D01*
X149815232Y-94705204D01*
X149772919Y-94745550D01*
X149740126Y-94764484D01*
X149727782Y-94771611D01*
X149727779Y-94771613D01*
X149625290Y-94874102D01*
X149625285Y-94874108D01*
X149552814Y-94999631D01*
X149551784Y-95003475D01*
X149515297Y-95139645D01*
X149515297Y-95284595D01*
X149546118Y-95399618D01*
X149552814Y-95424608D01*
X149625285Y-95550131D01*
X149625287Y-95550133D01*
X149625288Y-95550135D01*
X149727782Y-95652629D01*
X149727783Y-95652630D01*
X149727785Y-95652631D01*
X149853308Y-95725102D01*
X149853309Y-95725102D01*
X149853312Y-95725104D01*
X149993322Y-95762620D01*
X149993325Y-95762620D01*
X150138269Y-95762620D01*
X150138272Y-95762620D01*
X150278282Y-95725104D01*
X150403812Y-95652629D01*
X150506306Y-95550135D01*
X150568906Y-95441709D01*
X150619473Y-95393493D01*
X150688080Y-95380271D01*
X150752945Y-95406239D01*
X150763974Y-95416028D01*
X151098475Y-95750529D01*
X151131960Y-95811852D01*
X151126976Y-95881544D01*
X151098478Y-95925889D01*
X151084023Y-95940344D01*
X150969058Y-96112403D01*
X150889870Y-96303579D01*
X150889868Y-96303587D01*
X150849500Y-96506530D01*
X150849500Y-96713469D01*
X150889868Y-96916412D01*
X150889870Y-96916420D01*
X150922547Y-96995310D01*
X150969059Y-97107598D01*
X150993837Y-97144681D01*
X151084024Y-97279657D01*
X151230342Y-97425975D01*
X151230345Y-97425977D01*
X151402402Y-97540941D01*
X151402408Y-97540943D01*
X151402409Y-97540944D01*
X151512952Y-97586732D01*
X151567356Y-97630573D01*
X151589421Y-97696867D01*
X151589500Y-97701293D01*
X151589500Y-98058705D01*
X151569815Y-98125744D01*
X151517011Y-98171499D01*
X151512954Y-98173266D01*
X151402402Y-98219058D01*
X151230342Y-98334024D01*
X151084024Y-98480342D01*
X150969058Y-98652403D01*
X150889870Y-98843579D01*
X150889868Y-98843587D01*
X150849500Y-99046530D01*
X150849500Y-99253469D01*
X150889868Y-99456412D01*
X150889870Y-99456420D01*
X150969058Y-99647596D01*
X151084024Y-99819657D01*
X151230342Y-99965975D01*
X151230345Y-99965977D01*
X151402402Y-100080941D01*
X151402408Y-100080943D01*
X151402409Y-100080944D01*
X151512952Y-100126732D01*
X151567356Y-100170573D01*
X151589421Y-100236867D01*
X151589500Y-100241293D01*
X151589500Y-100354742D01*
X151596804Y-100382000D01*
X151609979Y-100431170D01*
X151609982Y-100431175D01*
X151649535Y-100499684D01*
X151649539Y-100499689D01*
X151649540Y-100499691D01*
X151705489Y-100555640D01*
X151705491Y-100555641D01*
X151705495Y-100555644D01*
X151756299Y-100584975D01*
X151774011Y-100595201D01*
X151850438Y-100615680D01*
X151850440Y-100615680D01*
X153329560Y-100615680D01*
X153329562Y-100615680D01*
X153405989Y-100595201D01*
X153474511Y-100555640D01*
X153530460Y-100499691D01*
X153570021Y-100431169D01*
X153590500Y-100354742D01*
X153590500Y-100224725D01*
X153610185Y-100157686D01*
X153662989Y-100111931D01*
X153667048Y-100110164D01*
X153737594Y-100080943D01*
X153737595Y-100080942D01*
X153737598Y-100080941D01*
X153909655Y-99965977D01*
X154055977Y-99819655D01*
X154170941Y-99647598D01*
X154250130Y-99456420D01*
X154290500Y-99253465D01*
X154290500Y-99046535D01*
X154250130Y-98843580D01*
X154170941Y-98652402D01*
X154055977Y-98480345D01*
X154055975Y-98480342D01*
X153909655Y-98334022D01*
X153737604Y-98219062D01*
X153737598Y-98219059D01*
X153680003Y-98195202D01*
X153667045Y-98189834D01*
X153612643Y-98145993D01*
X153590579Y-98079699D01*
X153590500Y-98075274D01*
X153590500Y-97684725D01*
X153610185Y-97617686D01*
X153662989Y-97571931D01*
X153667048Y-97570164D01*
X153737594Y-97540943D01*
X153737595Y-97540942D01*
X153737598Y-97540941D01*
X153909655Y-97425977D01*
X154055977Y-97279655D01*
X154170941Y-97107598D01*
X154250130Y-96916420D01*
X154290500Y-96713465D01*
X154290500Y-96506535D01*
X154250130Y-96303580D01*
X154170941Y-96112402D01*
X154055977Y-95940345D01*
X154055976Y-95940344D01*
X154055975Y-95940342D01*
X153909655Y-95794022D01*
X153737604Y-95679062D01*
X153737598Y-95679059D01*
X153716935Y-95670500D01*
X153667045Y-95649834D01*
X153612643Y-95605993D01*
X153590579Y-95539699D01*
X153590500Y-95535274D01*
X153590500Y-95144725D01*
X153610185Y-95077686D01*
X153662989Y-95031931D01*
X153667048Y-95030164D01*
X153737594Y-95000943D01*
X153737595Y-95000942D01*
X153737598Y-95000941D01*
X153909655Y-94885977D01*
X154055977Y-94739655D01*
X154170941Y-94567598D01*
X154250130Y-94376420D01*
X154290500Y-94173465D01*
X154290500Y-93966535D01*
X154250130Y-93763580D01*
X154170941Y-93572402D01*
X154055977Y-93400345D01*
X154055975Y-93400342D01*
X153909655Y-93254022D01*
X153737604Y-93139062D01*
X153737598Y-93139059D01*
X153667046Y-93109835D01*
X153612643Y-93065993D01*
X153590579Y-92999699D01*
X153590500Y-92995274D01*
X153590500Y-92604725D01*
X153610185Y-92537686D01*
X153662989Y-92491931D01*
X153667048Y-92490164D01*
X153737594Y-92460943D01*
X153737595Y-92460942D01*
X153737598Y-92460941D01*
X153909655Y-92345977D01*
X154055977Y-92199655D01*
X154170941Y-92027598D01*
X154250130Y-91836420D01*
X154290500Y-91633465D01*
X154290500Y-91426535D01*
X154250130Y-91223580D01*
X154170941Y-91032402D01*
X154055977Y-90860345D01*
X154055975Y-90860342D01*
X153909655Y-90714022D01*
X153737604Y-90599062D01*
X153737598Y-90599059D01*
X153667046Y-90569835D01*
X153612643Y-90525993D01*
X153590579Y-90459699D01*
X153590500Y-90455274D01*
X153590500Y-90064724D01*
X153610185Y-89997685D01*
X153662989Y-89951930D01*
X153667048Y-89950163D01*
X153737594Y-89920942D01*
X153737595Y-89920941D01*
X153737598Y-89920940D01*
X153909655Y-89805976D01*
X154055977Y-89659654D01*
X154170941Y-89487597D01*
X154250130Y-89296419D01*
X154290500Y-89093464D01*
X154290500Y-88886534D01*
X154250130Y-88683579D01*
X154170941Y-88492401D01*
X154055977Y-88320344D01*
X154055975Y-88320341D01*
X153909655Y-88174021D01*
X153737604Y-88059061D01*
X153737598Y-88059058D01*
X153667046Y-88029834D01*
X153612643Y-87985992D01*
X153590579Y-87919698D01*
X153590500Y-87915273D01*
X153590500Y-87524725D01*
X153610185Y-87457686D01*
X153662989Y-87411931D01*
X153667048Y-87410164D01*
X153737594Y-87380943D01*
X153737595Y-87380942D01*
X153737598Y-87380941D01*
X153909655Y-87265977D01*
X154055977Y-87119655D01*
X154170941Y-86947598D01*
X154250130Y-86756420D01*
X154290500Y-86553465D01*
X154290500Y-86346535D01*
X154250130Y-86143580D01*
X154170941Y-85952402D01*
X154055977Y-85780345D01*
X154055975Y-85780342D01*
X153909655Y-85634022D01*
X153737604Y-85519062D01*
X153737598Y-85519059D01*
X153667046Y-85489835D01*
X153612643Y-85445993D01*
X153590579Y-85379699D01*
X153590500Y-85375274D01*
X153590500Y-84984725D01*
X153610185Y-84917686D01*
X153662989Y-84871931D01*
X153667048Y-84870164D01*
X153737594Y-84840943D01*
X153737595Y-84840942D01*
X153737598Y-84840941D01*
X153909655Y-84725977D01*
X154055977Y-84579655D01*
X154170941Y-84407598D01*
X154250130Y-84216420D01*
X154290500Y-84013465D01*
X154290500Y-83806535D01*
X154250130Y-83603580D01*
X154170941Y-83412402D01*
X154055977Y-83240345D01*
X154055975Y-83240342D01*
X153909655Y-83094022D01*
X153737604Y-82979062D01*
X153737598Y-82979059D01*
X153667046Y-82949835D01*
X153612643Y-82905993D01*
X153590579Y-82839699D01*
X153590500Y-82835274D01*
X153590500Y-82550439D01*
X153570020Y-82474009D01*
X153570017Y-82474004D01*
X153530464Y-82405495D01*
X153530458Y-82405487D01*
X153474512Y-82349541D01*
X153474504Y-82349535D01*
X153405995Y-82309982D01*
X153405990Y-82309979D01*
X153380513Y-82303152D01*
X153329562Y-82289500D01*
X151929562Y-82289500D01*
X151850438Y-82289500D01*
X151812224Y-82299739D01*
X151774009Y-82309979D01*
X151774004Y-82309982D01*
X151705495Y-82349535D01*
X151705487Y-82349541D01*
X151649541Y-82405487D01*
X151649535Y-82405495D01*
X151609982Y-82474004D01*
X151609979Y-82474009D01*
X151589500Y-82550439D01*
X151589500Y-82818705D01*
X151569815Y-82885744D01*
X151517011Y-82931499D01*
X151512954Y-82933266D01*
X151402402Y-82979058D01*
X151230342Y-83094024D01*
X151084024Y-83240342D01*
X150969058Y-83412403D01*
X150889870Y-83603579D01*
X150889868Y-83603587D01*
X150849500Y-83806530D01*
X150849500Y-84013469D01*
X150889868Y-84216412D01*
X150889870Y-84216420D01*
X150969058Y-84407596D01*
X151084024Y-84579657D01*
X151230342Y-84725975D01*
X151230345Y-84725977D01*
X151402402Y-84840941D01*
X151402408Y-84840943D01*
X151402409Y-84840944D01*
X151512952Y-84886732D01*
X151567356Y-84930573D01*
X151589421Y-84996867D01*
X151589500Y-85001293D01*
X151589500Y-85358705D01*
X151569815Y-85425744D01*
X151517011Y-85471499D01*
X151512954Y-85473266D01*
X151402402Y-85519058D01*
X151230342Y-85634024D01*
X151084024Y-85780342D01*
X150969058Y-85952403D01*
X150889870Y-86143579D01*
X150889868Y-86143587D01*
X150849500Y-86346530D01*
X150849500Y-86553469D01*
X150889868Y-86756412D01*
X150889870Y-86756420D01*
X150940070Y-86877614D01*
X150969059Y-86947598D01*
X151010431Y-87009516D01*
X151084024Y-87119657D01*
X151230342Y-87265975D01*
X151230345Y-87265977D01*
X151402402Y-87380941D01*
X151402408Y-87380943D01*
X151402409Y-87380944D01*
X151512952Y-87426732D01*
X151567356Y-87470573D01*
X151589421Y-87536867D01*
X151589500Y-87541293D01*
X151589500Y-87898705D01*
X151569815Y-87965744D01*
X151517011Y-88011499D01*
X151512954Y-88013266D01*
X151402402Y-88059058D01*
X151230342Y-88174024D01*
X151084024Y-88320342D01*
X150969058Y-88492403D01*
X150889870Y-88683579D01*
X150889868Y-88683587D01*
X150849500Y-88886530D01*
X150849500Y-89093469D01*
X150889868Y-89296411D01*
X150889870Y-89296420D01*
X150969059Y-89487598D01*
X151014422Y-89555489D01*
X151084024Y-89659657D01*
X151230342Y-89805975D01*
X151230345Y-89805977D01*
X151402402Y-89920941D01*
X151402408Y-89920943D01*
X151402409Y-89920944D01*
X151512952Y-89966732D01*
X151567356Y-90010573D01*
X151589421Y-90076867D01*
X151589500Y-90081293D01*
X151589500Y-90438705D01*
X151583867Y-90457885D01*
X151583154Y-90477865D01*
X151574225Y-90490724D01*
X151569815Y-90505744D01*
X151554707Y-90518834D01*
X151543305Y-90535257D01*
X151519355Y-90549467D01*
X151517011Y-90551499D01*
X151512952Y-90553267D01*
X151473027Y-90569804D01*
X151403557Y-90577272D01*
X151341078Y-90545996D01*
X151337894Y-90542923D01*
X149427010Y-88632039D01*
X149405448Y-88619591D01*
X149383886Y-88607142D01*
X149376731Y-88603011D01*
X149358490Y-88592479D01*
X149358491Y-88592479D01*
X149320275Y-88582239D01*
X149282062Y-88572000D01*
X147596616Y-88572000D01*
X147558402Y-88582239D01*
X147520187Y-88592479D01*
X147501947Y-88603011D01*
X147494792Y-88607142D01*
X147481979Y-88614539D01*
X147451667Y-88632039D01*
X147451665Y-88632041D01*
X147238026Y-88845681D01*
X147176703Y-88879166D01*
X147150345Y-88882000D01*
X144564094Y-88882000D01*
X144497055Y-88862315D01*
X144476413Y-88845682D01*
X144439849Y-88809118D01*
X144390872Y-88760141D01*
X144390869Y-88760139D01*
X144390868Y-88760138D01*
X144265345Y-88687667D01*
X144265346Y-88687667D01*
X144250089Y-88683579D01*
X144125332Y-88650150D01*
X143980382Y-88650150D01*
X143855625Y-88683579D01*
X143840368Y-88687667D01*
X143714845Y-88760138D01*
X143714839Y-88760143D01*
X143611152Y-88863831D01*
X143549829Y-88897316D01*
X143523471Y-88900150D01*
X139132018Y-88900150D01*
X139111542Y-88905636D01*
X139111542Y-88905637D01*
X139055594Y-88920628D01*
X139055592Y-88920628D01*
X139055592Y-88920629D01*
X138987071Y-88960188D01*
X137624958Y-90322301D01*
X137624952Y-90322309D01*
X137585399Y-90390818D01*
X137585396Y-90390823D01*
X137564917Y-90467253D01*
X137564917Y-94257427D01*
X137556272Y-94286867D01*
X137549749Y-94316854D01*
X137545994Y-94321869D01*
X137545232Y-94324466D01*
X137528598Y-94345108D01*
X137358026Y-94515680D01*
X137296703Y-94549165D01*
X137270345Y-94551999D01*
X137268654Y-94551999D01*
X137123704Y-94551999D01*
X136995172Y-94586439D01*
X136983690Y-94589516D01*
X136858167Y-94661987D01*
X136858161Y-94661992D01*
X136755672Y-94764481D01*
X136755667Y-94764487D01*
X136683196Y-94890010D01*
X136683195Y-94890014D01*
X136645679Y-95030024D01*
X136645679Y-95174974D01*
X136679956Y-95302895D01*
X136683196Y-95314987D01*
X136755667Y-95440510D01*
X136755669Y-95440512D01*
X136755670Y-95440514D01*
X136858164Y-95543008D01*
X136930419Y-95584724D01*
X136957938Y-95600613D01*
X137006154Y-95651180D01*
X137019376Y-95719787D01*
X136993408Y-95784652D01*
X136936494Y-95825180D01*
X136895938Y-95832000D01*
X136762942Y-95832000D01*
X136648567Y-95862647D01*
X136622928Y-95869517D01*
X136497405Y-95941988D01*
X136497402Y-95941991D01*
X136442382Y-95997010D01*
X136381058Y-96030494D01*
X136311367Y-96025508D01*
X136279217Y-96007704D01*
X136275636Y-96004956D01*
X136150110Y-95932483D01*
X136150111Y-95932483D01*
X136125502Y-95925889D01*
X136010097Y-95894966D01*
X135865147Y-95894966D01*
X135749742Y-95925889D01*
X135725133Y-95932483D01*
X135599610Y-96004954D01*
X135599604Y-96004959D01*
X135497115Y-96107448D01*
X135497110Y-96107454D01*
X135424639Y-96232977D01*
X135424638Y-96232981D01*
X135387122Y-96372991D01*
X135387122Y-96372993D01*
X135387122Y-96519632D01*
X135378477Y-96549072D01*
X135371954Y-96579059D01*
X135368199Y-96584074D01*
X135367437Y-96586671D01*
X135350807Y-96607308D01*
X135202434Y-96755682D01*
X135141114Y-96789166D01*
X135114755Y-96792000D01*
X132061250Y-96792000D01*
X131994211Y-96772315D01*
X131973569Y-96755681D01*
X130812236Y-95594348D01*
X130778751Y-95533025D01*
X130775917Y-95506667D01*
X130775917Y-93696261D01*
X130795602Y-93629222D01*
X130848406Y-93583467D01*
X130917564Y-93573523D01*
X130981120Y-93602548D01*
X130987598Y-93608580D01*
X133129772Y-95750754D01*
X133163257Y-95812077D01*
X133166091Y-95838435D01*
X133166091Y-95840127D01*
X133166091Y-95985077D01*
X133203607Y-96125087D01*
X133203608Y-96125090D01*
X133276079Y-96250613D01*
X133276081Y-96250615D01*
X133276082Y-96250617D01*
X133378576Y-96353111D01*
X133378577Y-96353112D01*
X133378579Y-96353113D01*
X133504102Y-96425584D01*
X133504103Y-96425584D01*
X133504106Y-96425586D01*
X133644116Y-96463102D01*
X133644119Y-96463102D01*
X133789063Y-96463102D01*
X133789066Y-96463102D01*
X133929076Y-96425586D01*
X134054606Y-96353111D01*
X134157100Y-96250617D01*
X134229575Y-96125087D01*
X134267091Y-95985077D01*
X134267091Y-95840127D01*
X134229575Y-95700117D01*
X134218945Y-95681706D01*
X134157102Y-95574590D01*
X134157097Y-95574584D01*
X134054608Y-95472095D01*
X134054602Y-95472090D01*
X133929079Y-95399619D01*
X133929080Y-95399619D01*
X133906217Y-95393493D01*
X133789066Y-95362102D01*
X133644116Y-95362102D01*
X133642424Y-95362102D01*
X133575385Y-95342417D01*
X133554743Y-95325783D01*
X131492236Y-93263276D01*
X131458751Y-93201953D01*
X131455917Y-93175595D01*
X131455917Y-86888332D01*
X131475602Y-86821293D01*
X131492231Y-86800655D01*
X132493568Y-85799318D01*
X132520495Y-85784615D01*
X132546314Y-85768023D01*
X132552514Y-85767131D01*
X132554891Y-85765834D01*
X132581249Y-85763000D01*
X132729584Y-85763000D01*
X132796623Y-85782685D01*
X132817265Y-85799319D01*
X133654957Y-86637011D01*
X133710906Y-86692960D01*
X133710908Y-86692961D01*
X133710912Y-86692964D01*
X133775775Y-86730412D01*
X133779428Y-86732521D01*
X133855855Y-86753000D01*
X135236031Y-86753000D01*
X135262717Y-86760836D01*
X135290151Y-86765434D01*
X135298421Y-86771320D01*
X135303070Y-86772685D01*
X135319391Y-86785201D01*
X135324538Y-86789875D01*
X135324908Y-86790515D01*
X135427402Y-86893009D01*
X135456813Y-86909989D01*
X135466660Y-86918931D01*
X135478212Y-86937860D01*
X135493517Y-86953912D01*
X135496059Y-86967104D01*
X135503057Y-86978571D01*
X135502541Y-87000742D01*
X135506738Y-87022519D01*
X135501745Y-87034989D01*
X135501433Y-87048422D01*
X135489011Y-87066796D01*
X135480769Y-87087384D01*
X135470982Y-87098411D01*
X135394908Y-87174485D01*
X135394906Y-87174487D01*
X135393713Y-87175681D01*
X135332390Y-87209166D01*
X135306031Y-87212000D01*
X133354803Y-87212000D01*
X133287764Y-87192315D01*
X133267122Y-87175681D01*
X133173434Y-87081993D01*
X133173428Y-87081988D01*
X133047905Y-87009517D01*
X133047906Y-87009517D01*
X133015157Y-87000742D01*
X132907892Y-86972000D01*
X132762942Y-86972000D01*
X132655677Y-87000742D01*
X132622928Y-87009517D01*
X132497405Y-87081988D01*
X132497399Y-87081993D01*
X132394910Y-87184482D01*
X132394905Y-87184488D01*
X132322434Y-87310011D01*
X132322433Y-87310015D01*
X132284917Y-87450025D01*
X132284917Y-87594975D01*
X132319940Y-87725681D01*
X132322434Y-87734988D01*
X132394905Y-87860511D01*
X132394907Y-87860513D01*
X132394908Y-87860515D01*
X132497402Y-87963009D01*
X132497403Y-87963010D01*
X132497405Y-87963011D01*
X132622928Y-88035482D01*
X132622929Y-88035482D01*
X132622932Y-88035484D01*
X132762942Y-88073000D01*
X132762945Y-88073000D01*
X132907889Y-88073000D01*
X132907892Y-88073000D01*
X133047902Y-88035484D01*
X133173432Y-87963009D01*
X133275926Y-87860515D01*
X133275926Y-87860514D01*
X133281673Y-87854768D01*
X133282823Y-87855918D01*
X133331585Y-87820312D01*
X133373535Y-87813000D01*
X135306031Y-87813000D01*
X135373070Y-87832685D01*
X135393712Y-87849319D01*
X135394908Y-87850515D01*
X135497402Y-87953009D01*
X135497403Y-87953010D01*
X135497405Y-87953011D01*
X135622928Y-88025482D01*
X135622929Y-88025482D01*
X135622932Y-88025484D01*
X135762942Y-88063000D01*
X135762945Y-88063000D01*
X135907889Y-88063000D01*
X135907892Y-88063000D01*
X136047902Y-88025484D01*
X136173432Y-87953009D01*
X136275926Y-87850515D01*
X136348401Y-87724985D01*
X136385917Y-87584975D01*
X136385917Y-87440025D01*
X136348401Y-87300015D01*
X136307714Y-87229544D01*
X136275928Y-87174488D01*
X136275923Y-87174482D01*
X136173434Y-87071993D01*
X136173432Y-87071991D01*
X136173429Y-87071989D01*
X136173425Y-87071986D01*
X136155530Y-87061654D01*
X136107316Y-87011086D01*
X136094095Y-86942478D01*
X136120065Y-86877614D01*
X136129836Y-86866604D01*
X136205926Y-86790515D01*
X136278401Y-86664985D01*
X136315917Y-86524975D01*
X136315917Y-86380025D01*
X136278401Y-86240015D01*
X136272495Y-86229786D01*
X136205928Y-86114488D01*
X136205923Y-86114482D01*
X136103434Y-86011993D01*
X136103428Y-86011988D01*
X135977905Y-85939517D01*
X135977906Y-85939517D01*
X135966423Y-85936440D01*
X135837892Y-85902000D01*
X135692942Y-85902000D01*
X135564410Y-85936440D01*
X135552928Y-85939517D01*
X135427405Y-86011988D01*
X135427399Y-86011993D01*
X135323712Y-86115681D01*
X135262389Y-86149166D01*
X135236031Y-86152000D01*
X134071250Y-86152000D01*
X134004211Y-86132315D01*
X133983569Y-86115681D01*
X133242236Y-85374348D01*
X133208751Y-85313025D01*
X133205917Y-85286667D01*
X133205917Y-85140027D01*
X133205917Y-85140025D01*
X133168401Y-85000015D01*
X133166583Y-84996867D01*
X133095928Y-84874488D01*
X133095923Y-84874482D01*
X132993434Y-84771993D01*
X132993432Y-84771991D01*
X132913734Y-84725977D01*
X132885005Y-84709390D01*
X132836790Y-84658822D01*
X132823568Y-84590215D01*
X132849536Y-84525350D01*
X132859317Y-84514330D01*
X135285171Y-82088475D01*
X135285176Y-82088472D01*
X135295379Y-82078268D01*
X135295381Y-82078268D01*
X135369948Y-82003701D01*
X135422675Y-81912375D01*
X135423174Y-81910515D01*
X135425033Y-81903572D01*
X135431001Y-81881301D01*
X135449969Y-81810515D01*
X135449969Y-81705061D01*
X135449968Y-81705057D01*
X135449968Y-79205495D01*
X135469653Y-79138456D01*
X135522457Y-79092701D01*
X135591615Y-79082757D01*
X135655171Y-79111782D01*
X135661649Y-79117814D01*
X136523844Y-79980010D01*
X136523847Y-79980013D01*
X136568152Y-80012203D01*
X136600667Y-80035827D01*
X136686841Y-80063826D01*
X136721320Y-80075029D01*
X136721321Y-80075029D01*
X136721324Y-80075030D01*
X136721327Y-80075030D01*
X136848187Y-80075030D01*
X136848190Y-80075030D01*
X136968847Y-80035827D01*
X136968848Y-80035825D01*
X136975773Y-80033576D01*
X137045614Y-80031581D01*
X137101772Y-80063826D01*
X138174957Y-81137011D01*
X138230906Y-81192960D01*
X138230908Y-81192961D01*
X138230912Y-81192964D01*
X138282937Y-81223000D01*
X138299428Y-81232521D01*
X138375855Y-81253000D01*
X138454979Y-81253000D01*
X140476031Y-81253000D01*
X140543070Y-81272685D01*
X140563712Y-81289319D01*
X140564908Y-81290515D01*
X140667402Y-81393009D01*
X140667403Y-81393010D01*
X140667405Y-81393011D01*
X140792928Y-81465482D01*
X140792929Y-81465482D01*
X140792932Y-81465484D01*
X140932942Y-81503000D01*
X140932945Y-81503000D01*
X141077889Y-81503000D01*
X141077892Y-81503000D01*
X141217902Y-81465484D01*
X141343432Y-81393009D01*
X141445926Y-81290515D01*
X141461408Y-81263699D01*
X141984917Y-81263699D01*
X141984917Y-81881301D01*
X142005396Y-81957728D01*
X142037312Y-82013009D01*
X142037313Y-82013011D01*
X142037312Y-82013011D01*
X142044952Y-82026244D01*
X142044959Y-82026253D01*
X143841888Y-83823181D01*
X143875373Y-83884504D01*
X143870389Y-83954196D01*
X143828517Y-84010129D01*
X143809526Y-84021838D01*
X143798350Y-84027408D01*
X143779428Y-84032479D01*
X143727392Y-84062522D01*
X143724126Y-84064407D01*
X143724105Y-84064418D01*
X143710912Y-84072035D01*
X143710904Y-84072041D01*
X143129874Y-84653071D01*
X143068551Y-84686556D01*
X142998859Y-84681572D01*
X142954512Y-84653071D01*
X142933434Y-84631993D01*
X142933428Y-84631988D01*
X142807905Y-84559517D01*
X142807906Y-84559517D01*
X142796423Y-84556440D01*
X142667892Y-84522000D01*
X142522942Y-84522000D01*
X142394410Y-84556440D01*
X142382928Y-84559517D01*
X142257405Y-84631988D01*
X142257399Y-84631993D01*
X142154910Y-84734482D01*
X142154905Y-84734488D01*
X142082434Y-84860011D01*
X142082433Y-84860015D01*
X142044917Y-85000025D01*
X142044917Y-85144975D01*
X142082433Y-85284985D01*
X142082434Y-85284988D01*
X142154905Y-85410511D01*
X142154907Y-85410513D01*
X142154908Y-85410515D01*
X142257402Y-85513009D01*
X142257403Y-85513010D01*
X142257405Y-85513011D01*
X142382928Y-85585482D01*
X142382929Y-85585482D01*
X142382932Y-85585484D01*
X142522942Y-85623000D01*
X142522945Y-85623000D01*
X142667889Y-85623000D01*
X142667892Y-85623000D01*
X142807902Y-85585484D01*
X142933432Y-85513009D01*
X143035926Y-85410515D01*
X143035926Y-85410514D01*
X143037122Y-85409319D01*
X143098445Y-85375834D01*
X143124803Y-85373000D01*
X143174977Y-85373000D01*
X143174979Y-85373000D01*
X143251406Y-85352521D01*
X143319928Y-85312960D01*
X143375877Y-85257011D01*
X143901039Y-84731848D01*
X143962360Y-84698365D01*
X144032051Y-84703349D01*
X144087985Y-84745220D01*
X144108491Y-84787434D01*
X144131817Y-84874485D01*
X144132054Y-84875368D01*
X144204525Y-85000891D01*
X144204527Y-85000893D01*
X144204528Y-85000895D01*
X144307022Y-85103389D01*
X144307023Y-85103390D01*
X144307025Y-85103391D01*
X144432548Y-85175862D01*
X144432549Y-85175862D01*
X144432552Y-85175864D01*
X144572562Y-85213380D01*
X144572565Y-85213380D01*
X144717509Y-85213380D01*
X144717512Y-85213380D01*
X144857522Y-85175864D01*
X144983052Y-85103389D01*
X145085546Y-85000895D01*
X145158021Y-84875365D01*
X145195537Y-84735355D01*
X145195537Y-84590405D01*
X145168390Y-84489092D01*
X145170053Y-84419244D01*
X145209215Y-84361381D01*
X145273444Y-84333877D01*
X145288165Y-84333000D01*
X145317889Y-84333000D01*
X145317892Y-84333000D01*
X145457902Y-84295484D01*
X145583432Y-84223009D01*
X145685926Y-84120515D01*
X145758401Y-83994985D01*
X145795917Y-83854975D01*
X145795917Y-83710025D01*
X145758401Y-83570015D01*
X145707585Y-83482000D01*
X145685928Y-83444488D01*
X145685923Y-83444482D01*
X145583434Y-83341993D01*
X145583428Y-83341988D01*
X145457905Y-83269517D01*
X145457906Y-83269517D01*
X145446423Y-83266440D01*
X145317892Y-83232000D01*
X145172942Y-83232000D01*
X145044410Y-83266440D01*
X145032928Y-83269517D01*
X144907405Y-83341988D01*
X144907399Y-83341993D01*
X144803712Y-83445681D01*
X144742389Y-83479166D01*
X144716031Y-83482000D01*
X144402011Y-83482000D01*
X144334972Y-83462315D01*
X144314330Y-83445681D01*
X143139325Y-82270676D01*
X143105840Y-82209353D01*
X143110824Y-82139661D01*
X143152696Y-82083728D01*
X143165002Y-82075611D01*
X143250498Y-82026250D01*
X143273429Y-82013011D01*
X143273429Y-82013010D01*
X143273432Y-82013009D01*
X143375926Y-81910515D01*
X143375926Y-81910514D01*
X143377122Y-81909319D01*
X143438445Y-81875834D01*
X143464803Y-81873000D01*
X148714977Y-81873000D01*
X148714979Y-81873000D01*
X148791406Y-81852521D01*
X148859928Y-81812960D01*
X148915877Y-81757011D01*
X149823569Y-80849319D01*
X149884892Y-80815834D01*
X149911250Y-80813000D01*
X153309584Y-80813000D01*
X153376623Y-80832685D01*
X153397265Y-80849319D01*
X154618598Y-82070652D01*
X154652083Y-82131975D01*
X154654917Y-82158333D01*
X154654917Y-88462193D01*
X154674615Y-88535706D01*
X154675396Y-88538620D01*
X154689472Y-88563000D01*
X154689472Y-88563001D01*
X154714954Y-88607138D01*
X154714956Y-88607141D01*
X154714957Y-88607142D01*
X157946981Y-91839167D01*
X157946982Y-91839168D01*
X158002931Y-91895117D01*
X158002933Y-91895118D01*
X158002937Y-91895121D01*
X158071446Y-91934674D01*
X158071453Y-91934678D01*
X158147880Y-91955157D01*
X159157546Y-91955157D01*
X159224585Y-91974842D01*
X159270340Y-92027646D01*
X159280284Y-92096804D01*
X159277321Y-92111246D01*
X159244917Y-92232182D01*
X159244917Y-92377132D01*
X159275204Y-92490164D01*
X159282434Y-92517145D01*
X159354905Y-92642668D01*
X159354910Y-92642674D01*
X159370055Y-92657819D01*
X159403540Y-92719142D01*
X159398556Y-92788834D01*
X159356684Y-92844767D01*
X159291220Y-92869184D01*
X159282374Y-92869500D01*
X155892529Y-92869500D01*
X155834052Y-92881131D01*
X155834051Y-92881132D01*
X155767729Y-92925447D01*
X155723414Y-92991769D01*
X155723413Y-92991770D01*
X155711782Y-93050247D01*
X155711782Y-94890681D01*
X155692097Y-94957720D01*
X155639293Y-95003475D01*
X155587782Y-95014681D01*
X155572720Y-95014681D01*
X155534506Y-95024920D01*
X155496291Y-95035160D01*
X155496286Y-95035163D01*
X155427777Y-95074716D01*
X155427769Y-95074722D01*
X155371823Y-95130668D01*
X155371817Y-95130676D01*
X155332264Y-95199185D01*
X155332261Y-95199190D01*
X155318608Y-95250143D01*
X155311782Y-95275619D01*
X155311782Y-97875619D01*
X155311782Y-97954743D01*
X155314720Y-97965706D01*
X155332261Y-98031171D01*
X155332264Y-98031176D01*
X155371817Y-98099685D01*
X155371821Y-98099690D01*
X155371822Y-98099692D01*
X155427771Y-98155641D01*
X155427773Y-98155642D01*
X155427777Y-98155645D01*
X155486997Y-98189835D01*
X155496293Y-98195202D01*
X155572720Y-98215681D01*
X156645033Y-98215681D01*
X156712072Y-98235366D01*
X156732714Y-98252000D01*
X157897725Y-99417011D01*
X157953674Y-99472960D01*
X157953676Y-99472961D01*
X157953680Y-99472964D01*
X158022189Y-99512517D01*
X158022196Y-99512521D01*
X158098623Y-99533000D01*
X160529584Y-99533000D01*
X160596623Y-99552685D01*
X160617265Y-99569319D01*
X161778598Y-100730652D01*
X161812083Y-100791975D01*
X161814917Y-100818333D01*
X161814917Y-100966159D01*
X161825317Y-101004972D01*
X161835396Y-101042587D01*
X161835399Y-101042592D01*
X161874952Y-101111101D01*
X161874956Y-101111106D01*
X161874957Y-101111108D01*
X161930906Y-101167057D01*
X161930908Y-101167058D01*
X161930912Y-101167061D01*
X161999421Y-101206614D01*
X161999428Y-101206618D01*
X162075855Y-101227097D01*
X162154979Y-101227097D01*
X162247500Y-101227097D01*
X162279591Y-101231322D01*
X162285850Y-101232999D01*
X162285852Y-101232999D01*
X162285855Y-101233000D01*
X162364979Y-101233000D01*
X163796031Y-101233000D01*
X163863070Y-101252685D01*
X163883712Y-101269319D01*
X163884908Y-101270515D01*
X163987402Y-101373009D01*
X163987403Y-101373010D01*
X163987405Y-101373011D01*
X164112928Y-101445482D01*
X164112929Y-101445482D01*
X164112932Y-101445484D01*
X164252942Y-101483000D01*
X164252945Y-101483000D01*
X164397889Y-101483000D01*
X164397892Y-101483000D01*
X164537902Y-101445484D01*
X164663432Y-101373009D01*
X164765926Y-101270515D01*
X164838401Y-101144985D01*
X164875917Y-101004975D01*
X164875917Y-100860025D01*
X164838401Y-100720015D01*
X164813537Y-100676950D01*
X164765928Y-100594488D01*
X164765923Y-100594482D01*
X164663434Y-100491993D01*
X164663428Y-100491988D01*
X164537905Y-100419517D01*
X164537906Y-100419517D01*
X164526423Y-100416440D01*
X164397892Y-100382000D01*
X164252942Y-100382000D01*
X164124410Y-100416440D01*
X164112928Y-100419517D01*
X163987405Y-100491988D01*
X163987399Y-100491993D01*
X163883712Y-100595681D01*
X163822389Y-100629166D01*
X163796031Y-100632000D01*
X162518852Y-100632000D01*
X162451813Y-100612315D01*
X162406058Y-100559511D01*
X162399079Y-100540100D01*
X162395438Y-100526511D01*
X162375508Y-100491991D01*
X162355881Y-100457995D01*
X162355875Y-100457987D01*
X160889929Y-98992041D01*
X160889924Y-98992037D01*
X160857558Y-98973351D01*
X160857558Y-98973350D01*
X160857556Y-98973350D01*
X160844942Y-98966067D01*
X160821407Y-98952479D01*
X160821408Y-98952479D01*
X160783192Y-98942239D01*
X160744979Y-98932000D01*
X160744977Y-98932000D01*
X158314018Y-98932000D01*
X158246979Y-98912315D01*
X158226337Y-98895681D01*
X157358018Y-98027362D01*
X157324533Y-97966039D01*
X157329517Y-97896347D01*
X157371389Y-97840414D01*
X157436853Y-97815997D01*
X157445699Y-97815681D01*
X159932032Y-97815681D01*
X159932033Y-97815680D01*
X159946850Y-97812733D01*
X159990511Y-97804049D01*
X159990511Y-97804048D01*
X159990513Y-97804048D01*
X160056834Y-97759733D01*
X160101149Y-97693412D01*
X160101149Y-97693410D01*
X160101150Y-97693410D01*
X160112781Y-97634933D01*
X160112782Y-97634931D01*
X160112782Y-95794500D01*
X160132467Y-95727461D01*
X160185271Y-95681706D01*
X160236782Y-95670500D01*
X160251842Y-95670500D01*
X160251844Y-95670500D01*
X160328271Y-95650021D01*
X160396793Y-95610460D01*
X160452742Y-95554511D01*
X160492303Y-95485989D01*
X160512782Y-95409562D01*
X160512782Y-95302894D01*
X167779277Y-95302894D01*
X167779277Y-95601869D01*
X167818298Y-95898273D01*
X167818299Y-95898278D01*
X167818300Y-95898284D01*
X167847619Y-96007704D01*
X167895680Y-96187072D01*
X168010090Y-96463281D01*
X168010095Y-96463292D01*
X168159574Y-96722195D01*
X168159585Y-96722211D01*
X168341580Y-96959392D01*
X168341586Y-96959399D01*
X168552982Y-97170795D01*
X168552989Y-97170801D01*
X168589666Y-97198944D01*
X168790179Y-97352803D01*
X168790186Y-97352807D01*
X169049089Y-97502286D01*
X169049094Y-97502288D01*
X169049097Y-97502290D01*
X169147406Y-97543011D01*
X169325309Y-97616701D01*
X169325310Y-97616701D01*
X169325312Y-97616702D01*
X169614098Y-97694082D01*
X169823439Y-97721641D01*
X169910512Y-97733105D01*
X169910513Y-97733105D01*
X170209488Y-97733105D01*
X170276789Y-97724244D01*
X170505902Y-97694082D01*
X170794688Y-97616702D01*
X171070903Y-97502290D01*
X171329821Y-97352803D01*
X171567012Y-97170800D01*
X171778418Y-96959394D01*
X171960421Y-96722203D01*
X172109908Y-96463285D01*
X172224320Y-96187070D01*
X172301700Y-95898284D01*
X172340723Y-95601869D01*
X172340723Y-95302895D01*
X172338313Y-95284592D01*
X172329259Y-95215821D01*
X172301700Y-95006480D01*
X172224320Y-94717694D01*
X172222082Y-94712292D01*
X172109909Y-94441482D01*
X172109904Y-94441471D01*
X171960425Y-94182568D01*
X171960421Y-94182561D01*
X171833390Y-94017011D01*
X171778419Y-93945371D01*
X171778413Y-93945364D01*
X171567017Y-93733968D01*
X171567010Y-93733962D01*
X171329829Y-93551967D01*
X171329827Y-93551965D01*
X171329821Y-93551961D01*
X171329816Y-93551958D01*
X171329813Y-93551956D01*
X171070910Y-93402477D01*
X171070899Y-93402472D01*
X170794690Y-93288062D01*
X170635120Y-93245306D01*
X170505902Y-93210682D01*
X170505896Y-93210681D01*
X170505891Y-93210680D01*
X170209488Y-93171659D01*
X170209487Y-93171659D01*
X169910513Y-93171659D01*
X169910512Y-93171659D01*
X169614108Y-93210680D01*
X169614101Y-93210681D01*
X169614098Y-93210682D01*
X169569407Y-93222657D01*
X169325309Y-93288062D01*
X169049100Y-93402472D01*
X169049089Y-93402477D01*
X168790186Y-93551956D01*
X168790170Y-93551967D01*
X168552989Y-93733962D01*
X168552982Y-93733968D01*
X168341586Y-93945364D01*
X168341580Y-93945371D01*
X168159585Y-94182552D01*
X168159574Y-94182568D01*
X168010095Y-94441471D01*
X168010090Y-94441482D01*
X167895680Y-94717691D01*
X167818301Y-95006477D01*
X167818298Y-95006490D01*
X167779277Y-95302894D01*
X160512782Y-95302894D01*
X160512782Y-92982864D01*
X160532467Y-92915825D01*
X160549101Y-92895183D01*
X160600888Y-92843396D01*
X160685877Y-92758407D01*
X160725439Y-92689884D01*
X160745917Y-92613458D01*
X160745917Y-92534334D01*
X160745917Y-92396176D01*
X160765602Y-92329137D01*
X160782236Y-92308495D01*
X161801412Y-91289319D01*
X161862735Y-91255834D01*
X161889093Y-91253000D01*
X171213898Y-91253000D01*
X171280937Y-91272685D01*
X171301579Y-91289319D01*
X173198598Y-93186338D01*
X173232083Y-93247661D01*
X173234917Y-93274019D01*
X173234917Y-93491301D01*
X173246878Y-93535939D01*
X173255396Y-93567728D01*
X173278981Y-93608580D01*
X173287312Y-93623009D01*
X173287313Y-93623011D01*
X173287312Y-93623011D01*
X173294952Y-93636244D01*
X173294959Y-93636253D01*
X173520509Y-93861802D01*
X173675718Y-94017011D01*
X173731667Y-94072960D01*
X173731669Y-94072961D01*
X173731673Y-94072964D01*
X173800182Y-94112517D01*
X173800189Y-94112521D01*
X173876616Y-94133000D01*
X173876618Y-94133000D01*
X174494216Y-94133000D01*
X174494218Y-94133000D01*
X174570645Y-94112521D01*
X174639167Y-94072960D01*
X174695116Y-94017011D01*
X175075877Y-93636250D01*
X175075878Y-93636246D01*
X175075881Y-93636244D01*
X175083521Y-93623011D01*
X175106351Y-93583467D01*
X175115438Y-93567728D01*
X175135917Y-93491301D01*
X175135917Y-92873699D01*
X175115438Y-92797272D01*
X175093001Y-92758409D01*
X175075881Y-92728756D01*
X175075875Y-92728748D01*
X174639166Y-92292039D01*
X174622226Y-92282259D01*
X174605286Y-92272479D01*
X174605285Y-92272478D01*
X174570650Y-92252481D01*
X174570647Y-92252479D01*
X174532431Y-92242239D01*
X174494218Y-92232000D01*
X174494216Y-92232000D01*
X174276936Y-92232000D01*
X174209897Y-92212315D01*
X174189255Y-92195681D01*
X171905613Y-89912039D01*
X171888673Y-89902259D01*
X171871733Y-89892479D01*
X171871732Y-89892478D01*
X171837097Y-89872481D01*
X171837094Y-89872479D01*
X171798878Y-89862239D01*
X171760665Y-89852000D01*
X161342327Y-89852000D01*
X161342325Y-89852000D01*
X161321849Y-89857486D01*
X161321849Y-89857487D01*
X161265901Y-89872478D01*
X161265899Y-89872478D01*
X161265899Y-89872479D01*
X161197378Y-89912038D01*
X161197376Y-89912040D01*
X159791579Y-91317838D01*
X159730256Y-91351323D01*
X159703898Y-91354157D01*
X158363275Y-91354157D01*
X158296236Y-91334472D01*
X158275594Y-91317838D01*
X155292236Y-88334479D01*
X155258751Y-88273156D01*
X155255917Y-88246798D01*
X155255917Y-85295428D01*
X155731782Y-85295428D01*
X155731782Y-87334933D01*
X155743413Y-87393410D01*
X155743414Y-87393411D01*
X155787729Y-87459733D01*
X155854051Y-87504048D01*
X155854052Y-87504049D01*
X155912529Y-87515680D01*
X155912532Y-87515681D01*
X155912534Y-87515681D01*
X159952032Y-87515681D01*
X159952033Y-87515680D01*
X159970596Y-87511988D01*
X160010511Y-87504049D01*
X160010511Y-87504048D01*
X160010513Y-87504048D01*
X160076834Y-87459733D01*
X160121149Y-87393412D01*
X160121149Y-87393410D01*
X160121150Y-87393410D01*
X160132781Y-87334933D01*
X160132782Y-87334931D01*
X160132782Y-85295430D01*
X160132781Y-85295428D01*
X160121150Y-85236951D01*
X160121149Y-85236950D01*
X160076834Y-85170628D01*
X160010512Y-85126313D01*
X160010511Y-85126312D01*
X159952034Y-85114681D01*
X159952030Y-85114681D01*
X155912534Y-85114681D01*
X155912529Y-85114681D01*
X155854052Y-85126312D01*
X155854051Y-85126313D01*
X155787729Y-85170628D01*
X155743414Y-85236950D01*
X155743413Y-85236951D01*
X155731782Y-85295428D01*
X155255917Y-85295428D01*
X155255917Y-83770025D01*
X157104917Y-83770025D01*
X157104917Y-83914975D01*
X157142433Y-84054985D01*
X157142434Y-84054988D01*
X157214905Y-84180511D01*
X157214907Y-84180513D01*
X157214908Y-84180515D01*
X157317402Y-84283009D01*
X157317403Y-84283010D01*
X157317405Y-84283011D01*
X157442928Y-84355482D01*
X157442929Y-84355482D01*
X157442932Y-84355484D01*
X157582942Y-84393000D01*
X157582945Y-84393000D01*
X157727889Y-84393000D01*
X157727892Y-84393000D01*
X157867902Y-84355484D01*
X157993432Y-84283009D01*
X158095926Y-84180515D01*
X158168401Y-84054985D01*
X158205917Y-83914975D01*
X158205917Y-83770025D01*
X158168401Y-83630015D01*
X158160910Y-83617041D01*
X158095928Y-83504488D01*
X158095927Y-83504487D01*
X158095926Y-83504485D01*
X157993432Y-83401991D01*
X157993431Y-83401990D01*
X157992235Y-83400794D01*
X157977528Y-83373860D01*
X157960940Y-83348048D01*
X157960048Y-83341847D01*
X157958751Y-83339471D01*
X157955917Y-83313113D01*
X157955917Y-83097780D01*
X157975602Y-83030741D01*
X157992231Y-83010104D01*
X160387713Y-80614621D01*
X160443296Y-80582530D01*
X160481682Y-80572245D01*
X160550204Y-80532684D01*
X160606153Y-80476735D01*
X163114944Y-77967942D01*
X163176265Y-77934459D01*
X163245957Y-77939443D01*
X163290304Y-77967944D01*
X163717921Y-78395561D01*
X163717930Y-78395569D01*
X163717940Y-78395579D01*
X163729445Y-78405111D01*
X163741476Y-78415079D01*
X163741481Y-78415082D01*
X163856216Y-78470335D01*
X163863833Y-78474003D01*
X163998120Y-78494244D01*
X164132407Y-78474003D01*
X164254762Y-78415080D01*
X164278300Y-78395579D01*
X166154560Y-76519319D01*
X166215883Y-76485834D01*
X166242241Y-76483000D01*
X166634977Y-76483000D01*
X166634979Y-76483000D01*
X166711406Y-76462521D01*
X166779928Y-76422960D01*
X166835877Y-76367011D01*
X167519465Y-75683423D01*
X167580788Y-75649938D01*
X167607146Y-75647104D01*
X169783688Y-75647104D01*
X169850727Y-75666789D01*
X169871369Y-75683423D01*
X170678598Y-76490652D01*
X170712083Y-76551975D01*
X170714917Y-76578333D01*
X170714917Y-76580025D01*
X170714917Y-76724975D01*
X170741024Y-76822406D01*
X170752434Y-76864988D01*
X170824905Y-76990511D01*
X170824907Y-76990513D01*
X170824908Y-76990515D01*
X170927402Y-77093009D01*
X170927403Y-77093010D01*
X170927405Y-77093011D01*
X171052928Y-77165482D01*
X171052929Y-77165482D01*
X171052932Y-77165484D01*
X171192942Y-77203000D01*
X171192945Y-77203000D01*
X171337889Y-77203000D01*
X171337892Y-77203000D01*
X171477902Y-77165484D01*
X171603432Y-77093009D01*
X171705926Y-76990515D01*
X171778401Y-76864985D01*
X171815917Y-76724975D01*
X171815917Y-76580025D01*
X171778401Y-76440015D01*
X171768554Y-76422960D01*
X171705928Y-76314488D01*
X171705923Y-76314482D01*
X171603434Y-76211993D01*
X171603428Y-76211988D01*
X171477905Y-76139517D01*
X171477906Y-76139517D01*
X171466423Y-76136440D01*
X171337892Y-76102000D01*
X171192942Y-76102000D01*
X171191250Y-76102000D01*
X171124211Y-76082315D01*
X171103569Y-76065681D01*
X170144033Y-75106145D01*
X170144028Y-75106141D01*
X170128216Y-75097013D01*
X170128212Y-75097009D01*
X170128212Y-75097010D01*
X170101861Y-75081797D01*
X170075511Y-75066583D01*
X170050034Y-75059756D01*
X169999083Y-75046104D01*
X167391751Y-75046104D01*
X167353537Y-75056343D01*
X167315322Y-75066583D01*
X167280188Y-75086868D01*
X167262621Y-75097011D01*
X167262619Y-75097011D01*
X167262619Y-75097012D01*
X167246805Y-75106141D01*
X167246800Y-75106145D01*
X166893270Y-75459674D01*
X166831947Y-75493159D01*
X166762255Y-75488175D01*
X166710102Y-75451103D01*
X166707998Y-75448563D01*
X166707997Y-75448561D01*
X166688496Y-75425023D01*
X166688491Y-75425018D01*
X166688478Y-75425004D01*
X165232912Y-73969438D01*
X165232903Y-73969430D01*
X165232894Y-73969421D01*
X165224527Y-73962489D01*
X165209357Y-73949920D01*
X165209352Y-73949917D01*
X165087002Y-73890997D01*
X164952714Y-73870756D01*
X164818427Y-73890997D01*
X164818424Y-73890997D01*
X164696075Y-73949917D01*
X164696070Y-73949920D01*
X164672542Y-73969414D01*
X164672515Y-73969438D01*
X162262355Y-76379598D01*
X162262331Y-76379625D01*
X162242837Y-76403153D01*
X162242834Y-76403158D01*
X162183914Y-76525507D01*
X162183914Y-76525510D01*
X162163673Y-76659797D01*
X162183914Y-76794083D01*
X162183914Y-76794086D01*
X162242834Y-76916435D01*
X162242837Y-76916440D01*
X162255406Y-76931610D01*
X162262338Y-76939977D01*
X162262347Y-76939986D01*
X162262355Y-76939995D01*
X162689971Y-77367611D01*
X162723456Y-77428934D01*
X162718472Y-77498626D01*
X162689971Y-77542973D01*
X160263120Y-79969824D01*
X160256697Y-79974153D01*
X160254042Y-79978047D01*
X160240974Y-79984753D01*
X160223838Y-79996307D01*
X160215875Y-79999682D01*
X160169152Y-80012203D01*
X160128234Y-80035827D01*
X160121649Y-80039628D01*
X160121646Y-80039630D01*
X160100630Y-80051763D01*
X157414958Y-82737435D01*
X157414952Y-82737443D01*
X157375399Y-82805952D01*
X157375396Y-82805957D01*
X157354917Y-82882387D01*
X157354917Y-83313113D01*
X157335232Y-83380152D01*
X157318599Y-83400794D01*
X157214905Y-83504488D01*
X157142434Y-83630011D01*
X157142433Y-83630015D01*
X157104917Y-83770025D01*
X155255917Y-83770025D01*
X155255917Y-81942939D01*
X155247229Y-81910515D01*
X155235438Y-81866511D01*
X155204523Y-81812964D01*
X155195881Y-81797995D01*
X155195875Y-81797987D01*
X153669927Y-80272039D01*
X153653146Y-80262351D01*
X153636364Y-80252662D01*
X153636363Y-80252661D01*
X153601411Y-80232481D01*
X153601410Y-80232480D01*
X153592377Y-80230059D01*
X153524979Y-80212000D01*
X149695855Y-80212000D01*
X149649080Y-80224533D01*
X149619423Y-80232480D01*
X149619422Y-80232481D01*
X149584471Y-80252661D01*
X149584470Y-80252662D01*
X149574497Y-80258419D01*
X149550906Y-80272039D01*
X149550904Y-80272041D01*
X148587265Y-81235681D01*
X148525942Y-81269166D01*
X148499584Y-81272000D01*
X147972750Y-81272000D01*
X147905711Y-81252315D01*
X147859956Y-81199511D01*
X147850012Y-81130353D01*
X147879037Y-81066797D01*
X147885069Y-81060319D01*
X148733388Y-80212000D01*
X151389261Y-77556126D01*
X151450581Y-77522643D01*
X151520273Y-77527627D01*
X151576206Y-77569499D01*
X151600623Y-77634963D01*
X151594870Y-77682127D01*
X151542014Y-77844801D01*
X151514917Y-78015889D01*
X151514917Y-78189110D01*
X151540354Y-78349719D01*
X151542015Y-78360201D01*
X151595544Y-78524945D01*
X151674185Y-78679288D01*
X151776003Y-78819428D01*
X151898489Y-78941914D01*
X152038629Y-79043732D01*
X152192972Y-79122373D01*
X152357716Y-79175902D01*
X152528806Y-79203000D01*
X152528807Y-79203000D01*
X152702027Y-79203000D01*
X152702028Y-79203000D01*
X152873118Y-79175902D01*
X153037862Y-79122373D01*
X153192205Y-79043732D01*
X153332345Y-78941914D01*
X153454831Y-78819428D01*
X153556649Y-78679288D01*
X153612554Y-78569566D01*
X153660526Y-78518772D01*
X153728347Y-78501976D01*
X153794482Y-78524513D01*
X153837934Y-78579227D01*
X153840969Y-78587543D01*
X153857985Y-78639911D01*
X153958028Y-78836256D01*
X154004349Y-78900013D01*
X154713278Y-78191084D01*
X154736084Y-78276194D01*
X154795327Y-78378806D01*
X154879111Y-78462590D01*
X154981723Y-78521833D01*
X155066831Y-78544637D01*
X154357902Y-79253565D01*
X154357902Y-79253566D01*
X154421660Y-79299888D01*
X154618006Y-79399932D01*
X154827581Y-79468026D01*
X155045236Y-79502500D01*
X155265598Y-79502500D01*
X155483252Y-79468026D01*
X155692827Y-79399932D01*
X155889177Y-79299886D01*
X155952930Y-79253566D01*
X155952931Y-79253566D01*
X155244002Y-78544638D01*
X155329111Y-78521833D01*
X155431723Y-78462590D01*
X155515507Y-78378806D01*
X155574750Y-78276194D01*
X155597554Y-78191085D01*
X156306483Y-78900014D01*
X156306483Y-78900013D01*
X156352804Y-78836258D01*
X156366581Y-78809220D01*
X156414554Y-78758423D01*
X156482375Y-78741626D01*
X156548510Y-78764162D01*
X156591963Y-78818876D01*
X156596180Y-78832490D01*
X156634470Y-78941914D01*
X156642645Y-78965277D01*
X156723324Y-79074593D01*
X156832640Y-79155272D01*
X156871684Y-79168934D01*
X156960872Y-79200143D01*
X156960876Y-79200143D01*
X156960880Y-79200145D01*
X156991326Y-79203000D01*
X158399507Y-79202999D01*
X158429954Y-79200145D01*
X158558194Y-79155272D01*
X158667510Y-79074593D01*
X158748189Y-78965277D01*
X158793062Y-78837037D01*
X158795917Y-78806591D01*
X158795916Y-77398410D01*
X158793062Y-77367963D01*
X158748189Y-77239723D01*
X158667510Y-77130407D01*
X158558194Y-77049728D01*
X158558192Y-77049727D01*
X158429961Y-77004856D01*
X158429949Y-77004854D01*
X158399512Y-77002000D01*
X156991329Y-77002000D01*
X156960884Y-77004854D01*
X156960874Y-77004856D01*
X156832641Y-77049727D01*
X156723324Y-77130407D01*
X156642644Y-77239724D01*
X156595279Y-77375085D01*
X156593547Y-77374479D01*
X156564660Y-77427257D01*
X156503303Y-77460680D01*
X156433616Y-77455625D01*
X156377725Y-77413697D01*
X156366582Y-77395781D01*
X156352807Y-77368745D01*
X156306483Y-77304985D01*
X156306482Y-77304985D01*
X155597554Y-78013913D01*
X155574750Y-77928806D01*
X155515507Y-77826194D01*
X155431723Y-77742410D01*
X155329111Y-77683167D01*
X155244000Y-77660361D01*
X155952930Y-76951432D01*
X155889173Y-76905111D01*
X155692827Y-76805067D01*
X155483252Y-76736973D01*
X155265598Y-76702500D01*
X155045236Y-76702500D01*
X154827581Y-76736973D01*
X154618006Y-76805067D01*
X154421650Y-76905116D01*
X154357902Y-76951431D01*
X154357902Y-76951432D01*
X155066831Y-77660361D01*
X154981723Y-77683167D01*
X154879111Y-77742410D01*
X154795327Y-77826194D01*
X154736084Y-77928806D01*
X154713278Y-78013914D01*
X154004349Y-77304985D01*
X154004348Y-77304985D01*
X153958033Y-77368733D01*
X153857983Y-77565092D01*
X153840968Y-77617457D01*
X153801530Y-77675132D01*
X153737171Y-77702329D01*
X153668325Y-77690414D01*
X153616850Y-77643169D01*
X153612553Y-77635431D01*
X153556650Y-77525713D01*
X153520674Y-77476197D01*
X153454831Y-77385572D01*
X153332345Y-77263086D01*
X153192205Y-77161268D01*
X153037862Y-77082627D01*
X152873118Y-77029098D01*
X152873116Y-77029097D01*
X152873115Y-77029097D01*
X152720060Y-77004856D01*
X152702028Y-77002000D01*
X152528806Y-77002000D01*
X152510774Y-77004856D01*
X152357718Y-77029097D01*
X152195044Y-77081953D01*
X152125202Y-77083948D01*
X152065370Y-77047867D01*
X152034542Y-76985166D01*
X152042507Y-76915752D01*
X152069042Y-76876344D01*
X153317093Y-75628293D01*
X153378414Y-75594810D01*
X153448106Y-75599794D01*
X153504039Y-75641666D01*
X153504541Y-75642341D01*
X153534861Y-75683423D01*
X153535767Y-75684650D01*
X153645035Y-75765293D01*
X153687762Y-75780244D01*
X153773216Y-75810146D01*
X153803647Y-75813000D01*
X153803651Y-75813000D01*
X154437187Y-75813000D01*
X154467616Y-75810146D01*
X154467618Y-75810146D01*
X154531707Y-75787719D01*
X154595799Y-75765293D01*
X154705067Y-75684650D01*
X154766142Y-75601895D01*
X154821787Y-75559647D01*
X154891443Y-75554188D01*
X154952992Y-75587255D01*
X154983616Y-75636526D01*
X154998559Y-75681621D01*
X154998560Y-75681624D01*
X155090601Y-75830845D01*
X155214571Y-75954815D01*
X155363792Y-76046856D01*
X155363797Y-76046858D01*
X155530219Y-76102005D01*
X155530226Y-76102006D01*
X155632936Y-76112499D01*
X156195417Y-76112499D01*
X156257889Y-76112499D01*
X156257903Y-76112498D01*
X156360614Y-76102005D01*
X156527036Y-76046858D01*
X156527041Y-76046856D01*
X156676262Y-75954815D01*
X156800232Y-75830845D01*
X156892273Y-75681624D01*
X156892275Y-75681619D01*
X156937181Y-75546102D01*
X160444909Y-75546102D01*
X160444909Y-75546103D01*
X160992898Y-76094092D01*
X160992916Y-76094108D01*
X161072946Y-76159302D01*
X161072959Y-76159311D01*
X161229626Y-76237992D01*
X161400231Y-76278427D01*
X161575551Y-76278427D01*
X161746155Y-76237992D01*
X161902826Y-76159309D01*
X161902827Y-76159308D01*
X161982877Y-76094100D01*
X161982893Y-76094085D01*
X163008170Y-75068807D01*
X161965188Y-74025825D01*
X160444909Y-75546102D01*
X156937181Y-75546102D01*
X156947422Y-75515197D01*
X156947423Y-75515190D01*
X156950801Y-75482136D01*
X156950801Y-75482135D01*
X156957916Y-75412488D01*
X156957917Y-75412473D01*
X156957917Y-75162500D01*
X156195417Y-75162500D01*
X156195417Y-76112499D01*
X155632936Y-76112499D01*
X155695416Y-76112498D01*
X155695417Y-76112498D01*
X155695417Y-74662500D01*
X156195417Y-74662500D01*
X156957916Y-74662500D01*
X156957916Y-74412528D01*
X156957915Y-74412513D01*
X156947422Y-74309802D01*
X156892275Y-74143380D01*
X156892273Y-74143375D01*
X156800232Y-73994154D01*
X156676262Y-73870184D01*
X156527041Y-73778143D01*
X156527036Y-73778141D01*
X156360614Y-73722994D01*
X156360607Y-73722993D01*
X156257903Y-73712500D01*
X156195417Y-73712500D01*
X156195417Y-74662500D01*
X155695417Y-74662500D01*
X155695417Y-73712500D01*
X155695416Y-73712499D01*
X155632945Y-73712500D01*
X155632928Y-73712501D01*
X155530219Y-73722994D01*
X155363797Y-73778141D01*
X155363792Y-73778143D01*
X155214571Y-73870184D01*
X155090601Y-73994154D01*
X154998560Y-74143375D01*
X154998557Y-74143383D01*
X154983615Y-74188474D01*
X154943842Y-74245918D01*
X154879326Y-74272740D01*
X154810550Y-74260424D01*
X154766140Y-74223101D01*
X154705068Y-74140351D01*
X154595799Y-74059707D01*
X154595797Y-74059706D01*
X154467617Y-74014853D01*
X154437187Y-74012000D01*
X154437183Y-74012000D01*
X153803651Y-74012000D01*
X153803647Y-74012000D01*
X153773217Y-74014853D01*
X153773215Y-74014853D01*
X153645036Y-74059706D01*
X153645034Y-74059707D01*
X153535767Y-74140350D01*
X153455124Y-74249617D01*
X153455123Y-74249619D01*
X153410270Y-74377798D01*
X153410270Y-74377800D01*
X153407417Y-74408230D01*
X153407417Y-74636667D01*
X153387732Y-74703706D01*
X153371098Y-74724348D01*
X147509765Y-80585681D01*
X147448442Y-80619166D01*
X147422084Y-80622000D01*
X142626616Y-80622000D01*
X142588402Y-80632239D01*
X142550187Y-80642479D01*
X142550186Y-80642480D01*
X142498227Y-80672479D01*
X142481670Y-80682038D01*
X142481664Y-80682042D01*
X142044958Y-81118748D01*
X142044952Y-81118756D01*
X142005399Y-81187265D01*
X142005396Y-81187270D01*
X141993272Y-81232517D01*
X141984917Y-81263699D01*
X141461408Y-81263699D01*
X141518401Y-81164985D01*
X141555917Y-81024975D01*
X141555917Y-80880025D01*
X141518401Y-80740015D01*
X141467585Y-80652000D01*
X141445928Y-80614488D01*
X141445923Y-80614482D01*
X141343434Y-80511993D01*
X141343428Y-80511988D01*
X141217905Y-80439517D01*
X141217906Y-80439517D01*
X141206423Y-80436440D01*
X141077892Y-80402000D01*
X140932942Y-80402000D01*
X140804410Y-80436440D01*
X140792928Y-80439517D01*
X140667405Y-80511988D01*
X140667399Y-80511993D01*
X140563712Y-80615681D01*
X140502389Y-80649166D01*
X140476031Y-80652000D01*
X138591250Y-80652000D01*
X138524211Y-80632315D01*
X138503569Y-80615681D01*
X137491153Y-79603265D01*
X137457668Y-79541942D01*
X137460903Y-79477265D01*
X137468099Y-79455121D01*
X137468099Y-79328255D01*
X137428896Y-79207598D01*
X137425555Y-79203000D01*
X137390878Y-79155272D01*
X137373083Y-79130779D01*
X137124885Y-78882581D01*
X143356414Y-78882581D01*
X144364018Y-79890185D01*
X144364039Y-79890204D01*
X144444070Y-79955400D01*
X144444076Y-79955404D01*
X144600753Y-80034090D01*
X144771356Y-80074524D01*
X144946675Y-80074524D01*
X145117277Y-80034090D01*
X145273954Y-79955404D01*
X145353991Y-79890205D01*
X145354006Y-79890192D01*
X145689865Y-79554332D01*
X145689865Y-79554331D01*
X144187264Y-78051731D01*
X143356414Y-78882581D01*
X137124885Y-78882581D01*
X136794804Y-78552500D01*
X136197141Y-77954837D01*
X136176999Y-77940203D01*
X136134334Y-77884873D01*
X136128355Y-77815259D01*
X136160961Y-77753464D01*
X136162127Y-77752281D01*
X137103662Y-76810747D01*
X138870722Y-76810747D01*
X138870722Y-76810748D01*
X139299622Y-77239649D01*
X139299640Y-77239665D01*
X139354037Y-77285000D01*
X139504562Y-77364002D01*
X139669610Y-77404682D01*
X139839600Y-77404682D01*
X140004650Y-77364001D01*
X140155171Y-77285001D01*
X140209572Y-77239664D01*
X140214222Y-77235011D01*
X139917977Y-76938766D01*
X141810918Y-76938766D01*
X141810918Y-77114086D01*
X141851351Y-77284688D01*
X141930037Y-77441365D01*
X141995236Y-77521402D01*
X141995249Y-77521417D01*
X143002859Y-78529027D01*
X143833709Y-77698178D01*
X144540817Y-77698178D01*
X146043417Y-79200779D01*
X146043418Y-79200779D01*
X146379271Y-78864926D01*
X146379290Y-78864905D01*
X146444486Y-78784874D01*
X146444490Y-78784868D01*
X146523176Y-78628191D01*
X146563610Y-78457589D01*
X146563610Y-78282269D01*
X146523176Y-78111667D01*
X146444490Y-77954990D01*
X146379291Y-77874953D01*
X146379278Y-77874938D01*
X145371667Y-76867328D01*
X144540817Y-77698178D01*
X143833709Y-77698178D01*
X143833710Y-77698177D01*
X142331109Y-76195576D01*
X142331108Y-76195576D01*
X141995256Y-76531429D01*
X141995237Y-76531450D01*
X141930041Y-76611481D01*
X141930037Y-76611487D01*
X141851351Y-76768164D01*
X141810918Y-76938766D01*
X139917977Y-76938766D01*
X139330342Y-76351130D01*
X139330341Y-76351130D01*
X138870722Y-76810747D01*
X137103662Y-76810747D01*
X137900367Y-76014042D01*
X137961687Y-75980559D01*
X138031379Y-75985543D01*
X138083303Y-76022340D01*
X138088248Y-76028274D01*
X138088260Y-76028287D01*
X138517167Y-76457194D01*
X138976788Y-75997575D01*
X139683895Y-75997575D01*
X139683895Y-75997576D01*
X140567777Y-76881458D01*
X140572429Y-76876806D01*
X140592975Y-76852154D01*
X140617765Y-76822406D01*
X140696767Y-76671882D01*
X140737447Y-76506834D01*
X140737447Y-76336845D01*
X140696766Y-76171794D01*
X140617766Y-76021274D01*
X140572435Y-75966879D01*
X140572421Y-75966864D01*
X140483899Y-75878342D01*
X140447580Y-75842023D01*
X142684662Y-75842023D01*
X144187263Y-77344624D01*
X145018113Y-76513774D01*
X144010509Y-75506170D01*
X144010488Y-75506151D01*
X143930457Y-75440955D01*
X143930451Y-75440951D01*
X143773774Y-75362265D01*
X143603172Y-75321832D01*
X143427853Y-75321832D01*
X143257250Y-75362265D01*
X143100573Y-75440951D01*
X143020536Y-75506150D01*
X143020520Y-75506164D01*
X142684662Y-75842023D01*
X140447580Y-75842023D01*
X140143513Y-75537957D01*
X140143512Y-75537957D01*
X139683895Y-75997575D01*
X138976788Y-75997575D01*
X139115830Y-75858533D01*
X139153564Y-75820799D01*
X139789959Y-75184403D01*
X139700237Y-75094681D01*
X139666752Y-75033358D01*
X139671736Y-74963666D01*
X139713608Y-74907733D01*
X139779072Y-74883316D01*
X139787918Y-74883000D01*
X146163699Y-74883000D01*
X146230738Y-74902685D01*
X146251380Y-74919319D01*
X147796168Y-76464107D01*
X147796181Y-76464119D01*
X147819703Y-76483608D01*
X147819705Y-76483609D01*
X147819709Y-76483612D01*
X147942064Y-76542536D01*
X148076351Y-76562776D01*
X148210639Y-76542536D01*
X148332994Y-76483612D01*
X148337756Y-76479667D01*
X148356521Y-76464119D01*
X148356531Y-76464111D01*
X149387869Y-75432773D01*
X149407370Y-75409236D01*
X149466294Y-75286881D01*
X149486534Y-75152593D01*
X149466294Y-75018306D01*
X149407370Y-74895951D01*
X149407367Y-74895947D01*
X149407366Y-74895945D01*
X149387877Y-74872423D01*
X149387865Y-74872410D01*
X147013031Y-72497576D01*
X147013018Y-72497564D01*
X146989496Y-72478075D01*
X146989492Y-72478073D01*
X146989491Y-72478072D01*
X146924256Y-72446656D01*
X146867135Y-72419147D01*
X146732849Y-72398908D01*
X146598561Y-72419147D01*
X146476200Y-72478075D01*
X146452678Y-72497564D01*
X146452665Y-72497576D01*
X145421334Y-73528907D01*
X145421322Y-73528920D01*
X145401833Y-73552442D01*
X145342905Y-73674803D01*
X145322666Y-73809090D01*
X145322666Y-73809092D01*
X145342324Y-73939520D01*
X145332851Y-74008744D01*
X145287456Y-74061858D01*
X145220551Y-74081997D01*
X145219709Y-74082000D01*
X138812790Y-74082000D01*
X138710927Y-74109293D01*
X138619604Y-74162020D01*
X138619601Y-74162022D01*
X134728990Y-78052633D01*
X134728986Y-78052639D01*
X134676260Y-78143961D01*
X134676261Y-78143962D01*
X134648968Y-78245822D01*
X134648968Y-81540532D01*
X134629283Y-81607571D01*
X134612649Y-81628213D01*
X130011075Y-86229786D01*
X129949752Y-86263271D01*
X129880060Y-86258287D01*
X129824127Y-86216415D01*
X129799710Y-86150951D01*
X129799395Y-86141544D01*
X129801504Y-85697114D01*
X129810074Y-85652406D01*
X130093057Y-84931376D01*
X130094800Y-84927166D01*
X130499935Y-83998588D01*
X130501836Y-83994445D01*
X130797511Y-83380468D01*
X130805917Y-83365700D01*
X134716493Y-77476197D01*
X134725780Y-77463941D01*
X134942460Y-77212154D01*
X134945512Y-77208740D01*
X135634558Y-76466124D01*
X135637721Y-76462840D01*
X136354084Y-75746477D01*
X136357368Y-75743314D01*
X137100010Y-75054243D01*
X137103341Y-75051264D01*
X137871315Y-74390369D01*
X137874781Y-74387499D01*
X138666870Y-73755828D01*
X138670442Y-73753088D01*
X139485562Y-73151502D01*
X139489306Y-73148845D01*
X140326364Y-72578148D01*
X140330155Y-72575667D01*
X141024980Y-72139079D01*
X149785417Y-72139079D01*
X149785417Y-72292500D01*
X150535417Y-72292500D01*
X150535417Y-72792500D01*
X149785417Y-72792500D01*
X149785417Y-72945920D01*
X149825765Y-73148766D01*
X149825767Y-73148774D01*
X149904917Y-73339858D01*
X149904922Y-73339868D01*
X150019827Y-73511835D01*
X150019830Y-73511839D01*
X150166077Y-73658086D01*
X150166081Y-73658089D01*
X150338048Y-73772994D01*
X150338058Y-73772999D01*
X150529140Y-73852148D01*
X150529142Y-73852149D01*
X150585417Y-73863342D01*
X150585417Y-73009488D01*
X150595357Y-73026705D01*
X150651212Y-73082560D01*
X150719621Y-73122056D01*
X150795921Y-73142500D01*
X150874913Y-73142500D01*
X150951213Y-73122056D01*
X151019622Y-73082560D01*
X151075477Y-73026705D01*
X151085417Y-73009488D01*
X151085417Y-73863342D01*
X151141691Y-73852149D01*
X151141693Y-73852148D01*
X151332775Y-73772999D01*
X151332785Y-73772994D01*
X151504752Y-73658089D01*
X151504756Y-73658086D01*
X151651003Y-73511839D01*
X151651006Y-73511835D01*
X151765911Y-73339868D01*
X151765916Y-73339858D01*
X151845066Y-73148774D01*
X151845068Y-73148766D01*
X151885416Y-72945920D01*
X151885417Y-72945917D01*
X151885417Y-72792500D01*
X151135417Y-72792500D01*
X151135417Y-72292500D01*
X151885417Y-72292500D01*
X151885417Y-72139083D01*
X151885416Y-72139079D01*
X158425417Y-72139079D01*
X158425417Y-72292500D01*
X159175417Y-72292500D01*
X159175417Y-72792500D01*
X158425417Y-72792500D01*
X158425417Y-72945920D01*
X158465765Y-73148766D01*
X158465767Y-73148774D01*
X158544917Y-73339858D01*
X158544922Y-73339868D01*
X158659827Y-73511835D01*
X158659830Y-73511839D01*
X158806077Y-73658086D01*
X158806081Y-73658089D01*
X158978048Y-73772994D01*
X158978058Y-73772999D01*
X159169142Y-73852149D01*
X159169141Y-73852149D01*
X159271835Y-73872575D01*
X159333746Y-73904960D01*
X159368321Y-73965675D01*
X159368303Y-74022789D01*
X159359032Y-74061907D01*
X159359032Y-74237228D01*
X159399466Y-74407832D01*
X159478149Y-74564503D01*
X159478150Y-74564504D01*
X159543358Y-74644554D01*
X159543373Y-74644570D01*
X160091353Y-75192550D01*
X161611634Y-73672270D01*
X162318742Y-73672270D01*
X162318742Y-73672271D01*
X163361723Y-74715252D01*
X164387010Y-73689965D01*
X164387025Y-73689948D01*
X164452219Y-73609918D01*
X164452228Y-73609905D01*
X164530909Y-73453238D01*
X164571344Y-73282634D01*
X164571344Y-73107313D01*
X164530909Y-72936709D01*
X164452226Y-72780038D01*
X164452225Y-72780037D01*
X164387017Y-72699987D01*
X164387002Y-72699971D01*
X163839021Y-72151991D01*
X163839020Y-72151991D01*
X162318742Y-73672270D01*
X161611634Y-73672270D01*
X160655417Y-72716053D01*
X160639519Y-72722639D01*
X160635732Y-72735539D01*
X160582928Y-72781294D01*
X160531417Y-72792500D01*
X159775417Y-72792500D01*
X159775417Y-72292500D01*
X160525417Y-72292500D01*
X160525417Y-72275734D01*
X160922205Y-72275734D01*
X161965188Y-73318717D01*
X161965189Y-73318717D01*
X163485466Y-71798439D01*
X163485466Y-71798437D01*
X162937477Y-71250449D01*
X162937459Y-71250433D01*
X162857429Y-71185239D01*
X162857416Y-71185230D01*
X162700749Y-71106549D01*
X162530145Y-71066115D01*
X162354825Y-71066115D01*
X162184220Y-71106549D01*
X162027549Y-71185232D01*
X162027548Y-71185233D01*
X161947498Y-71250441D01*
X161947482Y-71250456D01*
X160922205Y-72275734D01*
X160525417Y-72275734D01*
X160525417Y-72139083D01*
X160525416Y-72139079D01*
X160485068Y-71936233D01*
X160485066Y-71936225D01*
X160405916Y-71745141D01*
X160405911Y-71745131D01*
X160291006Y-71573164D01*
X160291003Y-71573160D01*
X160144756Y-71426913D01*
X160144752Y-71426910D01*
X159972785Y-71312005D01*
X159972775Y-71312000D01*
X159781689Y-71232849D01*
X159781684Y-71232847D01*
X159725417Y-71221655D01*
X159725417Y-72075511D01*
X159715477Y-72058295D01*
X159659622Y-72002440D01*
X159591213Y-71962944D01*
X159514913Y-71942500D01*
X159435921Y-71942500D01*
X159359621Y-71962944D01*
X159291212Y-72002440D01*
X159235357Y-72058295D01*
X159225417Y-72075511D01*
X159225417Y-71221656D01*
X159225416Y-71221655D01*
X159169149Y-71232847D01*
X159169144Y-71232849D01*
X158978058Y-71312000D01*
X158978048Y-71312005D01*
X158806081Y-71426910D01*
X158806077Y-71426913D01*
X158659830Y-71573160D01*
X158659827Y-71573164D01*
X158544922Y-71745131D01*
X158544917Y-71745141D01*
X158465767Y-71936225D01*
X158465765Y-71936233D01*
X158425417Y-72139079D01*
X151885416Y-72139079D01*
X151845068Y-71936233D01*
X151845066Y-71936225D01*
X151765916Y-71745141D01*
X151765911Y-71745131D01*
X151651006Y-71573164D01*
X151651003Y-71573160D01*
X151504756Y-71426913D01*
X151504752Y-71426910D01*
X151332785Y-71312005D01*
X151332775Y-71312000D01*
X151141689Y-71232849D01*
X151141684Y-71232847D01*
X151085417Y-71221655D01*
X151085417Y-72075511D01*
X151075477Y-72058295D01*
X151019622Y-72002440D01*
X150951213Y-71962944D01*
X150874913Y-71942500D01*
X150795921Y-71942500D01*
X150719621Y-71962944D01*
X150651212Y-72002440D01*
X150595357Y-72058295D01*
X150585417Y-72075511D01*
X150585417Y-71221656D01*
X150585416Y-71221655D01*
X150529149Y-71232847D01*
X150529144Y-71232849D01*
X150338058Y-71312000D01*
X150338048Y-71312005D01*
X150166081Y-71426910D01*
X150166077Y-71426913D01*
X150019830Y-71573160D01*
X150019827Y-71573164D01*
X149904922Y-71745131D01*
X149904917Y-71745141D01*
X149825767Y-71936225D01*
X149825765Y-71936233D01*
X149785417Y-72139079D01*
X141024980Y-72139079D01*
X141187955Y-72036675D01*
X141191860Y-72034322D01*
X142069218Y-71527779D01*
X142073207Y-71525575D01*
X142968864Y-71052206D01*
X142972937Y-71050150D01*
X143885689Y-70610592D01*
X143889832Y-70608691D01*
X144818410Y-70203556D01*
X144822620Y-70201813D01*
X145765640Y-69831705D01*
X145769879Y-69830131D01*
X146726159Y-69495514D01*
X146730491Y-69494090D01*
X147698536Y-69195488D01*
X147702924Y-69194223D01*
X148681481Y-68932019D01*
X148685923Y-68930918D01*
X149673588Y-68705490D01*
X149678059Y-68704558D01*
X150535417Y-68542336D01*
X150535417Y-68992500D01*
X149785417Y-68992500D01*
X149785417Y-69145920D01*
X149825765Y-69348766D01*
X149825767Y-69348774D01*
X149904917Y-69539858D01*
X149904922Y-69539868D01*
X150019827Y-69711835D01*
X150019830Y-69711839D01*
X150166077Y-69858086D01*
X150166081Y-69858089D01*
X150338048Y-69972994D01*
X150338058Y-69972999D01*
X150529140Y-70052148D01*
X150529142Y-70052149D01*
X150585417Y-70063342D01*
X150585417Y-69209488D01*
X150595357Y-69226705D01*
X150651212Y-69282560D01*
X150719621Y-69322056D01*
X150795921Y-69342500D01*
X150874913Y-69342500D01*
X150951213Y-69322056D01*
X151019622Y-69282560D01*
X151075477Y-69226705D01*
X151085417Y-69209488D01*
X151085417Y-70063342D01*
X151141691Y-70052149D01*
X151141693Y-70052148D01*
X151332775Y-69972999D01*
X151332785Y-69972994D01*
X151504752Y-69858089D01*
X151504756Y-69858086D01*
X151651003Y-69711839D01*
X151651006Y-69711835D01*
X151765911Y-69539868D01*
X151765916Y-69539858D01*
X151845066Y-69348774D01*
X151845068Y-69348766D01*
X151885416Y-69145920D01*
X151885417Y-69145917D01*
X151885417Y-68992500D01*
X151135417Y-68992500D01*
X151135417Y-68492500D01*
X151885417Y-68492500D01*
X151885417Y-68452011D01*
X151905102Y-68384972D01*
X151957906Y-68339217D01*
X151995526Y-68328793D01*
X152690943Y-68250438D01*
X152695483Y-68250012D01*
X153705702Y-68174307D01*
X153710295Y-68174049D01*
X153759366Y-68172213D01*
X153764704Y-68172131D01*
X157025620Y-68194364D01*
G37*
%TD.AperFunction*%
%TD*%
M02*
