%TF.GenerationSoftware,KiCad,Pcbnew,10.0.1*%
%TF.CreationDate,2026-06-21T12:29:43+02:00*%
%TF.ProjectId,beelight-piggy-base,6265656c-6967-4687-942d-70696767792d,rev?*%
%TF.SameCoordinates,Original*%
%TF.FileFunction,Profile,NP*%
%FSLAX46Y46*%
G04 Gerber Fmt 4.6, Leading zero omitted, Abs format (unit mm)*
G04 Created by KiCad (PCBNEW 10.0.1) date 2026-06-21 12:29:43*
%MOMM*%
%LPD*%
G01*
G04 APERTURE LIST*
%TA.AperFunction,Profile*%
%ADD10C,0.050000*%
%TD*%
G04 APERTURE END LIST*
D10*
X135355417Y-104332500D02*
G75*
G02*
X131392759Y-104332500I-1981329J0D01*
G01*
X131392759Y-104332500D02*
G75*
G02*
X135355417Y-104332500I1981329J0D01*
G01*
X138680000Y-91689562D02*
X138680000Y-91689562D01*
G75*
G02*
X140070000Y-90299562I1390000J-38D01*
G01*
X140457963Y-90299562D01*
G75*
G02*
X141847963Y-91689562I37J-1390038D01*
G01*
X141847963Y-97078037D01*
G75*
G02*
X140457963Y-98468037I-1389963J37D01*
G01*
X140070000Y-98468037D01*
G75*
G02*
X138680000Y-97078037I0J1390037D01*
G01*
X138680000Y-91689562D01*
X143575417Y-115992500D02*
G75*
G02*
X139575417Y-115992500I-2000000J0D01*
G01*
X139575417Y-115992500D02*
G75*
G02*
X143575417Y-115992500I2000000J0D01*
G01*
X182745417Y-95342500D02*
G75*
G02*
X127722071Y-95342500I-27511673J0D01*
G01*
X127722071Y-95342500D02*
G75*
G02*
X182745417Y-95342500I27511673J0D01*
G01*
X171335417Y-115992500D02*
G75*
G02*
X167335417Y-115992500I-2000000J0D01*
G01*
X167335417Y-115992500D02*
G75*
G02*
X171335417Y-115992500I2000000J0D01*
G01*
X172040223Y-95452382D02*
G75*
G02*
X168079777Y-95452382I-1980223J0D01*
G01*
X168079777Y-95452382D02*
G75*
G02*
X172040223Y-95452382I1980223J0D01*
G01*
%TO.C,U4*%
X151890000Y-82590000D02*
X153290000Y-82590000D01*
X153290000Y-100315180D01*
X151890000Y-100315180D01*
X151890000Y-82590000D01*
X151912282Y-102975181D02*
X153212282Y-102975181D01*
X153212282Y-108085181D01*
X151912282Y-108085181D01*
X151912282Y-102975181D01*
X157360000Y-100320000D02*
X158660000Y-100320000D01*
X158660000Y-108035180D01*
X157360000Y-108035180D01*
X157360000Y-100320000D01*
%TD*%
M02*
