%TF.GenerationSoftware,KiCad,Pcbnew,10.0.1*%
%TF.CreationDate,2026-06-21T12:29:43+02:00*%
%TF.ProjectId,beelight-piggy-base,6265656c-6967-4687-942d-70696767792d,rev?*%
%TF.SameCoordinates,Original*%
%TF.FileFunction,Legend,Top*%
%TF.FilePolarity,Positive*%
%FSLAX46Y46*%
G04 Gerber Fmt 4.6, Leading zero omitted, Abs format (unit mm)*
G04 Created by KiCad (PCBNEW 10.0.1) date 2026-06-21 12:29:43*
%MOMM*%
%LPD*%
G01*
G04 APERTURE LIST*
G04 Aperture macros list*
%AMRoundRect*
0 Rectangle with rounded corners*
0 $1 Rounding radius*
0 $2 $3 $4 $5 $6 $7 $8 $9 X,Y pos of 4 corners*
0 Add a 4 corners polygon primitive as box body*
4,1,4,$2,$3,$4,$5,$6,$7,$8,$9,$2,$3,0*
0 Add four circle primitives for the rounded corners*
1,1,$1+$1,$2,$3*
1,1,$1+$1,$4,$5*
1,1,$1+$1,$6,$7*
1,1,$1+$1,$8,$9*
0 Add four rect primitives between the rounded corners*
20,1,$1+$1,$2,$3,$4,$5,0*
20,1,$1+$1,$4,$5,$6,$7,0*
20,1,$1+$1,$6,$7,$8,$9,0*
20,1,$1+$1,$8,$9,$2,$3,0*%
%AMRotRect*
0 Rectangle, with rotation*
0 The origin of the aperture is its center*
0 $1 length*
0 $2 width*
0 $3 Rotation angle, in degrees counterclockwise*
0 Add horizontal line*
21,1,$1,$2,0,0,$3*%
G04 Aperture macros list end*
%ADD10C,0.150000*%
%ADD11C,0.100000*%
%ADD12C,0.120000*%
%ADD13C,0.125000*%
%ADD14C,0.152500*%
%ADD15C,0.152000*%
%ADD16C,0.152400*%
%ADD17C,0.127000*%
%ADD18RoundRect,0.140000X-0.170000X0.140000X-0.170000X-0.140000X0.170000X-0.140000X0.170000X0.140000X0*%
%ADD19RoundRect,0.135000X-0.185000X0.135000X-0.185000X-0.135000X0.185000X-0.135000X0.185000X0.135000X0*%
%ADD20RoundRect,0.135000X0.185000X-0.135000X0.185000X0.135000X-0.185000X0.135000X-0.185000X-0.135000X0*%
%ADD21RoundRect,0.250200X0.649800X0.649800X-0.649800X0.649800X-0.649800X-0.649800X0.649800X-0.649800X0*%
%ADD22C,1.800000*%
%ADD23RoundRect,0.150000X0.388909X-0.601041X0.601041X-0.388909X-0.388909X0.601041X-0.601041X0.388909X0*%
%ADD24RoundRect,0.250000X0.601041X-0.954594X0.954594X-0.601041X-0.601041X0.954594X-0.954594X0.601041X0*%
%ADD25RoundRect,0.150000X-0.601041X-0.388909X-0.388909X-0.601041X0.601041X0.388909X0.388909X0.601041X0*%
%ADD26RoundRect,0.250000X-0.954594X-0.601041X-0.601041X-0.954594X0.954594X0.601041X0.601041X0.954594X0*%
%ADD27R,0.450000X0.650000*%
%ADD28RoundRect,0.135000X0.035355X-0.226274X0.226274X-0.035355X-0.035355X0.226274X-0.226274X0.035355X0*%
%ADD29RoundRect,0.135000X-0.135000X-0.185000X0.135000X-0.185000X0.135000X0.185000X-0.135000X0.185000X0*%
%ADD30RoundRect,0.250000X-0.475000X0.250000X-0.475000X-0.250000X0.475000X-0.250000X0.475000X0.250000X0*%
%ADD31RoundRect,0.150000X0.150000X-0.587500X0.150000X0.587500X-0.150000X0.587500X-0.150000X-0.587500X0*%
%ADD32R,0.650000X0.450000*%
%ADD33RoundRect,0.225000X-0.335876X-0.017678X-0.017678X-0.335876X0.335876X0.017678X0.017678X0.335876X0*%
%ADD34RoundRect,0.140000X0.140000X0.170000X-0.140000X0.170000X-0.140000X-0.170000X0.140000X-0.170000X0*%
%ADD35RoundRect,0.125000X0.176777X0.000000X0.000000X0.176777X-0.176777X0.000000X0.000000X-0.176777X0*%
%ADD36RotRect,0.650000X0.450000X135.000000*%
%ADD37C,0.250000*%
%ADD38R,1.500000X1.000000*%
%ADD39RoundRect,0.150000X0.512500X0.150000X-0.512500X0.150000X-0.512500X-0.150000X0.512500X-0.150000X0*%
%ADD40RoundRect,0.135000X0.135000X0.185000X-0.135000X0.185000X-0.135000X-0.185000X0.135000X-0.185000X0*%
%ADD41C,1.700000*%
%ADD42R,4.000000X2.000000*%
%ADD43R,1.700000X1.700000*%
%ADD44RoundRect,0.125000X0.125000X0.125000X-0.125000X0.125000X-0.125000X-0.125000X0.125000X-0.125000X0*%
%ADD45RotRect,0.650000X0.450000X45.000000*%
%ADD46RoundRect,0.102000X0.175000X-0.450000X0.175000X0.450000X-0.175000X0.450000X-0.175000X-0.450000X0*%
%ADD47RoundRect,0.102000X0.175000X-0.500000X0.175000X0.500000X-0.175000X0.500000X-0.175000X-0.500000X0*%
%ADD48RotRect,0.650000X0.450000X225.000000*%
%ADD49RoundRect,0.250000X0.375000X0.625000X-0.375000X0.625000X-0.375000X-0.625000X0.375000X-0.625000X0*%
%ADD50RoundRect,0.175000X0.175000X0.425000X-0.175000X0.425000X-0.175000X-0.425000X0.175000X-0.425000X0*%
%ADD51RoundRect,0.190000X-0.190000X-0.410000X0.190000X-0.410000X0.190000X0.410000X-0.190000X0.410000X0*%
%ADD52RoundRect,0.200000X-0.200000X-0.400000X0.200000X-0.400000X0.200000X0.400000X-0.200000X0.400000X0*%
%ADD53RoundRect,0.175000X-0.175000X-0.425000X0.175000X-0.425000X0.175000X0.425000X-0.175000X0.425000X0*%
%ADD54RoundRect,0.190000X0.190000X0.410000X-0.190000X0.410000X-0.190000X-0.410000X0.190000X-0.410000X0*%
%ADD55RoundRect,0.200000X0.200000X0.400000X-0.200000X0.400000X-0.200000X-0.400000X0.200000X-0.400000X0*%
%ADD56O,1.100000X1.700000*%
%ADD57RoundRect,0.135000X-0.035355X0.226274X-0.226274X0.035355X0.035355X-0.226274X0.226274X-0.035355X0*%
%ADD58RoundRect,0.225000X0.225000X0.250000X-0.225000X0.250000X-0.225000X-0.250000X0.225000X-0.250000X0*%
%ADD59RoundRect,0.102000X-0.205000X0.140000X-0.205000X-0.140000X0.205000X-0.140000X0.205000X0.140000X0*%
%ADD60RoundRect,0.102000X-0.140000X0.205000X-0.140000X-0.205000X0.140000X-0.205000X0.140000X0.205000X0*%
%ADD61RotRect,0.650000X0.450000X315.000000*%
%ADD62RoundRect,0.250000X-1.007627X-0.548008X-0.548008X-1.007627X1.007627X0.548008X0.548008X1.007627X0*%
%ADD63RoundRect,0.250000X-0.548008X1.007627X-1.007627X0.548008X0.548008X-1.007627X1.007627X-0.548008X0*%
%ADD64RoundRect,0.062500X-0.062500X0.425000X-0.062500X-0.425000X0.062500X-0.425000X0.062500X0.425000X0*%
%ADD65RoundRect,0.062500X-0.425000X0.062500X-0.425000X-0.062500X0.425000X-0.062500X0.425000X0.062500X0*%
%ADD66RoundRect,0.150000X0.587500X0.150000X-0.587500X0.150000X-0.587500X-0.150000X0.587500X-0.150000X0*%
%ADD67RoundRect,0.140000X-0.140000X-0.170000X0.140000X-0.170000X0.140000X0.170000X-0.140000X0.170000X0*%
G04 APERTURE END LIST*
D10*
X131764997Y-95915357D02*
X131812617Y-95962976D01*
X131812617Y-95962976D02*
X131860236Y-96105833D01*
X131860236Y-96105833D02*
X131860236Y-96201071D01*
X131860236Y-96201071D02*
X131812617Y-96343928D01*
X131812617Y-96343928D02*
X131717378Y-96439166D01*
X131717378Y-96439166D02*
X131622140Y-96486785D01*
X131622140Y-96486785D02*
X131431664Y-96534404D01*
X131431664Y-96534404D02*
X131288807Y-96534404D01*
X131288807Y-96534404D02*
X131098331Y-96486785D01*
X131098331Y-96486785D02*
X131003093Y-96439166D01*
X131003093Y-96439166D02*
X130907855Y-96343928D01*
X130907855Y-96343928D02*
X130860236Y-96201071D01*
X130860236Y-96201071D02*
X130860236Y-96105833D01*
X130860236Y-96105833D02*
X130907855Y-95962976D01*
X130907855Y-95962976D02*
X130955474Y-95915357D01*
X130955474Y-95534404D02*
X130907855Y-95486785D01*
X130907855Y-95486785D02*
X130860236Y-95391547D01*
X130860236Y-95391547D02*
X130860236Y-95153452D01*
X130860236Y-95153452D02*
X130907855Y-95058214D01*
X130907855Y-95058214D02*
X130955474Y-95010595D01*
X130955474Y-95010595D02*
X131050712Y-94962976D01*
X131050712Y-94962976D02*
X131145950Y-94962976D01*
X131145950Y-94962976D02*
X131288807Y-95010595D01*
X131288807Y-95010595D02*
X131860236Y-95582023D01*
X131860236Y-95582023D02*
X131860236Y-94962976D01*
X130860236Y-94629642D02*
X130860236Y-93962976D01*
X130860236Y-93962976D02*
X131860236Y-94391547D01*
X143222559Y-83907319D02*
X142889226Y-83431128D01*
X142651131Y-83907319D02*
X142651131Y-82907319D01*
X142651131Y-82907319D02*
X143032083Y-82907319D01*
X143032083Y-82907319D02*
X143127321Y-82954938D01*
X143127321Y-82954938D02*
X143174940Y-83002557D01*
X143174940Y-83002557D02*
X143222559Y-83097795D01*
X143222559Y-83097795D02*
X143222559Y-83240652D01*
X143222559Y-83240652D02*
X143174940Y-83335890D01*
X143174940Y-83335890D02*
X143127321Y-83383509D01*
X143127321Y-83383509D02*
X143032083Y-83431128D01*
X143032083Y-83431128D02*
X142651131Y-83431128D01*
X144174940Y-83907319D02*
X143603512Y-83907319D01*
X143889226Y-83907319D02*
X143889226Y-82907319D01*
X143889226Y-82907319D02*
X143793988Y-83050176D01*
X143793988Y-83050176D02*
X143698750Y-83145414D01*
X143698750Y-83145414D02*
X143603512Y-83193033D01*
X144746369Y-83335890D02*
X144651131Y-83288271D01*
X144651131Y-83288271D02*
X144603512Y-83240652D01*
X144603512Y-83240652D02*
X144555893Y-83145414D01*
X144555893Y-83145414D02*
X144555893Y-83097795D01*
X144555893Y-83097795D02*
X144603512Y-83002557D01*
X144603512Y-83002557D02*
X144651131Y-82954938D01*
X144651131Y-82954938D02*
X144746369Y-82907319D01*
X144746369Y-82907319D02*
X144936845Y-82907319D01*
X144936845Y-82907319D02*
X145032083Y-82954938D01*
X145032083Y-82954938D02*
X145079702Y-83002557D01*
X145079702Y-83002557D02*
X145127321Y-83097795D01*
X145127321Y-83097795D02*
X145127321Y-83145414D01*
X145127321Y-83145414D02*
X145079702Y-83240652D01*
X145079702Y-83240652D02*
X145032083Y-83288271D01*
X145032083Y-83288271D02*
X144936845Y-83335890D01*
X144936845Y-83335890D02*
X144746369Y-83335890D01*
X144746369Y-83335890D02*
X144651131Y-83383509D01*
X144651131Y-83383509D02*
X144603512Y-83431128D01*
X144603512Y-83431128D02*
X144555893Y-83526366D01*
X144555893Y-83526366D02*
X144555893Y-83716842D01*
X144555893Y-83716842D02*
X144603512Y-83812080D01*
X144603512Y-83812080D02*
X144651131Y-83859700D01*
X144651131Y-83859700D02*
X144746369Y-83907319D01*
X144746369Y-83907319D02*
X144936845Y-83907319D01*
X144936845Y-83907319D02*
X145032083Y-83859700D01*
X145032083Y-83859700D02*
X145079702Y-83812080D01*
X145079702Y-83812080D02*
X145127321Y-83716842D01*
X145127321Y-83716842D02*
X145127321Y-83526366D01*
X145127321Y-83526366D02*
X145079702Y-83431128D01*
X145079702Y-83431128D02*
X145032083Y-83383509D01*
X145032083Y-83383509D02*
X144936845Y-83335890D01*
X161830236Y-95035357D02*
X161354045Y-95368690D01*
X161830236Y-95606785D02*
X160830236Y-95606785D01*
X160830236Y-95606785D02*
X160830236Y-95225833D01*
X160830236Y-95225833D02*
X160877855Y-95130595D01*
X160877855Y-95130595D02*
X160925474Y-95082976D01*
X160925474Y-95082976D02*
X161020712Y-95035357D01*
X161020712Y-95035357D02*
X161163569Y-95035357D01*
X161163569Y-95035357D02*
X161258807Y-95082976D01*
X161258807Y-95082976D02*
X161306426Y-95130595D01*
X161306426Y-95130595D02*
X161354045Y-95225833D01*
X161354045Y-95225833D02*
X161354045Y-95606785D01*
X160925474Y-94654404D02*
X160877855Y-94606785D01*
X160877855Y-94606785D02*
X160830236Y-94511547D01*
X160830236Y-94511547D02*
X160830236Y-94273452D01*
X160830236Y-94273452D02*
X160877855Y-94178214D01*
X160877855Y-94178214D02*
X160925474Y-94130595D01*
X160925474Y-94130595D02*
X161020712Y-94082976D01*
X161020712Y-94082976D02*
X161115950Y-94082976D01*
X161115950Y-94082976D02*
X161258807Y-94130595D01*
X161258807Y-94130595D02*
X161830236Y-94702023D01*
X161830236Y-94702023D02*
X161830236Y-94082976D01*
X160830236Y-93749642D02*
X160830236Y-93130595D01*
X160830236Y-93130595D02*
X161211188Y-93463928D01*
X161211188Y-93463928D02*
X161211188Y-93321071D01*
X161211188Y-93321071D02*
X161258807Y-93225833D01*
X161258807Y-93225833D02*
X161306426Y-93178214D01*
X161306426Y-93178214D02*
X161401664Y-93130595D01*
X161401664Y-93130595D02*
X161639759Y-93130595D01*
X161639759Y-93130595D02*
X161734997Y-93178214D01*
X161734997Y-93178214D02*
X161782617Y-93225833D01*
X161782617Y-93225833D02*
X161830236Y-93321071D01*
X161830236Y-93321071D02*
X161830236Y-93606785D01*
X161830236Y-93606785D02*
X161782617Y-93702023D01*
X161782617Y-93702023D02*
X161734997Y-93749642D01*
X154433512Y-79957319D02*
X154433512Y-80766842D01*
X154433512Y-80766842D02*
X154481131Y-80862080D01*
X154481131Y-80862080D02*
X154528750Y-80909700D01*
X154528750Y-80909700D02*
X154623988Y-80957319D01*
X154623988Y-80957319D02*
X154814464Y-80957319D01*
X154814464Y-80957319D02*
X154909702Y-80909700D01*
X154909702Y-80909700D02*
X154957321Y-80862080D01*
X154957321Y-80862080D02*
X155004940Y-80766842D01*
X155004940Y-80766842D02*
X155004940Y-79957319D01*
X155909702Y-79957319D02*
X155719226Y-79957319D01*
X155719226Y-79957319D02*
X155623988Y-80004938D01*
X155623988Y-80004938D02*
X155576369Y-80052557D01*
X155576369Y-80052557D02*
X155481131Y-80195414D01*
X155481131Y-80195414D02*
X155433512Y-80385890D01*
X155433512Y-80385890D02*
X155433512Y-80766842D01*
X155433512Y-80766842D02*
X155481131Y-80862080D01*
X155481131Y-80862080D02*
X155528750Y-80909700D01*
X155528750Y-80909700D02*
X155623988Y-80957319D01*
X155623988Y-80957319D02*
X155814464Y-80957319D01*
X155814464Y-80957319D02*
X155909702Y-80909700D01*
X155909702Y-80909700D02*
X155957321Y-80862080D01*
X155957321Y-80862080D02*
X156004940Y-80766842D01*
X156004940Y-80766842D02*
X156004940Y-80528747D01*
X156004940Y-80528747D02*
X155957321Y-80433509D01*
X155957321Y-80433509D02*
X155909702Y-80385890D01*
X155909702Y-80385890D02*
X155814464Y-80338271D01*
X155814464Y-80338271D02*
X155623988Y-80338271D01*
X155623988Y-80338271D02*
X155528750Y-80385890D01*
X155528750Y-80385890D02*
X155481131Y-80433509D01*
X155481131Y-80433509D02*
X155433512Y-80528747D01*
X179330953Y-103227033D02*
X178825877Y-103732109D01*
X178825877Y-103732109D02*
X178691190Y-103799453D01*
X178691190Y-103799453D02*
X178556503Y-103799453D01*
X178556503Y-103799453D02*
X178421816Y-103732109D01*
X178421816Y-103732109D02*
X178354472Y-103664766D01*
X179735014Y-104102499D02*
X179263610Y-104573903D01*
X179836030Y-103664766D02*
X179162595Y-104001483D01*
X179162595Y-104001483D02*
X179600327Y-104439216D01*
X165180236Y-90835357D02*
X164704045Y-91168690D01*
X165180236Y-91406785D02*
X164180236Y-91406785D01*
X164180236Y-91406785D02*
X164180236Y-91025833D01*
X164180236Y-91025833D02*
X164227855Y-90930595D01*
X164227855Y-90930595D02*
X164275474Y-90882976D01*
X164275474Y-90882976D02*
X164370712Y-90835357D01*
X164370712Y-90835357D02*
X164513569Y-90835357D01*
X164513569Y-90835357D02*
X164608807Y-90882976D01*
X164608807Y-90882976D02*
X164656426Y-90930595D01*
X164656426Y-90930595D02*
X164704045Y-91025833D01*
X164704045Y-91025833D02*
X164704045Y-91406785D01*
X165180236Y-89882976D02*
X165180236Y-90454404D01*
X165180236Y-90168690D02*
X164180236Y-90168690D01*
X164180236Y-90168690D02*
X164323093Y-90263928D01*
X164323093Y-90263928D02*
X164418331Y-90359166D01*
X164418331Y-90359166D02*
X164465950Y-90454404D01*
X164180236Y-89549642D02*
X164180236Y-88930595D01*
X164180236Y-88930595D02*
X164561188Y-89263928D01*
X164561188Y-89263928D02*
X164561188Y-89121071D01*
X164561188Y-89121071D02*
X164608807Y-89025833D01*
X164608807Y-89025833D02*
X164656426Y-88978214D01*
X164656426Y-88978214D02*
X164751664Y-88930595D01*
X164751664Y-88930595D02*
X164989759Y-88930595D01*
X164989759Y-88930595D02*
X165084997Y-88978214D01*
X165084997Y-88978214D02*
X165132617Y-89025833D01*
X165132617Y-89025833D02*
X165180236Y-89121071D01*
X165180236Y-89121071D02*
X165180236Y-89406785D01*
X165180236Y-89406785D02*
X165132617Y-89502023D01*
X165132617Y-89502023D02*
X165084997Y-89549642D01*
X143516842Y-106003674D02*
X144021918Y-106508750D01*
X144021918Y-106508750D02*
X144089262Y-106643437D01*
X144089262Y-106643437D02*
X144089262Y-106778124D01*
X144089262Y-106778124D02*
X144021918Y-106912811D01*
X144021918Y-106912811D02*
X143954575Y-106980155D01*
X143786216Y-105734300D02*
X144257621Y-105262895D01*
X144257621Y-105262895D02*
X144661682Y-106273048D01*
X133560236Y-94695358D02*
X133084045Y-95028691D01*
X133560236Y-95266786D02*
X132560236Y-95266786D01*
X132560236Y-95266786D02*
X132560236Y-94885834D01*
X132560236Y-94885834D02*
X132607855Y-94790596D01*
X132607855Y-94790596D02*
X132655474Y-94742977D01*
X132655474Y-94742977D02*
X132750712Y-94695358D01*
X132750712Y-94695358D02*
X132893569Y-94695358D01*
X132893569Y-94695358D02*
X132988807Y-94742977D01*
X132988807Y-94742977D02*
X133036426Y-94790596D01*
X133036426Y-94790596D02*
X133084045Y-94885834D01*
X133084045Y-94885834D02*
X133084045Y-95266786D01*
X132655474Y-94314405D02*
X132607855Y-94266786D01*
X132607855Y-94266786D02*
X132560236Y-94171548D01*
X132560236Y-94171548D02*
X132560236Y-93933453D01*
X132560236Y-93933453D02*
X132607855Y-93838215D01*
X132607855Y-93838215D02*
X132655474Y-93790596D01*
X132655474Y-93790596D02*
X132750712Y-93742977D01*
X132750712Y-93742977D02*
X132845950Y-93742977D01*
X132845950Y-93742977D02*
X132988807Y-93790596D01*
X132988807Y-93790596D02*
X133560236Y-94362024D01*
X133560236Y-94362024D02*
X133560236Y-93742977D01*
X132560236Y-93123929D02*
X132560236Y-93028691D01*
X132560236Y-93028691D02*
X132607855Y-92933453D01*
X132607855Y-92933453D02*
X132655474Y-92885834D01*
X132655474Y-92885834D02*
X132750712Y-92838215D01*
X132750712Y-92838215D02*
X132941188Y-92790596D01*
X132941188Y-92790596D02*
X133179283Y-92790596D01*
X133179283Y-92790596D02*
X133369759Y-92838215D01*
X133369759Y-92838215D02*
X133464997Y-92885834D01*
X133464997Y-92885834D02*
X133512617Y-92933453D01*
X133512617Y-92933453D02*
X133560236Y-93028691D01*
X133560236Y-93028691D02*
X133560236Y-93123929D01*
X133560236Y-93123929D02*
X133512617Y-93219167D01*
X133512617Y-93219167D02*
X133464997Y-93266786D01*
X133464997Y-93266786D02*
X133369759Y-93314405D01*
X133369759Y-93314405D02*
X133179283Y-93362024D01*
X133179283Y-93362024D02*
X132941188Y-93362024D01*
X132941188Y-93362024D02*
X132750712Y-93314405D01*
X132750712Y-93314405D02*
X132655474Y-93266786D01*
X132655474Y-93266786D02*
X132607855Y-93219167D01*
X132607855Y-93219167D02*
X132560236Y-93123929D01*
X148301131Y-87557319D02*
X148301131Y-86557319D01*
X148301131Y-86557319D02*
X148539226Y-86557319D01*
X148539226Y-86557319D02*
X148682083Y-86604938D01*
X148682083Y-86604938D02*
X148777321Y-86700176D01*
X148777321Y-86700176D02*
X148824940Y-86795414D01*
X148824940Y-86795414D02*
X148872559Y-86985890D01*
X148872559Y-86985890D02*
X148872559Y-87128747D01*
X148872559Y-87128747D02*
X148824940Y-87319223D01*
X148824940Y-87319223D02*
X148777321Y-87414461D01*
X148777321Y-87414461D02*
X148682083Y-87509700D01*
X148682083Y-87509700D02*
X148539226Y-87557319D01*
X148539226Y-87557319D02*
X148301131Y-87557319D01*
X149253512Y-86652557D02*
X149301131Y-86604938D01*
X149301131Y-86604938D02*
X149396369Y-86557319D01*
X149396369Y-86557319D02*
X149634464Y-86557319D01*
X149634464Y-86557319D02*
X149729702Y-86604938D01*
X149729702Y-86604938D02*
X149777321Y-86652557D01*
X149777321Y-86652557D02*
X149824940Y-86747795D01*
X149824940Y-86747795D02*
X149824940Y-86843033D01*
X149824940Y-86843033D02*
X149777321Y-86985890D01*
X149777321Y-86985890D02*
X149205893Y-87557319D01*
X149205893Y-87557319D02*
X149824940Y-87557319D01*
X150777321Y-87557319D02*
X150205893Y-87557319D01*
X150491607Y-87557319D02*
X150491607Y-86557319D01*
X150491607Y-86557319D02*
X150396369Y-86700176D01*
X150396369Y-86700176D02*
X150301131Y-86795414D01*
X150301131Y-86795414D02*
X150205893Y-86843033D01*
X168735138Y-82311359D02*
X168162719Y-82210344D01*
X168331077Y-82715420D02*
X167623971Y-82008313D01*
X167623971Y-82008313D02*
X167893345Y-81738939D01*
X167893345Y-81738939D02*
X167994360Y-81705267D01*
X167994360Y-81705267D02*
X168061703Y-81705267D01*
X168061703Y-81705267D02*
X168162719Y-81738939D01*
X168162719Y-81738939D02*
X168263734Y-81839954D01*
X168263734Y-81839954D02*
X168297406Y-81940970D01*
X168297406Y-81940970D02*
X168297406Y-82008313D01*
X168297406Y-82008313D02*
X168263734Y-82109328D01*
X168263734Y-82109328D02*
X167994360Y-82378702D01*
X168364749Y-81402222D02*
X168364749Y-81334878D01*
X168364749Y-81334878D02*
X168398421Y-81233863D01*
X168398421Y-81233863D02*
X168566780Y-81065504D01*
X168566780Y-81065504D02*
X168667795Y-81031832D01*
X168667795Y-81031832D02*
X168735138Y-81031832D01*
X168735138Y-81031832D02*
X168836154Y-81065504D01*
X168836154Y-81065504D02*
X168903497Y-81132848D01*
X168903497Y-81132848D02*
X168970841Y-81267535D01*
X168970841Y-81267535D02*
X168970841Y-82075657D01*
X168970841Y-82075657D02*
X169408573Y-81637924D01*
X169307558Y-80324725D02*
X169172871Y-80459412D01*
X169172871Y-80459412D02*
X169139200Y-80560428D01*
X169139200Y-80560428D02*
X169139200Y-80627771D01*
X169139200Y-80627771D02*
X169172871Y-80796130D01*
X169172871Y-80796130D02*
X169273887Y-80964489D01*
X169273887Y-80964489D02*
X169543261Y-81233863D01*
X169543261Y-81233863D02*
X169644276Y-81267534D01*
X169644276Y-81267534D02*
X169711619Y-81267534D01*
X169711619Y-81267534D02*
X169812635Y-81233863D01*
X169812635Y-81233863D02*
X169947322Y-81099176D01*
X169947322Y-81099176D02*
X169980993Y-80998160D01*
X169980993Y-80998160D02*
X169980993Y-80930817D01*
X169980993Y-80930817D02*
X169947322Y-80829802D01*
X169947322Y-80829802D02*
X169778963Y-80661443D01*
X169778963Y-80661443D02*
X169677948Y-80627771D01*
X169677948Y-80627771D02*
X169610604Y-80627771D01*
X169610604Y-80627771D02*
X169509589Y-80661443D01*
X169509589Y-80661443D02*
X169374902Y-80796130D01*
X169374902Y-80796130D02*
X169341230Y-80897145D01*
X169341230Y-80897145D02*
X169341230Y-80964489D01*
X169341230Y-80964489D02*
X169374902Y-81065504D01*
X178172559Y-91407319D02*
X177839226Y-90931128D01*
X177601131Y-91407319D02*
X177601131Y-90407319D01*
X177601131Y-90407319D02*
X177982083Y-90407319D01*
X177982083Y-90407319D02*
X178077321Y-90454938D01*
X178077321Y-90454938D02*
X178124940Y-90502557D01*
X178124940Y-90502557D02*
X178172559Y-90597795D01*
X178172559Y-90597795D02*
X178172559Y-90740652D01*
X178172559Y-90740652D02*
X178124940Y-90835890D01*
X178124940Y-90835890D02*
X178077321Y-90883509D01*
X178077321Y-90883509D02*
X177982083Y-90931128D01*
X177982083Y-90931128D02*
X177601131Y-90931128D01*
X178553512Y-90502557D02*
X178601131Y-90454938D01*
X178601131Y-90454938D02*
X178696369Y-90407319D01*
X178696369Y-90407319D02*
X178934464Y-90407319D01*
X178934464Y-90407319D02*
X179029702Y-90454938D01*
X179029702Y-90454938D02*
X179077321Y-90502557D01*
X179077321Y-90502557D02*
X179124940Y-90597795D01*
X179124940Y-90597795D02*
X179124940Y-90693033D01*
X179124940Y-90693033D02*
X179077321Y-90835890D01*
X179077321Y-90835890D02*
X178505893Y-91407319D01*
X178505893Y-91407319D02*
X179124940Y-91407319D01*
X179458274Y-90407319D02*
X180124940Y-90407319D01*
X180124940Y-90407319D02*
X179696369Y-91407319D01*
X177440236Y-92819166D02*
X176964045Y-93152499D01*
X177440236Y-93390594D02*
X176440236Y-93390594D01*
X176440236Y-93390594D02*
X176440236Y-93009642D01*
X176440236Y-93009642D02*
X176487855Y-92914404D01*
X176487855Y-92914404D02*
X176535474Y-92866785D01*
X176535474Y-92866785D02*
X176630712Y-92819166D01*
X176630712Y-92819166D02*
X176773569Y-92819166D01*
X176773569Y-92819166D02*
X176868807Y-92866785D01*
X176868807Y-92866785D02*
X176916426Y-92914404D01*
X176916426Y-92914404D02*
X176964045Y-93009642D01*
X176964045Y-93009642D02*
X176964045Y-93390594D01*
X176440236Y-92485832D02*
X176440236Y-91866785D01*
X176440236Y-91866785D02*
X176821188Y-92200118D01*
X176821188Y-92200118D02*
X176821188Y-92057261D01*
X176821188Y-92057261D02*
X176868807Y-91962023D01*
X176868807Y-91962023D02*
X176916426Y-91914404D01*
X176916426Y-91914404D02*
X177011664Y-91866785D01*
X177011664Y-91866785D02*
X177249759Y-91866785D01*
X177249759Y-91866785D02*
X177344997Y-91914404D01*
X177344997Y-91914404D02*
X177392617Y-91962023D01*
X177392617Y-91962023D02*
X177440236Y-92057261D01*
X177440236Y-92057261D02*
X177440236Y-92342975D01*
X177440236Y-92342975D02*
X177392617Y-92438213D01*
X177392617Y-92438213D02*
X177344997Y-92485832D01*
X160664386Y-75258094D02*
X159664386Y-75258094D01*
X159664386Y-75258094D02*
X159664386Y-75019999D01*
X159664386Y-75019999D02*
X159712005Y-74877142D01*
X159712005Y-74877142D02*
X159807243Y-74781904D01*
X159807243Y-74781904D02*
X159902481Y-74734285D01*
X159902481Y-74734285D02*
X160092957Y-74686666D01*
X160092957Y-74686666D02*
X160235814Y-74686666D01*
X160235814Y-74686666D02*
X160426290Y-74734285D01*
X160426290Y-74734285D02*
X160521528Y-74781904D01*
X160521528Y-74781904D02*
X160616767Y-74877142D01*
X160616767Y-74877142D02*
X160664386Y-75019999D01*
X160664386Y-75019999D02*
X160664386Y-75258094D01*
X159664386Y-74353332D02*
X159664386Y-73734285D01*
X159664386Y-73734285D02*
X160045338Y-74067618D01*
X160045338Y-74067618D02*
X160045338Y-73924761D01*
X160045338Y-73924761D02*
X160092957Y-73829523D01*
X160092957Y-73829523D02*
X160140576Y-73781904D01*
X160140576Y-73781904D02*
X160235814Y-73734285D01*
X160235814Y-73734285D02*
X160473909Y-73734285D01*
X160473909Y-73734285D02*
X160569147Y-73781904D01*
X160569147Y-73781904D02*
X160616767Y-73829523D01*
X160616767Y-73829523D02*
X160664386Y-73924761D01*
X160664386Y-73924761D02*
X160664386Y-74210475D01*
X160664386Y-74210475D02*
X160616767Y-74305713D01*
X160616767Y-74305713D02*
X160569147Y-74353332D01*
X140264997Y-89135357D02*
X140312617Y-89182976D01*
X140312617Y-89182976D02*
X140360236Y-89325833D01*
X140360236Y-89325833D02*
X140360236Y-89421071D01*
X140360236Y-89421071D02*
X140312617Y-89563928D01*
X140312617Y-89563928D02*
X140217378Y-89659166D01*
X140217378Y-89659166D02*
X140122140Y-89706785D01*
X140122140Y-89706785D02*
X139931664Y-89754404D01*
X139931664Y-89754404D02*
X139788807Y-89754404D01*
X139788807Y-89754404D02*
X139598331Y-89706785D01*
X139598331Y-89706785D02*
X139503093Y-89659166D01*
X139503093Y-89659166D02*
X139407855Y-89563928D01*
X139407855Y-89563928D02*
X139360236Y-89421071D01*
X139360236Y-89421071D02*
X139360236Y-89325833D01*
X139360236Y-89325833D02*
X139407855Y-89182976D01*
X139407855Y-89182976D02*
X139455474Y-89135357D01*
X139455474Y-88754404D02*
X139407855Y-88706785D01*
X139407855Y-88706785D02*
X139360236Y-88611547D01*
X139360236Y-88611547D02*
X139360236Y-88373452D01*
X139360236Y-88373452D02*
X139407855Y-88278214D01*
X139407855Y-88278214D02*
X139455474Y-88230595D01*
X139455474Y-88230595D02*
X139550712Y-88182976D01*
X139550712Y-88182976D02*
X139645950Y-88182976D01*
X139645950Y-88182976D02*
X139788807Y-88230595D01*
X139788807Y-88230595D02*
X140360236Y-88802023D01*
X140360236Y-88802023D02*
X140360236Y-88182976D01*
X139360236Y-87325833D02*
X139360236Y-87516309D01*
X139360236Y-87516309D02*
X139407855Y-87611547D01*
X139407855Y-87611547D02*
X139455474Y-87659166D01*
X139455474Y-87659166D02*
X139598331Y-87754404D01*
X139598331Y-87754404D02*
X139788807Y-87802023D01*
X139788807Y-87802023D02*
X140169759Y-87802023D01*
X140169759Y-87802023D02*
X140264997Y-87754404D01*
X140264997Y-87754404D02*
X140312617Y-87706785D01*
X140312617Y-87706785D02*
X140360236Y-87611547D01*
X140360236Y-87611547D02*
X140360236Y-87421071D01*
X140360236Y-87421071D02*
X140312617Y-87325833D01*
X140312617Y-87325833D02*
X140264997Y-87278214D01*
X140264997Y-87278214D02*
X140169759Y-87230595D01*
X140169759Y-87230595D02*
X139931664Y-87230595D01*
X139931664Y-87230595D02*
X139836426Y-87278214D01*
X139836426Y-87278214D02*
X139788807Y-87325833D01*
X139788807Y-87325833D02*
X139741188Y-87421071D01*
X139741188Y-87421071D02*
X139741188Y-87611547D01*
X139741188Y-87611547D02*
X139788807Y-87706785D01*
X139788807Y-87706785D02*
X139836426Y-87754404D01*
X139836426Y-87754404D02*
X139931664Y-87802023D01*
X138731131Y-86877319D02*
X138731131Y-85877319D01*
X138731131Y-85877319D02*
X138969226Y-85877319D01*
X138969226Y-85877319D02*
X139112083Y-85924938D01*
X139112083Y-85924938D02*
X139207321Y-86020176D01*
X139207321Y-86020176D02*
X139254940Y-86115414D01*
X139254940Y-86115414D02*
X139302559Y-86305890D01*
X139302559Y-86305890D02*
X139302559Y-86448747D01*
X139302559Y-86448747D02*
X139254940Y-86639223D01*
X139254940Y-86639223D02*
X139207321Y-86734461D01*
X139207321Y-86734461D02*
X139112083Y-86829700D01*
X139112083Y-86829700D02*
X138969226Y-86877319D01*
X138969226Y-86877319D02*
X138731131Y-86877319D01*
X140254940Y-86877319D02*
X139683512Y-86877319D01*
X139969226Y-86877319D02*
X139969226Y-85877319D01*
X139969226Y-85877319D02*
X139873988Y-86020176D01*
X139873988Y-86020176D02*
X139778750Y-86115414D01*
X139778750Y-86115414D02*
X139683512Y-86163033D01*
X140588274Y-85877319D02*
X141254940Y-85877319D01*
X141254940Y-85877319D02*
X140826369Y-86877319D01*
X164701131Y-116227319D02*
X164701131Y-115227319D01*
X164701131Y-115227319D02*
X164939226Y-115227319D01*
X164939226Y-115227319D02*
X165082083Y-115274938D01*
X165082083Y-115274938D02*
X165177321Y-115370176D01*
X165177321Y-115370176D02*
X165224940Y-115465414D01*
X165224940Y-115465414D02*
X165272559Y-115655890D01*
X165272559Y-115655890D02*
X165272559Y-115798747D01*
X165272559Y-115798747D02*
X165224940Y-115989223D01*
X165224940Y-115989223D02*
X165177321Y-116084461D01*
X165177321Y-116084461D02*
X165082083Y-116179700D01*
X165082083Y-116179700D02*
X164939226Y-116227319D01*
X164939226Y-116227319D02*
X164701131Y-116227319D01*
X166224940Y-116227319D02*
X165653512Y-116227319D01*
X165939226Y-116227319D02*
X165939226Y-115227319D01*
X165939226Y-115227319D02*
X165843988Y-115370176D01*
X165843988Y-115370176D02*
X165748750Y-115465414D01*
X165748750Y-115465414D02*
X165653512Y-115513033D01*
X166843988Y-115227319D02*
X166939226Y-115227319D01*
X166939226Y-115227319D02*
X167034464Y-115274938D01*
X167034464Y-115274938D02*
X167082083Y-115322557D01*
X167082083Y-115322557D02*
X167129702Y-115417795D01*
X167129702Y-115417795D02*
X167177321Y-115608271D01*
X167177321Y-115608271D02*
X167177321Y-115846366D01*
X167177321Y-115846366D02*
X167129702Y-116036842D01*
X167129702Y-116036842D02*
X167082083Y-116132080D01*
X167082083Y-116132080D02*
X167034464Y-116179700D01*
X167034464Y-116179700D02*
X166939226Y-116227319D01*
X166939226Y-116227319D02*
X166843988Y-116227319D01*
X166843988Y-116227319D02*
X166748750Y-116179700D01*
X166748750Y-116179700D02*
X166701131Y-116132080D01*
X166701131Y-116132080D02*
X166653512Y-116036842D01*
X166653512Y-116036842D02*
X166605893Y-115846366D01*
X166605893Y-115846366D02*
X166605893Y-115608271D01*
X166605893Y-115608271D02*
X166653512Y-115417795D01*
X166653512Y-115417795D02*
X166701131Y-115322557D01*
X166701131Y-115322557D02*
X166748750Y-115274938D01*
X166748750Y-115274938D02*
X166843988Y-115227319D01*
X138375110Y-100601330D02*
X138375110Y-100668674D01*
X138375110Y-100668674D02*
X138307766Y-100803361D01*
X138307766Y-100803361D02*
X138240423Y-100870704D01*
X138240423Y-100870704D02*
X138105736Y-100938048D01*
X138105736Y-100938048D02*
X137971049Y-100938048D01*
X137971049Y-100938048D02*
X137870034Y-100904376D01*
X137870034Y-100904376D02*
X137701675Y-100803361D01*
X137701675Y-100803361D02*
X137600660Y-100702346D01*
X137600660Y-100702346D02*
X137499644Y-100533987D01*
X137499644Y-100533987D02*
X137465973Y-100432972D01*
X137465973Y-100432972D02*
X137465973Y-100298285D01*
X137465973Y-100298285D02*
X137533316Y-100163598D01*
X137533316Y-100163598D02*
X137600660Y-100096254D01*
X137600660Y-100096254D02*
X137735347Y-100028911D01*
X137735347Y-100028911D02*
X137802690Y-100028911D01*
X138072064Y-99759537D02*
X138072064Y-99692193D01*
X138072064Y-99692193D02*
X138105736Y-99591178D01*
X138105736Y-99591178D02*
X138274095Y-99422819D01*
X138274095Y-99422819D02*
X138375110Y-99389147D01*
X138375110Y-99389147D02*
X138442453Y-99389147D01*
X138442453Y-99389147D02*
X138543469Y-99422819D01*
X138543469Y-99422819D02*
X138610812Y-99490163D01*
X138610812Y-99490163D02*
X138678156Y-99624850D01*
X138678156Y-99624850D02*
X138678156Y-100432972D01*
X138678156Y-100432972D02*
X139115888Y-99995239D01*
X139115889Y-99187117D02*
X139014873Y-99220788D01*
X139014873Y-99220788D02*
X138947530Y-99220788D01*
X138947530Y-99220788D02*
X138846515Y-99187117D01*
X138846515Y-99187117D02*
X138812843Y-99153445D01*
X138812843Y-99153445D02*
X138779171Y-99052430D01*
X138779171Y-99052430D02*
X138779171Y-98985086D01*
X138779171Y-98985086D02*
X138812843Y-98884071D01*
X138812843Y-98884071D02*
X138947530Y-98749384D01*
X138947530Y-98749384D02*
X139048545Y-98715712D01*
X139048545Y-98715712D02*
X139115889Y-98715712D01*
X139115889Y-98715712D02*
X139216904Y-98749384D01*
X139216904Y-98749384D02*
X139250576Y-98783056D01*
X139250576Y-98783056D02*
X139284247Y-98884071D01*
X139284247Y-98884071D02*
X139284247Y-98951414D01*
X139284247Y-98951414D02*
X139250576Y-99052430D01*
X139250576Y-99052430D02*
X139115889Y-99187117D01*
X139115889Y-99187117D02*
X139082217Y-99288132D01*
X139082217Y-99288132D02*
X139082217Y-99355475D01*
X139082217Y-99355475D02*
X139115889Y-99456491D01*
X139115889Y-99456491D02*
X139250576Y-99591178D01*
X139250576Y-99591178D02*
X139351591Y-99624849D01*
X139351591Y-99624849D02*
X139418934Y-99624849D01*
X139418934Y-99624849D02*
X139519950Y-99591178D01*
X139519950Y-99591178D02*
X139654637Y-99456491D01*
X139654637Y-99456491D02*
X139688308Y-99355475D01*
X139688308Y-99355475D02*
X139688308Y-99288132D01*
X139688308Y-99288132D02*
X139654637Y-99187117D01*
X139654637Y-99187117D02*
X139519950Y-99052430D01*
X139519950Y-99052430D02*
X139418934Y-99018758D01*
X139418934Y-99018758D02*
X139351591Y-99018758D01*
X139351591Y-99018758D02*
X139250576Y-99052430D01*
X174280236Y-103566785D02*
X173280236Y-103566785D01*
X173280236Y-103566785D02*
X173280236Y-103328690D01*
X173280236Y-103328690D02*
X173327855Y-103185833D01*
X173327855Y-103185833D02*
X173423093Y-103090595D01*
X173423093Y-103090595D02*
X173518331Y-103042976D01*
X173518331Y-103042976D02*
X173708807Y-102995357D01*
X173708807Y-102995357D02*
X173851664Y-102995357D01*
X173851664Y-102995357D02*
X174042140Y-103042976D01*
X174042140Y-103042976D02*
X174137378Y-103090595D01*
X174137378Y-103090595D02*
X174232617Y-103185833D01*
X174232617Y-103185833D02*
X174280236Y-103328690D01*
X174280236Y-103328690D02*
X174280236Y-103566785D01*
X174280236Y-102042976D02*
X174280236Y-102614404D01*
X174280236Y-102328690D02*
X173280236Y-102328690D01*
X173280236Y-102328690D02*
X173423093Y-102423928D01*
X173423093Y-102423928D02*
X173518331Y-102519166D01*
X173518331Y-102519166D02*
X173565950Y-102614404D01*
X173375474Y-101662023D02*
X173327855Y-101614404D01*
X173327855Y-101614404D02*
X173280236Y-101519166D01*
X173280236Y-101519166D02*
X173280236Y-101281071D01*
X173280236Y-101281071D02*
X173327855Y-101185833D01*
X173327855Y-101185833D02*
X173375474Y-101138214D01*
X173375474Y-101138214D02*
X173470712Y-101090595D01*
X173470712Y-101090595D02*
X173565950Y-101090595D01*
X173565950Y-101090595D02*
X173708807Y-101138214D01*
X173708807Y-101138214D02*
X174280236Y-101709642D01*
X174280236Y-101709642D02*
X174280236Y-101090595D01*
X175217322Y-88047319D02*
X175217322Y-87047319D01*
X175217322Y-87047319D02*
X175455417Y-87047319D01*
X175455417Y-87047319D02*
X175598274Y-87094938D01*
X175598274Y-87094938D02*
X175693512Y-87190176D01*
X175693512Y-87190176D02*
X175741131Y-87285414D01*
X175741131Y-87285414D02*
X175788750Y-87475890D01*
X175788750Y-87475890D02*
X175788750Y-87618747D01*
X175788750Y-87618747D02*
X175741131Y-87809223D01*
X175741131Y-87809223D02*
X175693512Y-87904461D01*
X175693512Y-87904461D02*
X175598274Y-87999700D01*
X175598274Y-87999700D02*
X175455417Y-88047319D01*
X175455417Y-88047319D02*
X175217322Y-88047319D01*
X176741131Y-88047319D02*
X176169703Y-88047319D01*
X176455417Y-88047319D02*
X176455417Y-87047319D01*
X176455417Y-87047319D02*
X176360179Y-87190176D01*
X176360179Y-87190176D02*
X176264941Y-87285414D01*
X176264941Y-87285414D02*
X176169703Y-87333033D01*
X153288750Y-75997319D02*
X152955417Y-75521128D01*
X152717322Y-75997319D02*
X152717322Y-74997319D01*
X152717322Y-74997319D02*
X153098274Y-74997319D01*
X153098274Y-74997319D02*
X153193512Y-75044938D01*
X153193512Y-75044938D02*
X153241131Y-75092557D01*
X153241131Y-75092557D02*
X153288750Y-75187795D01*
X153288750Y-75187795D02*
X153288750Y-75330652D01*
X153288750Y-75330652D02*
X153241131Y-75425890D01*
X153241131Y-75425890D02*
X153193512Y-75473509D01*
X153193512Y-75473509D02*
X153098274Y-75521128D01*
X153098274Y-75521128D02*
X152717322Y-75521128D01*
X153669703Y-75092557D02*
X153717322Y-75044938D01*
X153717322Y-75044938D02*
X153812560Y-74997319D01*
X153812560Y-74997319D02*
X154050655Y-74997319D01*
X154050655Y-74997319D02*
X154145893Y-75044938D01*
X154145893Y-75044938D02*
X154193512Y-75092557D01*
X154193512Y-75092557D02*
X154241131Y-75187795D01*
X154241131Y-75187795D02*
X154241131Y-75283033D01*
X154241131Y-75283033D02*
X154193512Y-75425890D01*
X154193512Y-75425890D02*
X153622084Y-75997319D01*
X153622084Y-75997319D02*
X154241131Y-75997319D01*
X172712559Y-94682080D02*
X172664940Y-94729700D01*
X172664940Y-94729700D02*
X172522083Y-94777319D01*
X172522083Y-94777319D02*
X172426845Y-94777319D01*
X172426845Y-94777319D02*
X172283988Y-94729700D01*
X172283988Y-94729700D02*
X172188750Y-94634461D01*
X172188750Y-94634461D02*
X172141131Y-94539223D01*
X172141131Y-94539223D02*
X172093512Y-94348747D01*
X172093512Y-94348747D02*
X172093512Y-94205890D01*
X172093512Y-94205890D02*
X172141131Y-94015414D01*
X172141131Y-94015414D02*
X172188750Y-93920176D01*
X172188750Y-93920176D02*
X172283988Y-93824938D01*
X172283988Y-93824938D02*
X172426845Y-93777319D01*
X172426845Y-93777319D02*
X172522083Y-93777319D01*
X172522083Y-93777319D02*
X172664940Y-93824938D01*
X172664940Y-93824938D02*
X172712559Y-93872557D01*
X173093512Y-93872557D02*
X173141131Y-93824938D01*
X173141131Y-93824938D02*
X173236369Y-93777319D01*
X173236369Y-93777319D02*
X173474464Y-93777319D01*
X173474464Y-93777319D02*
X173569702Y-93824938D01*
X173569702Y-93824938D02*
X173617321Y-93872557D01*
X173617321Y-93872557D02*
X173664940Y-93967795D01*
X173664940Y-93967795D02*
X173664940Y-94063033D01*
X173664940Y-94063033D02*
X173617321Y-94205890D01*
X173617321Y-94205890D02*
X173045893Y-94777319D01*
X173045893Y-94777319D02*
X173664940Y-94777319D01*
X173998274Y-93777319D02*
X174617321Y-93777319D01*
X174617321Y-93777319D02*
X174283988Y-94158271D01*
X174283988Y-94158271D02*
X174426845Y-94158271D01*
X174426845Y-94158271D02*
X174522083Y-94205890D01*
X174522083Y-94205890D02*
X174569702Y-94253509D01*
X174569702Y-94253509D02*
X174617321Y-94348747D01*
X174617321Y-94348747D02*
X174617321Y-94586842D01*
X174617321Y-94586842D02*
X174569702Y-94682080D01*
X174569702Y-94682080D02*
X174522083Y-94729700D01*
X174522083Y-94729700D02*
X174426845Y-94777319D01*
X174426845Y-94777319D02*
X174141131Y-94777319D01*
X174141131Y-94777319D02*
X174045893Y-94729700D01*
X174045893Y-94729700D02*
X173998274Y-94682080D01*
X143705181Y-97135475D02*
X144412288Y-96428369D01*
X144412288Y-96428369D02*
X144580647Y-96596727D01*
X144580647Y-96596727D02*
X144647990Y-96731414D01*
X144647990Y-96731414D02*
X144647990Y-96866101D01*
X144647990Y-96866101D02*
X144614318Y-96967117D01*
X144614318Y-96967117D02*
X144513303Y-97135475D01*
X144513303Y-97135475D02*
X144412288Y-97236491D01*
X144412288Y-97236491D02*
X144243929Y-97337506D01*
X144243929Y-97337506D02*
X144142914Y-97371178D01*
X144142914Y-97371178D02*
X144008227Y-97371178D01*
X144008227Y-97371178D02*
X143873540Y-97303834D01*
X143873540Y-97303834D02*
X143705181Y-97135475D01*
X144782677Y-98212971D02*
X144378616Y-97808910D01*
X144580647Y-98010941D02*
X145287753Y-97303834D01*
X145287753Y-97303834D02*
X145119395Y-97337506D01*
X145119395Y-97337506D02*
X144984708Y-97337506D01*
X144984708Y-97337506D02*
X144883692Y-97303834D01*
X145590799Y-98212972D02*
X145557128Y-98111956D01*
X145557128Y-98111956D02*
X145557128Y-98044613D01*
X145557128Y-98044613D02*
X145590799Y-97943598D01*
X145590799Y-97943598D02*
X145624471Y-97909926D01*
X145624471Y-97909926D02*
X145725486Y-97876254D01*
X145725486Y-97876254D02*
X145792830Y-97876254D01*
X145792830Y-97876254D02*
X145893845Y-97909926D01*
X145893845Y-97909926D02*
X146028532Y-98044613D01*
X146028532Y-98044613D02*
X146062204Y-98145628D01*
X146062204Y-98145628D02*
X146062204Y-98212972D01*
X146062204Y-98212972D02*
X146028532Y-98313987D01*
X146028532Y-98313987D02*
X145994860Y-98347659D01*
X145994860Y-98347659D02*
X145893845Y-98381330D01*
X145893845Y-98381330D02*
X145826502Y-98381330D01*
X145826502Y-98381330D02*
X145725486Y-98347659D01*
X145725486Y-98347659D02*
X145590799Y-98212972D01*
X145590799Y-98212972D02*
X145489784Y-98179300D01*
X145489784Y-98179300D02*
X145422441Y-98179300D01*
X145422441Y-98179300D02*
X145321425Y-98212972D01*
X145321425Y-98212972D02*
X145186738Y-98347659D01*
X145186738Y-98347659D02*
X145153067Y-98448674D01*
X145153067Y-98448674D02*
X145153067Y-98516017D01*
X145153067Y-98516017D02*
X145186738Y-98617033D01*
X145186738Y-98617033D02*
X145321425Y-98751720D01*
X145321425Y-98751720D02*
X145422441Y-98785391D01*
X145422441Y-98785391D02*
X145489784Y-98785391D01*
X145489784Y-98785391D02*
X145590799Y-98751720D01*
X145590799Y-98751720D02*
X145725486Y-98617033D01*
X145725486Y-98617033D02*
X145759158Y-98516017D01*
X145759158Y-98516017D02*
X145759158Y-98448674D01*
X145759158Y-98448674D02*
X145725486Y-98347659D01*
X137195252Y-90648094D02*
X136195252Y-90648094D01*
X136195252Y-90648094D02*
X136195252Y-90409999D01*
X136195252Y-90409999D02*
X136242871Y-90267142D01*
X136242871Y-90267142D02*
X136338109Y-90171904D01*
X136338109Y-90171904D02*
X136433347Y-90124285D01*
X136433347Y-90124285D02*
X136623823Y-90076666D01*
X136623823Y-90076666D02*
X136766680Y-90076666D01*
X136766680Y-90076666D02*
X136957156Y-90124285D01*
X136957156Y-90124285D02*
X137052394Y-90171904D01*
X137052394Y-90171904D02*
X137147633Y-90267142D01*
X137147633Y-90267142D02*
X137195252Y-90409999D01*
X137195252Y-90409999D02*
X137195252Y-90648094D01*
X136195252Y-89219523D02*
X136195252Y-89409999D01*
X136195252Y-89409999D02*
X136242871Y-89505237D01*
X136242871Y-89505237D02*
X136290490Y-89552856D01*
X136290490Y-89552856D02*
X136433347Y-89648094D01*
X136433347Y-89648094D02*
X136623823Y-89695713D01*
X136623823Y-89695713D02*
X137004775Y-89695713D01*
X137004775Y-89695713D02*
X137100013Y-89648094D01*
X137100013Y-89648094D02*
X137147633Y-89600475D01*
X137147633Y-89600475D02*
X137195252Y-89505237D01*
X137195252Y-89505237D02*
X137195252Y-89314761D01*
X137195252Y-89314761D02*
X137147633Y-89219523D01*
X137147633Y-89219523D02*
X137100013Y-89171904D01*
X137100013Y-89171904D02*
X137004775Y-89124285D01*
X137004775Y-89124285D02*
X136766680Y-89124285D01*
X136766680Y-89124285D02*
X136671442Y-89171904D01*
X136671442Y-89171904D02*
X136623823Y-89219523D01*
X136623823Y-89219523D02*
X136576204Y-89314761D01*
X136576204Y-89314761D02*
X136576204Y-89505237D01*
X136576204Y-89505237D02*
X136623823Y-89600475D01*
X136623823Y-89600475D02*
X136671442Y-89648094D01*
X136671442Y-89648094D02*
X136766680Y-89695713D01*
X140127049Y-109167043D02*
X140834156Y-108459937D01*
X140834156Y-108459937D02*
X141002515Y-108628295D01*
X141002515Y-108628295D02*
X141069858Y-108762982D01*
X141069858Y-108762982D02*
X141069858Y-108897669D01*
X141069858Y-108897669D02*
X141036186Y-108998685D01*
X141036186Y-108998685D02*
X140935171Y-109167043D01*
X140935171Y-109167043D02*
X140834156Y-109268059D01*
X140834156Y-109268059D02*
X140665797Y-109369074D01*
X140665797Y-109369074D02*
X140564782Y-109402746D01*
X140564782Y-109402746D02*
X140430095Y-109402746D01*
X140430095Y-109402746D02*
X140295408Y-109335402D01*
X140295408Y-109335402D02*
X140127049Y-109167043D01*
X141339232Y-109571104D02*
X141305560Y-109470089D01*
X141305560Y-109470089D02*
X141305560Y-109402746D01*
X141305560Y-109402746D02*
X141339232Y-109301730D01*
X141339232Y-109301730D02*
X141372904Y-109268059D01*
X141372904Y-109268059D02*
X141473919Y-109234387D01*
X141473919Y-109234387D02*
X141541263Y-109234387D01*
X141541263Y-109234387D02*
X141642278Y-109268059D01*
X141642278Y-109268059D02*
X141776965Y-109402746D01*
X141776965Y-109402746D02*
X141810637Y-109503761D01*
X141810637Y-109503761D02*
X141810637Y-109571104D01*
X141810637Y-109571104D02*
X141776965Y-109672120D01*
X141776965Y-109672120D02*
X141743293Y-109705791D01*
X141743293Y-109705791D02*
X141642278Y-109739463D01*
X141642278Y-109739463D02*
X141574934Y-109739463D01*
X141574934Y-109739463D02*
X141473919Y-109705791D01*
X141473919Y-109705791D02*
X141339232Y-109571104D01*
X141339232Y-109571104D02*
X141238217Y-109537433D01*
X141238217Y-109537433D02*
X141170873Y-109537433D01*
X141170873Y-109537433D02*
X141069858Y-109571104D01*
X141069858Y-109571104D02*
X140935171Y-109705791D01*
X140935171Y-109705791D02*
X140901499Y-109806807D01*
X140901499Y-109806807D02*
X140901499Y-109874150D01*
X140901499Y-109874150D02*
X140935171Y-109975165D01*
X140935171Y-109975165D02*
X141069858Y-110109852D01*
X141069858Y-110109852D02*
X141170873Y-110143524D01*
X141170873Y-110143524D02*
X141238217Y-110143524D01*
X141238217Y-110143524D02*
X141339232Y-110109852D01*
X141339232Y-110109852D02*
X141473919Y-109975165D01*
X141473919Y-109975165D02*
X141507591Y-109874150D01*
X141507591Y-109874150D02*
X141507591Y-109806807D01*
X141507591Y-109806807D02*
X141473919Y-109705791D01*
X163601131Y-98117319D02*
X163601131Y-97117319D01*
X163601131Y-97117319D02*
X163839226Y-97117319D01*
X163839226Y-97117319D02*
X163982083Y-97164938D01*
X163982083Y-97164938D02*
X164077321Y-97260176D01*
X164077321Y-97260176D02*
X164124940Y-97355414D01*
X164124940Y-97355414D02*
X164172559Y-97545890D01*
X164172559Y-97545890D02*
X164172559Y-97688747D01*
X164172559Y-97688747D02*
X164124940Y-97879223D01*
X164124940Y-97879223D02*
X164077321Y-97974461D01*
X164077321Y-97974461D02*
X163982083Y-98069700D01*
X163982083Y-98069700D02*
X163839226Y-98117319D01*
X163839226Y-98117319D02*
X163601131Y-98117319D01*
X165124940Y-98117319D02*
X164553512Y-98117319D01*
X164839226Y-98117319D02*
X164839226Y-97117319D01*
X164839226Y-97117319D02*
X164743988Y-97260176D01*
X164743988Y-97260176D02*
X164648750Y-97355414D01*
X164648750Y-97355414D02*
X164553512Y-97403033D01*
X165458274Y-97117319D02*
X166077321Y-97117319D01*
X166077321Y-97117319D02*
X165743988Y-97498271D01*
X165743988Y-97498271D02*
X165886845Y-97498271D01*
X165886845Y-97498271D02*
X165982083Y-97545890D01*
X165982083Y-97545890D02*
X166029702Y-97593509D01*
X166029702Y-97593509D02*
X166077321Y-97688747D01*
X166077321Y-97688747D02*
X166077321Y-97926842D01*
X166077321Y-97926842D02*
X166029702Y-98022080D01*
X166029702Y-98022080D02*
X165982083Y-98069700D01*
X165982083Y-98069700D02*
X165886845Y-98117319D01*
X165886845Y-98117319D02*
X165601131Y-98117319D01*
X165601131Y-98117319D02*
X165505893Y-98069700D01*
X165505893Y-98069700D02*
X165458274Y-98022080D01*
X133273512Y-96247319D02*
X133273512Y-97056842D01*
X133273512Y-97056842D02*
X133321131Y-97152080D01*
X133321131Y-97152080D02*
X133368750Y-97199700D01*
X133368750Y-97199700D02*
X133463988Y-97247319D01*
X133463988Y-97247319D02*
X133654464Y-97247319D01*
X133654464Y-97247319D02*
X133749702Y-97199700D01*
X133749702Y-97199700D02*
X133797321Y-97152080D01*
X133797321Y-97152080D02*
X133844940Y-97056842D01*
X133844940Y-97056842D02*
X133844940Y-96247319D01*
X134463988Y-96675890D02*
X134368750Y-96628271D01*
X134368750Y-96628271D02*
X134321131Y-96580652D01*
X134321131Y-96580652D02*
X134273512Y-96485414D01*
X134273512Y-96485414D02*
X134273512Y-96437795D01*
X134273512Y-96437795D02*
X134321131Y-96342557D01*
X134321131Y-96342557D02*
X134368750Y-96294938D01*
X134368750Y-96294938D02*
X134463988Y-96247319D01*
X134463988Y-96247319D02*
X134654464Y-96247319D01*
X134654464Y-96247319D02*
X134749702Y-96294938D01*
X134749702Y-96294938D02*
X134797321Y-96342557D01*
X134797321Y-96342557D02*
X134844940Y-96437795D01*
X134844940Y-96437795D02*
X134844940Y-96485414D01*
X134844940Y-96485414D02*
X134797321Y-96580652D01*
X134797321Y-96580652D02*
X134749702Y-96628271D01*
X134749702Y-96628271D02*
X134654464Y-96675890D01*
X134654464Y-96675890D02*
X134463988Y-96675890D01*
X134463988Y-96675890D02*
X134368750Y-96723509D01*
X134368750Y-96723509D02*
X134321131Y-96771128D01*
X134321131Y-96771128D02*
X134273512Y-96866366D01*
X134273512Y-96866366D02*
X134273512Y-97056842D01*
X134273512Y-97056842D02*
X134321131Y-97152080D01*
X134321131Y-97152080D02*
X134368750Y-97199700D01*
X134368750Y-97199700D02*
X134463988Y-97247319D01*
X134463988Y-97247319D02*
X134654464Y-97247319D01*
X134654464Y-97247319D02*
X134749702Y-97199700D01*
X134749702Y-97199700D02*
X134797321Y-97152080D01*
X134797321Y-97152080D02*
X134844940Y-97056842D01*
X134844940Y-97056842D02*
X134844940Y-96866366D01*
X134844940Y-96866366D02*
X134797321Y-96771128D01*
X134797321Y-96771128D02*
X134749702Y-96723509D01*
X134749702Y-96723509D02*
X134654464Y-96675890D01*
X174298676Y-90075833D02*
X174298676Y-90409166D01*
X174822486Y-90409166D02*
X173822486Y-90409166D01*
X173822486Y-90409166D02*
X173822486Y-89932976D01*
X174822486Y-89028214D02*
X174822486Y-89599642D01*
X174822486Y-89313928D02*
X173822486Y-89313928D01*
X173822486Y-89313928D02*
X173965343Y-89409166D01*
X173965343Y-89409166D02*
X174060581Y-89504404D01*
X174060581Y-89504404D02*
X174108200Y-89599642D01*
X172483512Y-97287319D02*
X172483512Y-98096842D01*
X172483512Y-98096842D02*
X172531131Y-98192080D01*
X172531131Y-98192080D02*
X172578750Y-98239700D01*
X172578750Y-98239700D02*
X172673988Y-98287319D01*
X172673988Y-98287319D02*
X172864464Y-98287319D01*
X172864464Y-98287319D02*
X172959702Y-98239700D01*
X172959702Y-98239700D02*
X173007321Y-98192080D01*
X173007321Y-98192080D02*
X173054940Y-98096842D01*
X173054940Y-98096842D02*
X173054940Y-97287319D01*
X173435893Y-97287319D02*
X174054940Y-97287319D01*
X174054940Y-97287319D02*
X173721607Y-97668271D01*
X173721607Y-97668271D02*
X173864464Y-97668271D01*
X173864464Y-97668271D02*
X173959702Y-97715890D01*
X173959702Y-97715890D02*
X174007321Y-97763509D01*
X174007321Y-97763509D02*
X174054940Y-97858747D01*
X174054940Y-97858747D02*
X174054940Y-98096842D01*
X174054940Y-98096842D02*
X174007321Y-98192080D01*
X174007321Y-98192080D02*
X173959702Y-98239700D01*
X173959702Y-98239700D02*
X173864464Y-98287319D01*
X173864464Y-98287319D02*
X173578750Y-98287319D01*
X173578750Y-98287319D02*
X173483512Y-98239700D01*
X173483512Y-98239700D02*
X173435893Y-98192080D01*
X146002559Y-83947319D02*
X145669226Y-83471128D01*
X145431131Y-83947319D02*
X145431131Y-82947319D01*
X145431131Y-82947319D02*
X145812083Y-82947319D01*
X145812083Y-82947319D02*
X145907321Y-82994938D01*
X145907321Y-82994938D02*
X145954940Y-83042557D01*
X145954940Y-83042557D02*
X146002559Y-83137795D01*
X146002559Y-83137795D02*
X146002559Y-83280652D01*
X146002559Y-83280652D02*
X145954940Y-83375890D01*
X145954940Y-83375890D02*
X145907321Y-83423509D01*
X145907321Y-83423509D02*
X145812083Y-83471128D01*
X145812083Y-83471128D02*
X145431131Y-83471128D01*
X146383512Y-83042557D02*
X146431131Y-82994938D01*
X146431131Y-82994938D02*
X146526369Y-82947319D01*
X146526369Y-82947319D02*
X146764464Y-82947319D01*
X146764464Y-82947319D02*
X146859702Y-82994938D01*
X146859702Y-82994938D02*
X146907321Y-83042557D01*
X146907321Y-83042557D02*
X146954940Y-83137795D01*
X146954940Y-83137795D02*
X146954940Y-83233033D01*
X146954940Y-83233033D02*
X146907321Y-83375890D01*
X146907321Y-83375890D02*
X146335893Y-83947319D01*
X146335893Y-83947319D02*
X146954940Y-83947319D01*
X147907321Y-83947319D02*
X147335893Y-83947319D01*
X147621607Y-83947319D02*
X147621607Y-82947319D01*
X147621607Y-82947319D02*
X147526369Y-83090176D01*
X147526369Y-83090176D02*
X147431131Y-83185414D01*
X147431131Y-83185414D02*
X147335893Y-83233033D01*
X146960686Y-106899285D02*
X145960686Y-106899285D01*
X145960686Y-106899285D02*
X145960686Y-106661190D01*
X145960686Y-106661190D02*
X146008305Y-106518333D01*
X146008305Y-106518333D02*
X146103543Y-106423095D01*
X146103543Y-106423095D02*
X146198781Y-106375476D01*
X146198781Y-106375476D02*
X146389257Y-106327857D01*
X146389257Y-106327857D02*
X146532114Y-106327857D01*
X146532114Y-106327857D02*
X146722590Y-106375476D01*
X146722590Y-106375476D02*
X146817828Y-106423095D01*
X146817828Y-106423095D02*
X146913067Y-106518333D01*
X146913067Y-106518333D02*
X146960686Y-106661190D01*
X146960686Y-106661190D02*
X146960686Y-106899285D01*
X146960686Y-105375476D02*
X146960686Y-105946904D01*
X146960686Y-105661190D02*
X145960686Y-105661190D01*
X145960686Y-105661190D02*
X146103543Y-105756428D01*
X146103543Y-105756428D02*
X146198781Y-105851666D01*
X146198781Y-105851666D02*
X146246400Y-105946904D01*
X145960686Y-104470714D02*
X145960686Y-104946904D01*
X145960686Y-104946904D02*
X146436876Y-104994523D01*
X146436876Y-104994523D02*
X146389257Y-104946904D01*
X146389257Y-104946904D02*
X146341638Y-104851666D01*
X146341638Y-104851666D02*
X146341638Y-104613571D01*
X146341638Y-104613571D02*
X146389257Y-104518333D01*
X146389257Y-104518333D02*
X146436876Y-104470714D01*
X146436876Y-104470714D02*
X146532114Y-104423095D01*
X146532114Y-104423095D02*
X146770209Y-104423095D01*
X146770209Y-104423095D02*
X146865447Y-104470714D01*
X146865447Y-104470714D02*
X146913067Y-104518333D01*
X146913067Y-104518333D02*
X146960686Y-104613571D01*
X146960686Y-104613571D02*
X146960686Y-104851666D01*
X146960686Y-104851666D02*
X146913067Y-104946904D01*
X146913067Y-104946904D02*
X146865447Y-104994523D01*
X151290236Y-76995357D02*
X150814045Y-77328690D01*
X151290236Y-77566785D02*
X150290236Y-77566785D01*
X150290236Y-77566785D02*
X150290236Y-77185833D01*
X150290236Y-77185833D02*
X150337855Y-77090595D01*
X150337855Y-77090595D02*
X150385474Y-77042976D01*
X150385474Y-77042976D02*
X150480712Y-76995357D01*
X150480712Y-76995357D02*
X150623569Y-76995357D01*
X150623569Y-76995357D02*
X150718807Y-77042976D01*
X150718807Y-77042976D02*
X150766426Y-77090595D01*
X150766426Y-77090595D02*
X150814045Y-77185833D01*
X150814045Y-77185833D02*
X150814045Y-77566785D01*
X151290236Y-76042976D02*
X151290236Y-76614404D01*
X151290236Y-76328690D02*
X150290236Y-76328690D01*
X150290236Y-76328690D02*
X150433093Y-76423928D01*
X150433093Y-76423928D02*
X150528331Y-76519166D01*
X150528331Y-76519166D02*
X150575950Y-76614404D01*
X151290236Y-75090595D02*
X151290236Y-75662023D01*
X151290236Y-75376309D02*
X150290236Y-75376309D01*
X150290236Y-75376309D02*
X150433093Y-75471547D01*
X150433093Y-75471547D02*
X150528331Y-75566785D01*
X150528331Y-75566785D02*
X150575950Y-75662023D01*
D11*
X154510377Y-94057851D02*
X154510377Y-94867374D01*
X154510377Y-94867374D02*
X154557996Y-94962612D01*
X154557996Y-94962612D02*
X154605615Y-95010232D01*
X154605615Y-95010232D02*
X154700853Y-95057851D01*
X154700853Y-95057851D02*
X154891329Y-95057851D01*
X154891329Y-95057851D02*
X154986567Y-95010232D01*
X154986567Y-95010232D02*
X155034186Y-94962612D01*
X155034186Y-94962612D02*
X155081805Y-94867374D01*
X155081805Y-94867374D02*
X155081805Y-94057851D01*
X155986567Y-94391184D02*
X155986567Y-95057851D01*
X155748472Y-94010232D02*
X155510377Y-94724517D01*
X155510377Y-94724517D02*
X156129424Y-94724517D01*
D10*
X181090236Y-95436785D02*
X180090236Y-95436785D01*
X180090236Y-95436785D02*
X180090236Y-95198690D01*
X180090236Y-95198690D02*
X180137855Y-95055833D01*
X180137855Y-95055833D02*
X180233093Y-94960595D01*
X180233093Y-94960595D02*
X180328331Y-94912976D01*
X180328331Y-94912976D02*
X180518807Y-94865357D01*
X180518807Y-94865357D02*
X180661664Y-94865357D01*
X180661664Y-94865357D02*
X180852140Y-94912976D01*
X180852140Y-94912976D02*
X180947378Y-94960595D01*
X180947378Y-94960595D02*
X181042617Y-95055833D01*
X181042617Y-95055833D02*
X181090236Y-95198690D01*
X181090236Y-95198690D02*
X181090236Y-95436785D01*
X181090236Y-93912976D02*
X181090236Y-94484404D01*
X181090236Y-94198690D02*
X180090236Y-94198690D01*
X180090236Y-94198690D02*
X180233093Y-94293928D01*
X180233093Y-94293928D02*
X180328331Y-94389166D01*
X180328331Y-94389166D02*
X180375950Y-94484404D01*
X181090236Y-93436785D02*
X181090236Y-93246309D01*
X181090236Y-93246309D02*
X181042617Y-93151071D01*
X181042617Y-93151071D02*
X180994997Y-93103452D01*
X180994997Y-93103452D02*
X180852140Y-93008214D01*
X180852140Y-93008214D02*
X180661664Y-92960595D01*
X180661664Y-92960595D02*
X180280712Y-92960595D01*
X180280712Y-92960595D02*
X180185474Y-93008214D01*
X180185474Y-93008214D02*
X180137855Y-93055833D01*
X180137855Y-93055833D02*
X180090236Y-93151071D01*
X180090236Y-93151071D02*
X180090236Y-93341547D01*
X180090236Y-93341547D02*
X180137855Y-93436785D01*
X180137855Y-93436785D02*
X180185474Y-93484404D01*
X180185474Y-93484404D02*
X180280712Y-93532023D01*
X180280712Y-93532023D02*
X180518807Y-93532023D01*
X180518807Y-93532023D02*
X180614045Y-93484404D01*
X180614045Y-93484404D02*
X180661664Y-93436785D01*
X180661664Y-93436785D02*
X180709283Y-93341547D01*
X180709283Y-93341547D02*
X180709283Y-93151071D01*
X180709283Y-93151071D02*
X180661664Y-93055833D01*
X180661664Y-93055833D02*
X180614045Y-93008214D01*
X180614045Y-93008214D02*
X180518807Y-92960595D01*
X159685202Y-85136785D02*
X158685202Y-85136785D01*
X158685202Y-85136785D02*
X158685202Y-84898690D01*
X158685202Y-84898690D02*
X158732821Y-84755833D01*
X158732821Y-84755833D02*
X158828059Y-84660595D01*
X158828059Y-84660595D02*
X158923297Y-84612976D01*
X158923297Y-84612976D02*
X159113773Y-84565357D01*
X159113773Y-84565357D02*
X159256630Y-84565357D01*
X159256630Y-84565357D02*
X159447106Y-84612976D01*
X159447106Y-84612976D02*
X159542344Y-84660595D01*
X159542344Y-84660595D02*
X159637583Y-84755833D01*
X159637583Y-84755833D02*
X159685202Y-84898690D01*
X159685202Y-84898690D02*
X159685202Y-85136785D01*
X158780440Y-84184404D02*
X158732821Y-84136785D01*
X158732821Y-84136785D02*
X158685202Y-84041547D01*
X158685202Y-84041547D02*
X158685202Y-83803452D01*
X158685202Y-83803452D02*
X158732821Y-83708214D01*
X158732821Y-83708214D02*
X158780440Y-83660595D01*
X158780440Y-83660595D02*
X158875678Y-83612976D01*
X158875678Y-83612976D02*
X158970916Y-83612976D01*
X158970916Y-83612976D02*
X159113773Y-83660595D01*
X159113773Y-83660595D02*
X159685202Y-84232023D01*
X159685202Y-84232023D02*
X159685202Y-83612976D01*
X158780440Y-83232023D02*
X158732821Y-83184404D01*
X158732821Y-83184404D02*
X158685202Y-83089166D01*
X158685202Y-83089166D02*
X158685202Y-82851071D01*
X158685202Y-82851071D02*
X158732821Y-82755833D01*
X158732821Y-82755833D02*
X158780440Y-82708214D01*
X158780440Y-82708214D02*
X158875678Y-82660595D01*
X158875678Y-82660595D02*
X158970916Y-82660595D01*
X158970916Y-82660595D02*
X159113773Y-82708214D01*
X159113773Y-82708214D02*
X159685202Y-83279642D01*
X159685202Y-83279642D02*
X159685202Y-82660595D01*
X138375109Y-79476017D02*
X137668003Y-78768910D01*
X137668003Y-78768910D02*
X137836361Y-78600551D01*
X137836361Y-78600551D02*
X137971048Y-78533208D01*
X137971048Y-78533208D02*
X138105735Y-78533208D01*
X138105735Y-78533208D02*
X138206751Y-78566880D01*
X138206751Y-78566880D02*
X138375109Y-78667895D01*
X138375109Y-78667895D02*
X138476125Y-78768910D01*
X138476125Y-78768910D02*
X138577140Y-78937269D01*
X138577140Y-78937269D02*
X138610812Y-79038284D01*
X138610812Y-79038284D02*
X138610812Y-79172971D01*
X138610812Y-79172971D02*
X138543468Y-79307658D01*
X138543468Y-79307658D02*
X138375109Y-79476017D01*
X138711827Y-77725086D02*
X138375109Y-78061803D01*
X138375109Y-78061803D02*
X138678155Y-78432193D01*
X138678155Y-78432193D02*
X138678155Y-78364849D01*
X138678155Y-78364849D02*
X138711827Y-78263834D01*
X138711827Y-78263834D02*
X138880186Y-78095475D01*
X138880186Y-78095475D02*
X138981201Y-78061803D01*
X138981201Y-78061803D02*
X139048544Y-78061803D01*
X139048544Y-78061803D02*
X139149560Y-78095475D01*
X139149560Y-78095475D02*
X139317918Y-78263834D01*
X139317918Y-78263834D02*
X139351590Y-78364849D01*
X139351590Y-78364849D02*
X139351590Y-78432193D01*
X139351590Y-78432193D02*
X139317918Y-78533208D01*
X139317918Y-78533208D02*
X139149560Y-78701567D01*
X139149560Y-78701567D02*
X139048544Y-78735238D01*
X139048544Y-78735238D02*
X138981201Y-78735238D01*
X132252453Y-84058674D02*
X131680034Y-83957659D01*
X131848392Y-84462735D02*
X131141286Y-83755628D01*
X131141286Y-83755628D02*
X131410660Y-83486254D01*
X131410660Y-83486254D02*
X131511675Y-83452582D01*
X131511675Y-83452582D02*
X131579018Y-83452582D01*
X131579018Y-83452582D02*
X131680034Y-83486254D01*
X131680034Y-83486254D02*
X131781049Y-83587269D01*
X131781049Y-83587269D02*
X131814721Y-83688285D01*
X131814721Y-83688285D02*
X131814721Y-83755628D01*
X131814721Y-83755628D02*
X131781049Y-83856643D01*
X131781049Y-83856643D02*
X131511675Y-84126017D01*
X131882064Y-83149537D02*
X131882064Y-83082193D01*
X131882064Y-83082193D02*
X131915736Y-82981178D01*
X131915736Y-82981178D02*
X132084095Y-82812819D01*
X132084095Y-82812819D02*
X132185110Y-82779147D01*
X132185110Y-82779147D02*
X132252453Y-82779147D01*
X132252453Y-82779147D02*
X132353469Y-82812819D01*
X132353469Y-82812819D02*
X132420812Y-82880163D01*
X132420812Y-82880163D02*
X132488156Y-83014850D01*
X132488156Y-83014850D02*
X132488156Y-83822972D01*
X132488156Y-83822972D02*
X132925888Y-83385239D01*
X132858545Y-82038369D02*
X132521827Y-82375086D01*
X132521827Y-82375086D02*
X132824873Y-82745475D01*
X132824873Y-82745475D02*
X132824873Y-82678132D01*
X132824873Y-82678132D02*
X132858545Y-82577117D01*
X132858545Y-82577117D02*
X133026904Y-82408758D01*
X133026904Y-82408758D02*
X133127919Y-82375086D01*
X133127919Y-82375086D02*
X133195263Y-82375086D01*
X133195263Y-82375086D02*
X133296278Y-82408758D01*
X133296278Y-82408758D02*
X133464637Y-82577117D01*
X133464637Y-82577117D02*
X133498308Y-82678132D01*
X133498308Y-82678132D02*
X133498308Y-82745475D01*
X133498308Y-82745475D02*
X133464637Y-82846491D01*
X133464637Y-82846491D02*
X133296278Y-83014849D01*
X133296278Y-83014849D02*
X133195263Y-83048521D01*
X133195263Y-83048521D02*
X133127919Y-83048521D01*
X168265893Y-88684795D02*
X168265893Y-89332414D01*
X168265893Y-89332414D02*
X168303988Y-89408604D01*
X168303988Y-89408604D02*
X168342083Y-89446700D01*
X168342083Y-89446700D02*
X168418274Y-89484795D01*
X168418274Y-89484795D02*
X168570655Y-89484795D01*
X168570655Y-89484795D02*
X168646845Y-89446700D01*
X168646845Y-89446700D02*
X168684940Y-89408604D01*
X168684940Y-89408604D02*
X168723036Y-89332414D01*
X168723036Y-89332414D02*
X168723036Y-88684795D01*
X169484940Y-88684795D02*
X169103988Y-88684795D01*
X169103988Y-88684795D02*
X169065892Y-89065747D01*
X169065892Y-89065747D02*
X169103988Y-89027652D01*
X169103988Y-89027652D02*
X169180178Y-88989557D01*
X169180178Y-88989557D02*
X169370654Y-88989557D01*
X169370654Y-88989557D02*
X169446845Y-89027652D01*
X169446845Y-89027652D02*
X169484940Y-89065747D01*
X169484940Y-89065747D02*
X169523035Y-89141938D01*
X169523035Y-89141938D02*
X169523035Y-89332414D01*
X169523035Y-89332414D02*
X169484940Y-89408604D01*
X169484940Y-89408604D02*
X169446845Y-89446700D01*
X169446845Y-89446700D02*
X169370654Y-89484795D01*
X169370654Y-89484795D02*
X169180178Y-89484795D01*
X169180178Y-89484795D02*
X169103988Y-89446700D01*
X169103988Y-89446700D02*
X169065892Y-89408604D01*
X150430669Y-75230594D02*
X149430669Y-75230594D01*
X149430669Y-75230594D02*
X149430669Y-74992499D01*
X149430669Y-74992499D02*
X149478288Y-74849642D01*
X149478288Y-74849642D02*
X149573526Y-74754404D01*
X149573526Y-74754404D02*
X149668764Y-74706785D01*
X149668764Y-74706785D02*
X149859240Y-74659166D01*
X149859240Y-74659166D02*
X150002097Y-74659166D01*
X150002097Y-74659166D02*
X150192573Y-74706785D01*
X150192573Y-74706785D02*
X150287811Y-74754404D01*
X150287811Y-74754404D02*
X150383050Y-74849642D01*
X150383050Y-74849642D02*
X150430669Y-74992499D01*
X150430669Y-74992499D02*
X150430669Y-75230594D01*
X149764002Y-73802023D02*
X150430669Y-73802023D01*
X149383050Y-74040118D02*
X150097335Y-74278213D01*
X150097335Y-74278213D02*
X150097335Y-73659166D01*
X169758392Y-109602735D02*
X169051286Y-108895628D01*
X169051286Y-108895628D02*
X169219644Y-108727269D01*
X169219644Y-108727269D02*
X169354331Y-108659926D01*
X169354331Y-108659926D02*
X169489018Y-108659926D01*
X169489018Y-108659926D02*
X169590034Y-108693598D01*
X169590034Y-108693598D02*
X169758392Y-108794613D01*
X169758392Y-108794613D02*
X169859408Y-108895628D01*
X169859408Y-108895628D02*
X169960423Y-109063987D01*
X169960423Y-109063987D02*
X169994095Y-109165002D01*
X169994095Y-109165002D02*
X169994095Y-109299689D01*
X169994095Y-109299689D02*
X169926751Y-109434376D01*
X169926751Y-109434376D02*
X169758392Y-109602735D01*
X170835888Y-108525239D02*
X170431827Y-108929300D01*
X170633858Y-108727269D02*
X169926751Y-108020163D01*
X169926751Y-108020163D02*
X169960423Y-108188521D01*
X169960423Y-108188521D02*
X169960423Y-108323208D01*
X169960423Y-108323208D02*
X169926751Y-108424224D01*
X171509324Y-107851804D02*
X171105263Y-108255865D01*
X171307293Y-108053834D02*
X170600186Y-107346727D01*
X170600186Y-107346727D02*
X170633858Y-107515086D01*
X170633858Y-107515086D02*
X170633858Y-107649773D01*
X170633858Y-107649773D02*
X170600186Y-107750788D01*
X156381131Y-89217319D02*
X156381131Y-88217319D01*
X156381131Y-88217319D02*
X156619226Y-88217319D01*
X156619226Y-88217319D02*
X156762083Y-88264938D01*
X156762083Y-88264938D02*
X156857321Y-88360176D01*
X156857321Y-88360176D02*
X156904940Y-88455414D01*
X156904940Y-88455414D02*
X156952559Y-88645890D01*
X156952559Y-88645890D02*
X156952559Y-88788747D01*
X156952559Y-88788747D02*
X156904940Y-88979223D01*
X156904940Y-88979223D02*
X156857321Y-89074461D01*
X156857321Y-89074461D02*
X156762083Y-89169700D01*
X156762083Y-89169700D02*
X156619226Y-89217319D01*
X156619226Y-89217319D02*
X156381131Y-89217319D01*
X157333512Y-88312557D02*
X157381131Y-88264938D01*
X157381131Y-88264938D02*
X157476369Y-88217319D01*
X157476369Y-88217319D02*
X157714464Y-88217319D01*
X157714464Y-88217319D02*
X157809702Y-88264938D01*
X157809702Y-88264938D02*
X157857321Y-88312557D01*
X157857321Y-88312557D02*
X157904940Y-88407795D01*
X157904940Y-88407795D02*
X157904940Y-88503033D01*
X157904940Y-88503033D02*
X157857321Y-88645890D01*
X157857321Y-88645890D02*
X157285893Y-89217319D01*
X157285893Y-89217319D02*
X157904940Y-89217319D01*
X158523988Y-88217319D02*
X158619226Y-88217319D01*
X158619226Y-88217319D02*
X158714464Y-88264938D01*
X158714464Y-88264938D02*
X158762083Y-88312557D01*
X158762083Y-88312557D02*
X158809702Y-88407795D01*
X158809702Y-88407795D02*
X158857321Y-88598271D01*
X158857321Y-88598271D02*
X158857321Y-88836366D01*
X158857321Y-88836366D02*
X158809702Y-89026842D01*
X158809702Y-89026842D02*
X158762083Y-89122080D01*
X158762083Y-89122080D02*
X158714464Y-89169700D01*
X158714464Y-89169700D02*
X158619226Y-89217319D01*
X158619226Y-89217319D02*
X158523988Y-89217319D01*
X158523988Y-89217319D02*
X158428750Y-89169700D01*
X158428750Y-89169700D02*
X158381131Y-89122080D01*
X158381131Y-89122080D02*
X158333512Y-89026842D01*
X158333512Y-89026842D02*
X158285893Y-88836366D01*
X158285893Y-88836366D02*
X158285893Y-88598271D01*
X158285893Y-88598271D02*
X158333512Y-88407795D01*
X158333512Y-88407795D02*
X158381131Y-88312557D01*
X158381131Y-88312557D02*
X158428750Y-88264938D01*
X158428750Y-88264938D02*
X158523988Y-88217319D01*
X144457322Y-116497319D02*
X144457322Y-115497319D01*
X144457322Y-115497319D02*
X144695417Y-115497319D01*
X144695417Y-115497319D02*
X144838274Y-115544938D01*
X144838274Y-115544938D02*
X144933512Y-115640176D01*
X144933512Y-115640176D02*
X144981131Y-115735414D01*
X144981131Y-115735414D02*
X145028750Y-115925890D01*
X145028750Y-115925890D02*
X145028750Y-116068747D01*
X145028750Y-116068747D02*
X144981131Y-116259223D01*
X144981131Y-116259223D02*
X144933512Y-116354461D01*
X144933512Y-116354461D02*
X144838274Y-116449700D01*
X144838274Y-116449700D02*
X144695417Y-116497319D01*
X144695417Y-116497319D02*
X144457322Y-116497319D01*
X145504941Y-116497319D02*
X145695417Y-116497319D01*
X145695417Y-116497319D02*
X145790655Y-116449700D01*
X145790655Y-116449700D02*
X145838274Y-116402080D01*
X145838274Y-116402080D02*
X145933512Y-116259223D01*
X145933512Y-116259223D02*
X145981131Y-116068747D01*
X145981131Y-116068747D02*
X145981131Y-115687795D01*
X145981131Y-115687795D02*
X145933512Y-115592557D01*
X145933512Y-115592557D02*
X145885893Y-115544938D01*
X145885893Y-115544938D02*
X145790655Y-115497319D01*
X145790655Y-115497319D02*
X145600179Y-115497319D01*
X145600179Y-115497319D02*
X145504941Y-115544938D01*
X145504941Y-115544938D02*
X145457322Y-115592557D01*
X145457322Y-115592557D02*
X145409703Y-115687795D01*
X145409703Y-115687795D02*
X145409703Y-115925890D01*
X145409703Y-115925890D02*
X145457322Y-116021128D01*
X145457322Y-116021128D02*
X145504941Y-116068747D01*
X145504941Y-116068747D02*
X145600179Y-116116366D01*
X145600179Y-116116366D02*
X145790655Y-116116366D01*
X145790655Y-116116366D02*
X145885893Y-116068747D01*
X145885893Y-116068747D02*
X145933512Y-116021128D01*
X145933512Y-116021128D02*
X145981131Y-115925890D01*
X141941131Y-93357319D02*
X141941131Y-92357319D01*
X141941131Y-92357319D02*
X142179226Y-92357319D01*
X142179226Y-92357319D02*
X142322083Y-92404938D01*
X142322083Y-92404938D02*
X142417321Y-92500176D01*
X142417321Y-92500176D02*
X142464940Y-92595414D01*
X142464940Y-92595414D02*
X142512559Y-92785890D01*
X142512559Y-92785890D02*
X142512559Y-92928747D01*
X142512559Y-92928747D02*
X142464940Y-93119223D01*
X142464940Y-93119223D02*
X142417321Y-93214461D01*
X142417321Y-93214461D02*
X142322083Y-93309700D01*
X142322083Y-93309700D02*
X142179226Y-93357319D01*
X142179226Y-93357319D02*
X141941131Y-93357319D01*
X143464940Y-93357319D02*
X142893512Y-93357319D01*
X143179226Y-93357319D02*
X143179226Y-92357319D01*
X143179226Y-92357319D02*
X143083988Y-92500176D01*
X143083988Y-92500176D02*
X142988750Y-92595414D01*
X142988750Y-92595414D02*
X142893512Y-92643033D01*
X144322083Y-92357319D02*
X144131607Y-92357319D01*
X144131607Y-92357319D02*
X144036369Y-92404938D01*
X144036369Y-92404938D02*
X143988750Y-92452557D01*
X143988750Y-92452557D02*
X143893512Y-92595414D01*
X143893512Y-92595414D02*
X143845893Y-92785890D01*
X143845893Y-92785890D02*
X143845893Y-93166842D01*
X143845893Y-93166842D02*
X143893512Y-93262080D01*
X143893512Y-93262080D02*
X143941131Y-93309700D01*
X143941131Y-93309700D02*
X144036369Y-93357319D01*
X144036369Y-93357319D02*
X144226845Y-93357319D01*
X144226845Y-93357319D02*
X144322083Y-93309700D01*
X144322083Y-93309700D02*
X144369702Y-93262080D01*
X144369702Y-93262080D02*
X144417321Y-93166842D01*
X144417321Y-93166842D02*
X144417321Y-92928747D01*
X144417321Y-92928747D02*
X144369702Y-92833509D01*
X144369702Y-92833509D02*
X144322083Y-92785890D01*
X144322083Y-92785890D02*
X144226845Y-92738271D01*
X144226845Y-92738271D02*
X144036369Y-92738271D01*
X144036369Y-92738271D02*
X143941131Y-92785890D01*
X143941131Y-92785890D02*
X143893512Y-92833509D01*
X143893512Y-92833509D02*
X143845893Y-92928747D01*
X155914940Y-69417680D02*
X155914940Y-68703395D01*
X155914940Y-68703395D02*
X155962559Y-68560538D01*
X155962559Y-68560538D02*
X156057797Y-68465300D01*
X156057797Y-68465300D02*
X156200654Y-68417680D01*
X156200654Y-68417680D02*
X156295892Y-68417680D01*
X154914940Y-68417680D02*
X155486368Y-68417680D01*
X155200654Y-68417680D02*
X155200654Y-69417680D01*
X155200654Y-69417680D02*
X155295892Y-69274823D01*
X155295892Y-69274823D02*
X155391130Y-69179585D01*
X155391130Y-69179585D02*
X155486368Y-69131966D01*
X154295892Y-69417680D02*
X154200654Y-69417680D01*
X154200654Y-69417680D02*
X154105416Y-69370061D01*
X154105416Y-69370061D02*
X154057797Y-69322442D01*
X154057797Y-69322442D02*
X154010178Y-69227204D01*
X154010178Y-69227204D02*
X153962559Y-69036728D01*
X153962559Y-69036728D02*
X153962559Y-68798633D01*
X153962559Y-68798633D02*
X154010178Y-68608157D01*
X154010178Y-68608157D02*
X154057797Y-68512919D01*
X154057797Y-68512919D02*
X154105416Y-68465300D01*
X154105416Y-68465300D02*
X154200654Y-68417680D01*
X154200654Y-68417680D02*
X154295892Y-68417680D01*
X154295892Y-68417680D02*
X154391130Y-68465300D01*
X154391130Y-68465300D02*
X154438749Y-68512919D01*
X154438749Y-68512919D02*
X154486368Y-68608157D01*
X154486368Y-68608157D02*
X154533987Y-68798633D01*
X154533987Y-68798633D02*
X154533987Y-69036728D01*
X154533987Y-69036728D02*
X154486368Y-69227204D01*
X154486368Y-69227204D02*
X154438749Y-69322442D01*
X154438749Y-69322442D02*
X154391130Y-69370061D01*
X154391130Y-69370061D02*
X154295892Y-69417680D01*
X164050236Y-107156785D02*
X163050236Y-107156785D01*
X163050236Y-107156785D02*
X163050236Y-106918690D01*
X163050236Y-106918690D02*
X163097855Y-106775833D01*
X163097855Y-106775833D02*
X163193093Y-106680595D01*
X163193093Y-106680595D02*
X163288331Y-106632976D01*
X163288331Y-106632976D02*
X163478807Y-106585357D01*
X163478807Y-106585357D02*
X163621664Y-106585357D01*
X163621664Y-106585357D02*
X163812140Y-106632976D01*
X163812140Y-106632976D02*
X163907378Y-106680595D01*
X163907378Y-106680595D02*
X164002617Y-106775833D01*
X164002617Y-106775833D02*
X164050236Y-106918690D01*
X164050236Y-106918690D02*
X164050236Y-107156785D01*
X164050236Y-105632976D02*
X164050236Y-106204404D01*
X164050236Y-105918690D02*
X163050236Y-105918690D01*
X163050236Y-105918690D02*
X163193093Y-106013928D01*
X163193093Y-106013928D02*
X163288331Y-106109166D01*
X163288331Y-106109166D02*
X163335950Y-106204404D01*
X163383569Y-104775833D02*
X164050236Y-104775833D01*
X163002617Y-105013928D02*
X163716902Y-105252023D01*
X163716902Y-105252023D02*
X163716902Y-104632976D01*
X166530236Y-90025357D02*
X166054045Y-90358690D01*
X166530236Y-90596785D02*
X165530236Y-90596785D01*
X165530236Y-90596785D02*
X165530236Y-90215833D01*
X165530236Y-90215833D02*
X165577855Y-90120595D01*
X165577855Y-90120595D02*
X165625474Y-90072976D01*
X165625474Y-90072976D02*
X165720712Y-90025357D01*
X165720712Y-90025357D02*
X165863569Y-90025357D01*
X165863569Y-90025357D02*
X165958807Y-90072976D01*
X165958807Y-90072976D02*
X166006426Y-90120595D01*
X166006426Y-90120595D02*
X166054045Y-90215833D01*
X166054045Y-90215833D02*
X166054045Y-90596785D01*
X166530236Y-89072976D02*
X166530236Y-89644404D01*
X166530236Y-89358690D02*
X165530236Y-89358690D01*
X165530236Y-89358690D02*
X165673093Y-89453928D01*
X165673093Y-89453928D02*
X165768331Y-89549166D01*
X165768331Y-89549166D02*
X165815950Y-89644404D01*
X165863569Y-88215833D02*
X166530236Y-88215833D01*
X165482617Y-88453928D02*
X166196902Y-88692023D01*
X166196902Y-88692023D02*
X166196902Y-88072976D01*
X146565870Y-79185257D02*
X145993451Y-79084242D01*
X146161809Y-79589318D02*
X145454703Y-78882211D01*
X145454703Y-78882211D02*
X145724077Y-78612837D01*
X145724077Y-78612837D02*
X145825092Y-78579165D01*
X145825092Y-78579165D02*
X145892435Y-78579165D01*
X145892435Y-78579165D02*
X145993451Y-78612837D01*
X145993451Y-78612837D02*
X146094466Y-78713852D01*
X146094466Y-78713852D02*
X146128138Y-78814868D01*
X146128138Y-78814868D02*
X146128138Y-78882211D01*
X146128138Y-78882211D02*
X146094466Y-78983226D01*
X146094466Y-78983226D02*
X145825092Y-79252600D01*
X146195481Y-78276120D02*
X146195481Y-78208776D01*
X146195481Y-78208776D02*
X146229153Y-78107761D01*
X146229153Y-78107761D02*
X146397512Y-77939402D01*
X146397512Y-77939402D02*
X146498527Y-77905730D01*
X146498527Y-77905730D02*
X146565870Y-77905730D01*
X146565870Y-77905730D02*
X146666886Y-77939402D01*
X146666886Y-77939402D02*
X146734229Y-78006746D01*
X146734229Y-78006746D02*
X146801573Y-78141433D01*
X146801573Y-78141433D02*
X146801573Y-78949555D01*
X146801573Y-78949555D02*
X147239305Y-78511822D01*
X146868916Y-77602684D02*
X146868916Y-77535341D01*
X146868916Y-77535341D02*
X146902588Y-77434326D01*
X146902588Y-77434326D02*
X147070947Y-77265967D01*
X147070947Y-77265967D02*
X147171962Y-77232295D01*
X147171962Y-77232295D02*
X147239306Y-77232295D01*
X147239306Y-77232295D02*
X147340321Y-77265967D01*
X147340321Y-77265967D02*
X147407664Y-77333310D01*
X147407664Y-77333310D02*
X147475008Y-77467997D01*
X147475008Y-77467997D02*
X147475008Y-78276119D01*
X147475008Y-78276119D02*
X147912741Y-77838387D01*
X131831899Y-100772193D02*
X132539006Y-100065087D01*
X132539006Y-100065087D02*
X132707365Y-100233445D01*
X132707365Y-100233445D02*
X132774708Y-100368132D01*
X132774708Y-100368132D02*
X132774708Y-100502819D01*
X132774708Y-100502819D02*
X132741036Y-100603835D01*
X132741036Y-100603835D02*
X132640021Y-100772193D01*
X132640021Y-100772193D02*
X132539006Y-100873209D01*
X132539006Y-100873209D02*
X132370647Y-100974224D01*
X132370647Y-100974224D02*
X132269632Y-101007896D01*
X132269632Y-101007896D02*
X132134945Y-101007896D01*
X132134945Y-101007896D02*
X132000258Y-100940552D01*
X132000258Y-100940552D02*
X131831899Y-100772193D01*
X133178769Y-100704850D02*
X133650174Y-101176254D01*
X133650174Y-101176254D02*
X132640021Y-101580315D01*
X179750236Y-98389166D02*
X179274045Y-98722499D01*
X179750236Y-98960594D02*
X178750236Y-98960594D01*
X178750236Y-98960594D02*
X178750236Y-98579642D01*
X178750236Y-98579642D02*
X178797855Y-98484404D01*
X178797855Y-98484404D02*
X178845474Y-98436785D01*
X178845474Y-98436785D02*
X178940712Y-98389166D01*
X178940712Y-98389166D02*
X179083569Y-98389166D01*
X179083569Y-98389166D02*
X179178807Y-98436785D01*
X179178807Y-98436785D02*
X179226426Y-98484404D01*
X179226426Y-98484404D02*
X179274045Y-98579642D01*
X179274045Y-98579642D02*
X179274045Y-98960594D01*
X179083569Y-97532023D02*
X179750236Y-97532023D01*
X178702617Y-97770118D02*
X179416902Y-98008213D01*
X179416902Y-98008213D02*
X179416902Y-97389166D01*
X143152559Y-90762080D02*
X143104940Y-90809700D01*
X143104940Y-90809700D02*
X142962083Y-90857319D01*
X142962083Y-90857319D02*
X142866845Y-90857319D01*
X142866845Y-90857319D02*
X142723988Y-90809700D01*
X142723988Y-90809700D02*
X142628750Y-90714461D01*
X142628750Y-90714461D02*
X142581131Y-90619223D01*
X142581131Y-90619223D02*
X142533512Y-90428747D01*
X142533512Y-90428747D02*
X142533512Y-90285890D01*
X142533512Y-90285890D02*
X142581131Y-90095414D01*
X142581131Y-90095414D02*
X142628750Y-90000176D01*
X142628750Y-90000176D02*
X142723988Y-89904938D01*
X142723988Y-89904938D02*
X142866845Y-89857319D01*
X142866845Y-89857319D02*
X142962083Y-89857319D01*
X142962083Y-89857319D02*
X143104940Y-89904938D01*
X143104940Y-89904938D02*
X143152559Y-89952557D01*
X143533512Y-89952557D02*
X143581131Y-89904938D01*
X143581131Y-89904938D02*
X143676369Y-89857319D01*
X143676369Y-89857319D02*
X143914464Y-89857319D01*
X143914464Y-89857319D02*
X144009702Y-89904938D01*
X144009702Y-89904938D02*
X144057321Y-89952557D01*
X144057321Y-89952557D02*
X144104940Y-90047795D01*
X144104940Y-90047795D02*
X144104940Y-90143033D01*
X144104940Y-90143033D02*
X144057321Y-90285890D01*
X144057321Y-90285890D02*
X143485893Y-90857319D01*
X143485893Y-90857319D02*
X144104940Y-90857319D01*
X144581131Y-90857319D02*
X144771607Y-90857319D01*
X144771607Y-90857319D02*
X144866845Y-90809700D01*
X144866845Y-90809700D02*
X144914464Y-90762080D01*
X144914464Y-90762080D02*
X145009702Y-90619223D01*
X145009702Y-90619223D02*
X145057321Y-90428747D01*
X145057321Y-90428747D02*
X145057321Y-90047795D01*
X145057321Y-90047795D02*
X145009702Y-89952557D01*
X145009702Y-89952557D02*
X144962083Y-89904938D01*
X144962083Y-89904938D02*
X144866845Y-89857319D01*
X144866845Y-89857319D02*
X144676369Y-89857319D01*
X144676369Y-89857319D02*
X144581131Y-89904938D01*
X144581131Y-89904938D02*
X144533512Y-89952557D01*
X144533512Y-89952557D02*
X144485893Y-90047795D01*
X144485893Y-90047795D02*
X144485893Y-90285890D01*
X144485893Y-90285890D02*
X144533512Y-90381128D01*
X144533512Y-90381128D02*
X144581131Y-90428747D01*
X144581131Y-90428747D02*
X144676369Y-90476366D01*
X144676369Y-90476366D02*
X144866845Y-90476366D01*
X144866845Y-90476366D02*
X144962083Y-90428747D01*
X144962083Y-90428747D02*
X145009702Y-90381128D01*
X145009702Y-90381128D02*
X145057321Y-90285890D01*
X156958750Y-75997319D02*
X156625417Y-75521128D01*
X156387322Y-75997319D02*
X156387322Y-74997319D01*
X156387322Y-74997319D02*
X156768274Y-74997319D01*
X156768274Y-74997319D02*
X156863512Y-75044938D01*
X156863512Y-75044938D02*
X156911131Y-75092557D01*
X156911131Y-75092557D02*
X156958750Y-75187795D01*
X156958750Y-75187795D02*
X156958750Y-75330652D01*
X156958750Y-75330652D02*
X156911131Y-75425890D01*
X156911131Y-75425890D02*
X156863512Y-75473509D01*
X156863512Y-75473509D02*
X156768274Y-75521128D01*
X156768274Y-75521128D02*
X156387322Y-75521128D01*
X157911131Y-75997319D02*
X157339703Y-75997319D01*
X157625417Y-75997319D02*
X157625417Y-74997319D01*
X157625417Y-74997319D02*
X157530179Y-75140176D01*
X157530179Y-75140176D02*
X157434941Y-75235414D01*
X157434941Y-75235414D02*
X157339703Y-75283033D01*
X147417797Y-97300776D02*
X147417797Y-97818871D01*
X147417797Y-97818871D02*
X147448274Y-97879823D01*
X147448274Y-97879823D02*
X147478750Y-97910300D01*
X147478750Y-97910300D02*
X147539702Y-97940776D01*
X147539702Y-97940776D02*
X147661607Y-97940776D01*
X147661607Y-97940776D02*
X147722559Y-97910300D01*
X147722559Y-97910300D02*
X147753036Y-97879823D01*
X147753036Y-97879823D02*
X147783512Y-97818871D01*
X147783512Y-97818871D02*
X147783512Y-97300776D01*
X148057797Y-97361728D02*
X148088273Y-97331252D01*
X148088273Y-97331252D02*
X148149226Y-97300776D01*
X148149226Y-97300776D02*
X148301607Y-97300776D01*
X148301607Y-97300776D02*
X148362559Y-97331252D01*
X148362559Y-97331252D02*
X148393035Y-97361728D01*
X148393035Y-97361728D02*
X148423512Y-97422680D01*
X148423512Y-97422680D02*
X148423512Y-97483633D01*
X148423512Y-97483633D02*
X148393035Y-97575061D01*
X148393035Y-97575061D02*
X148027321Y-97940776D01*
X148027321Y-97940776D02*
X148423512Y-97940776D01*
X171831899Y-78542192D02*
X172539006Y-77835086D01*
X172539006Y-77835086D02*
X172707365Y-78003444D01*
X172707365Y-78003444D02*
X172774708Y-78138131D01*
X172774708Y-78138131D02*
X172774708Y-78272818D01*
X172774708Y-78272818D02*
X172741036Y-78373834D01*
X172741036Y-78373834D02*
X172640021Y-78542192D01*
X172640021Y-78542192D02*
X172539006Y-78643208D01*
X172539006Y-78643208D02*
X172370647Y-78744223D01*
X172370647Y-78744223D02*
X172269632Y-78777895D01*
X172269632Y-78777895D02*
X172134945Y-78777895D01*
X172134945Y-78777895D02*
X172000258Y-78710551D01*
X172000258Y-78710551D02*
X171831899Y-78542192D01*
X173145097Y-78575864D02*
X173212441Y-78575864D01*
X173212441Y-78575864D02*
X173313456Y-78609536D01*
X173313456Y-78609536D02*
X173481815Y-78777895D01*
X173481815Y-78777895D02*
X173515487Y-78878910D01*
X173515487Y-78878910D02*
X173515487Y-78946253D01*
X173515487Y-78946253D02*
X173481815Y-79047269D01*
X173481815Y-79047269D02*
X173414471Y-79114612D01*
X173414471Y-79114612D02*
X173279784Y-79181956D01*
X173279784Y-79181956D02*
X172471662Y-79181956D01*
X172471662Y-79181956D02*
X172909395Y-79619688D01*
X177325110Y-86231330D02*
X177325110Y-86298674D01*
X177325110Y-86298674D02*
X177257766Y-86433361D01*
X177257766Y-86433361D02*
X177190423Y-86500704D01*
X177190423Y-86500704D02*
X177055736Y-86568048D01*
X177055736Y-86568048D02*
X176921049Y-86568048D01*
X176921049Y-86568048D02*
X176820034Y-86534376D01*
X176820034Y-86534376D02*
X176651675Y-86433361D01*
X176651675Y-86433361D02*
X176550660Y-86332346D01*
X176550660Y-86332346D02*
X176449644Y-86163987D01*
X176449644Y-86163987D02*
X176415973Y-86062972D01*
X176415973Y-86062972D02*
X176415973Y-85928285D01*
X176415973Y-85928285D02*
X176483316Y-85793598D01*
X176483316Y-85793598D02*
X176550660Y-85726254D01*
X176550660Y-85726254D02*
X176685347Y-85658911D01*
X176685347Y-85658911D02*
X176752690Y-85658911D01*
X177022064Y-85389537D02*
X177022064Y-85322193D01*
X177022064Y-85322193D02*
X177055736Y-85221178D01*
X177055736Y-85221178D02*
X177224095Y-85052819D01*
X177224095Y-85052819D02*
X177325110Y-85019147D01*
X177325110Y-85019147D02*
X177392453Y-85019147D01*
X177392453Y-85019147D02*
X177493469Y-85052819D01*
X177493469Y-85052819D02*
X177560812Y-85120163D01*
X177560812Y-85120163D02*
X177628156Y-85254850D01*
X177628156Y-85254850D02*
X177628156Y-86062972D01*
X177628156Y-86062972D02*
X178065888Y-85625239D01*
X177695499Y-84716101D02*
X177695499Y-84648758D01*
X177695499Y-84648758D02*
X177729171Y-84547743D01*
X177729171Y-84547743D02*
X177897530Y-84379384D01*
X177897530Y-84379384D02*
X177998545Y-84345712D01*
X177998545Y-84345712D02*
X178065889Y-84345712D01*
X178065889Y-84345712D02*
X178166904Y-84379384D01*
X178166904Y-84379384D02*
X178234247Y-84446727D01*
X178234247Y-84446727D02*
X178301591Y-84581414D01*
X178301591Y-84581414D02*
X178301591Y-85389536D01*
X178301591Y-85389536D02*
X178739324Y-84951804D01*
X131790236Y-90925357D02*
X131314045Y-91258690D01*
X131790236Y-91496785D02*
X130790236Y-91496785D01*
X130790236Y-91496785D02*
X130790236Y-91115833D01*
X130790236Y-91115833D02*
X130837855Y-91020595D01*
X130837855Y-91020595D02*
X130885474Y-90972976D01*
X130885474Y-90972976D02*
X130980712Y-90925357D01*
X130980712Y-90925357D02*
X131123569Y-90925357D01*
X131123569Y-90925357D02*
X131218807Y-90972976D01*
X131218807Y-90972976D02*
X131266426Y-91020595D01*
X131266426Y-91020595D02*
X131314045Y-91115833D01*
X131314045Y-91115833D02*
X131314045Y-91496785D01*
X130885474Y-90544404D02*
X130837855Y-90496785D01*
X130837855Y-90496785D02*
X130790236Y-90401547D01*
X130790236Y-90401547D02*
X130790236Y-90163452D01*
X130790236Y-90163452D02*
X130837855Y-90068214D01*
X130837855Y-90068214D02*
X130885474Y-90020595D01*
X130885474Y-90020595D02*
X130980712Y-89972976D01*
X130980712Y-89972976D02*
X131075950Y-89972976D01*
X131075950Y-89972976D02*
X131218807Y-90020595D01*
X131218807Y-90020595D02*
X131790236Y-90592023D01*
X131790236Y-90592023D02*
X131790236Y-89972976D01*
X131123569Y-89115833D02*
X131790236Y-89115833D01*
X130742617Y-89353928D02*
X131456902Y-89592023D01*
X131456902Y-89592023D02*
X131456902Y-88972976D01*
X142761828Y-75954612D02*
X142761828Y-76021956D01*
X142761828Y-76021956D02*
X142694484Y-76156643D01*
X142694484Y-76156643D02*
X142627141Y-76223986D01*
X142627141Y-76223986D02*
X142492454Y-76291330D01*
X142492454Y-76291330D02*
X142357767Y-76291330D01*
X142357767Y-76291330D02*
X142256752Y-76257658D01*
X142256752Y-76257658D02*
X142088393Y-76156643D01*
X142088393Y-76156643D02*
X141987378Y-76055628D01*
X141987378Y-76055628D02*
X141886362Y-75887269D01*
X141886362Y-75887269D02*
X141852691Y-75786254D01*
X141852691Y-75786254D02*
X141852691Y-75651567D01*
X141852691Y-75651567D02*
X141920034Y-75516880D01*
X141920034Y-75516880D02*
X141987378Y-75449536D01*
X141987378Y-75449536D02*
X142122065Y-75382193D01*
X142122065Y-75382193D02*
X142189408Y-75382193D01*
X143502606Y-75348521D02*
X143098545Y-75752582D01*
X143300576Y-75550551D02*
X142593469Y-74843445D01*
X142593469Y-74843445D02*
X142627141Y-75011803D01*
X142627141Y-75011803D02*
X142627141Y-75146490D01*
X142627141Y-75146490D02*
X142593469Y-75247506D01*
X141513512Y-86387319D02*
X141513512Y-87196842D01*
X141513512Y-87196842D02*
X141561131Y-87292080D01*
X141561131Y-87292080D02*
X141608750Y-87339700D01*
X141608750Y-87339700D02*
X141703988Y-87387319D01*
X141703988Y-87387319D02*
X141894464Y-87387319D01*
X141894464Y-87387319D02*
X141989702Y-87339700D01*
X141989702Y-87339700D02*
X142037321Y-87292080D01*
X142037321Y-87292080D02*
X142084940Y-87196842D01*
X142084940Y-87196842D02*
X142084940Y-86387319D01*
X142465893Y-86387319D02*
X143132559Y-86387319D01*
X143132559Y-86387319D02*
X142703988Y-87387319D01*
X161180178Y-91832557D02*
X161084940Y-91784938D01*
X161084940Y-91784938D02*
X160989702Y-91689700D01*
X160989702Y-91689700D02*
X160846845Y-91546842D01*
X160846845Y-91546842D02*
X160751607Y-91499223D01*
X160751607Y-91499223D02*
X160656369Y-91499223D01*
X160703988Y-91737319D02*
X160608750Y-91689700D01*
X160608750Y-91689700D02*
X160513512Y-91594461D01*
X160513512Y-91594461D02*
X160465893Y-91403985D01*
X160465893Y-91403985D02*
X160465893Y-91070652D01*
X160465893Y-91070652D02*
X160513512Y-90880176D01*
X160513512Y-90880176D02*
X160608750Y-90784938D01*
X160608750Y-90784938D02*
X160703988Y-90737319D01*
X160703988Y-90737319D02*
X160894464Y-90737319D01*
X160894464Y-90737319D02*
X160989702Y-90784938D01*
X160989702Y-90784938D02*
X161084940Y-90880176D01*
X161084940Y-90880176D02*
X161132559Y-91070652D01*
X161132559Y-91070652D02*
X161132559Y-91403985D01*
X161132559Y-91403985D02*
X161084940Y-91594461D01*
X161084940Y-91594461D02*
X160989702Y-91689700D01*
X160989702Y-91689700D02*
X160894464Y-91737319D01*
X160894464Y-91737319D02*
X160703988Y-91737319D01*
X162084940Y-91737319D02*
X161513512Y-91737319D01*
X161799226Y-91737319D02*
X161799226Y-90737319D01*
X161799226Y-90737319D02*
X161703988Y-90880176D01*
X161703988Y-90880176D02*
X161608750Y-90975414D01*
X161608750Y-90975414D02*
X161513512Y-91023033D01*
X142644997Y-81946118D02*
X142692617Y-81993737D01*
X142692617Y-81993737D02*
X142740236Y-82136594D01*
X142740236Y-82136594D02*
X142740236Y-82231832D01*
X142740236Y-82231832D02*
X142692617Y-82374689D01*
X142692617Y-82374689D02*
X142597378Y-82469927D01*
X142597378Y-82469927D02*
X142502140Y-82517546D01*
X142502140Y-82517546D02*
X142311664Y-82565165D01*
X142311664Y-82565165D02*
X142168807Y-82565165D01*
X142168807Y-82565165D02*
X141978331Y-82517546D01*
X141978331Y-82517546D02*
X141883093Y-82469927D01*
X141883093Y-82469927D02*
X141787855Y-82374689D01*
X141787855Y-82374689D02*
X141740236Y-82231832D01*
X141740236Y-82231832D02*
X141740236Y-82136594D01*
X141740236Y-82136594D02*
X141787855Y-81993737D01*
X141787855Y-81993737D02*
X141835474Y-81946118D01*
X141835474Y-81565165D02*
X141787855Y-81517546D01*
X141787855Y-81517546D02*
X141740236Y-81422308D01*
X141740236Y-81422308D02*
X141740236Y-81184213D01*
X141740236Y-81184213D02*
X141787855Y-81088975D01*
X141787855Y-81088975D02*
X141835474Y-81041356D01*
X141835474Y-81041356D02*
X141930712Y-80993737D01*
X141930712Y-80993737D02*
X142025950Y-80993737D01*
X142025950Y-80993737D02*
X142168807Y-81041356D01*
X142168807Y-81041356D02*
X142740236Y-81612784D01*
X142740236Y-81612784D02*
X142740236Y-80993737D01*
X141740236Y-80088975D02*
X141740236Y-80565165D01*
X141740236Y-80565165D02*
X142216426Y-80612784D01*
X142216426Y-80612784D02*
X142168807Y-80565165D01*
X142168807Y-80565165D02*
X142121188Y-80469927D01*
X142121188Y-80469927D02*
X142121188Y-80231832D01*
X142121188Y-80231832D02*
X142168807Y-80136594D01*
X142168807Y-80136594D02*
X142216426Y-80088975D01*
X142216426Y-80088975D02*
X142311664Y-80041356D01*
X142311664Y-80041356D02*
X142549759Y-80041356D01*
X142549759Y-80041356D02*
X142644997Y-80088975D01*
X142644997Y-80088975D02*
X142692617Y-80136594D01*
X142692617Y-80136594D02*
X142740236Y-80231832D01*
X142740236Y-80231832D02*
X142740236Y-80469927D01*
X142740236Y-80469927D02*
X142692617Y-80565165D01*
X142692617Y-80565165D02*
X142644997Y-80612784D01*
X137890236Y-92995357D02*
X137414045Y-93328690D01*
X137890236Y-93566785D02*
X136890236Y-93566785D01*
X136890236Y-93566785D02*
X136890236Y-93185833D01*
X136890236Y-93185833D02*
X136937855Y-93090595D01*
X136937855Y-93090595D02*
X136985474Y-93042976D01*
X136985474Y-93042976D02*
X137080712Y-92995357D01*
X137080712Y-92995357D02*
X137223569Y-92995357D01*
X137223569Y-92995357D02*
X137318807Y-93042976D01*
X137318807Y-93042976D02*
X137366426Y-93090595D01*
X137366426Y-93090595D02*
X137414045Y-93185833D01*
X137414045Y-93185833D02*
X137414045Y-93566785D01*
X137890236Y-92042976D02*
X137890236Y-92614404D01*
X137890236Y-92328690D02*
X136890236Y-92328690D01*
X136890236Y-92328690D02*
X137033093Y-92423928D01*
X137033093Y-92423928D02*
X137128331Y-92519166D01*
X137128331Y-92519166D02*
X137175950Y-92614404D01*
X137890236Y-91566785D02*
X137890236Y-91376309D01*
X137890236Y-91376309D02*
X137842617Y-91281071D01*
X137842617Y-91281071D02*
X137794997Y-91233452D01*
X137794997Y-91233452D02*
X137652140Y-91138214D01*
X137652140Y-91138214D02*
X137461664Y-91090595D01*
X137461664Y-91090595D02*
X137080712Y-91090595D01*
X137080712Y-91090595D02*
X136985474Y-91138214D01*
X136985474Y-91138214D02*
X136937855Y-91185833D01*
X136937855Y-91185833D02*
X136890236Y-91281071D01*
X136890236Y-91281071D02*
X136890236Y-91471547D01*
X136890236Y-91471547D02*
X136937855Y-91566785D01*
X136937855Y-91566785D02*
X136985474Y-91614404D01*
X136985474Y-91614404D02*
X137080712Y-91662023D01*
X137080712Y-91662023D02*
X137318807Y-91662023D01*
X137318807Y-91662023D02*
X137414045Y-91614404D01*
X137414045Y-91614404D02*
X137461664Y-91566785D01*
X137461664Y-91566785D02*
X137509283Y-91471547D01*
X137509283Y-91471547D02*
X137509283Y-91281071D01*
X137509283Y-91281071D02*
X137461664Y-91185833D01*
X137461664Y-91185833D02*
X137414045Y-91138214D01*
X137414045Y-91138214D02*
X137318807Y-91090595D01*
X163662559Y-85627319D02*
X163329226Y-85151128D01*
X163091131Y-85627319D02*
X163091131Y-84627319D01*
X163091131Y-84627319D02*
X163472083Y-84627319D01*
X163472083Y-84627319D02*
X163567321Y-84674938D01*
X163567321Y-84674938D02*
X163614940Y-84722557D01*
X163614940Y-84722557D02*
X163662559Y-84817795D01*
X163662559Y-84817795D02*
X163662559Y-84960652D01*
X163662559Y-84960652D02*
X163614940Y-85055890D01*
X163614940Y-85055890D02*
X163567321Y-85103509D01*
X163567321Y-85103509D02*
X163472083Y-85151128D01*
X163472083Y-85151128D02*
X163091131Y-85151128D01*
X164614940Y-85627319D02*
X164043512Y-85627319D01*
X164329226Y-85627319D02*
X164329226Y-84627319D01*
X164329226Y-84627319D02*
X164233988Y-84770176D01*
X164233988Y-84770176D02*
X164138750Y-84865414D01*
X164138750Y-84865414D02*
X164043512Y-84913033D01*
X164995893Y-84722557D02*
X165043512Y-84674938D01*
X165043512Y-84674938D02*
X165138750Y-84627319D01*
X165138750Y-84627319D02*
X165376845Y-84627319D01*
X165376845Y-84627319D02*
X165472083Y-84674938D01*
X165472083Y-84674938D02*
X165519702Y-84722557D01*
X165519702Y-84722557D02*
X165567321Y-84817795D01*
X165567321Y-84817795D02*
X165567321Y-84913033D01*
X165567321Y-84913033D02*
X165519702Y-85055890D01*
X165519702Y-85055890D02*
X164948274Y-85627319D01*
X164948274Y-85627319D02*
X165567321Y-85627319D01*
%TO.C,C27*%
D12*
X130915417Y-92874662D02*
X130915421Y-93090334D01*
X131635413Y-92874666D02*
X131635417Y-93090338D01*
%TO.C,R18*%
X141985418Y-83658859D02*
X141985417Y-83966140D01*
X142745417Y-83658860D02*
X142745416Y-83966141D01*
%TO.C,R23*%
X162165417Y-94546140D02*
X162165418Y-94238859D01*
X162925416Y-94546141D02*
X162925417Y-94238860D01*
%TO.C,U6*%
X152555417Y-76602500D02*
X157645417Y-76602500D01*
X152555417Y-76942500D02*
X152555417Y-76602500D01*
X152555417Y-79262500D02*
X152555417Y-79612500D01*
X152555417Y-79612500D02*
X155155417Y-79612500D01*
X153055417Y-76602500D02*
G75*
G02*
X157255334Y-76600764I2100000J-100000D01*
G01*
%TO.C,J4*%
X171509342Y-107961742D02*
X172782141Y-106688950D01*
X172534650Y-108987045D02*
X171509342Y-107961742D01*
X172782141Y-106688950D02*
X172082102Y-105988908D01*
X175426721Y-110083060D02*
X178735975Y-106773801D01*
X176614660Y-102856430D02*
X175341864Y-104129221D01*
X177639963Y-103881732D02*
X176614660Y-102856430D01*
%TO.C,R13*%
X163385417Y-87986139D02*
X163385417Y-87678857D01*
X164145417Y-87986139D02*
X164145417Y-87678857D01*
%TO.C,J7*%
X138456800Y-103295743D02*
X140882178Y-105721118D01*
X139552816Y-100403675D02*
X140578121Y-99378372D01*
X140578121Y-99378372D02*
X141850912Y-100651162D01*
X141850912Y-100651162D02*
X142550951Y-99951126D01*
X143774244Y-104625103D02*
X144799549Y-103599800D01*
X144799549Y-103599800D02*
X143526757Y-102327007D01*
%TO.C,R20*%
X133815419Y-93918861D02*
X133815419Y-94226139D01*
X134575415Y-93918861D02*
X134575415Y-94226139D01*
%TO.C,D21*%
D13*
X148390000Y-84346500D02*
X148390000Y-85313500D01*
X149029000Y-84829500D02*
X149329000Y-84529999D01*
X149329000Y-84529999D02*
X149628500Y-84829499D01*
X149628500Y-84829499D02*
X149029000Y-84829500D01*
X150390000Y-84346500D02*
X150390000Y-85313500D01*
%TO.C,R26*%
D12*
X169318076Y-82202440D02*
X169535357Y-81985159D01*
X169855477Y-82739841D02*
X170072758Y-82522560D01*
%TO.C,R27*%
X178611776Y-91782500D02*
X178919058Y-91782500D01*
X178611776Y-92542500D02*
X178919058Y-92542500D01*
%TO.C,R3*%
X175435417Y-92498859D02*
X175435417Y-92806141D01*
X176195417Y-92498859D02*
X176195417Y-92806141D01*
%TO.C,D3*%
D13*
X161240000Y-74036500D02*
X161240000Y-75003500D01*
X161879000Y-74519500D02*
X162179000Y-74220000D01*
X162179000Y-74220000D02*
X162478500Y-74519500D01*
X162478500Y-74519500D02*
X161879000Y-74519500D01*
X163240000Y-74036500D02*
X163240000Y-75003500D01*
%TO.C,C26*%
D12*
X137490417Y-88231248D02*
X137490417Y-88753752D01*
X138960417Y-88231248D02*
X138960417Y-88753752D01*
%TO.C,D17*%
X138505417Y-83022500D02*
X139505416Y-83022501D01*
X138505417Y-84542500D02*
X138505417Y-83022500D01*
X138555417Y-84542499D02*
X138505417Y-84542500D01*
X140455417Y-84542500D02*
X139675417Y-84542500D01*
X140625417Y-83022500D02*
X141625417Y-83022500D01*
X141625417Y-83022500D02*
X141625417Y-84542500D01*
X141625417Y-84542500D02*
X141575415Y-84542500D01*
X140015417Y-85322500D02*
X139685417Y-85082500D01*
X140015417Y-84842501D01*
X140015417Y-85322500D01*
G36*
X140015417Y-85322500D02*
G01*
X139685417Y-85082500D01*
X140015417Y-84842501D01*
X140015417Y-85322500D01*
G37*
%TO.C,D10*%
D13*
X162085500Y-115843000D02*
X162385000Y-116143000D01*
X162085500Y-116442500D02*
X162085500Y-115843000D01*
X162385000Y-116143000D02*
X162085500Y-116442500D01*
X162568500Y-115204000D02*
X161601500Y-115204000D01*
X162568500Y-117204000D02*
X161601500Y-117204000D01*
%TO.C,C28*%
D12*
X136295387Y-98933718D02*
X136494199Y-99132530D01*
X137016635Y-98212470D02*
X137215447Y-98411282D01*
%TO.C,D12*%
D13*
X174785417Y-100169000D02*
X174785417Y-101136000D01*
X175424417Y-100652000D02*
X175724417Y-100352499D01*
X175724417Y-100352499D02*
X176023917Y-100651999D01*
X176023917Y-100651999D02*
X175424417Y-100652000D01*
X176785417Y-100169000D02*
X176785417Y-101136000D01*
%TO.C,D1*%
X174830000Y-89396500D02*
X174830000Y-90363500D01*
X175469000Y-89879500D02*
X175769000Y-89580000D01*
X175769000Y-89580000D02*
X176068500Y-89879500D01*
X176068500Y-89879500D02*
X175469000Y-89879500D01*
X176830000Y-89396500D02*
X176830000Y-90363500D01*
%TO.C,R2*%
D12*
X153191776Y-74002500D02*
X153499058Y-74002500D01*
X153191776Y-74762500D02*
X153499058Y-74762500D01*
%TO.C,C23*%
X175855753Y-93840000D02*
X175640081Y-93840000D01*
X175855753Y-94560000D02*
X175640081Y-94560000D01*
%TO.C,D18*%
X144042820Y-100541984D02*
X142161914Y-98661077D01*
X144042820Y-100541984D02*
X145244901Y-99339900D01*
X145244901Y-99339900D02*
X143363996Y-97458999D01*
%TO.C,D6*%
D13*
X133710000Y-90393500D02*
X133710000Y-89426500D01*
X134471500Y-89910501D02*
X135071000Y-89910500D01*
X134771000Y-90210001D02*
X134471500Y-89910501D01*
X135071000Y-89910500D02*
X134771000Y-90210001D01*
X135710000Y-90393500D02*
X135710000Y-89426500D01*
%TO.C,D8*%
X139169613Y-111852076D02*
X138485841Y-111168304D01*
X139366543Y-110972082D02*
X139790453Y-110548171D01*
X139790100Y-110972082D02*
X139366543Y-110972082D01*
X139790453Y-110548171D02*
X139790100Y-110972082D01*
X140583827Y-110437862D02*
X139900055Y-109754090D01*
%TO.C,D13*%
X165736500Y-94312500D02*
X166703500Y-94312500D01*
X165736500Y-96312500D02*
X166703500Y-96312500D01*
X165919999Y-95373500D02*
X166219499Y-95074000D01*
X166219499Y-95074000D02*
X166219500Y-95673500D01*
X166219500Y-95673500D02*
X165919999Y-95373500D01*
%TO.C,U8*%
D12*
X134805417Y-93922500D02*
X134805417Y-95822500D01*
X134805417Y-95822500D02*
X136705417Y-95822500D01*
X136705417Y-93922500D02*
X134805417Y-93922500D01*
X136705417Y-95822500D02*
X136705417Y-93922500D01*
X136905417Y-93722500D02*
X136105417Y-93722500D01*
X136905417Y-93722500D02*
X136905417Y-94522500D01*
%TO.C,F1*%
D14*
X171559417Y-89234500D02*
X171559417Y-87964500D01*
X171559417Y-90250500D02*
X171559417Y-91520500D01*
D15*
X173337417Y-87683500D02*
X171813417Y-87683500D01*
X173337417Y-91801500D02*
X171813417Y-91801500D01*
D14*
X173591417Y-87964500D02*
X173591417Y-89198000D01*
X173591417Y-91520500D02*
X173591417Y-90250500D01*
D15*
X172575417Y-89742500D02*
G75*
G02*
X172194417Y-89742500I-190500J0D01*
G01*
X172575417Y-89742500D02*
G75*
G02*
X172956417Y-89742500I190500J0D01*
G01*
%TO.C,U3*%
D12*
X175507917Y-95202501D02*
X177327917Y-95202501D01*
X175507917Y-95252501D02*
X175507917Y-95202501D01*
X175507917Y-98322501D02*
X175507917Y-98272501D01*
X177327917Y-95202501D02*
X177327917Y-95252501D01*
X177327917Y-98272501D02*
X177327917Y-98322501D01*
X177327917Y-98322501D02*
X175507917Y-98322501D01*
X178107917Y-98602501D02*
X177627917Y-98602501D01*
X177867917Y-98272501D01*
X178107917Y-98602501D01*
G36*
X178107917Y-98602501D02*
G01*
X177627917Y-98602501D01*
X177867917Y-98272501D01*
X178107917Y-98602501D01*
G37*
%TO.C,R21*%
X146069056Y-82692499D02*
X145761777Y-82692498D01*
X146069057Y-81932502D02*
X145761778Y-81932501D01*
%TO.C,D15*%
D13*
X148105417Y-105239000D02*
X148105417Y-106206000D01*
X148744417Y-105722000D02*
X149044417Y-105422499D01*
X149044417Y-105422499D02*
X149343917Y-105721999D01*
X149343917Y-105721999D02*
X148744417Y-105722000D01*
X150105417Y-105239000D02*
X150105417Y-106206000D01*
%TO.C,R11*%
D12*
X150455417Y-78846141D02*
X150455417Y-78538859D01*
X151215417Y-78846141D02*
X151215417Y-78538859D01*
%TO.C,D19*%
X179922917Y-93202500D02*
X177262917Y-93202500D01*
X179922917Y-94902500D02*
X177262917Y-94902500D01*
X179922917Y-94902500D02*
X179922917Y-93202500D01*
%TO.C,D22*%
D13*
X160165417Y-85276000D02*
X160165417Y-84309000D01*
X160926917Y-84793001D02*
X161526417Y-84793000D01*
X161226417Y-85092501D02*
X160926917Y-84793001D01*
X161526417Y-84793000D02*
X161226417Y-85092501D01*
X162165417Y-85276000D02*
X162165417Y-84309000D01*
%TO.C,D5*%
X138851007Y-79404779D02*
X139534779Y-78721007D01*
X139731001Y-79601709D02*
X140154912Y-80025619D01*
X139731001Y-80025266D02*
X139731001Y-79601709D01*
X140154912Y-80025619D02*
X139731001Y-80025266D01*
X140265221Y-80818993D02*
X140948993Y-80135221D01*
%TO.C,R25*%
D12*
X130905418Y-85856140D02*
X130905419Y-85548859D01*
X131665417Y-85856141D02*
X131665418Y-85548860D01*
%TO.C,U5*%
D16*
X168170417Y-90352500D02*
X168170418Y-92352500D01*
X168170418Y-92352500D02*
X169420417Y-92352500D01*
X169420417Y-92352500D02*
X169420418Y-90352500D01*
X169420418Y-90352500D02*
X168170417Y-90352500D01*
%TO.C,D4*%
D13*
X146945417Y-74976000D02*
X146945417Y-74009000D01*
X147706917Y-74493000D02*
X148306417Y-74493000D01*
X148006417Y-74792500D02*
X147706917Y-74493000D01*
X148306417Y-74493000D02*
X148006417Y-74792500D01*
X148945417Y-74976000D02*
X148945417Y-74009000D01*
%TO.C,D11*%
X170474779Y-109615974D02*
X169791007Y-110299746D01*
X170585088Y-110409348D02*
X171008999Y-110409701D01*
X171008999Y-110409701D02*
X171008999Y-110833258D01*
X171008999Y-110833258D02*
X170585088Y-110409348D01*
X171888993Y-111030188D02*
X171205221Y-111713960D01*
%TO.C,D20*%
D12*
X155905420Y-91787501D02*
X159790416Y-91787501D01*
X159790416Y-91787501D02*
X159790420Y-89517501D01*
X159790420Y-89517501D02*
X155905418Y-89517504D01*
%TO.C,D9*%
D13*
X148350500Y-115753967D02*
X148650001Y-116053967D01*
X148350501Y-116353467D02*
X148350500Y-115753967D01*
X148650001Y-116053967D02*
X148350501Y-116353467D01*
X148833500Y-115114967D02*
X147866500Y-115114967D01*
X148833500Y-117114967D02*
X147866500Y-117114967D01*
%TO.C,D16*%
X142190000Y-94846500D02*
X142190000Y-95813500D01*
X142829000Y-95329500D02*
X143129000Y-95029999D01*
X143129000Y-95029999D02*
X143428500Y-95329499D01*
X143428500Y-95329499D02*
X142829000Y-95329500D01*
X144190000Y-94846500D02*
X144190000Y-95813500D01*
%TO.C,J10*%
D12*
X150485417Y-69792500D02*
X150485417Y-71492500D01*
X159825417Y-69792500D02*
X159825417Y-71492500D01*
%TO.C,D14*%
D13*
X160260451Y-106386000D02*
X160260451Y-105419000D01*
X161021951Y-105903001D02*
X161621451Y-105903000D01*
X161321451Y-106202501D02*
X161021951Y-105903001D01*
X161621451Y-105903000D02*
X161321451Y-106202501D01*
X162260451Y-106386000D02*
X162260451Y-105419000D01*
%TO.C,R14*%
D12*
X164415417Y-87678859D02*
X164415417Y-87986141D01*
X165175417Y-87678859D02*
X165175417Y-87986141D01*
%TO.C,R22*%
X144905358Y-79665161D02*
X144688079Y-79882440D01*
X145442755Y-80202560D02*
X145225476Y-80419839D01*
%TO.C,D7*%
D13*
X134740196Y-101511493D02*
X134056424Y-100827721D01*
X134937126Y-100631499D02*
X135361036Y-100207588D01*
X135360683Y-100631499D02*
X134937126Y-100631499D01*
X135361036Y-100207588D02*
X135360683Y-100631499D01*
X136154410Y-100097279D02*
X135470638Y-99413507D01*
%TO.C,R4*%
D12*
X178787916Y-96403642D02*
X178787916Y-96096360D01*
X179547916Y-96403642D02*
X179547916Y-96096360D01*
%TO.C,C29*%
X143885998Y-91202500D02*
X143604836Y-91202501D01*
X143885998Y-92222499D02*
X143604836Y-92222500D01*
%TO.C,R1*%
X156871776Y-74002500D02*
X157179058Y-74002500D01*
X156871776Y-74762500D02*
X157179058Y-74762500D01*
%TO.C,U2*%
D17*
X147255412Y-94792500D02*
X149655415Y-94792500D01*
X147255415Y-96992500D02*
X147255412Y-94792500D01*
X149655415Y-94792500D02*
X149655418Y-96992500D01*
X149655418Y-96992500D02*
X147255415Y-96992500D01*
X149596834Y-94392500D02*
G75*
G02*
X149313996Y-94392500I-141419J0D01*
G01*
X149313996Y-94392500D02*
G75*
G02*
X149596834Y-94392500I141419J0D01*
G01*
%TO.C,D2*%
D13*
X169776424Y-80157721D02*
X170460196Y-80841493D01*
X170569798Y-80047412D02*
X170570151Y-79623501D01*
X170570151Y-79623501D02*
X170993708Y-79623501D01*
X170993708Y-79623501D02*
X170569798Y-80047412D01*
X171190638Y-78743507D02*
X171874410Y-79427279D01*
%TO.C,C22*%
D12*
X176060821Y-85981232D02*
X177066681Y-86987095D01*
X177984153Y-84057905D02*
X178990013Y-85063768D01*
%TO.C,R24*%
X130905418Y-87806141D02*
X130905419Y-87498860D01*
X131665417Y-87806142D02*
X131665418Y-87498861D01*
%TO.C,C1*%
X143743697Y-76020883D02*
X142737832Y-77026747D01*
X145667034Y-77944215D02*
X144661169Y-78950079D01*
%TO.C,U7*%
X143850417Y-86287500D02*
X143850417Y-85562500D01*
X143850417Y-87782500D02*
X143850419Y-87057503D01*
X146120417Y-87057500D02*
X146120417Y-87782500D01*
X146120418Y-86075623D02*
X146120415Y-86287497D01*
X146455416Y-86022502D02*
X146125416Y-85782498D01*
X146455417Y-85542500D01*
X146455416Y-86022502D01*
G36*
X146455416Y-86022502D02*
G01*
X146125416Y-85782498D01*
X146455417Y-85542500D01*
X146455416Y-86022502D01*
G37*
%TO.C,Q1*%
X160465417Y-87352500D02*
X161985417Y-87352500D01*
X160465417Y-88352500D02*
X160465417Y-87352500D01*
X160465417Y-90472500D02*
X160465417Y-89472500D01*
X161985417Y-87352500D02*
X161985417Y-87402500D01*
X161985417Y-88522500D02*
X161985417Y-89302500D01*
X161985417Y-90422500D02*
X161985417Y-90472500D01*
X161985417Y-90472500D02*
X160465417Y-90472500D01*
X162525417Y-89292500D02*
X162285417Y-88962500D01*
X162765417Y-88962500D01*
X162525417Y-89292500D01*
G36*
X162525417Y-89292500D02*
G01*
X162285417Y-88962500D01*
X162765417Y-88962500D01*
X162525417Y-89292500D01*
G37*
%TO.C,C25*%
X143707581Y-82032500D02*
X143923253Y-82032500D01*
X143707581Y-82752500D02*
X143923253Y-82752500D01*
%TO.C,R19*%
X135581776Y-92282500D02*
X135889058Y-92282500D01*
X135581776Y-93042500D02*
X135889058Y-93042500D01*
%TO.C,R12*%
X164151776Y-85962500D02*
X164459058Y-85962500D01*
X164151776Y-86722500D02*
X164459058Y-86722500D01*
%TD*%
%LPC*%
D18*
%TO.C,C27*%
X131275417Y-92502500D03*
X131275417Y-93462500D03*
%TD*%
D19*
%TO.C,R18*%
X142365418Y-83302500D03*
X142365416Y-84322500D03*
%TD*%
D20*
%TO.C,R23*%
X162545416Y-94902500D03*
X162545418Y-93882500D03*
%TD*%
D21*
%TO.C,U6*%
X157695417Y-78102500D03*
D22*
X155155417Y-78102500D03*
X152615417Y-78102500D03*
%TD*%
D23*
%TO.C,J4*%
X173079124Y-106193973D03*
X173963007Y-105310088D03*
X174846891Y-104426206D03*
D24*
X174033717Y-109764866D03*
X178417782Y-105380800D03*
%TD*%
D20*
%TO.C,R13*%
X163765417Y-88342497D03*
X163765417Y-87322499D03*
%TD*%
D25*
%TO.C,J7*%
X142345890Y-100948147D03*
X143229772Y-101832028D03*
D26*
X138774998Y-101902743D03*
X142275176Y-105402921D03*
%TD*%
D19*
%TO.C,R20*%
X134195418Y-93562500D03*
X134195416Y-94582500D03*
%TD*%
D27*
%TO.C,D21*%
X148616000Y-85805000D03*
X149390000Y-85805000D03*
X150164000Y-85805000D03*
X150164000Y-83855000D03*
X149390000Y-83855000D03*
X148616000Y-83855000D03*
%TD*%
D28*
%TO.C,R26*%
X169334793Y-82723124D03*
X170056041Y-82001876D03*
%TD*%
D29*
%TO.C,R27*%
X178255417Y-92162500D03*
X179275417Y-92162500D03*
%TD*%
D19*
%TO.C,R3*%
X175815417Y-92142501D03*
X175815417Y-93162499D03*
%TD*%
D27*
%TO.C,D3*%
X161466000Y-75495000D03*
X162240000Y-75495000D03*
X163014000Y-75495000D03*
X163014000Y-73545000D03*
X162240000Y-73545000D03*
X161466000Y-73545000D03*
%TD*%
D30*
%TO.C,C26*%
X138225417Y-87542500D03*
X138225417Y-89442500D03*
%TD*%
D31*
%TO.C,D17*%
X139115418Y-84720001D03*
X141015417Y-84720000D03*
X140065417Y-82845000D03*
%TD*%
D32*
%TO.C,D10*%
X161110000Y-115430000D03*
X161110000Y-116204000D03*
X161110000Y-116978000D03*
X163060000Y-116978000D03*
X163060000Y-116204000D03*
X163060000Y-115430000D03*
%TD*%
D33*
%TO.C,C28*%
X136207409Y-98124492D03*
X137303425Y-99220508D03*
%TD*%
D27*
%TO.C,D12*%
X175011417Y-101627500D03*
X175785417Y-101627500D03*
X176559417Y-101627500D03*
X176559417Y-99677500D03*
X175785417Y-99677500D03*
X175011417Y-99677500D03*
%TD*%
%TO.C,D1*%
X175056000Y-90855000D03*
X175830000Y-90855000D03*
X176604000Y-90855000D03*
X176604000Y-88905000D03*
X175830000Y-88905000D03*
X175056000Y-88905000D03*
%TD*%
D29*
%TO.C,R2*%
X152835418Y-74382500D03*
X153855416Y-74382500D03*
%TD*%
D34*
%TO.C,C23*%
X176227917Y-94200000D03*
X175267917Y-94200000D03*
%TD*%
D35*
%TO.C,D18*%
X144283234Y-99580319D03*
X142727600Y-98024681D03*
%TD*%
D27*
%TO.C,D6*%
X135484000Y-88935000D03*
X134710000Y-88935000D03*
X133936000Y-88935000D03*
X133936000Y-90885000D03*
X134710000Y-90885000D03*
X135484000Y-90885000D03*
%TD*%
D36*
%TO.C,D8*%
X139392706Y-109566353D03*
X138845405Y-110113654D03*
X138298104Y-110660955D03*
X139676962Y-112039813D03*
X140224263Y-111492512D03*
X140771564Y-110945211D03*
%TD*%
D32*
%TO.C,D13*%
X167195000Y-96086500D03*
X167195000Y-95312500D03*
X167195000Y-94538500D03*
X165245000Y-94538500D03*
X165245000Y-95312500D03*
X165245000Y-96086500D03*
%TD*%
D37*
%TO.C,U8*%
X136255417Y-94372500D03*
X136255417Y-94872502D03*
X136255417Y-95372500D03*
X135755419Y-94372500D03*
X135755417Y-94872500D03*
X135755415Y-95372500D03*
X135255417Y-94372500D03*
X135255417Y-94872498D03*
X135255417Y-95372500D03*
%TD*%
D38*
%TO.C,F1*%
X172575417Y-88642500D03*
X172575417Y-90842500D03*
%TD*%
D39*
%TO.C,U3*%
X177555417Y-97712500D03*
X177555417Y-96762501D03*
X177555417Y-95812502D03*
X175280417Y-95812502D03*
X175280417Y-96762501D03*
X175280417Y-97712500D03*
%TD*%
D40*
%TO.C,R21*%
X146425417Y-82312501D03*
X145405417Y-82312499D03*
%TD*%
D27*
%TO.C,D15*%
X148331417Y-106697500D03*
X149105417Y-106697500D03*
X149879417Y-106697500D03*
X149879417Y-104747500D03*
X149105417Y-104747500D03*
X148331417Y-104747500D03*
%TD*%
D20*
%TO.C,R11*%
X150835417Y-79202500D03*
X150835417Y-78182500D03*
%TD*%
D41*
%TO.C,U4*%
X157392282Y-106825181D03*
X158682282Y-106825181D03*
D42*
X158022282Y-104335181D03*
X158032282Y-101755181D03*
X157912282Y-96615181D03*
X157912282Y-94070000D03*
X157932282Y-86315181D03*
D41*
X151900000Y-83910000D03*
X153240000Y-83910000D03*
X151900000Y-86450000D03*
X153240000Y-86450000D03*
X151900000Y-88990000D03*
X153240000Y-88989999D03*
X151900000Y-91530000D03*
X153240000Y-91530000D03*
X151900000Y-94070000D03*
X153240000Y-94070000D03*
X151900000Y-96610000D03*
X153240000Y-96610000D03*
X151900000Y-99150000D03*
X153240000Y-99150000D03*
X151900000Y-104230000D03*
X153240000Y-104230000D03*
D43*
X151900000Y-106770000D03*
X153240000Y-106770000D03*
%TD*%
D44*
%TO.C,D19*%
X179412916Y-94052500D03*
X177212918Y-94052500D03*
%TD*%
D27*
%TO.C,D22*%
X161939417Y-83817500D03*
X161165417Y-83817500D03*
X160391417Y-83817500D03*
X160391417Y-85767500D03*
X161165417Y-85767500D03*
X161939417Y-85767500D03*
%TD*%
D45*
%TO.C,D5*%
X141136730Y-79627872D03*
X140589429Y-79080571D03*
X140042128Y-78533270D03*
X138663270Y-79912128D03*
X139210571Y-80459429D03*
X139757872Y-81006730D03*
%TD*%
D20*
%TO.C,R25*%
X131285417Y-86212500D03*
X131285419Y-85192500D03*
%TD*%
D46*
%TO.C,U5*%
X168445417Y-92302500D03*
X169145417Y-92302500D03*
D47*
X169145417Y-90452500D03*
D46*
X168445417Y-90402500D03*
%TD*%
D27*
%TO.C,D4*%
X148719417Y-73517500D03*
X147945417Y-73517500D03*
X147171417Y-73517500D03*
X147171417Y-75467500D03*
X147945417Y-75467500D03*
X148719417Y-75467500D03*
%TD*%
D48*
%TO.C,D11*%
X169603270Y-110807095D03*
X170150571Y-111354396D03*
X170697872Y-111901697D03*
X172076730Y-110522839D03*
X171529429Y-109975538D03*
X170982128Y-109428237D03*
%TD*%
D49*
%TO.C,D20*%
X158905417Y-90652500D03*
X156105423Y-90652502D03*
%TD*%
D32*
%TO.C,D9*%
X147375000Y-115340967D03*
X147375000Y-116114967D03*
X147375000Y-116888967D03*
X149325000Y-116888967D03*
X149325000Y-116114967D03*
X149325000Y-115340967D03*
%TD*%
D27*
%TO.C,D16*%
X142416000Y-96305000D03*
X143190000Y-96305000D03*
X143964000Y-96305000D03*
X143964000Y-94355000D03*
X143190000Y-94355000D03*
X142416000Y-94355000D03*
%TD*%
D50*
%TO.C,J10*%
X155655417Y-72622499D03*
D51*
X153635417Y-72622500D03*
D52*
X152405417Y-72622500D03*
D53*
X154655417Y-72622499D03*
D54*
X156675417Y-72622500D03*
D55*
X157905417Y-72622500D03*
D56*
X159475417Y-72542500D03*
X159475417Y-68742500D03*
X150835417Y-72542500D03*
X150835417Y-68742500D03*
%TD*%
D27*
%TO.C,D14*%
X162034451Y-104927500D03*
X161260451Y-104927500D03*
X160486451Y-104927500D03*
X160486451Y-106877500D03*
X161260451Y-106877500D03*
X162034451Y-106877500D03*
%TD*%
D19*
%TO.C,R14*%
X164795417Y-87322501D03*
X164795417Y-88342499D03*
%TD*%
D57*
%TO.C,R22*%
X145426042Y-79681876D03*
X144704792Y-80403124D03*
%TD*%
D36*
%TO.C,D7*%
X134963289Y-99225770D03*
X134415988Y-99773071D03*
X133868687Y-100320372D03*
X135247545Y-101699230D03*
X135794846Y-101151929D03*
X136342147Y-100604628D03*
%TD*%
D20*
%TO.C,R4*%
X179167916Y-96760000D03*
X179167916Y-95740002D03*
%TD*%
D58*
%TO.C,C29*%
X144520418Y-91712500D03*
X142970416Y-91712500D03*
%TD*%
D29*
%TO.C,R1*%
X156515418Y-74382500D03*
X157535416Y-74382500D03*
%TD*%
D59*
%TO.C,U2*%
X149270416Y-95142499D03*
D60*
X148705414Y-95077502D03*
X148205417Y-95077502D03*
D59*
X147640415Y-95142498D03*
X147640417Y-95642501D03*
X147640417Y-96142498D03*
X147640414Y-96642501D03*
D60*
X148205416Y-96707498D03*
X148705413Y-96707498D03*
D59*
X149270415Y-96642502D03*
X149270413Y-96142499D03*
X149270413Y-95642502D03*
%TD*%
D61*
%TO.C,D2*%
X170967545Y-81029230D03*
X171514846Y-80481929D03*
X172062147Y-79934628D03*
X170683289Y-78555770D03*
X170135988Y-79103071D03*
X169588687Y-79650372D03*
%TD*%
D62*
%TO.C,C22*%
X176482434Y-84479517D03*
X178568400Y-86565483D03*
%TD*%
D20*
%TO.C,R24*%
X131285417Y-88162501D03*
X131285419Y-87142501D03*
%TD*%
D63*
%TO.C,C1*%
X145245417Y-76442500D03*
X143159449Y-78528462D03*
%TD*%
D64*
%TO.C,U7*%
X145735417Y-85785002D03*
X145235419Y-85785002D03*
X144735417Y-85785003D03*
X144235419Y-85785003D03*
D65*
X144097917Y-86672500D03*
D64*
X144235417Y-87559998D03*
X144735415Y-87559998D03*
X145235417Y-87559997D03*
X145735415Y-87559997D03*
D65*
X145872917Y-86672500D03*
%TD*%
D66*
%TO.C,Q1*%
X162162917Y-89862500D03*
X162162917Y-87962500D03*
X160287916Y-88912500D03*
%TD*%
D67*
%TO.C,C25*%
X143335417Y-82392500D03*
X144295417Y-82392500D03*
%TD*%
D29*
%TO.C,R19*%
X135225417Y-92662500D03*
X136245417Y-92662500D03*
%TD*%
%TO.C,R12*%
X163795418Y-86342500D03*
X164815416Y-86342500D03*
%TD*%
%LPD*%
M02*
