%TF.GenerationSoftware,KiCad,Pcbnew,10.0.1*%
%TF.CreationDate,2026-06-21T18:29:30+02:00*%
%TF.ProjectId,beelight-piggy-base,6265656c-6967-4687-942d-70696767792d,rev?*%
%TF.SameCoordinates,Original*%
%TF.FileFunction,Legend,Bot*%
%TF.FilePolarity,Positive*%
%FSLAX46Y46*%
G04 Gerber Fmt 4.6, Leading zero omitted, Abs format (unit mm)*
G04 Created by KiCad (PCBNEW 10.0.1) date 2026-06-21 18:29:30*
%MOMM*%
%LPD*%
G01*
G04 APERTURE LIST*
G04 Aperture macros list*
%AMRoundRect*
0 Rectangle with rounded corners*
0 $1 Rounding radius*
0 $2 $3 $4 $5 $6 $7 $8 $9 X,Y pos of 4 corners*
0 Add a 4 corners polygon primitive as box body*
4,1,4,$2,$3,$4,$5,$6,$7,$8,$9,$2,$3,0*
0 Add four circle primitives for the rounded corners*
1,1,$1+$1,$2,$3*
1,1,$1+$1,$4,$5*
1,1,$1+$1,$6,$7*
1,1,$1+$1,$8,$9*
0 Add four rect primitives between the rounded corners*
20,1,$1+$1,$2,$3,$4,$5,0*
20,1,$1+$1,$4,$5,$6,$7,0*
20,1,$1+$1,$6,$7,$8,$9,0*
20,1,$1+$1,$8,$9,$2,$3,0*%
G04 Aperture macros list end*
%ADD10C,0.150000*%
%ADD11C,0.120000*%
%ADD12RoundRect,0.250200X0.887643X0.237843X-0.237843X0.887643X-0.887643X-0.237843X0.237843X-0.887643X0*%
%ADD13C,1.800000*%
%ADD14C,1.700000*%
%ADD15R,4.000000X2.000000*%
%ADD16R,1.700000X1.700000*%
%ADD17O,1.100000X1.700000*%
%ADD18RoundRect,0.250000X-0.671751X1.626346X-1.626346X0.671751X0.671751X-1.626346X1.626346X-0.671751X0*%
%ADD19RoundRect,0.250000X1.856155X0.477297X0.477297X1.856155X-1.856155X-0.477297X-0.477297X-1.856155X0*%
%ADD20RoundRect,0.250000X-0.262500X-0.450000X0.262500X-0.450000X0.262500X0.450000X-0.262500X0.450000X0*%
%ADD21RoundRect,0.200000X-0.424264X0.707107X-0.707107X0.424264X0.424264X-0.707107X0.707107X-0.424264X0*%
G04 APERTURE END LIST*
D10*
X143645021Y-73467194D02*
X144150097Y-73972270D01*
X144150097Y-73972270D02*
X144284784Y-74039614D01*
X144284784Y-74039614D02*
X144419471Y-74039614D01*
X144419471Y-74039614D02*
X144554158Y-73972270D01*
X144554158Y-73972270D02*
X144621502Y-73904927D01*
X143375647Y-73736568D02*
X142937914Y-74174301D01*
X142937914Y-74174301D02*
X143442990Y-74207973D01*
X143442990Y-74207973D02*
X143341975Y-74308988D01*
X143341975Y-74308988D02*
X143308303Y-74410003D01*
X143308303Y-74410003D02*
X143308303Y-74477347D01*
X143308303Y-74477347D02*
X143341975Y-74578362D01*
X143341975Y-74578362D02*
X143510334Y-74746721D01*
X143510334Y-74746721D02*
X143611349Y-74780392D01*
X143611349Y-74780392D02*
X143678692Y-74780392D01*
X143678692Y-74780392D02*
X143779708Y-74746721D01*
X143779708Y-74746721D02*
X143981738Y-74544690D01*
X143981738Y-74544690D02*
X144015410Y-74443675D01*
X144015410Y-74443675D02*
X144015410Y-74376331D01*
X167448591Y-74354163D02*
X166943515Y-74859239D01*
X166943515Y-74859239D02*
X166876171Y-74993926D01*
X166876171Y-74993926D02*
X166876171Y-75128613D01*
X166876171Y-75128613D02*
X166943515Y-75263300D01*
X166943515Y-75263300D02*
X167010858Y-75330644D01*
X166034377Y-74354163D02*
X166438438Y-74758224D01*
X166236408Y-74556193D02*
X166943515Y-73849086D01*
X166943515Y-73849086D02*
X166909843Y-74017445D01*
X166909843Y-74017445D02*
X166909843Y-74152132D01*
X166909843Y-74152132D02*
X166943515Y-74253147D01*
X165360942Y-73680728D02*
X165765003Y-74084789D01*
X165562973Y-73882758D02*
X166270080Y-73175651D01*
X166270080Y-73175651D02*
X166236408Y-73344010D01*
X166236408Y-73344010D02*
X166236408Y-73478697D01*
X166236408Y-73478697D02*
X166270080Y-73579712D01*
X156318630Y-76017319D02*
X155747202Y-76017319D01*
X156032916Y-77017319D02*
X156032916Y-76017319D01*
X155413868Y-77017319D02*
X155413868Y-76017319D01*
X155413868Y-76493509D02*
X154842440Y-76493509D01*
X154842440Y-77017319D02*
X154842440Y-76017319D01*
X153842440Y-77017319D02*
X154413868Y-77017319D01*
X154128154Y-77017319D02*
X154128154Y-76017319D01*
X154128154Y-76017319D02*
X154223392Y-76160176D01*
X154223392Y-76160176D02*
X154318630Y-76255414D01*
X154318630Y-76255414D02*
X154413868Y-76303033D01*
X137485169Y-75236635D02*
X137417826Y-75371322D01*
X137417826Y-75371322D02*
X137249467Y-75539680D01*
X137249467Y-75539680D02*
X137148452Y-75573352D01*
X137148452Y-75573352D02*
X137081108Y-75573352D01*
X137081108Y-75573352D02*
X136980093Y-75539680D01*
X136980093Y-75539680D02*
X136912749Y-75472337D01*
X136912749Y-75472337D02*
X136879078Y-75371322D01*
X136879078Y-75371322D02*
X136879078Y-75303978D01*
X136879078Y-75303978D02*
X136912749Y-75202963D01*
X136912749Y-75202963D02*
X137013765Y-75034604D01*
X137013765Y-75034604D02*
X137047436Y-74933589D01*
X137047436Y-74933589D02*
X137047436Y-74866245D01*
X137047436Y-74866245D02*
X137013765Y-74765230D01*
X137013765Y-74765230D02*
X136946421Y-74697887D01*
X136946421Y-74697887D02*
X136845406Y-74664215D01*
X136845406Y-74664215D02*
X136778062Y-74664215D01*
X136778062Y-74664215D02*
X136677047Y-74697887D01*
X136677047Y-74697887D02*
X136508688Y-74866245D01*
X136508688Y-74866245D02*
X136441345Y-75000932D01*
X136171971Y-75202963D02*
X136710719Y-76078429D01*
X136710719Y-76078429D02*
X136070955Y-75708039D01*
X136070955Y-75708039D02*
X136441345Y-76347803D01*
X136441345Y-76347803D02*
X135565879Y-75809055D01*
X135633223Y-77155924D02*
X136037284Y-76751863D01*
X135835253Y-76953894D02*
X135128147Y-76246787D01*
X135128147Y-76246787D02*
X135296505Y-76280459D01*
X135296505Y-76280459D02*
X135431192Y-76280459D01*
X135431192Y-76280459D02*
X135532208Y-76246787D01*
%TO.C,J3*%
D11*
X142447782Y-76418315D02*
X146732849Y-72133248D01*
X146732849Y-72133248D02*
X149752194Y-75152595D01*
X149752194Y-75152595D02*
X145467127Y-79437660D01*
%TO.C,J11*%
X166508347Y-81270135D02*
X159387783Y-74149572D01*
X169563051Y-78215428D02*
X166508347Y-81270135D01*
%TO.C,TH1*%
X154805853Y-74177500D02*
X155259981Y-74177500D01*
X154805853Y-75647500D02*
X155259981Y-75647500D01*
%TO.C,SW1*%
X135271550Y-77836054D02*
X135483680Y-78048184D01*
X137279732Y-79844238D02*
X137491861Y-80056368D01*
X137491861Y-80056368D02*
X140419284Y-77128946D01*
X138198973Y-74908632D02*
X135271550Y-77836054D01*
X138411102Y-75120762D02*
X138198973Y-74908632D01*
X140419284Y-77128946D02*
X140207154Y-76916816D01*
%TD*%
%LPC*%
D12*
%TO.C,U6*%
X170305417Y-74872500D03*
D13*
X168105710Y-73602496D03*
X165906008Y-72332500D03*
%TD*%
D14*
%TO.C,U4*%
X157392282Y-106825181D03*
X158682282Y-106825181D03*
D15*
X158022282Y-104335181D03*
X158032282Y-101755181D03*
X157912282Y-96615181D03*
X157912282Y-94070000D03*
X157932282Y-86315181D03*
D14*
X151900000Y-83910000D03*
X153240000Y-83910000D03*
X151900000Y-86450000D03*
X153240000Y-86450000D03*
X151900000Y-88990000D03*
X153240000Y-88989999D03*
X151900000Y-91530000D03*
X153240000Y-91530000D03*
X151900000Y-94070000D03*
X153240000Y-94070000D03*
X151900000Y-96610000D03*
X153240000Y-96610000D03*
X151900000Y-99150000D03*
X153240000Y-99150000D03*
X151900000Y-104230000D03*
X153240000Y-104230000D03*
D16*
X151900000Y-106770000D03*
X153240000Y-106770000D03*
%TD*%
D17*
%TO.C,J10*%
X159475417Y-72542500D03*
X159475417Y-68742500D03*
X150835417Y-72542500D03*
X150835417Y-68742500D03*
%TD*%
D18*
%TO.C,J3*%
X147404600Y-74480842D03*
X144187264Y-77698178D03*
%TD*%
D19*
%TO.C,J11*%
X166985646Y-78692729D03*
X164475417Y-76182500D03*
X161965188Y-73672271D03*
%TD*%
D20*
%TO.C,TH1*%
X154120417Y-74912500D03*
X155945417Y-74912500D03*
%TD*%
D21*
%TO.C,SW1*%
X139330341Y-75997576D03*
X136360493Y-78967424D03*
%TD*%
%LPD*%
M02*
